<svg xmlns="http://www.w3.org/2000/svg" viewBox="0 0 750 500"><g id="freepik--background-complete--inject-3"><polygon points="654.68 255.61 653.9 246.84 690 249.5 690 255.61 654.68 255.61" style="fill:#fafafa"></polygon><polygon points="655.91 246.99 655.91 241.89 689.47 241.89 688.8 249.41 655.91 246.99" style="fill:#fafafa"></polygon><polygon points="652.6 237.19 653.29 241.89 686.43 241.89 686.43 237.19 652.6 237.19" style="fill:#fafafa"></polygon><g style="opacity:0.29"><polygon points="655.91 241.89 655.91 242.99 688.31 241.89 655.91 241.89" style="fill:#e0e0e0"></polygon></g><g style="opacity:0.29"><polygon points="655.91 246.99 688.8 249.41 688.91 248.2 655.91 246.99" style="fill:#e0e0e0"></polygon></g><g style="opacity:0.29"><polygon points="673.99 245.01 679.68 244.29 688.31 245.01 673.99 245.01" style="fill:#e0e0e0"></polygon></g><g style="opacity:0.29"><polygon points="654.36 251.97 665.09 251.97 654.42 252.73 654.36 251.97" style="fill:#e0e0e0"></polygon></g><g style="opacity:0.29"><path d="M664.35,239.54l22.08-.69C686.45,239.38,664.35,239.54,664.35,239.54Z" style="fill:#e0e0e0"></path></g><rect x="626.7" y="206.12" width="5.04" height="37.73" transform="translate(404.23 854.21) rotate(-90)" style="fill:#e0e0e0"></rect><path d="M615.5,222.68a12.22,12.22,0,0,1,0,4.72,11.72,11.72,0,0,1,0-4.72Z" style="fill:#fafafa"></path><path d="M614.68,222.57a12.27,12.27,0,0,1,0,4.73,11.77,11.77,0,0,1,0-4.73Z" style="fill:#fafafa"></path><path d="M645.17,222.68a11.72,11.72,0,0,1,0,4.72,11.72,11.72,0,0,1,0-4.72Z" style="fill:#fafafa"></path><path d="M644.35,222.57a11.77,11.77,0,0,1,0,4.73,11.77,11.77,0,0,1,0-4.73Z" style="fill:#fafafa"></path><path d="M639.42,225.14c0,.13-4.32.24-9.65.24s-9.65-.11-9.65-.24,4.32-.24,9.65-.24S639.42,225,639.42,225.14Z" style="fill:#fafafa"></path><rect x="624.02" y="231.34" width="10.08" height="37.73" transform="translate(378.86 879.26) rotate(-90)" style="fill:#e0e0e0"></rect><path d="M648.41,252.41l-.21.11c-.14.08-.35.17-.63.29a10.44,10.44,0,0,1-2.55.73,6.64,6.64,0,0,1-4.15-.59,5.56,5.56,0,0,1-2-1.78,4.17,4.17,0,0,1-.68-2.91,3.07,3.07,0,0,1,.69-1.5,2,2,0,0,1,1.59-.72,2.31,2.31,0,0,1,1.6.86,3.17,3.17,0,0,1,.73,1.72,4.56,4.56,0,0,1-1.3,3.57,5.75,5.75,0,0,1-3.63,1.78,9.64,9.64,0,0,1-4.2-.53A7.73,7.73,0,0,1,630,251a4,4,0,0,1-.86-2.17,2.85,2.85,0,0,1,.8-2.27,1.85,1.85,0,0,1,1.18-.52,2.21,2.21,0,0,1,1.24.35,3.29,3.29,0,0,1,1.39,2,4.77,4.77,0,0,1-1.49,4.44,7.52,7.52,0,0,1-4.25,1.73,10.5,10.5,0,0,1-4.4-.44,6,6,0,0,1-3.35-2.6,4.47,4.47,0,0,1-.42-4,2.12,2.12,0,0,1,1.54-1.3,2.42,2.42,0,0,1,1.9.46,3.16,3.16,0,0,1,.9,3.4,5.86,5.86,0,0,1-1.91,2.67,8.45,8.45,0,0,1-5.17,2,8.38,8.38,0,0,1-6.24-2.51,4.74,4.74,0,0,1-.45-.53.89.89,0,0,1-.13-.19,9.66,9.66,0,0,0,2.8,2.14,8.18,8.18,0,0,0,9-1.17,5.51,5.51,0,0,0,1.76-2.53,2.78,2.78,0,0,0-.78-3,2,2,0,0,0-1.59-.37,1.68,1.68,0,0,0-1.23,1.07,4,4,0,0,0,.41,3.61,5.64,5.64,0,0,0,3.12,2.4,10.05,10.05,0,0,0,4.21.4,7,7,0,0,0,4-1.61,4.29,4.29,0,0,0,1.34-4,2.84,2.84,0,0,0-1.17-1.74,1.45,1.45,0,0,0-1.84.12,2.33,2.33,0,0,0-.66,1.88,3.51,3.51,0,0,0,.76,1.93,7.36,7.36,0,0,0,3.45,2.33,9.28,9.28,0,0,0,4,.51,5.33,5.33,0,0,0,3.38-1.62,4.16,4.16,0,0,0,1.21-3.25,2.4,2.4,0,0,0-2-2.25,1.6,1.6,0,0,0-1.31.59,2.65,2.65,0,0,0-.62,1.32,3.82,3.82,0,0,0,.61,2.68,5.18,5.18,0,0,0,1.84,1.72,6.55,6.55,0,0,0,4,.64,12.22,12.22,0,0,0,2.55-.64C648.11,252.52,648.4,252.39,648.41,252.41Z" style="fill:#fafafa"></path><rect x="622" y="219.22" width="17.49" height="34.36" transform="translate(394.34 867.14) rotate(-90)" style="fill:#ebebeb"></rect><path d="M619.27,228.25a75.63,75.63,0,0,1,.24,8.47,75.52,75.52,0,0,1-.24,8.46,75.52,75.52,0,0,1-.24-8.46A75.63,75.63,0,0,1,619.27,228.25Z" style="fill:#e0e0e0"></path><path d="M621.88,228a75.13,75.13,0,0,1,.23,8.35,75.25,75.25,0,0,1-.23,8.36,73.68,73.68,0,0,1-.24-8.36A73.57,73.57,0,0,1,621.88,228Z" style="fill:#e0e0e0"></path><path d="M644,227.47a81.66,81.66,0,0,1,.24,8.8,81.78,81.78,0,0,1-.24,8.81,81.78,81.78,0,0,1-.24-8.81A81.66,81.66,0,0,1,644,227.47Z" style="fill:#e0e0e0"></path><path d="M641,227.71a77.5,77.5,0,0,1,.24,8.57,77.62,77.62,0,0,1-.24,8.58,77.62,77.62,0,0,1-.24-8.58A77.5,77.5,0,0,1,641,227.71Z" style="fill:#e0e0e0"></path><rect x="599.65" y="254.98" width="51.12" height="165.46" style="fill:#f5f5f5"></rect><rect x="650.77" y="255.01" width="43.4" height="165.4" style="fill:#e0e0e0"></rect><rect x="603.64" y="261.68" width="41.01" height="35.64" style="fill:#e0e0e0"></rect><rect x="603.64" y="301.36" width="41.01" height="35.64" style="fill:#e0e0e0"></rect><rect x="603.64" y="341.04" width="41.01" height="35.64" style="fill:#e0e0e0"></rect><rect x="603.64" y="380.73" width="41.01" height="35.64" style="fill:#e0e0e0"></rect><path d="M624.15,268.26a1.43,1.43,0,1,1-1.42-1.42A1.43,1.43,0,0,1,624.15,268.26Z" style="fill:#fafafa"></path><path d="M624.15,308.41a1.43,1.43,0,1,1-1.42-1.43A1.43,1.43,0,0,1,624.15,308.41Z" style="fill:#fafafa"></path><path d="M624.15,348.55a1.43,1.43,0,1,1-1.42-1.43A1.42,1.42,0,0,1,624.15,348.55Z" style="fill:#fafafa"></path><path d="M624.15,388.69a1.43,1.43,0,1,1-1.42-1.42A1.43,1.43,0,0,1,624.15,388.69Z" style="fill:#fafafa"></path><rect x="599.65" y="420.44" width="5.91" height="33.19" style="fill:#e0e0e0"></rect><rect x="644.66" y="420.44" width="5.91" height="33.19" style="fill:#e0e0e0"></rect><rect x="687.63" y="420.44" width="5.91" height="33.19" style="fill:#e0e0e0"></rect><rect x="67.53" y="97.43" width="8.04" height="357.6" transform="translate(-1.48 0.39) rotate(-0.31)" style="fill:#e0e0e0"></rect><rect x="86.79" y="97.32" width="8.04" height="357.6" transform="translate(-1.48 0.49) rotate(-0.31)" style="fill:#e0e0e0"></rect><rect x="255.11" y="96.42" width="8.04" height="357.6" transform="translate(-1.47 1.39) rotate(-0.31)" style="fill:#e0e0e0"></rect><rect x="274.38" y="96.32" width="8.04" height="357.6" transform="translate(-1.46 1.49) rotate(-0.31)" style="fill:#e0e0e0"></rect><rect x="66.59" y="96.87" width="214.9" height="8.16" transform="translate(-0.54 0.93) rotate(-0.31)" style="fill:#e0e0e0"></rect><rect x="66.97" y="170.29" width="214.9" height="2.44" transform="translate(-0.92 0.94) rotate(-0.31)" style="fill:#e0e0e0"></rect><rect x="67.34" y="239.49" width="214.9" height="2.44" transform="translate(-1.29 0.94) rotate(-0.31)" style="fill:#e0e0e0"></rect><rect x="67.71" y="308.69" width="214.9" height="2.44" transform="translate(-1.66 0.94) rotate(-0.31)" style="fill:#e0e0e0"></rect><rect x="68.08" y="377.89" width="214.9" height="2.44" transform="translate(-2.03 0.95) rotate(-0.31)" style="fill:#e0e0e0"></rect><rect x="155.21" y="337.51" width="38.07" height="40.38" transform="translate(-1.91 0.94) rotate(-0.31)" style="fill:#ebebeb"></rect><rect x="193.09" y="337.31" width="38.07" height="40.38" transform="translate(-1.91 1.14) rotate(-0.31)" style="fill:#f5f5f5"></rect><path d="M155.16,348.67c25.29.25,50.66,0,76-.36a.3.3,0,0,0,0-.59c-25.29-.14-50.66-.07-76,.45a.25.25,0,0,0,0,.5Z" style="fill:#e0e0e0"></path><rect x="154.36" y="185.47" width="27.88" height="29.58" transform="translate(-1.07 0.9) rotate(-0.31)" style="fill:#ebebeb"></rect><rect x="182.11" y="185.32" width="27.88" height="29.58" transform="translate(-1.07 1.05) rotate(-0.31)" style="fill:#f5f5f5"></rect><path d="M154.33,193.72q27.79.22,55.63-.26a.3.3,0,0,0,0-.59c-18.53-.1-37.11,0-55.64.34a.26.26,0,0,0,0,.51Z" style="fill:#e0e0e0"></path><rect x="136.96" y="214.62" width="50.66" height="24.1" transform="translate(-1.21 0.87) rotate(-0.31)" style="fill:#ebebeb"></rect><rect x="187.38" y="214.35" width="50.66" height="24.1" transform="translate(-1.21 1.14) rotate(-0.31)" style="fill:#f5f5f5"></rect><path d="M136.94,221.46c33.65.38,67.42,0,101.07-.5a.3.3,0,0,0,0-.6c-33.66-.17-67.43-.15-101.08.59a.26.26,0,0,0,0,.51Z" style="fill:#e0e0e0"></path><rect x="138.41" y="120.96" width="12.72" height="49.62" transform="translate(-0.78 0.78) rotate(-0.31)" style="fill:#ebebeb"></rect><rect x="125.48" y="134.45" width="12.72" height="36.07" transform="translate(-0.81 0.71) rotate(-0.31)" style="fill:#e0e0e0"></rect><rect x="151.32" y="130.17" width="19.77" height="40.21" transform="translate(-0.8 0.87) rotate(-0.31)" style="fill:#e0e0e0"></rect><rect x="170.79" y="130.1" width="6.28" height="40.21" transform="translate(-0.8 0.93) rotate(-0.31)" style="fill:#ebebeb"></rect><rect x="177.1" y="139.36" width="6.28" height="30.92" transform="translate(-0.83 0.97) rotate(-0.31)" style="fill:#e0e0e0"></rect><rect x="127.24" y="262.07" width="12.72" height="46.52" transform="translate(118.23 -29.36) rotate(22.29)" style="fill:#e0e0e0"></rect><rect x="146.74" y="259.49" width="12.72" height="49.62" transform="translate(-1.52 0.82) rotate(-0.31)" style="fill:#ebebeb"></rect><rect x="166.01" y="268.67" width="19.77" height="40.21" transform="translate(-1.54 0.95) rotate(-0.31)" style="fill:#e0e0e0"></rect><rect x="161.65" y="253.83" width="4.33" height="55.1" transform="translate(-1.51 0.89) rotate(-0.31)" style="fill:#ebebeb"></rect><rect x="159.51" y="262.44" width="2.16" height="46.52" transform="translate(-1.53 0.87) rotate(-0.31)" style="fill:#f5f5f5"></rect><rect x="208.27" y="284.47" width="2.16" height="46.52" transform="translate(-97.25 518.72) rotate(-90.31)" style="fill:#f5f5f5"></rect><rect x="185.85" y="293.77" width="50.71" height="12.86" transform="translate(-1.6 1.14) rotate(-0.31)" style="fill:#ebebeb"></rect><rect x="185.78" y="280.84" width="40.72" height="12.86" transform="translate(-1.54 1.11) rotate(-0.31)" style="fill:#e0e0e0"></rect><circle cx="553.08" cy="89.83" r="30.09" transform="translate(8 219.66) rotate(-22.62)" style="fill:#e0e0e0"></circle><path d="M566.74,90.75a3.9,3.9,0,0,1-1.06.1l-2.92.08c-2.49,0-5.94.07-9.85.08h-.26V88.8c0-4.36,0-8.3.08-11.16,0-1.34.06-2.48.08-3.38a6.19,6.19,0,0,1,.1-1.24,5.37,5.37,0,0,1,.1,1.24c0,.9,0,2,.09,3.38,0,2.86.07,6.8.07,11.16v2l-.26-.26c3.91,0,7.36,0,9.85.09l2.92.08A5,5,0,0,1,566.74,90.75Z" style="fill:#fafafa"></path><path d="M553,64.68a6.13,6.13,0,0,1,.27,2.53,6.1,6.1,0,0,1-.27,2.52,6.42,6.42,0,0,1-.26-2.52A6.45,6.45,0,0,1,553,64.68Z" style="fill:#fafafa"></path><path d="M566.72,68.74c.1.1-.61,1-1.58,1.94s-1.85,1.68-1.95,1.58.61-1,1.58-1.94S566.61,68.64,566.72,68.74Z" style="fill:#fafafa"></path><path d="M574.73,77.5c.07.13-.87.73-2,1.44a7.45,7.45,0,0,1-2.21,1.14c-.09-.11.75-.87,1.94-1.59A5.3,5.3,0,0,1,574.73,77.5Z" style="fill:#fafafa"></path><path d="M579.43,90.49a23,23,0,0,1-6.89,0,23,23,0,0,1,6.89,0Z" style="fill:#fafafa"></path><path d="M531.63,90a20.51,20.51,0,0,1-6.51,0,20.51,20.51,0,0,1,6.51,0Z" style="fill:#fafafa"></path><path d="M535,99.71A10.36,10.36,0,0,1,532.6,102a11.12,11.12,0,0,1-2.75,1.88,10.74,10.74,0,0,1,2.42-2.29A10.89,10.89,0,0,1,535,99.71Z" style="fill:#fafafa"></path><path d="M543.35,107.19a14.66,14.66,0,0,1-1.61,2.94,14,14,0,0,1-1.84,2.8,9.11,9.11,0,0,1,1.39-3.07A9,9,0,0,1,543.35,107.19Z" style="fill:#fafafa"></path><path d="M553,116.84a11.75,11.75,0,0,1-.26-3.44A11.79,11.79,0,0,1,553,110a11.2,11.2,0,0,1,.27,3.45A11.16,11.16,0,0,1,553,116.84Z" style="fill:#fafafa"></path><path d="M567.86,112.25a8.38,8.38,0,0,1-2.88-1.9,8.5,8.5,0,0,1-2.28-2.6,18.39,18.39,0,0,1,2.62,2.21A17.42,17.42,0,0,1,567.86,112.25Z" style="fill:#fafafa"></path><path d="M574.84,104.74a9,9,0,0,1-2.33-2,8.83,8.83,0,0,1-2-2.33,9.34,9.34,0,0,1,2.33,2A9.15,9.15,0,0,1,574.84,104.74Z" style="fill:#fafafa"></path><path d="M534.7,80.76c-.1.11-1-.65-2.06-1.69s-1.8-2-1.7-2.06,1,.66,2.07,1.69S534.8,80.66,534.7,80.76Z" style="fill:#fafafa"></path><path d="M543.3,71.7c-.1.1-1-.64-2-1.65s-1.76-1.92-1.66-2,1,.64,2,1.65S543.4,71.6,543.3,71.7Z" style="fill:#fafafa"></path><rect x="321.41" y="158.64" width="87.51" height="57.54" style="fill:#e0e0e0"></rect><rect x="324.46" y="161" width="81.38" height="52.61" style="fill:#fafafa"></rect><rect x="351.87" y="180.17" width="26.55" height="14.48" style="fill:#e0e0e0"></rect></g><g id="freepik--Floor--inject-3"><path d="M688.91,454.05c0,.14-130.26.26-290.92.26S107,454.19,107,454.05s130.24-.26,291-.26S688.91,453.91,688.91,454.05Z" style="fill:#263238"></path></g><g id="freepik--Desk--inject-3"><rect x="434.29" y="306.51" width="105.87" height="20.52" style="fill:#455a64"></rect><rect x="368.31" y="290.81" width="62.69" height="3.05" transform="translate(799.32 584.68) rotate(180)" style="fill:#263238"></rect><polygon points="440.72 293.86 452.48 249.8 403.53 249.8 392.88 293.86 440.72 293.86" style="fill:#263238"></polygon><polygon points="395.81 290.53 439.54 290.53 449.72 251.83 405.77 251.83 395.81 290.53" style="fill:#e0e0e0"></polygon><rect x="343.52" y="302.89" width="3.17" height="151.16" style="fill:#455a64"></rect><rect x="346.69" y="303.32" width="3.17" height="150.73" style="fill:#263238"></rect><rect x="538.58" y="302.89" width="3.17" height="151.16" style="fill:#455a64"></rect><rect x="541.74" y="303.32" width="3.17" height="150.73" style="fill:#263238"></rect><rect x="329.85" y="294.11" width="240.49" height="12.4" style="fill:#455a64"></rect><path d="M491.94,315.35a2.36,2.36,0,1,1-2.36-2.36A2.36,2.36,0,0,1,491.94,315.35Z" style="fill:#263238"></path></g><g id="freepik--Chair--inject-3"><path d="M305.61,360.47l-21.55-87.69a10,10,0,0,1,9.7-12.36h50.93a10,10,0,0,1,9.66,7.47L377,355.08a10,10,0,0,1-9.56,12.49l-52,.5A10,10,0,0,1,305.61,360.47Z" style="fill:#E6AB07"></path><path d="M294.07,260.38a10.62,10.62,0,0,0-10.32,13.13l22.95,94.6h17.11Z" style="fill:#E6AB07"></path><rect x="330.29" y="340.74" width="69.76" height="27.41" rx="9.59" style="fill:#E6AB07"></rect><g style="opacity:0.4"><path d="M339.88,368.13l-6.16-27.41H316.26l-22.19-80.36a10.62,10.62,0,0,0-10.32,13.13l22.95,94.6h.78v0Z"></path></g><path d="M381.25,340.74c0,.14-14.4.26-32.16.26s-32.17-.12-32.17-.26,14.4-.26,32.17-.26S381.25,340.59,381.25,340.74Z" style="fill:#e0e0e0"></path><path d="M321,295.45a2.74,2.74,0,0,0,0,1.56,1.93,1.93,0,0,0,1.12,1.1,1.62,1.62,0,0,0,1.71-.59,1.64,1.64,0,0,0,.28-1.79,1.89,1.89,0,0,0-1.29-.9,2.68,2.68,0,0,0-1.53.23s.06-.17.32-.34a2,2,0,0,1,1.27-.26,2.22,2.22,0,0,1,1.65,1,2.2,2.2,0,0,1-2.56,3.06,2.2,2.2,0,0,1-1.31-1.43,2,2,0,0,1,0-1.3C320.88,295.55,321,295.44,321,295.45Z" style="fill:#e0e0e0"></path><path d="M320.36,308.47a3.68,3.68,0,0,1-.57-1.75,8.79,8.79,0,0,1,.44-4.42,8.89,8.89,0,0,1,2.53-3.65,4,4,0,0,1,1.57-1c.05.07-.54.45-1.32,1.23a9.69,9.69,0,0,0-2.86,7.76C320.24,307.78,320.44,308.45,320.36,308.47Z" style="fill:#e0e0e0"></path><path d="M316.35,288.17a15.6,15.6,0,0,0,1.57,4.16,15.22,15.22,0,0,0,3.07,3.21c0,.06-.53-.1-1.23-.57a7.83,7.83,0,0,1-2.28-2.36,8,8,0,0,1-1.15-3.08A2.58,2.58,0,0,1,316.35,288.17Z" style="fill:#e0e0e0"></path><path d="M313.9,296.18c.08-.13,1.43.7,3.29,1.08s3.43.19,3.45.35a5.62,5.62,0,0,1-3.56.16A5.52,5.52,0,0,1,313.9,296.18Z" style="fill:#e0e0e0"></path><path d="M347.69,295.45a2.74,2.74,0,0,0,0,1.56,1.93,1.93,0,0,0,1.12,1.1,1.62,1.62,0,0,0,1.71-.59,1.64,1.64,0,0,0,.28-1.79,1.9,1.9,0,0,0-1.28-.9,2.7,2.7,0,0,0-1.54.23s.07-.17.33-.34a1.93,1.93,0,0,1,1.26-.26,2.22,2.22,0,0,1,1.65,1,2.2,2.2,0,0,1-2.56,3.06,2.2,2.2,0,0,1-1.31-1.43,2,2,0,0,1,0-1.3C347.54,295.55,347.67,295.44,347.69,295.45Z" style="fill:#e0e0e0"></path><path d="M347,308.47a3.82,3.82,0,0,1-.57-1.75,8.83,8.83,0,0,1,3-8.07,3.92,3.92,0,0,1,1.56-1c0,.07-.54.45-1.31,1.23a9.65,9.65,0,0,0-2.87,7.76C346.89,307.78,347.09,308.45,347,308.47Z" style="fill:#e0e0e0"></path><path d="M343,288.17a15.6,15.6,0,0,0,1.57,4.16,15.22,15.22,0,0,0,3.07,3.21c0,.06-.53-.1-1.23-.57a7.83,7.83,0,0,1-2.28-2.36,8,8,0,0,1-1.15-3.08A2.71,2.71,0,0,1,343,288.17Z" style="fill:#e0e0e0"></path><path d="M340.55,296.18c.08-.13,1.43.7,3.29,1.08s3.43.19,3.45.35a5.59,5.59,0,0,1-3.55.16A5.53,5.53,0,0,1,340.55,296.18Z" style="fill:#e0e0e0"></path><path d="M393.29,375.83H311.52a4,4,0,0,1-4-4h0a4,4,0,0,1,4-4h81.77a4,4,0,0,1,4,4h0A4,4,0,0,1,393.29,375.83Z" style="fill:#263238"></path><polygon points="317.27 375.83 303.81 454.05 307.49 454.05 325.19 375.83 317.27 375.83" style="fill:#263238"></polygon><polygon points="349 375.83 334.69 454.05 338.38 454.05 356.92 375.83 349 375.83" style="fill:#263238"></polygon><polygon points="384.09 375.83 400.05 454.05 396.36 454.05 376.17 375.83 384.09 375.83" style="fill:#263238"></polygon></g><g id="freepik--character-2--inject-3"><path d="M529.15,132.45c-11.74-1.39-18,5.87-20.6,11.47S505.31,155.82,505,162s-.43,12.42-2.06,18.38c-.85,3.1-2.11,6.11-2.51,9.3s.23,6.74,2.61,8.91" style="fill:#263238"></path><path d="M540.61,138.6c3.1,6.31.82,14,2.44,20.8a69.17,69.17,0,0,0,3,8.18c2,5.47,2.85,11.31,3.65,17.1.4,2.91.77,6-.59,8.63a8.9,8.9,0,0,1-8,4.34A11.45,11.45,0,0,1,531,191c-1.32-3-1.3-6.33-1.25-9.57.2-14.05.41-28.16,2.88-42" style="fill:#263238"></path><path d="M594.49,170.42l-7.31-2.82a1.77,1.77,0,0,0-2.39,1.43c-.21,1.75-1.35,6.47-2.57,4.81l-.09-.1c-1.71-2.46-3.85-3.79-4.72-3.75a1.14,1.14,0,0,0-.28,2.06,2,2,0,0,1,.18.13,14.53,14.53,0,0,1,2,2.32A8.1,8.1,0,0,1,580.6,177c.3,1,.53,1.86.69,2.59l-.44,4.87-9,24.41-15.77-16.42s-8.44,18.64-8.63,19.26c-.14.42,7.9,8.79,13.19,14.23a14.93,14.93,0,0,0,25.23-7l6.85-34.39h-.18l.72-2.5,2.3-9.54A1.78,1.78,0,0,0,594.49,170.42Z" style="fill:#ffbe9d"></path><path d="M564.25,397.13l.17-9.17-17.16-.43-.4,13.41,1.06.09c4.73.38,24.08,1.62,27.28.74C578.75,400.78,564.25,397.13,564.25,397.13Z" style="fill:#E6AB07"></path><g style="opacity:0.5"><path d="M553.09,401a6,6,0,0,0-2.1-3.72,5.81,5.81,0,0,0-4-1.35l-.13,4.8Z" style="fill:#fff"></path></g><g style="opacity:0.4"><path d="M571.33,399.17s5.08,1.6,4.42,2.43-20.26.32-28.89-.66l0-.39,22.86.79S570.33,399.19,571.33,399.17Z" style="fill:#fff"></path></g><path d="M546.63,400.53a.85.85,0,0,0,.29,0l.85.08,3.12.21c2.63.17,6.27.34,10.29.45s7.67.13,10.31.1l3.13,0,.84,0,.3,0h-.3l-.85,0h-3.12c-2.64,0-6.28-.06-10.3-.17s-7.66-.26-10.3-.38l-3.12-.15-.85,0Z" style="fill:#263238"></path><path d="M569.74,401.61a7.85,7.85,0,0,1,.63-1.48,6.59,6.59,0,0,1,1.09-1.16,2.28,2.28,0,0,0-1.27,1A2.36,2.36,0,0,0,569.74,401.61Z" style="fill:#263238"></path><path d="M564.75,398.91s.29-.26.55-.65.44-.73.39-.76-.3.26-.56.65S564.7,398.87,564.75,398.91Z" style="fill:#263238"></path><path d="M563.37,398.14s.32-.14.62-.39.52-.51.48-.55-.31.13-.61.39S563.34,398.09,563.37,398.14Z" style="fill:#263238"></path><path d="M562.54,396.49a2,2,0,0,0,.89.14,1.94,1.94,0,0,0,.9-.07,2,2,0,0,0-.89-.14A1.94,1.94,0,0,0,562.54,396.49Z" style="fill:#263238"></path><path d="M562.27,395.34a2.5,2.5,0,0,0,2,.21,5.31,5.31,0,0,0-1-.1A5.59,5.59,0,0,0,562.27,395.34Z" style="fill:#263238"></path><path d="M565.37,397.42a2.93,2.93,0,0,0,1.1,0,7.84,7.84,0,0,0,1.18-.23,3.37,3.37,0,0,0,.68-.26.57.57,0,0,0,.28-.34.43.43,0,0,0-.15-.44,2,2,0,0,0-2.9,1.25.69.69,0,0,0,0,.3,3.24,3.24,0,0,1,.53-.93,2,2,0,0,1,1-.59,1.71,1.71,0,0,1,1.31.13c.17.13.1.33-.1.44a2.78,2.78,0,0,1-.62.25,7.15,7.15,0,0,1-1.15.27C565.79,397.4,565.37,397.39,565.37,397.42Z" style="fill:#263238"></path><path d="M565.65,397.49a1.07,1.07,0,0,0,.15-.77,1.79,1.79,0,0,0-.28-.81,1.13,1.13,0,0,0-.91-.59.45.45,0,0,0-.35.5,1.18,1.18,0,0,0,.18.5,2.92,2.92,0,0,0,.5.68,1.68,1.68,0,0,0,.62.47s-.22-.21-.51-.57a3.38,3.38,0,0,1-.45-.67c-.14-.24-.23-.66,0-.7s.56.26.72.49a1.66,1.66,0,0,1,.29.72A3.79,3.79,0,0,1,565.65,397.49Z" style="fill:#263238"></path><path d="M547.1,395.85s.49,0,1.27.07a5.42,5.42,0,0,1,4.4,3.71,12.2,12.2,0,0,1,.29,1.23s0-.12,0-.35a4.18,4.18,0,0,0-.16-.93,5.22,5.22,0,0,0-4.53-3.8,4.14,4.14,0,0,0-.94,0C547.22,395.8,547.1,395.83,547.1,395.85Z" style="fill:#263238"></path><path d="M549.06,388.75a33.5,33.5,0,0,0-.24,3.52,30.36,30.36,0,0,0,0,3.53,59.24,59.24,0,0,0,.27-7.05Z" style="fill:#263238"></path><path d="M555.29,399.34a14.43,14.43,0,0,0,5,.18c0-.06-1.13,0-2.51-.07S555.3,399.28,555.29,399.34Z" style="fill:#263238"></path><path d="M551.93,399.25s.08.24.19.5.16.49.22.49.1-.27,0-.57S552,399.21,551.93,399.25Z" style="fill:#263238"></path><path d="M550.7,397.64s.06.22.24.4.34.31.39.27-.07-.22-.24-.41S550.74,397.6,550.7,397.64Z" style="fill:#263238"></path><path d="M548.9,396.87c0,.06.24.06.49.16s.43.23.48.19-.09-.28-.41-.39S548.89,396.82,548.9,396.87Z" style="fill:#263238"></path><path d="M547.62,396.5c0,.05.08.14.22.2s.27.06.29,0-.07-.15-.21-.2S547.64,396.44,547.62,396.5Z" style="fill:#263238"></path><path d="M613.16,340.78l-4-8.25-15.51,7.38,5.71,12.14,1-.4c4.39-1.8,22.21-9.45,24.66-11.68C627.75,337.48,613.16,340.78,613.16,340.78Z" style="fill:#E6AB07"></path><g style="opacity:0.5"><path d="M604.94,349.25a6,6,0,0,0-3.56-2.37,5.79,5.79,0,0,0-4.16.6l2.06,4.34Z" style="fill:#fff"></path></g><g style="opacity:0.4"><path d="M620.39,339.4s5.26-.87,5,.17-17.92,9.45-26.06,12.48l-.14-.36L620,342.05S619.51,339.87,620.39,339.4Z" style="fill:#fff"></path></g><path d="M599,351.8l.28-.1.79-.32,2.88-1.22c2.42-1,5.75-2.53,9.38-4.26s6.9-3.36,9.24-4.57l2.77-1.46.74-.41a1.35,1.35,0,0,0,.25-.15l-.27.12-.76.37-2.79,1.4c-2.36,1.18-5.63,2.79-9.26,4.51s-7,3.24-9.36,4.32L600,351.31l-.77.35A1.16,1.16,0,0,0,599,351.8Z" style="fill:#263238"></path><path d="M620.08,342.29a7.17,7.17,0,0,1-.11-1.59,6.75,6.75,0,0,1,.45-1.54,2.76,2.76,0,0,0-.34,3.13Z" style="fill:#263238"></path><path d="M614.4,342.14c.06,0,.15-.36.21-.82s.06-.85,0-.86a1.86,1.86,0,0,0-.21.83A2,2,0,0,0,614.4,342.14Z" style="fill:#263238"></path><path d="M612.83,342.08s.22-.26.37-.63.24-.68.19-.7-.22.26-.38.62S612.78,342.06,612.83,342.08Z" style="fill:#263238"></path><path d="M611.34,341a2,2,0,0,0,.86-.28c.45-.21.8-.42.77-.47a2,2,0,0,0-.86.28A2.13,2.13,0,0,0,611.34,341Z" style="fill:#263238"></path><path d="M610.58,340.09a1.84,1.84,0,0,0,1-.17,1.73,1.73,0,0,0,.87-.57,5.85,5.85,0,0,0-1,.38A5.45,5.45,0,0,0,610.58,340.09Z" style="fill:#263238"></path><path d="M614.29,340.54a3.23,3.23,0,0,0,1-.48,6.18,6.18,0,0,0,1-.74,3.26,3.26,0,0,0,.49-.54.58.58,0,0,0,.1-.42.44.44,0,0,0-.34-.33,2,2,0,0,0-2,1.61,2.05,2.05,0,0,0,0,.82.65.65,0,0,0,.1.28,3.82,3.82,0,0,1,.05-1.07,2,2,0,0,1,.59-.95,1.76,1.76,0,0,1,1.23-.49c.21,0,.24.26.11.45a3,3,0,0,1-.44.5,7.75,7.75,0,0,1-.9.76C614.65,340.33,614.27,340.51,614.29,340.54Z" style="fill:#263238"></path><path d="M614.57,340.47a1.12,1.12,0,0,0-.22-.75,1.75,1.75,0,0,0-.61-.6,1.15,1.15,0,0,0-1.08-.11.43.43,0,0,0-.08.6,1.21,1.21,0,0,0,.38.37,3.31,3.31,0,0,0,.75.38,1.46,1.46,0,0,0,.77.13s-.29-.08-.71-.27a3.42,3.42,0,0,1-.7-.4c-.24-.14-.51-.48-.29-.64a1,1,0,0,1,.86.11,1.77,1.77,0,0,1,.59.51A4.58,4.58,0,0,1,614.57,340.47Z" style="fill:#263238"></path><path d="M597.28,347.4s.43-.25,1.17-.5a5.46,5.46,0,0,1,3-.16,5.55,5.55,0,0,1,2.61,1.46c.55.56.79,1,.82,1a1.2,1.2,0,0,0-.15-.31,4.76,4.76,0,0,0-.57-.76,5.23,5.23,0,0,0-5.75-1.34,3.88,3.88,0,0,0-.85.43A1.31,1.31,0,0,0,597.28,347.4Z" style="fill:#263238"></path><path d="M595.82,340.18a32,32,0,0,0,1.38,3.25,30.88,30.88,0,0,0,1.57,3.16,30.45,30.45,0,0,0-1.38-3.25A27.66,27.66,0,0,0,595.82,340.18Z" style="fill:#263238"></path><path d="M606.17,346.81a9.59,9.59,0,0,0,2.37-.85,10.06,10.06,0,0,0,2.18-1.26c0-.05-1,.49-2.27,1.07S606.15,346.75,606.17,346.81Z" style="fill:#263238"></path><path d="M603.13,348.25c0,.06.18.18.4.36s.36.36.42.33,0-.28-.29-.49S603.14,348.2,603.13,348.25Z" style="fill:#263238"></path><path d="M601.3,347.37c0,.05.16.17.4.25s.44.12.46.06-.15-.17-.39-.25S601.32,347.31,601.3,347.37Z" style="fill:#263238"></path><path d="M599.35,347.5s.25-.06.51-.08.49,0,.51,0-.2-.21-.53-.17S599.32,347.46,599.35,347.5Z" style="fill:#263238"></path><path d="M598,347.74c0,.06.13.1.28.09s.28-.07.27-.13-.13-.09-.28-.08S598,347.69,598,347.74Z" style="fill:#263238"></path><path d="M486.27,216.56l3.55-17.15c2.87-16.12,26.14-17.73,26.14-17.73l17.73-.32s13.13-1.78,21.25,7.35c8.41,9.45,12.82,14.17,12.82,14.17l-12.24,19.54-8.36-8.64a19.07,19.07,0,0,1,2.52,8.95c0,5.24-5.47,7.67-5.47,7.67l-1.37,13.32,6.8,13L494,269.06c1.11-9.35.42-16.5,4.83-23.47l4.32-26.06Z" style="fill:#E6AB07"></path><path d="M493.64,269s78.7-22.95,85.8-19.6S616,335.11,616,335.11l-22.58,11-28.73-70.22s-55.9,21.77-64.87,19.92S493.64,269,493.64,269Z" style="fill:#263238"></path><path d="M526.85,266.69c1.12.37,44.27,14.49,47.26,20.08S571.38,392,571.38,392L545,394.8l1.62-97.73-47.24-1.19Z" style="fill:#263238"></path><path d="M499.12,295.88a3,3,0,0,0,.69-.09l2-.35c1.71-.32,4.18-.81,7.22-1.46,6.09-1.29,14.47-3.24,23.59-5.87,4.57-1.33,8.88-2.71,12.77-4.05s7.35-2.68,10.21-3.91c1.44-.58,2.73-1.16,3.85-1.68s2.09-1,2.87-1.35l1.79-.9a2.91,2.91,0,0,0,.6-.35,3.39,3.39,0,0,0-.65.25l-1.83.81c-.79.36-1.76.79-2.9,1.26s-2.43,1-3.88,1.6c-2.87,1.18-6.35,2.43-10.23,3.79s-8.2,2.67-12.75,4c-9.11,2.62-17.46,4.63-23.52,6l-7.18,1.63-1.95.45A2.71,2.71,0,0,0,499.12,295.88Z" style="fill:#455a64"></path><path d="M574.77,308.91a8.25,8.25,0,0,0,.22-1.39c.1-1,.23-2.29.39-3.81s.33-3.56.52-5.66a25.6,25.6,0,0,0,0-7,10.85,10.85,0,0,0-3.53-6.05,18.17,18.17,0,0,0-4.83-3.09A38.32,38.32,0,0,0,564,280.5a6.82,6.82,0,0,0-1.36-.39c0,.1,1.87.76,4.77,2.15a19.28,19.28,0,0,1,4.66,3.11,10.61,10.61,0,0,1,3.33,5.78,26.29,26.29,0,0,1,0,6.86c-.14,2.1-.28,4-.4,5.67s-.16,2.81-.22,3.82A6.41,6.41,0,0,0,574.77,308.91Z" style="fill:#455a64"></path><path d="M577.63,143.1s6.61-1.26,16.11-9.89,14.19-20.33,15.32-20.24,6.14-2.06,15,18.66,5,25.36,3.11,25.27-14.47-4-22.43-3.31-18.28,4.52-18.28,4.52Z" style="fill:#455a64"></path><path d="M563.35,153.86l2.12,4.32.95,1.94a5.56,5.56,0,0,0,7.18,2.67l14.23-4.51-7.67-19-14.29,7.1A5.57,5.57,0,0,0,563.35,153.86Z" style="fill:#263238"></path><path d="M571.28,160.91l4.24,8.93,2.26-.56,14.32,12.34,4.33-7.9s-8.56-4-10.07-7.12.35-3.78.35-3.78l-3.94-4.75Z" style="fill:#263238"></path><path d="M623.25,132c4.69,11.22,6.49,21.15,4,22.18s-8.27-7.23-13-18.45-6.49-21.15-4-22.18S618.56,120.76,623.25,132Z" style="fill:#263238"></path><polygon points="561.97 159.98 565.82 158.89 563.58 154.33 560.67 156.03 561.97 159.98" style="fill:#455a64"></polygon><polygon points="584.12 159.7 573.67 165.95 572.46 163.41 584.12 159.7" style="fill:#455a64"></polygon><polygon points="563.58 154.33 565.82 158.89 565.03 159.12 563.23 154.53 563.58 154.33" style="fill:#455a64"></polygon><g style="opacity:0.2"><path d="M587.26,156.87l2.61-.88"></path></g><path d="M566.18,155.44a41.64,41.64,0,0,0,8.42-3.52,21.44,21.44,0,0,0-4.3,1.54A21.9,21.9,0,0,0,566.18,155.44Z" style="fill:#455a64"></path><path d="M565.09,152.73a17.4,17.4,0,0,0,3.89-1.51,18.46,18.46,0,0,0,3.7-2,35.19,35.19,0,0,0-7.59,3.47Z" style="fill:#455a64"></path><path d="M567.59,158.29c0,.07.47,0,1.2-.23l1.28-.38c.47-.16,1-.39,1.5-.61a16.51,16.51,0,0,0,3.69-1.93,19.34,19.34,0,0,0-3.88,1.48c-.53.22-1,.46-1.48.64l-1.22.47C568,158,567.57,158.23,567.59,158.29Z" style="fill:#455a64"></path><path d="M613.12,129.23s5.81-3.38,8.72,4.42-3.14,8.91-3.14,8.91A51.42,51.42,0,0,1,613.12,129.23Z" style="fill:#455a64"></path><path d="M607.3,119.86a8.87,8.87,0,0,0,.18,1.48c.16.94.37,2.32.69,4l.72,2.73c.12.49.26,1,.4,1.51l.21.8c.08.26.18.52.27.79.38,1.08.78,2.2,1.2,3.37l.31.88c.1.3.25.58.38.88l.8,1.77c.27.6.54,1.19.8,1.78.14.28.25.58.41.86l.45.82,1.73,3.12c.14.25.27.5.42.74l.46.68.87,1.31,1.57,2.34c1.06,1.35,1.94,2.42,2.55,3.16a9.35,9.35,0,0,0,1,1.12,7.85,7.85,0,0,0-.84-1.23l-2.42-3.27c-.47-.72-1-1.51-1.51-2.35-.28-.42-.56-.86-.85-1.31l-.44-.68c-.15-.24-.27-.49-.41-.73l-1.69-3.12-.45-.82c-.15-.27-.26-.57-.4-.86-.26-.58-.53-1.17-.79-1.76l-.8-1.76c-.13-.29-.27-.57-.38-.87l-.31-.87c-.43-1.16-.83-2.27-1.22-3.34-.09-.26-.2-.52-.28-.79s-.15-.52-.22-.78q-.23-.78-.42-1.5c-.28-1-.53-1.87-.77-2.7-.35-1.65-.63-3-.84-4A7.21,7.21,0,0,0,607.3,119.86Z" style="fill:#263238"></path><path d="M587.36,168.1a9.64,9.64,0,0,0,.16,3.93c.11.44.39,1,.84.91a.86.86,0,0,0,.55-.46,4.69,4.69,0,0,0,.76-2.29,7.76,7.76,0,0,0,.22,3.52c.17.53.49,1.11,1,1.16s1-.63,1.11-1.23a7.81,7.81,0,0,1,.19-1.82,16.67,16.67,0,0,0-.05,3.53,2.7,2.7,0,0,0,.25,1.05,1,1,0,0,0,.84.61,1.07,1.07,0,0,0,.93-.6,2.87,2.87,0,0,0,.3-1.12c.16-1.3.26-2.6.29-3.91" style="fill:#ffbe9d"></path><path d="M545.48,182.68c0-.2.67-.32,1.66-.83a7.67,7.67,0,0,0,3.19-3.25,8.51,8.51,0,0,0,1-3,10.37,10.37,0,0,0-.22-3.59,23.14,23.14,0,0,0-3.85-7.79,61.44,61.44,0,0,1-5.1-7.9,18.93,18.93,0,0,1-1.94-7.67,15.92,15.92,0,0,1,.65-5.25c.37-1.19.75-1.77.91-1.73s.14.73.08,1.91a25.18,25.18,0,0,0,.2,4.91,19.94,19.94,0,0,0,2.23,6.74,90.13,90.13,0,0,0,5.11,7.51,23,23,0,0,1,4.06,8.8,11.78,11.78,0,0,1,0,4.43,9.84,9.84,0,0,1-1.52,3.57,7.61,7.61,0,0,1-4.42,3.23C546.18,183.08,545.48,182.83,545.48,182.68Z" style="fill:#263238"></path><path d="M532.9,181.22c.11-3.71.27-7.14.27-7.14s7.47-1,7.79-8.59-.48-25.22-.48-25.22l-13.78-6.59-12,13.72-.13,33.5a9.16,9.16,0,0,0,9.12,9.2h0A9.16,9.16,0,0,0,532.9,181.22Z" style="fill:#ffbe9d"></path><path d="M538.84,153.23a1,1,0,1,1-1-1A1,1,0,0,1,538.84,153.23Z" style="fill:#263238"></path><path d="M540.13,152c-.12.13-.83-.47-1.86-.51s-1.78.48-1.89.34.07-.29.4-.53a2.43,2.43,0,0,1,3,.13C540.09,151.74,540.19,152,540.13,152Z" style="fill:#263238"></path><path d="M527.85,153.23a1,1,0,1,1-1.9,0,1,1,0,1,1,1.9,0Z" style="fill:#263238"></path><path d="M528.78,152.25c-.12.13-.84-.47-1.86-.51s-1.79.49-1.9.35.07-.3.41-.54a2.42,2.42,0,0,1,1.51-.44,2.46,2.46,0,0,1,1.48.57C528.73,152,528.84,152.2,528.78,152.25Z" style="fill:#263238"></path><path d="M532.64,161.06a7,7,0,0,1,1.67-.26c.26,0,.51-.06.56-.25a1.6,1.6,0,0,0-.16-.84l-.75-2.16a40.57,40.57,0,0,1-1.66-5.65,37.35,37.35,0,0,1,2.08,5.5l.71,2.18a1.69,1.69,0,0,1,.12,1.1.67.67,0,0,1-.44.4,1.75,1.75,0,0,1-.44,0A6.47,6.47,0,0,1,532.64,161.06Z" style="fill:#263238"></path><path d="M533.17,174.08a18.25,18.25,0,0,1-9.92-3.23s2.34,5.56,9.79,5.1Z" style="fill:#eb996e"></path><path d="M532.28,163.75a2,2,0,0,0-1.19-1.46,1.56,1.56,0,0,0-1.32,0,1.11,1.11,0,0,0-.61,1.12,1.29,1.29,0,0,0,1.06,1,3.56,3.56,0,0,0,1.52-.1,1,1,0,0,0,.39-.15.36.36,0,0,0,.17-.36" style="fill:#eb996e"></path><path d="M529.73,161c-.07,0-.19.28-.15.77a2.7,2.7,0,0,0,2.61,2.46c.5,0,.78-.13.77-.2s-1.2-.06-2.15-.95S529.89,161,529.73,161Z" style="fill:#263238"></path><path d="M541.11,139.42a9.17,9.17,0,0,1-9.06,8l2.07-4.57c-1.84,2.15-3.75,4.35-6.27,5.63s-5.83,1.43-8-.4c-.69,1.87-.68,3.94-1.32,5.83s-2.13,9.68-4.11,9.39c-1.81-.27-3.11-8.13-3.57-9.9a16.18,16.18,0,0,1,3.56-14.17,19.4,19.4,0,0,1,16-6.77,13.46,13.46,0,0,1,7.43,2.6,10.37,10.37,0,0,1,3.66,5.83" style="fill:#263238"></path><path d="M541.37,148.55a6.29,6.29,0,0,1-2.13-3.42,18.35,18.35,0,0,1-.51-4.06c0-.39,0-.9.42-1s.68.28.86.62a13.18,13.18,0,0,1,1.37,8.27l-.25-.23" style="fill:#263238"></path><path d="M511.4,144.49c-4.37,16.45-5.78,33.72-3.55,48.29.23,1.5-.2,3.08.28,4.53a4,4,0,0,0,3.21,2.9c1.42.12,3-.75,4.2,0,.94.57,1.17,1.81,1.87,2.65a3.53,3.53,0,0,0,3.69.89,6.24,6.24,0,0,0,3.09-2.45c2.72-3.79,2.6-9,1.3-13.47s-3.6-8.63-5-13.09c-2.59-8.33-1.84-17.28-1.06-26q.34-3.81.68-7.62" style="fill:#263238"></path><path d="M553.64,214.13c3.57-3.63,3.25-4,2.77-4.32-1.31-1-6.51,6.15-6.26,3.95s7.35-7.93,6-8.87c-1.83-1.23-7.14,6.32-7.64,6.92s-1.37-.11-.89-.63c.68-.75,7.69-8.8,5.9-10-1-.68-2,1.25-2,1.25s-6,8-6.84,7.42,2.54-5.45,3.79-7,1-2.75-.09-2.75c-.76,0-4.7,4.64-5.9,6.2s-4.42,5.9-4.54,2.43c0-.05,0-.1,0-.16,0-3.42-1.17-6.05-2-6.59a1.19,1.19,0,0,0-1.71,1.27,1.45,1.45,0,0,0,.11.49,1.7,1.7,0,0,1,.09.24,17,17,0,0,1,.41,3.51,9.1,9.1,0,0,1-.42,3.11c-.36,1.15-.72,2.12-1,2.93l-.52.63-29.09,16.45V216.77s-16.06-.7-16.65-.24c-.4.31-1.49,13.47,0,22a17.05,17.05,0,0,0,28.28,9.76l24.16-22,.09.07,3.44-2.83.67-1.06.8-.73A108.37,108.37,0,0,0,553.64,214.13Z" style="fill:#ffbe9d"></path></g><g id="freepik--character-1--inject-3"><path d="M257.1,219.93s13.21,28.94,14.06,30.06,17.4,11.69,17.4,11.69l16.06-.91L286.24,241.5,270.8,210.92Z" style="fill:#ffbe9d"></path><path d="M217.39,151.11a1.61,1.61,0,0,1-.4,1.7,1.64,1.64,0,0,1-1.74.3c-1.07-.47-1.29-1.92-1.14-3.08s.47-2.43-.08-3.48a7.76,7.76,0,0,0-1.91-1.88,5.08,5.08,0,0,1-1.64-4.23,4.28,4.28,0,0,1,2.75-3.52c1.52-.51,3.44-.14,4.53-1.32.79-.85.76-2.18,1.36-3.18.91-1.56,3-1.91,4.81-1.76s3.64.62,5.37.09c1.44-.44,2.58-1.53,3.91-2.23a7.89,7.89,0,0,1,10.86,10.26,5,5,0,0,1-2.32,2.56" style="fill:#263238"></path><path d="M219.19,181.72l17-1.36c.11-2,0-9.66,0-9.66s7.06-1.1,7.15-8.16-1.14-23.3-1.14-23.3h0a24.56,24.56,0,0,0-24.67,3.1l-1,.81Z" style="fill:#ffbe9d"></path><path d="M239.77,151.23a1,1,0,1,1,1.45-.07A1,1,0,0,1,239.77,151.23Z" style="fill:#263238"></path><path d="M242.24,149.77c-.11.13-.8-.41-1.78-.41s-1.68.5-1.78.37,0-.28.36-.51a2.36,2.36,0,0,1,1.43-.45,2.39,2.39,0,0,1,1.42.48C242.19,149.5,242.29,149.72,242.24,149.77Z" style="fill:#263238"></path><path d="M230.4,150.62a1,1,0,1,1-1.08,1.75A1,1,0,0,1,229,151,1,1,0,0,1,230.4,150.62Z" style="fill:#263238"></path><path d="M231.67,150.63c-.11.12-.81-.41-1.78-.41s-1.68.49-1.79.37.06-.28.37-.51a2.3,2.3,0,0,1,1.43-.45,2.33,2.33,0,0,1,1.42.48C231.62,150.35,231.72,150.58,231.67,150.63Z" style="fill:#263238"></path><path d="M235.57,158.66a4.61,4.61,0,0,1,1.58-.33c.25,0,.45-.09.47-.22a1.41,1.41,0,0,0-.18-.73c-.25-.65-.51-1.3-.77-2a27.12,27.12,0,0,1-1.67-5.2,27.58,27.58,0,0,1,2.18,5c.26.69.5,1.35.73,2a1.56,1.56,0,0,1,.14,1.05.66.66,0,0,1-.44.41,1.84,1.84,0,0,1-.43.06A4.73,4.73,0,0,1,235.57,158.66Z" style="fill:#263238"></path><path d="M232.41,159.74a18.43,18.43,0,0,0,4.77,1.38,2.68,2.68,0,0,1-3.17,1.07C231.89,161.42,232.41,159.74,232.41,159.74Z" style="fill:#fff"></path><path d="M236.15,170.6a16.44,16.44,0,0,1-9.21-2.62s2.17,5.09,9.22,4.45Z" style="fill:#eb996e"></path><path d="M242.3,141s-4.13,2.39-9.92,0c-3.8-1.56-8.13-2.13-9-1.33s-.81,4.6-4.35,6c0,0,.78,7.18-2.11,7.13S215,141.49,215,141.49l6.77-4,7.55-2,7.3.49,5.7,1.11Z" style="fill:#263238"></path><path d="M217.3,150.47c-.12-.05-4.86-1.44-4.7,3.4s5,3.68,5,3.54S217.3,150.47,217.3,150.47Z" style="fill:#ffbe9d"></path><path d="M216,155.62s-.08.07-.22.14a.93.93,0,0,1-.63,0,2.07,2.07,0,0,1-1-1.84,2.78,2.78,0,0,1,.19-1.21,1,1,0,0,1,.62-.67.42.42,0,0,1,.5.22c.07.13,0,.23.07.23s.1-.08,0-.28a.48.48,0,0,0-.2-.29.58.58,0,0,0-.47-.11,1.17,1.17,0,0,0-.85.77,2.88,2.88,0,0,0-.25,1.36,2.19,2.19,0,0,0,1.29,2.05.92.92,0,0,0,.77-.16C216,155.74,216.06,155.63,216,155.62Z" style="fill:#eb996e"></path><path d="M214,135.5c-.05-.13.75-.47,1.72-.17s1.44,1,1.32,1.12-.66-.37-1.48-.62S214.05,135.64,214,135.5Z" style="fill:#263238"></path><path d="M216.76,132.45c.17,0,.15,1,.38,2.19s.77,2,.65,2.09-.9-.68-1.16-2A3.47,3.47,0,0,1,216.76,132.45Z" style="fill:#263238"></path><path d="M237.51,148.19c-.16-.24.75-1,2.14-1.08s2.36.64,2.23.88-1.07.1-2.18.16S237.65,148.45,237.51,148.19Z" style="fill:#263238"></path><path d="M226.67,147.28c-.16-.23.74-1,2.14-1.07s2.36.63,2.23.88-1.07.1-2.19.16S226.81,147.54,226.67,147.28Z" style="fill:#263238"></path><path d="M186.67,445.89,185,453s-11.57,15-15.14,14.29c-2.33-.48.54-4.4,4.94-15.81l.92-4.71Z" style="fill:#E6AB07"></path><path d="M169.38,465a1.7,1.7,0,0,0,.62.59,2.15,2.15,0,0,0,2.21-.31,63.71,63.71,0,0,0,5.76-5.46c2.14-2.24,3.94-4.41,5.21-6,.56-.72,1-1.36,1.48-1.9l.4-.52c.09-.12.14-.18.15-.17l-.12.19-.37.55c-.33.46-.81,1.13-1.43,1.94a73.62,73.62,0,0,1-5.17,6.06,56.63,56.63,0,0,1-5.82,5.43,2.77,2.77,0,0,1-1.31.48,2,2,0,0,1-1-.22,1.24,1.24,0,0,1-.48-.45A.84.84,0,0,1,169.38,465Z" style="fill:#263238"></path><path d="M171,460.21a1.87,1.87,0,0,1,.95-.11,5,5,0,0,1,2.18.76,4,4,0,0,1,1.59,1.67,2.08,2.08,0,0,1,.25.93s-.11-.35-.38-.86A4.24,4.24,0,0,0,174,461a5.27,5.27,0,0,0-2.08-.79A9,9,0,0,0,171,460.21Z" style="fill:#263238"></path><path d="M182,456.68a1.85,1.85,0,0,1-.14-.34,6,6,0,0,1-.22-1,5.16,5.16,0,0,1,.54-3.21,5,5,0,0,1,2.33-2.28,4.22,4.22,0,0,1,1-.29c.23,0,.36,0,.36,0a7.8,7.8,0,0,0-1.25.45,5.1,5.1,0,0,0-2.22,2.23,5.48,5.48,0,0,0-.58,3.1C181.85,456.17,182,456.67,182,456.68Z" style="fill:#263238"></path><path d="M185.94,447.09c.05,0-.21,1-.43,2.26a7.76,7.76,0,0,1-.6,2.22s.18-1,.4-2.26A7.23,7.23,0,0,1,185.94,447.09Z" style="fill:#263238"></path><path d="M174.58,452.44a2.73,2.73,0,0,1,1.49,0,2.68,2.68,0,0,1,1.34.63c0,.05-.61-.25-1.39-.43S174.59,452.5,174.58,452.44Z" style="fill:#263238"></path><path d="M174.35,453.65a1.82,1.82,0,0,1,1.25,0,1.79,1.79,0,0,1,1.09.6c0,.05-.49-.25-1.14-.4S174.36,453.71,174.35,453.65Z" style="fill:#263238"></path><path d="M173.42,455.17a1.89,1.89,0,0,1,2.39.54,5.25,5.25,0,0,0-1.14-.5A5.6,5.6,0,0,0,173.42,455.17Z" style="fill:#263238"></path><path d="M175.38,451.93s.53-.14,1.36-.46a10.14,10.14,0,0,0,1.39-.67,9.06,9.06,0,0,0,.77-.49c.24-.18.5-.44.49-.71s-.35-.42-.62-.36a1.69,1.69,0,0,0-.71.48c-.43.4-.79.79-1.09,1.12-.59.66-.92,1.1-.94,1.08s.05-.13.19-.34.36-.5.64-.84a14.6,14.6,0,0,1,1.06-1.16,1.82,1.82,0,0,1,.81-.53.67.67,0,0,1,.87.54,1.19,1.19,0,0,1-.58.88,7.74,7.74,0,0,1-.79.49,9.59,9.59,0,0,1-1.44.65,7.19,7.19,0,0,1-1,.27A1.43,1.43,0,0,1,175.38,451.93Z" style="fill:#263238"></path><path d="M176,451.79a11.81,11.81,0,0,1-.21-1.3,5.79,5.79,0,0,0-.4-1.33,2.94,2.94,0,0,0-.43-.69c-.18-.2-.44-.37-.66-.24s-.25.44-.22.7a3.73,3.73,0,0,0,.23.78,4.55,4.55,0,0,0,.76,1.17c.53.59.95.88.93.91a1.09,1.09,0,0,1-.31-.18A6.32,6.32,0,0,1,175,451a4.52,4.52,0,0,1-.83-1.19,3.5,3.5,0,0,1-.25-.83.88.88,0,0,1,.32-.91.76.76,0,0,1,.91.29,2.92,2.92,0,0,1,.46.74,4.93,4.93,0,0,1,.36,1.39c.05.41.07.73.08,1A1.32,1.32,0,0,1,176,451.79Z" style="fill:#263238"></path><g style="opacity:0.4"><path d="M185,453l.81-3.39s-2.83.52-3.57,2.64a9,9,0,0,0-.55,3.63l-6.16,6.64s-1.55-3-4.35-2.3c0,0-2.2,4.85-2.13,6.06s1.48,1.07,2,.84a24.53,24.53,0,0,0,5.52-4.35C179.8,459.34,183.41,455.05,185,453Z"></path></g><path d="M244.18,449.47l0-9.44-17.66-.21-.23,13.8,1.09.08c4.88.33,24.8,1.34,28.07.39C259.15,453,244.18,449.47,244.18,449.47Z" style="fill:#E6AB07"></path><g style="opacity:0.4"><path d="M232.75,453.56a6.19,6.19,0,0,0-2.21-3.8,6,6,0,0,0-4.12-1.33l-.06,4.94Z"></path></g><g style="opacity:0.4"><path d="M251.49,451.47s5.25,1.58,4.58,2.44-20.84.6-29.73-.29l0-.4,23.53.5S250.46,451.5,251.49,451.47Z"></path></g><path d="M226.1,453.21a1.4,1.4,0,0,0,.3,0l.87.06,3.21.18c2.71.13,6.46.26,10.6.32s7.89,0,10.61,0l3.21-.1.87,0,.31,0H254.9l-3.21,0c-2.72,0-6.47,0-10.61,0s-7.88-.17-10.59-.26l-3.21-.11-.88,0Z" style="fill:#263238"></path><path d="M249.89,454a8,8,0,0,1,.62-1.53,7.3,7.3,0,0,1,1.11-1.21,2.35,2.35,0,0,0-1.29,1.1A2.38,2.38,0,0,0,249.89,454Z" style="fill:#263238"></path><path d="M244.71,451.29s.31-.27.57-.67.44-.76.39-.79-.31.27-.57.67S244.66,451.26,244.71,451.29Z" style="fill:#263238"></path><path d="M243.29,450.51c0,.05.32-.14.63-.4s.53-.53.49-.57-.32.13-.63.4S243.25,450.47,243.29,450.51Z" style="fill:#263238"></path><path d="M242.41,448.83a4.13,4.13,0,0,0,1.85.05,2.07,2.07,0,0,0-.92-.13A2.17,2.17,0,0,0,242.41,448.83Z" style="fill:#263238"></path><path d="M242.11,447.65a1.8,1.8,0,0,0,1,.32,1.86,1.86,0,0,0,1.06-.13,6.33,6.33,0,0,0-1-.09A6.61,6.61,0,0,0,242.11,447.65Z" style="fill:#263238"></path><path d="M245.33,449.75a3,3,0,0,0,1.14,0,6.53,6.53,0,0,0,1.21-.25,3.52,3.52,0,0,0,.7-.28.56.56,0,0,0,.28-.35.44.44,0,0,0-.16-.45,2.09,2.09,0,0,0-2.59.57,2.22,2.22,0,0,0-.38.76.58.58,0,0,0,0,.3,3.26,3.26,0,0,1,.53-1,2.05,2.05,0,0,1,1-.62,1.81,1.81,0,0,1,1.35.11c.18.14.1.35-.1.47a3,3,0,0,1-.64.26,7.35,7.35,0,0,1-1.17.29C245.77,449.72,245.33,449.72,245.33,449.75Z" style="fill:#263238"></path><path d="M245.63,449.81a1.16,1.16,0,0,0,.14-.78,2.09,2.09,0,0,0-.3-.84,1.16,1.16,0,0,0-.94-.59.46.46,0,0,0-.36.52,1.29,1.29,0,0,0,.19.51,3.12,3.12,0,0,0,.53.7c.35.35.63.49.64.46s-.22-.2-.53-.57a4.44,4.44,0,0,1-.47-.68c-.15-.25-.25-.68,0-.73s.57.27.75.5a1.87,1.87,0,0,1,.31.74A4.54,4.54,0,0,1,245.63,449.81Z" style="fill:#263238"></path><path d="M226.52,448.38s.5,0,1.3.06a5.51,5.51,0,0,1,4.58,3.75c.26.76.28,1.27.32,1.27s0-.13,0-.36a5.38,5.38,0,0,0-4.89-4.81,5,5,0,0,0-1,0A1.05,1.05,0,0,0,226.52,448.38Z" style="fill:#263238"></path><path d="M228.44,441.05a60,60,0,0,0-.18,7.26,60,60,0,0,0,.18-7.26Z" style="fill:#263238"></path><path d="M235,451.86a9.83,9.83,0,0,0,2.58.29,10.16,10.16,0,0,0,2.59-.17c0-.06-1.16,0-2.59,0S235,451.8,235,451.86Z" style="fill:#263238"></path><path d="M231.53,451.81c0,.05.09.25.21.52s.17.5.23.49.1-.27,0-.58S231.57,451.77,231.53,451.81Z" style="fill:#263238"></path><path d="M230.25,450.17c-.05,0,.07.23.25.42s.36.3.4.26-.07-.22-.25-.41S230.29,450.13,230.25,450.17Z" style="fill:#263238"></path><path d="M228.39,449.41c0,.06.24.06.5.15s.45.24.49.2-.09-.29-.42-.4S228.37,449.35,228.39,449.41Z" style="fill:#263238"></path><path d="M227.06,449c0,.06.08.15.23.21s.28.06.3,0-.08-.14-.22-.2S227.09,449,227.06,449Z" style="fill:#263238"></path><polyline points="256.2 262.12 247.96 445.4 220.44 445.98 225.01 292.54 194.06 447.15 167.9 447.15 202.84 262.12" style="fill:#263238"></polyline><polygon points="195.42 444.66 194.79 447.37 167.9 447.73 168.31 443.5 195.42 444.66" style="fill:#455a64"></polygon><path d="M174.48,444.54c.14,0,.2.37.13.78s-.23.72-.38.7-.2-.38-.13-.79S174.34,444.51,174.48,444.54Z" style="fill:#455a64"></path><path d="M175.49,438.54c.14,0,.14.71,0,1.54s-.36,1.48-.5,1.46-.15-.72,0-1.55S175.35,438.51,175.49,438.54Z" style="fill:#455a64"></path><path d="M176.5,432.53c.14,0,.14.72,0,1.55s-.36,1.48-.51,1.45-.14-.71,0-1.54S176.36,432.51,176.5,432.53Z" style="fill:#455a64"></path><path d="M177.51,426.53c.14,0,.14.71,0,1.54s-.37,1.48-.51,1.46-.14-.72,0-1.54S177.37,426.5,177.51,426.53Z" style="fill:#455a64"></path><path d="M178.52,420.52c.14,0,.14.72,0,1.55s-.37,1.48-.51,1.46-.14-.72,0-1.55S178.38,420.5,178.52,420.52Z" style="fill:#455a64"></path><path d="M179.53,414.52c.14,0,.15.71,0,1.54s-.37,1.48-.51,1.46-.15-.71,0-1.54S179.39,414.49,179.53,414.52Z" style="fill:#455a64"></path><path d="M180.55,408.51c.14,0,.14.72,0,1.55s-.37,1.48-.51,1.46-.14-.72,0-1.55S180.41,408.49,180.55,408.51Z" style="fill:#455a64"></path><path d="M181.57,402.51c.14,0,.14.72,0,1.55s-.37,1.48-.51,1.45-.14-.71,0-1.54S181.43,402.49,181.57,402.51Z" style="fill:#455a64"></path><path d="M182.59,396.51c.14,0,.14.71,0,1.54s-.37,1.48-.51,1.46-.14-.72,0-1.55S182.45,396.48,182.59,396.51Z" style="fill:#455a64"></path><path d="M183.62,390.5c.14,0,.14.72,0,1.55s-.37,1.48-.52,1.46-.14-.72,0-1.55S183.48,390.48,183.62,390.5Z" style="fill:#455a64"></path><path d="M184.65,384.5c.14,0,.14.72,0,1.55s-.38,1.48-.52,1.45-.14-.71,0-1.54S184.51,384.48,184.65,384.5Z" style="fill:#455a64"></path><path d="M185.69,378.5c.14,0,.14.72,0,1.55s-.37,1.48-.51,1.45-.14-.71,0-1.54S185.54,378.48,185.69,378.5Z" style="fill:#455a64"></path><path d="M186.73,372.5c.14,0,.14.72,0,1.55s-.37,1.48-.51,1.45-.14-.71,0-1.54S186.59,372.48,186.73,372.5Z" style="fill:#455a64"></path><path d="M187.77,366.5c.15,0,.14.72,0,1.55s-.38,1.48-.52,1.45-.14-.71,0-1.54S187.63,366.48,187.77,366.5Z" style="fill:#455a64"></path><path d="M188.83,360.51c.14,0,.14.71,0,1.54s-.38,1.48-.52,1.45-.14-.71,0-1.54S188.69,360.48,188.83,360.51Z" style="fill:#455a64"></path><path d="M189.89,354.51c.14,0,.14.72,0,1.54s-.38,1.48-.52,1.46-.14-.72,0-1.55S189.75,354.48,189.89,354.51Z" style="fill:#455a64"></path><path d="M191,348.51c.14,0,.14.72,0,1.55s-.38,1.48-.53,1.45-.13-.72,0-1.54S190.82,348.49,191,348.51Z" style="fill:#455a64"></path><path d="M192,342.52c.14,0,.13.72,0,1.54s-.38,1.48-.52,1.46-.14-.72,0-1.55S191.89,342.49,192,342.52Z" style="fill:#455a64"></path><path d="M193.12,336.53c.14,0,.13.71,0,1.54s-.38,1.48-.52,1.45-.14-.71,0-1.54S193,336.5,193.12,336.53Z" style="fill:#455a64"></path><path d="M194.21,330.54c.15,0,.14.71,0,1.54s-.39,1.48-.53,1.45-.14-.72,0-1.54S194.07,330.51,194.21,330.54Z" style="fill:#455a64"></path><path d="M195.32,324.55c.14,0,.13.72,0,1.54s-.39,1.48-.53,1.45-.14-.72,0-1.54S195.18,324.52,195.32,324.55Z" style="fill:#455a64"></path><path d="M196.43,318.56c.14,0,.13.72,0,1.54s-.39,1.48-.54,1.45-.13-.71,0-1.54S196.29,318.53,196.43,318.56Z" style="fill:#455a64"></path><path d="M197.56,312.58c.14,0,.13.71,0,1.54s-.4,1.47-.54,1.45-.13-.72,0-1.55S197.42,312.55,197.56,312.58Z" style="fill:#455a64"></path><path d="M198.69,306.59c.14,0,.13.72,0,1.55s-.4,1.47-.54,1.44-.12-.71,0-1.54S198.55,306.57,198.69,306.59Z" style="fill:#455a64"></path><path d="M199.84,300.61c.14,0,.13.72,0,1.55s-.4,1.47-.54,1.44-.13-.72,0-1.54S199.7,300.58,199.84,300.61Z" style="fill:#455a64"></path><path d="M201,294.63c.14,0,.13.72,0,1.55s-.41,1.47-.55,1.44-.13-.72,0-1.54S200.86,294.61,201,294.63Z" style="fill:#455a64"></path><path d="M202.18,288.66c.14,0,.12.72,0,1.54s-.41,1.47-.55,1.45-.13-.72,0-1.55S202,288.63,202.18,288.66Z" style="fill:#455a64"></path><path d="M203.37,282.69c.14,0,.12.72-.05,1.54s-.41,1.47-.55,1.44-.12-.72,0-1.54S203.23,282.66,203.37,282.69Z" style="fill:#455a64"></path><path d="M204.57,276.72c.14,0,.12.72,0,1.54s-.41,1.47-.55,1.44-.12-.72,0-1.54S204.43,276.69,204.57,276.72Z" style="fill:#455a64"></path><path d="M205.79,270.75c.14,0,.12.72,0,1.54s-.42,1.47-.56,1.44-.12-.72,0-1.54S205.65,270.72,205.79,270.75Z" style="fill:#455a64"></path><path d="M206.71,266.29c.14,0,.19.38.11.79s-.27.71-.41.68-.19-.38-.1-.79S206.57,266.26,206.71,266.29Z" style="fill:#455a64"></path><path d="M225.18,444.52c.15,0,.25.35.22.76s-.15.74-.29.74-.25-.35-.23-.77S225,444.51,225.18,444.52Z" style="fill:#455a64"></path><path d="M225.44,438.41c.14,0,.23.69.2,1.54s-.18,1.52-.32,1.52-.23-.7-.2-1.54S225.29,438.41,225.44,438.41Z" style="fill:#455a64"></path><path d="M225.63,432.3c.14,0,.24.69.21,1.53s-.16,1.53-.3,1.52-.24-.69-.22-1.53S225.48,432.3,225.63,432.3Z" style="fill:#455a64"></path><path d="M225.78,426.19c.14,0,.24.69.22,1.53s-.15,1.53-.29,1.52-.25-.69-.23-1.53S225.64,426.18,225.78,426.19Z" style="fill:#455a64"></path><path d="M225.93,420.07c.14,0,.24.69.22,1.54s-.15,1.52-.3,1.52-.24-.69-.22-1.53S225.78,420.07,225.93,420.07Z" style="fill:#455a64"></path><path d="M226.08,414c.15,0,.25.69.22,1.53s-.15,1.53-.3,1.53-.24-.7-.22-1.54S225.94,414,226.08,414Z" style="fill:#455a64"></path><path d="M226.29,407.84c.14,0,.23.7.2,1.54s-.17,1.52-.31,1.52-.24-.69-.21-1.54S226.14,407.84,226.29,407.84Z" style="fill:#455a64"></path><path d="M226.54,401.73c.15,0,.23.7.2,1.54s-.18,1.52-.32,1.52-.24-.7-.2-1.54S226.4,401.73,226.54,401.73Z" style="fill:#455a64"></path><path d="M226.78,395.62c.15,0,.24.7.2,1.54s-.17,1.52-.31,1.52-.24-.69-.21-1.54S226.64,395.62,226.78,395.62Z" style="fill:#455a64"></path><path d="M227,389.51c.15,0,.24.7.21,1.54s-.16,1.52-.31,1.52-.24-.69-.21-1.54S226.85,389.51,227,389.51Z" style="fill:#455a64"></path><path d="M227.18,383.4c.15,0,.24.69.22,1.53s-.16,1.53-.31,1.52-.24-.69-.21-1.53S227,383.39,227.18,383.4Z" style="fill:#455a64"></path><path d="M227.34,377.28c.15,0,.25.7.22,1.54s-.15,1.52-.29,1.52-.25-.69-.23-1.53S227.2,377.28,227.34,377.28Z" style="fill:#455a64"></path><path d="M227.47,371.17c.15,0,.25.69.23,1.54s-.14,1.52-.29,1.52-.24-.69-.23-1.53S227.33,371.17,227.47,371.17Z" style="fill:#455a64"></path><path d="M227.58,365.06c.14,0,.25.69.23,1.53s-.14,1.53-.28,1.53-.25-.69-.24-1.54S227.43,365.06,227.58,365.06Z" style="fill:#455a64"></path><path d="M227.65,359c.14,0,.25.68.24,1.53s-.13,1.52-.27,1.52-.26-.68-.25-1.53S227.51,358.94,227.65,359Z" style="fill:#455a64"></path><path d="M227.69,352.83c.15,0,.26.69.26,1.53s-.13,1.53-.27,1.53-.26-.69-.26-1.53S227.55,352.83,227.69,352.83Z" style="fill:#455a64"></path><path d="M227.71,346.72c.14,0,.26.68.26,1.53s-.12,1.52-.27,1.52-.26-.68-.25-1.52S227.56,346.72,227.71,346.72Z" style="fill:#455a64"></path><path d="M227.69,340.6c.14,0,.26.69.27,1.53s-.11,1.53-.26,1.53-.26-.68-.26-1.53S227.55,340.6,227.69,340.6Z" style="fill:#455a64"></path><path d="M227.64,334.49c.15,0,.27.68.28,1.53s-.11,1.53-.25,1.53-.27-.69-.28-1.53S227.5,334.49,227.64,334.49Z" style="fill:#455a64"></path><path d="M227.56,328.38c.15,0,.27.68.28,1.52s-.09,1.53-.23,1.53-.27-.68-.29-1.52S227.42,328.38,227.56,328.38Z" style="fill:#455a64"></path><path d="M227.45,322.27c.15,0,.28.67.29,1.52s-.09,1.53-.23,1.53-.27-.68-.29-1.52S227.31,322.27,227.45,322.27Z" style="fill:#455a64"></path><path d="M227.31,316.15c.15,0,.28.68.3,1.52s-.08,1.53-.22,1.54-.28-.68-.3-1.53S227.17,316.15,227.31,316.15Z" style="fill:#455a64"></path><path d="M227.1,310c.14,0,.29.68.32,1.52s-.06,1.53-.2,1.54-.29-.68-.32-1.52S227,310,227.1,310Z" style="fill:#455a64"></path><path d="M226.74,303.93c.15,0,.31.66.36,1.5s0,1.54-.16,1.55-.3-.67-.36-1.51S226.6,303.94,226.74,303.93Z" style="fill:#455a64"></path><path d="M226.18,297.84c.14,0,.33.65.42,1.49s0,1.53-.11,1.55-.33-.66-.41-1.5S226,297.85,226.18,297.84Z" style="fill:#455a64"></path><path d="M225.59,293.33c.15,0,.31.3.37.71s0,.76-.15.78-.31-.3-.37-.71S225.45,293.35,225.59,293.33Z" style="fill:#455a64"></path><polygon points="248.68 446.29 219.58 446.77 219.81 441.92 248.68 442.07 248.68 446.29" style="fill:#455a64"></polygon><path d="M229.59,264.45a4.34,4.34,0,0,1,0,1.13c0,.84-.07,1.87-.11,3.08-.12,2.6-.31,6.18-.55,10.14-.13,2-.26,3.85-.37,5.58a16.12,16.12,0,0,1-.67,4.56,3.82,3.82,0,0,1-2.12,2.26,2.33,2.33,0,0,1-.85.17c-.19,0-.29,0-.29-.05a5,5,0,0,0,1.06-.3,3.82,3.82,0,0,0,1.86-2.21,17.19,17.19,0,0,0,.53-4.46c.1-1.73.21-3.61.33-5.58.24-4,.49-7.54.7-10.13.11-1.21.2-2.24.27-3.07A5.66,5.66,0,0,1,229.59,264.45Z" style="fill:#455a64"></path><path d="M226.77,266.88c0-.07.46,0,.62.62a1.15,1.15,0,0,1-.22,1,1.18,1.18,0,0,1-2-.82,1.14,1.14,0,0,1,.55-.88c.54-.32.93-.06.88,0s-.34,0-.66.31a.82.82,0,0,0-.29.6.74.74,0,0,0,1.18.48.86.86,0,0,0,.21-.64C227,267.13,226.73,267,226.77,266.88Z" style="fill:#455a64"></path><path d="M200.88,271.23c0-.09.88.3,2.34.5a10,10,0,0,0,9.88-4.41c.83-1.23,1.11-2.12,1.19-2.09a5.23,5.23,0,0,1-.88,2.28,9.67,9.67,0,0,1-10.25,4.58A5.29,5.29,0,0,1,200.88,271.23Z" style="fill:#455a64"></path><path d="M246.64,264.45c.08,0,.1.75.45,1.89a8.19,8.19,0,0,0,6.56,5.75c1.18.2,1.93.11,1.94.2a3.89,3.89,0,0,1-2,.16,7.8,7.8,0,0,1-6.87-6A3.76,3.76,0,0,1,246.64,264.45Z" style="fill:#455a64"></path><path d="M262.08,268.64l-59.24-4,.69-29.19,0-21.12-6.6,9.73-17.6-18.39L199,186.8h0a30.88,30.88,0,0,1,12-7.75,24.87,24.87,0,0,1,7.5-1.43h0a30.09,30.09,0,0,0,18.11,0l3,.34a35.73,35.73,0,0,1,20.85,10l18.9,27.44-21.3,11.07L255.59,218S262.22,262.79,262.08,268.64Z" style="fill:#455a64"></path><path d="M203,215.43a15,15,0,0,1,1.91-3.48,14.53,14.53,0,0,1,2.35-3.19,15.29,15.29,0,0,1-1.91,3.47A15.91,15.91,0,0,1,203,215.43Z" style="fill:#263238"></path><polygon points="262.12 313.96 143.81 291.47 152.22 248.51 270.54 271 280.3 294.7 262.12 313.96" style="fill:#E6AB07"></polygon><g style="opacity:0.30000000000000004"><polygon points="262.12 313.96 143.81 291.47 152.22 248.51 270.54 271 280.3 294.7 262.12 313.96"></polygon></g><polygon points="260.52 310.13 144.72 287.45 153.13 244.49 268.94 267.18 278.7 290.88 260.52 310.13" style="fill:#E6AB07"></polygon><path d="M189.94,268.93l-7.25,10.91-1.67-.29-3.14-12.72,1.83.31,2.56,10.45,6-8.95Z" style="fill:#fff"></path><path d="M197.05,279.31l-6.28-1.1L189,280.94l-1.74-.31,7.41-10.88,1.67.29,3.31,12.76-1.77-.31Zm-.35-1.46-1.54-6.23L191.6,277Z" style="fill:#fff"></path><path d="M201.27,277a6.07,6.07,0,0,1,7.32-4.95,5.91,5.91,0,0,1,4.16,2.62l-1.28.88a4.43,4.43,0,0,0-3.08-2,4.61,4.61,0,1,0-1.59,9.08,4.47,4.47,0,0,0,3.58-.83l.91,1.25a5.94,5.94,0,0,1-4.83,1.07A6.06,6.06,0,0,1,201.27,277Z" style="fill:#fff"></path><path d="M221.16,283.52l-6.28-1.1-1.81,2.73-1.74-.3L218.74,274l1.67.3L223.72,287l-1.78-.31Zm-.36-1.46-1.53-6.23-3.56,5.34Z" style="fill:#fff"></path><path d="M237.7,277.27l-2.06,11.82-1.39-.24L228.7,278.8l-1.54,8.81-1.69-.29,2.07-11.82,1.38.24,5.55,10.05L236,277Z" style="fill:#fff"></path><path d="M243.34,279.77l-4.05-.7.25-1.47,9.78,1.7-.26,1.47-4.05-.7-1.81,10.34-1.67-.29Z" style="fill:#fff"></path><path d="M172.27,272.28l1.15,2.81a26.35,26.35,0,0,0,1.85,4.76,7.41,7.41,0,0,0,1.47,2,11.09,11.09,0,0,0,2.45,2,1,1,0,0,1-.06,1.85c-.87.17-3.32-.91-5.33-3.3s-1.93,2.53-1.93,4.33-.27,7.34-.82,7.78c-.81.64-1.64-.11-1.6-1.9s-.21-7.18-1.16-7.13-.81,9.18-.81,9.18.34,1.94-.75,2c-2,.16-1.39-9.55-1.31-10.48.06-.64-1-.63-1,.06s.34,9.11-1.67,9.29c-1.54.14.41-8-.63-9.69s-.85,6.32-2.33,6.39c-.54,0-1,0-.4-4.65s4.19-17.31,4.19-17.31l8.81,2.09" style="fill:#ffbe9d"></path><path d="M194.16,221.57s-12.42,10.27-13.22,13.78-6.79,42.48-6.79,42.48L162,276s.61-48.45,4.86-53.15,14.78-15.73,14.78-15.73Z" style="fill:#ffbe9d"></path><path d="M167.79,228s-.17-.1-.35-.4a2.48,2.48,0,0,1,.81-3.3,2.55,2.55,0,0,1,2.65-.13,2,2,0,0,1,.93,1.11,1.77,1.77,0,0,1-.1,1.36,1.46,1.46,0,0,1-2,.57,1.2,1.2,0,0,1-.42-1.4c.14-.34.35-.42.36-.4a2.41,2.41,0,0,0-.2.45,1,1,0,0,0,.43,1.1,1.13,1.13,0,0,0,1.53-.5,1.4,1.4,0,0,0,.05-1,1.58,1.58,0,0,0-.75-.87,2.15,2.15,0,0,0-2.22.1,2.2,2.2,0,0,0-1,1.57A3.3,3.3,0,0,0,167.79,228Z" style="fill:#eb996e"></path><path d="M294.56,260.72s11.36-4,12.14-3.36a32.88,32.88,0,0,1,2.9,5.2,1.63,1.63,0,0,1-1.47,2.35h0a1.63,1.63,0,0,1-1.43-.84l-1.86-3.39Z" style="fill:#ffbe9d"></path><path d="M299,260.72s11.36-4,12.13-3.36a32.07,32.07,0,0,1,2.9,5.2,1.63,1.63,0,0,1-1.47,2.35h0a1.64,1.64,0,0,1-1.43-.84l-1.86-3.39Z" style="fill:#ffbe9d"></path><path d="M303.46,260.72s11.37-4,12.14-3.36a32.07,32.07,0,0,1,2.9,5.2,1.63,1.63,0,0,1-1.47,2.35h0a1.64,1.64,0,0,1-1.43-.84l-1.86-3.39Z" style="fill:#ffbe9d"></path><path d="M309.39,262.13a5.69,5.69,0,0,1-1-1.91,9.18,9.18,0,0,0-1.06-2,1.86,1.86,0,0,0-.92-.7,3,3,0,0,0-1.29.29,52.34,52.34,0,0,0-6.74,2.7,6.52,6.52,0,0,1,1.77-1.22,24.65,24.65,0,0,1,4.78-2,3.21,3.21,0,0,1,1.56-.31,2.2,2.2,0,0,1,1.22.91,8,8,0,0,1,1,2.14A20.61,20.61,0,0,1,309.39,262.13Z" style="fill:#eb996e"></path><path d="M313.61,261.88c-.08,0-.25-.46-.61-1.2a20.77,20.77,0,0,0-1.61-2.76,1.4,1.4,0,0,0-1.36-.53,7.08,7.08,0,0,0-1.36.36c-.82.29-1.39.2-1.38.13s.5-.11,1.25-.47a5.39,5.39,0,0,1,1.43-.49,2,2,0,0,1,1,.05,1.91,1.91,0,0,1,.86.62C313.33,259.75,313.77,261.85,313.61,261.88Z" style="fill:#eb996e"></path><path d="M318.05,261.88a5.63,5.63,0,0,1-.61-1.2,20.77,20.77,0,0,0-1.61-2.76,1.4,1.4,0,0,0-1.36-.53,7.08,7.08,0,0,0-1.36.36c-.82.29-1.39.2-1.38.13s.5-.11,1.25-.47a5.52,5.52,0,0,1,1.43-.49,2,2,0,0,1,1,.05,1.86,1.86,0,0,1,.86.62C317.77,259.75,318.21,261.85,318.05,261.88Z" style="fill:#eb996e"></path></g><g id="freepik--speech-bubble--inject-3"><path d="M464.83,146.74a5.3,5.3,0,0,0,3.16-4.91,5,5,0,1,0-10-.05,5.31,5.31,0,0,0,3.17,5c-7.66,1.16-7.32,9.49-7.32,9.49l18.13.08S472.43,147.89,464.83,146.74Z" style="fill:#E6AB07"></path><path d="M456.32,144.67s.42,0,1.11-.22a4.65,4.65,0,0,0,2.46-1.65,4.4,4.4,0,1,0-7.05-.14,4.61,4.61,0,0,0,2.39,1.75c.68.21,1.1.21,1.09.26s-.1,0-.29,0a3.51,3.51,0,0,1-.86-.1,4.61,4.61,0,0,1-2.63-1.72,4.77,4.77,0,0,1-.66-4.57,4.84,4.84,0,0,1,9.13.18,4.78,4.78,0,0,1-.84,4.54,4.61,4.61,0,0,1-2.69,1.62,3.57,3.57,0,0,1-.86.06C456.42,144.7,456.32,144.69,456.32,144.67Z" style="fill:#455a64"></path><path d="M449.78,148.83a10.06,10.06,0,0,1,1.7-2.71,9.88,9.88,0,0,1,2.12-2.41,10.33,10.33,0,0,1-1.7,2.72A10.19,10.19,0,0,1,449.78,148.83Z" style="fill:#455a64"></path><path d="M481.89,156.24s.14.18.39.54l1.1,1.57c1,1.41,2.34,3.44,4.12,6a.12.12,0,0,1,0,.17.11.11,0,0,1-.07,0H475.88a.15.15,0,0,1-.15-.14.19.19,0,0,1,0-.08h0l.27.22a24.91,24.91,0,0,1-11,5.78,23.78,23.78,0,0,1-7.11.57,23.48,23.48,0,0,1-7.46-1.62,25.29,25.29,0,0,1-7-4.1,24.57,24.57,0,0,1-5.47-6.48,24.82,24.82,0,0,1,42.39-25.84,24.64,24.64,0,0,1,3.51,9.49c.05.37.11.73.16,1.09s0,.72.06,1.06c0,.7.09,1.37.07,2a25.35,25.35,0,0,1-.32,3.49,23.48,23.48,0,0,1-1.28,4.67c-.2.51-.37.9-.49,1.15a3.2,3.2,0,0,1-.19.39,3,3,0,0,1,.14-.4c.11-.27.26-.66.44-1.18a25,25,0,0,0,1.18-4.66,25.47,25.47,0,0,0,.27-3.46c0-.64-.06-1.3-.09-2,0-.34,0-.69-.07-1.05l-.17-1.08a24.44,24.44,0,0,0-39.8-15,24.35,24.35,0,0,0-5.38,31,24.14,24.14,0,0,0,5.36,6.36,25.1,25.1,0,0,0,6.83,4,23.12,23.12,0,0,0,7.32,1.61,23.68,23.68,0,0,0,7-.53,24.48,24.48,0,0,0,10.87-5.63.18.18,0,0,1,.25,0,.17.17,0,0,1,0,.2h0l-.27-.23a1.8,1.8,0,0,1,.53-.07h2.84l3,0,5.24.06-.1.19-4.05-6.14-1-1.6C482,156.42,481.89,156.24,481.89,156.24Z" style="fill:#263238"></path></g></svg>