<?xml version="1.0" encoding="UTF-8"?>
<!DOCTYPE svg PUBLIC "-//W3C//DTD SVG 1.1//EN" "http://www.w3.org/Graphics/SVG/1.1/DTD/svg11.dtd">
<!-- Creator: CorelDRAW 2020 (64-Bit) -->
<svg xmlns="http://www.w3.org/2000/svg" xml:space="preserve" width="0.944043in" height="0.924906in" version="1.1" style="shape-rendering:geometricPrecision; text-rendering:geometricPrecision; image-rendering:optimizeQuality; fill-rule:evenodd; clip-rule:evenodd"
viewBox="0 0 37.76 36.99"
 xmlns:xlink="http://www.w3.org/1999/xlink"
 xmlns:xodm="http://www.corel.com/coreldraw/odm/2003">
 <defs>
  <style type="text/css">
   <![CDATA[
    .fil1 {fill:none}
    .fil0 {fill:#0094F4;fill-rule:nonzero}
   ]]>
  </style>
 </defs>
 <g id="Layer_x0020_1">
  <metadata id="CorelCorpID_0Corel-Layer"/>
  <g id="_1043334080">
   <g>
    <path class="fil0" d="M25.98 25.89l0 -9.8c0,-0.57 -0.48,-1.05 -1.04,-1.05l-14.51 0c-0.57,0 -1.03,0.47 -1.03,1.05l0 4.77c0,0.15 -0.13,0.29 -0.28,0.29l-4.59 0c-0.16,0 -0.28,-0.13 -0.28,-0.29l0 -10.59c0,-0.8 0.64,-1.46 1.44,-1.46l27.32 0c0.79,0 1.44,0.65 1.44,1.46l0 15.62 -8.45 0zm9.55 0.78l0 0.76 -33.49 0 0 -0.76c0,-0.02 0,-0.04 0.01,-0.06l33.48 0c0,0.02 0.01,0.03 0.01,0.06zm-0.53 5.81l-32.42 0 0 -4.32 32.42 0 0 4.32zm-13.69 -24.94l4.29 0 0 0.56 -4.29 0 0 -0.56zm6.95 0l1.06 0 0 0.56 -1.06 0 0 -0.56zm7.45 5.3l0 6.35 -0.56 0 0 -6.35 0.56 0zm0.09 7.07c0.34,0 0.63,-0.29 0.63,-0.63l0 -6.53c0,-0.35 -0.28,-0.63 -0.63,-0.63l-0.65 0 0 -1.84c0,-1.2 -0.97,-2.18 -2.16,-2.18l-2.95 0 0 -0.62c0,-0.37 -0.29,-0.66 -0.66,-0.66l-1.18 0c-0.36,0 -0.66,0.3 -0.66,0.66l0 0.62 -1.22 0 0 -0.62c0,-0.37 -0.3,-0.66 -0.66,-0.66l-1.85 0 0 -2.67c0,-0.2 -0.16,-0.36 -0.36,-0.36 -0.2,0 -0.36,0.16 -0.36,0.36l0 2.67 -1.84 0c-0.37,0 -0.66,0.29 -0.66,0.66l0 0.62 -14.92 0c-1.19,0 -2.16,0.98 -2.16,2.18l0 10.59c0,0.56 0.45,1.01 1,1.01l1.94 0 0 2.35c0,0.2 0.16,0.36 0.36,0.36 0.2,0 0.36,-0.16 0.36,-0.36l0 -2.35 1.94 0c0.55,0 1,-0.45 1,-1.01l0 -4.77c0,-0.18 0.14,-0.33 0.31,-0.33l14.51 0c0.17,0 0.32,0.16 0.32,0.33l0 9.8 -23.31 0c-0.35,0 -0.63,0.34 -0.63,0.78l0 1.12c0,0.2 0.16,0.36 0.36,0.36l0.18 0 0 4.68c0,0.2 0.16,0.36 0.36,0.36l33.14 0c0.2,0 0.36,-0.16 0.36,-0.36l0 -4.68 0.17 0c0.2,0 0.36,-0.16 0.36,-0.36l0 -1.12c0,-0.44 -0.27,-0.78 -0.63,-0.78l-0.47 0 0 -5.98 0.65 0z"/>
    <path class="fil0" d="M25.77 25.89l0 -9.8c0,-0.23 -0.1,-0.44 -0.25,-0.59 -0.15,-0.15 -0.36,-0.25 -0.59,-0.25l-14.51 0c-0.23,0 -0.43,0.09 -0.58,0.25 -0.15,0.15 -0.24,0.36 -0.24,0.6l0 4.77c0,0.13 -0.06,0.26 -0.14,0.35 -0.09,0.09 -0.21,0.15 -0.35,0.15l-4.59 0c-0.14,0 -0.26,-0.06 -0.35,-0.15 -0.09,-0.09 -0.14,-0.21 -0.14,-0.35l0 -10.59c0,-0.46 0.18,-0.87 0.48,-1.17 0.3,-0.3 0.71,-0.49 1.16,-0.49l27.32 0c0.45,0 0.87,0.19 1.16,0.49 0.3,0.3 0.48,0.72 0.48,1.17l0 15.83 -8.87 0 0 -0.21zm0.42 -9.8l0 9.59 8.04 0 0 -15.41c0,-0.34 -0.14,-0.66 -0.36,-0.88 -0.22,-0.22 -0.53,-0.36 -0.87,-0.36l-27.32 0c-0.34,0 -0.65,0.14 -0.87,0.36 -0.22,0.23 -0.36,0.54 -0.36,0.88l0 10.59c0,0.02 0.01,0.05 0.02,0.06 0.01,0.01 0.03,0.02 0.05,0.02l4.59 0c0.02,0 0.03,-0.01 0.05,-0.02 0.02,-0.02 0.03,-0.04 0.03,-0.06l0 -4.77c0,-0.35 0.14,-0.66 0.36,-0.89 0.22,-0.23 0.53,-0.37 0.88,-0.37l14.51 0c0.34,0 0.65,0.14 0.88,0.37 0.23,0.23 0.37,0.54 0.37,0.89zm9.55 10.58l0 0.97 -33.91 0 0 -0.97 0 -0.05 0.01 -0.06 0.04 -0.16 33.8 0 0.04 0.17 0.01 0.05 0 0.05zm-0.42 0.56l0 -0.4 -33.07 0 0 0.4 33.07 0zm-0.32 5.46l-32.63 0 0 -4.74 32.84 0 0 4.74 -0.21 0zm-32.21 -0.42l32 0 0 -3.91 -32 0 0 3.91zm18.52 -24.94l4.49 0 0 0.98 -4.7 0 0 -0.98 0.21 0zm4.08 0.42l-3.87 0 0 0.15 3.87 0 0 -0.15zm2.87 -0.42l1.27 0 0 0.98 -1.48 0 0 -0.98 0.21 0zm0.85 0.42l-0.65 0 0 0.15 0.65 0 0 -0.15zm6.81 5.09l0 6.56 -0.98 0 0 -6.77 0.98 0 0 0.21zm-0.42 6.15l0 -5.94 -0.15 0 0 5.94 0.15 0zm0.3 0.72c0.11,0 0.22,-0.05 0.3,-0.13 0.08,-0.08 0.13,-0.18 0.13,-0.3l0 -6.53c0,-0.12 -0.05,-0.22 -0.12,-0.3 -0.08,-0.08 -0.18,-0.12 -0.3,-0.12l-0.86 0 0 -2.05c0,-0.54 -0.22,-1.04 -0.57,-1.39 -0.35,-0.36 -0.84,-0.58 -1.38,-0.58l-3.16 0 0 -0.83c0,-0.13 -0.05,-0.24 -0.13,-0.32 -0.08,-0.08 -0.19,-0.13 -0.32,-0.13l-1.18 0c-0.12,0 -0.24,0.05 -0.32,0.13 -0.08,0.08 -0.13,0.2 -0.13,0.32l0 0.83 -1.64 0 0 -0.83c0,-0.13 -0.05,-0.24 -0.13,-0.32 -0.08,-0.08 -0.19,-0.13 -0.32,-0.13l-2.06 0 0 -2.87c0,-0.04 -0.02,-0.08 -0.04,-0.11 -0.03,-0.03 -0.07,-0.04 -0.11,-0.04 -0.04,0 -0.08,0.02 -0.11,0.04 -0.03,0.03 -0.04,0.07 -0.04,0.11l0 2.87 -2.04 0c-0.13,0 -0.24,0.05 -0.32,0.13 -0.08,0.08 -0.13,0.2 -0.13,0.32l0 0.83 -15.13 0c-0.54,0 -1.02,0.22 -1.38,0.58 -0.35,0.36 -0.57,0.85 -0.57,1.39l0 10.59c0,0.22 0.09,0.42 0.23,0.57 0.14,0.14 0.34,0.23 0.56,0.23l2.14 0 0 2.56c0,0.04 0.02,0.08 0.04,0.11 0.03,0.03 0.07,0.04 0.11,0.04 0.04,0 0.08,-0.02 0.11,-0.04 0.03,-0.03 0.04,-0.07 0.04,-0.11l0 -2.56 2.14 0c0.22,0 0.42,-0.09 0.56,-0.23 0.14,-0.14 0.23,-0.35 0.23,-0.57l0 -4.77c0,-0.14 0.06,-0.28 0.15,-0.37 0.09,-0.1 0.23,-0.17 0.37,-0.17l14.51 0c0.14,0 0.28,0.06 0.38,0.16 0.1,0.1 0.16,0.23 0.16,0.38l0 10.01 -23.51 0c-0.11,0 -0.21,0.06 -0.29,0.15 -0.08,0.1 -0.14,0.25 -0.14,0.42l0 1.12c0,0.04 0.02,0.08 0.04,0.11 0.03,0.03 0.07,0.04 0.11,0.04l0.39 0 0 4.89c0,0.04 0.02,0.08 0.04,0.11 0.03,0.03 0.07,0.04 0.11,0.04l33.14 0c0.04,0 0.08,-0.02 0.11,-0.04 0.03,-0.03 0.04,-0.07 0.04,-0.11l0 -4.89 0.38 0c0.04,0 0.08,-0.02 0.11,-0.04 0.03,-0.03 0.04,-0.07 0.04,-0.11l0 -1.12c0,-0.17 -0.05,-0.32 -0.13,-0.42 -0.07,-0.09 -0.18,-0.15 -0.29,-0.15l-0.68 0 0 -6.4 0.86 0zm0.59 0.17c-0.15,0.15 -0.36,0.25 -0.59,0.25l-0.44 0 0 5.56 0.26 0c0.25,0 0.46,0.11 0.61,0.3 0.14,0.18 0.23,0.42 0.23,0.69l0 1.12c0,0.16 -0.06,0.3 -0.17,0.4 -0.09,0.09 -0.22,0.16 -0.36,0.17l0 4.48c0,0.16 -0.06,0.3 -0.17,0.4 -0.1,0.1 -0.25,0.17 -0.4,0.17l-33.14 0c-0.16,0 -0.3,-0.06 -0.4,-0.17 -0.1,-0.1 -0.17,-0.25 -0.17,-0.4l0 -4.48c-0.15,-0.01 -0.28,-0.07 -0.38,-0.17 -0.1,-0.1 -0.17,-0.24 -0.17,-0.4l0 -1.12c0,-0.27 0.09,-0.51 0.23,-0.68 0.15,-0.19 0.37,-0.3 0.61,-0.3l23.1 0 0 -9.59c0,-0.03 -0.01,-0.06 -0.04,-0.09 -0.02,-0.02 -0.05,-0.04 -0.08,-0.04l-14.51 0c-0.02,0 -0.05,0.01 -0.07,0.03 -0.02,0.02 -0.04,0.06 -0.04,0.09l0 4.77c0,0.33 -0.14,0.64 -0.36,0.86 -0.22,0.22 -0.52,0.36 -0.86,0.36l-1.73 0 0 2.14c0,0.16 -0.06,0.3 -0.17,0.4 -0.1,0.1 -0.25,0.17 -0.4,0.17 -0.16,0 -0.3,-0.06 -0.4,-0.17 -0.1,-0.1 -0.17,-0.25 -0.17,-0.4l0 -2.14 -1.73 0c-0.33,0 -0.64,-0.14 -0.86,-0.36 -0.22,-0.22 -0.36,-0.52 -0.36,-0.86l0 -10.59c0,-0.66 0.27,-1.25 0.69,-1.68 0.43,-0.43 1.02,-0.7 1.67,-0.7l14.71 0 0 -0.41c0,-0.24 0.1,-0.46 0.25,-0.62 0.16,-0.16 0.37,-0.25 0.62,-0.25l1.63 0 0 -2.46c0,-0.16 0.06,-0.3 0.17,-0.4 0.1,-0.1 0.25,-0.17 0.4,-0.17 0.16,0 0.3,0.06 0.4,0.17 0.1,0.1 0.17,0.25 0.17,0.4l0 2.46 1.64 0c0.24,0 0.46,0.1 0.61,0.26 0.16,0.16 0.25,0.38 0.25,0.61l0 0.41 0.8 0 0 -0.41c0,-0.24 0.1,-0.46 0.25,-0.61 0.16,-0.16 0.37,-0.26 0.61,-0.26l1.18 0c0.24,0 0.46,0.1 0.62,0.25 0.16,0.16 0.25,0.37 0.25,0.62l0 0.41 2.74 0c0.65,0 1.24,0.27 1.67,0.7 0.43,0.43 0.69,1.03 0.69,1.68l0 1.64 0.44 0c0.23,0 0.44,0.09 0.59,0.25 0.15,0.15 0.25,0.36 0.25,0.59l0 6.53c0,0.23 -0.1,0.44 -0.25,0.59z"/>
    <path class="fil0" d="M27.39 29.9c0,-0.06 0.06,-0.1 0.11,-0.1l4.44 0c0.06,0 0.1,0.04 0.1,0.1l0 0.73c0,0.06 -0.04,0.12 -0.1,0.12l-4.44 0c-0.06,0 -0.11,-0.05 -0.11,-0.12l0 -0.73zm0.11 1.57l4.44 0c0.45,0 0.82,-0.38 0.82,-0.84l0 -0.73c0,-0.46 -0.36,-0.82 -0.82,-0.82l-4.44 0c-0.46,0 -0.83,0.37 -0.83,0.82l0 0.73c0,0.46 0.37,0.84 0.83,0.84z"/>
    <path class="fil0" d="M27.18 29.9c0,-0.09 0.04,-0.17 0.1,-0.22 0.06,-0.05 0.14,-0.08 0.22,-0.08l4.44 0c0.09,0 0.16,0.03 0.22,0.09 0.05,0.06 0.08,0.13 0.08,0.22l0 0.73c0,0.07 -0.03,0.15 -0.08,0.21 -0.05,0.07 -0.13,0.11 -0.23,0.11l-4.44 0c-0.09,0 -0.17,-0.04 -0.23,-0.1 -0.06,-0.06 -0.09,-0.14 -0.09,-0.22l0 -0.73zm4.64 0.11l-4.23 0 0 0.53 4.23 0 0 -0.53zm-4.32 1.26l4.44 0c0.17,0 0.32,-0.07 0.43,-0.18 0.11,-0.11 0.18,-0.27 0.18,-0.45l0 -0.73c0,-0.17 -0.07,-0.33 -0.18,-0.44 -0.11,-0.11 -0.26,-0.18 -0.43,-0.18l-4.44 0c-0.17,0 -0.33,0.07 -0.44,0.18 -0.11,0.11 -0.18,0.26 -0.18,0.43l0 0.73c0,0.17 0.07,0.33 0.18,0.44 0.11,0.11 0.27,0.18 0.44,0.18zm4.44 0.42l-4.44 0c-0.29,0 -0.55,-0.12 -0.73,-0.31 -0.19,-0.19 -0.3,-0.45 -0.3,-0.74l0 -0.73c0,-0.28 0.12,-0.54 0.31,-0.73 0.19,-0.19 0.45,-0.3 0.73,-0.3l4.44 0c0.29,0 0.54,0.11 0.73,0.3 0.18,0.19 0.3,0.44 0.3,0.73l0 0.73c0,0.29 -0.11,0.55 -0.3,0.74 -0.19,0.19 -0.44,0.31 -0.73,0.31z"/>
    <path class="fil0" d="M30.24 23.6c-1.47,0 -2.66,-1.21 -2.66,-2.69 0,-1.49 1.2,-2.69 2.66,-2.69 1.47,0 2.66,1.21 2.66,2.69 0,1.49 -1.2,2.69 -2.66,2.69zm0 -6.11c-1.87,0 -3.38,1.53 -3.38,3.42 0,1.88 1.52,3.41 3.38,3.41 1.87,0 3.38,-1.53 3.38,-3.41 0,-1.88 -1.52,-3.42 -3.38,-3.42z"/>
    <path class="fil0" d="M30.24 23.81c-0.79,0 -1.51,-0.33 -2.03,-0.85 -0.52,-0.53 -0.84,-1.25 -0.84,-2.05 0,-0.8 0.32,-1.52 0.84,-2.05 0.52,-0.53 1.24,-0.85 2.03,-0.85 0.79,0 1.51,0.33 2.03,0.85 0.52,0.53 0.84,1.25 0.84,2.05 0,0.8 -0.32,1.52 -0.84,2.05 -0.52,0.53 -1.24,0.85 -2.03,0.85zm-1.73 -1.14c0.44,0.45 1.06,0.73 1.73,0.73 0.68,0 1.29,-0.28 1.74,-0.73 0.45,-0.45 0.72,-1.07 0.72,-1.76 0,-0.69 -0.28,-1.31 -0.72,-1.76 -0.44,-0.45 -1.06,-0.73 -1.74,-0.73 -0.68,0 -1.29,0.28 -1.73,0.73 -0.45,0.45 -0.72,1.07 -0.72,1.76 0,0.69 0.28,1.31 0.72,1.76zm1.73 -4.97c-0.88,0 -1.67,0.36 -2.24,0.94 -0.57,0.58 -0.93,1.38 -0.93,2.27 0,0.88 0.36,1.69 0.93,2.27 0.57,0.58 1.37,0.94 2.24,0.94 0.88,0 1.67,-0.36 2.25,-0.94 0.58,-0.58 0.93,-1.38 0.93,-2.27 0,-0.88 -0.36,-1.69 -0.93,-2.27 -0.57,-0.58 -1.37,-0.94 -2.25,-0.94zm-2.54 0.65c0.65,-0.66 1.55,-1.06 2.54,-1.06 0.99,0 1.89,0.41 2.54,1.06 0.65,0.66 1.05,1.56 1.05,2.56 0,1 -0.4,1.9 -1.05,2.56 -0.65,0.66 -1.55,1.06 -2.54,1.06 -0.99,0 -1.89,-0.41 -2.54,-1.06 -0.65,-0.66 -1.05,-1.56 -1.05,-2.56 0,-1 0.4,-1.9 1.05,-2.56z"/>
    <path class="fil0" d="M24.83 13.42l-13.01 0c-0.82,0 -1.48,-0.67 -1.48,-1.5 0,-0.83 0.66,-1.5 1.48,-1.5l13.01 0c0.82,0 1.48,0.67 1.48,1.5 0,0.83 -0.66,1.5 -1.48,1.5zm0 -3.72l-13.01 0c-1.21,0 -2.2,1 -2.2,2.22 0,1.22 0.99,2.22 2.2,2.22l13.01 0c1.21,0 2.2,-1 2.2,-2.22 0,-1.22 -0.99,-2.22 -2.2,-2.22z"/>
    <path class="fil0" d="M24.83 13.63l-13.01 0c-0.47,0 -0.89,-0.19 -1.19,-0.5 -0.31,-0.31 -0.49,-0.74 -0.49,-1.2 0,-0.47 0.19,-0.9 0.49,-1.2 0.31,-0.31 0.73,-0.5 1.19,-0.5l13.01 0c0.47,0 0.89,0.19 1.19,0.5 0.31,0.31 0.49,0.74 0.49,1.2 0,0.47 -0.19,0.9 -0.49,1.2 -0.31,0.31 -0.73,0.5 -1.19,0.5zm-13.01 -0.42l13.01 0c0.35,0 0.67,-0.14 0.9,-0.38 0.23,-0.23 0.37,-0.56 0.37,-0.91 0,-0.36 -0.14,-0.68 -0.37,-0.91 -0.23,-0.23 -0.55,-0.38 -0.9,-0.38l-13.01 0c-0.35,0 -0.67,0.14 -0.9,0.38 -0.23,0.23 -0.37,0.56 -0.37,0.91 0,0.36 0.14,0.68 0.37,0.91 0.23,0.23 0.55,0.38 0.9,0.38zm13.01 -3.3l-13.01 0c-0.55,0 -1.05,0.23 -1.41,0.59 -0.36,0.36 -0.58,0.87 -0.58,1.42 0,0.56 0.22,1.06 0.58,1.42 0.36,0.36 0.86,0.59 1.41,0.59l13.01 0c0.55,0 1.05,-0.23 1.41,-0.59 0.36,-0.36 0.58,-0.87 0.58,-1.42 0,-0.56 -0.22,-1.06 -0.58,-1.42 -0.36,-0.36 -0.86,-0.59 -1.41,-0.59zm-13.01 -0.42l13.01 0c0.66,0 1.27,0.27 1.7,0.71 0.44,0.44 0.71,1.05 0.71,1.71 0,0.67 -0.27,1.28 -0.71,1.71 -0.44,0.44 -1.04,0.71 -1.7,0.71l-13.01 0c-0.66,0 -1.27,-0.27 -1.7,-0.71 -0.44,-0.44 -0.71,-1.05 -0.71,-1.71 0,-0.67 0.27,-1.27 0.71,-1.71 0.44,-0.44 1.04,-0.71 1.7,-0.71z"/>
    <path class="fil0" d="M30.24 18.89c-0.2,0 -0.36,0.16 -0.36,0.36 0,0.2 0.16,0.36 0.36,0.36 0.71,0 1.28,0.58 1.28,1.3 0,0.2 0.16,0.36 0.36,0.36 0.2,0 0.36,-0.16 0.36,-0.36 0,-1.11 -0.9,-2.02 -2,-2.02z"/>
    <path class="fil0" d="M30.24 19.1c-0.04,0 -0.08,0.02 -0.11,0.04 -0.03,0.03 -0.04,0.07 -0.04,0.11 0,0.04 0.02,0.08 0.04,0.11 0.03,0.03 0.07,0.04 0.11,0.04 0.41,0 0.78,0.17 1.05,0.44 0.27,0.27 0.44,0.65 0.44,1.06 0,0.04 0.02,0.08 0.04,0.11 0.03,0.03 0.07,0.04 0.11,0.04 0.04,0 0.08,-0.02 0.11,-0.04 0.03,-0.03 0.04,-0.07 0.04,-0.11 0,-0.5 -0.2,-0.95 -0.53,-1.28 -0.32,-0.33 -0.77,-0.53 -1.27,-0.53zm-0.4 -0.25c0.1,-0.1 0.25,-0.17 0.4,-0.17 0.61,0 1.16,0.25 1.56,0.65 0.4,0.4 0.65,0.96 0.65,1.57 0,0.16 -0.06,0.3 -0.17,0.4 -0.1,0.1 -0.25,0.17 -0.4,0.17 -0.16,0 -0.3,-0.06 -0.4,-0.17 -0.1,-0.1 -0.17,-0.25 -0.17,-0.4 0,-0.3 -0.12,-0.57 -0.32,-0.77 -0.19,-0.2 -0.46,-0.32 -0.76,-0.32 -0.16,0 -0.3,-0.06 -0.4,-0.17 -0.1,-0.1 -0.17,-0.24 -0.17,-0.4 0,-0.16 0.06,-0.3 0.17,-0.4z"/>
   </g>
   <rect class="fil1" x="-0" y="-0" width="37.76" height="36.99"/>
  </g>
 </g>
</svg>
