<?xml version="1.0" encoding="UTF-8"?>
<!DOCTYPE svg PUBLIC "-//W3C//DTD SVG 1.1//EN" "http://www.w3.org/Graphics/SVG/1.1/DTD/svg11.dtd">
<!-- Creator: CorelDRAW 2020 (64-Bit) -->
<svg xmlns="http://www.w3.org/2000/svg" xml:space="preserve" width="0.944043in" height="0.924906in" version="1.1" style="shape-rendering:geometricPrecision; text-rendering:geometricPrecision; image-rendering:optimizeQuality; fill-rule:evenodd; clip-rule:evenodd"
viewBox="0 0 76.71 75.16"
 xmlns:xlink="http://www.w3.org/1999/xlink"
 xmlns:xodm="http://www.corel.com/coreldraw/odm/2003">
 <defs>
  <style type="text/css">
   <![CDATA[
    .fil1 {fill:none}
    .fil0 {fill:#0094F4;fill-rule:nonzero}
   ]]>
  </style>
 </defs>
 <g id="Layer_x0020_1">
  <metadata id="CorelCorpID_0Corel-Layer"/>
  <g id="_1070674896">
   <g>
    <path class="fil0" d="M56.89 52.72l10.07 0c1.53,0 2.77,-1.25 2.77,-2.77l0 -19.68c0,-1.53 -1.24,-2.77 -2.77,-2.77l-57.21 0c-1.53,0 -2.77,1.24 -2.77,2.77l0 19.68c0,1.53 1.24,2.77 2.77,2.77l10.07 0 0.78 -6.97 35.51 0 0.78 6.97zm10.07 2.26l-12.09 0 -0.78 -6.97 -31.47 0 -0.78 6.97 -12.09 0c-2.77,0 -5.03,-2.26 -5.03,-5.03l0 -19.68c0,-2.77 2.26,-5.03 5.03,-5.03l57.21 0c2.77,0 5.03,2.26 5.03,5.03l0 19.68c0,2.77 -2.26,5.03 -5.03,5.03z"/>
    <path class="fil0" d="M53.93 68.25l-31.15 0c-0.34,0 -0.66,-0.15 -0.87,-0.41 -0.21,-0.26 -0.3,-0.6 -0.24,-0.93l3.34 -17.49c0.12,-0.61 0.7,-1.01 1.32,-0.9 0.61,0.12 1.01,0.71 0.9,1.32l-3.08 16.15 28.42 0 -3.08 -16.15c-0.12,-0.61 0.29,-1.2 0.9,-1.32 0.62,-0.11 1.2,0.29 1.32,0.9l3.34 17.49c0.06,0.33 -0.02,0.67 -0.24,0.93 -0.21,0.26 -0.53,0.41 -0.87,0.41z"/>
    <polygon class="fil0" points="28.67,62.73 48.05,62.73 48.05,60.47 28.67,60.47 "/>
    <polygon class="fil0" points="30.21,57.89 46.51,57.89 46.51,55.63 30.21,55.63 "/>
    <polygon class="fil0" points="32.26,53.05 44.45,53.05 44.45,50.79 32.26,50.79 "/>
    <path class="fil0" d="M54.06 26.36l-2.26 0 0 -11 -5.3 0c-0.62,0 -1.13,-0.5 -1.13,-1.13l0 -5.07 -20.47 0 0 17.2 -2.26 0 0 -18.32c0,-0.62 0.51,-1.13 1.13,-1.13l22.73 0c0.62,0 1.13,0.5 1.13,1.13l0 5.07 5.3 0c0.62,0 1.13,0.5 1.13,1.13l0 12.13z"/>
    <polygon class="fil0" points="52.15,15.04 45.72,8.85 47.29,7.22 53.72,13.42 "/>
    <path class="fil0" d="M52.69 32.73c-1.01,0 -1.84,0.82 -1.84,1.84 0,1.01 0.83,1.84 1.84,1.84 1.01,0 1.84,-0.82 1.84,-1.84 0,-1.01 -0.83,-1.84 -1.84,-1.84zm0 5.93c-2.26,0 -4.1,-1.84 -4.1,-4.1 0,-2.26 1.84,-4.09 4.1,-4.09 2.26,0 4.1,1.84 4.1,4.09 0,2.26 -1.84,4.1 -4.1,4.1z"/>
    <path class="fil0" d="M62.33 32.73c-1.01,0 -1.84,0.82 -1.84,1.84 0,1.01 0.83,1.84 1.84,1.84 1.01,0 1.84,-0.82 1.84,-1.84 0,-1.01 -0.82,-1.84 -1.84,-1.84zm0 5.93c-2.26,0 -4.1,-1.84 -4.1,-4.1 0,-2.26 1.84,-4.09 4.1,-4.09 2.26,0 4.1,1.84 4.1,4.09 0,2.26 -1.84,4.1 -4.1,4.1z"/>
    <path class="fil0" d="M26.74 35.7l-14.28 0c-0.62,0 -1.13,-0.5 -1.13,-1.13 0,-0.62 0.51,-1.13 1.13,-1.13l14.28 0c0.62,0 1.13,0.51 1.13,1.13 0,0.62 -0.51,1.13 -1.13,1.13z"/>
   </g>
   <rect class="fil1" x="-0" y="-0" width="76.71" height="75.16"/>
  </g>
 </g>
</svg>
