<?xml version="1.0" encoding="UTF-8"?>
<!DOCTYPE svg PUBLIC "-//W3C//DTD SVG 1.1//EN" "http://www.w3.org/Graphics/SVG/1.1/DTD/svg11.dtd">
<!-- Creator: CorelDRAW 2020 (64-Bit) -->
<svg xmlns="http://www.w3.org/2000/svg" xml:space="preserve" width="0.944043in" height="0.924906in" version="1.1" style="shape-rendering:geometricPrecision; text-rendering:geometricPrecision; image-rendering:optimizeQuality; fill-rule:evenodd; clip-rule:evenodd"
viewBox="0 0 42.03 41.17"
 xmlns:xlink="http://www.w3.org/1999/xlink"
 xmlns:xodm="http://www.corel.com/coreldraw/odm/2003">
 <defs>
  <style type="text/css">
   <![CDATA[
    .fil1 {fill:none}
    .fil0 {fill:#0094F4;fill-rule:nonzero}
   ]]>
  </style>
 </defs>
 <g id="Layer_x0020_1">
  <metadata id="CorelCorpID_0Corel-Layer"/>
  <g id="_1070675376">
   <g>
    <path class="fil0" d="M3.09 33.43c-0.12,0 -0.25,-0.04 -0.35,-0.12 -0.15,-0.11 -0.24,-0.28 -0.24,-0.47l0 -19.66c0,-0.32 0.26,-0.59 0.59,-0.59 0.32,0 0.59,0.26 0.59,0.59l0 18.88c4.59,-1.29 11.13,-2.29 17.5,-0.38 0.31,0.09 0.49,0.42 0.39,0.73 -0.09,0.31 -0.42,0.48 -0.73,0.39 -6.45,-1.94 -13.12,-0.75 -17.58,0.59 -0.06,0.02 -0.11,0.02 -0.17,0.02z"/>
    <path class="fil0" d="M38.93 33.43c-0.06,0 -0.11,-0.01 -0.17,-0.02 -4.46,-1.34 -11.13,-2.53 -17.58,-0.59 -0.31,0.09 -0.64,-0.08 -0.73,-0.39 -0.09,-0.31 0.08,-0.64 0.39,-0.73 6.37,-1.91 12.91,-0.91 17.5,0.38l0 -18.88c0,-0.32 0.26,-0.59 0.59,-0.59 0.32,0 0.59,0.26 0.59,0.59l0 19.66c0,0.19 -0.09,0.36 -0.24,0.47 -0.1,0.08 -0.22,0.12 -0.35,0.12z"/>
    <path class="fil0" d="M13.36 27.4c2.39,0 4.77,0.36 7.07,1.07l0 -18.43c-4.57,-1.51 -9.56,-1.51 -14.13,0l0 18.43c2.29,-0.72 4.68,-1.07 7.07,-1.07zm7.65 2.47c-0.07,0 -0.13,-0.01 -0.19,-0.03 -4.81,-1.69 -10.11,-1.69 -14.91,0 -0.18,0.06 -0.38,0.04 -0.53,-0.07 -0.16,-0.11 -0.25,-0.29 -0.25,-0.48l0 -19.66c0,-0.25 0.16,-0.47 0.39,-0.55 5.06,-1.78 10.63,-1.78 15.69,0 0.23,0.08 0.39,0.3 0.39,0.55l0 19.66c0,0.19 -0.09,0.37 -0.25,0.48 -0.1,0.07 -0.22,0.11 -0.34,0.11z"/>
    <path class="fil0" d="M10.64 13.53c0.36,0 0.72,0.03 1.08,0.08l0 -1.87c-0.71,-0.12 -1.45,-0.12 -2.16,0l0 1.87c0.36,-0.05 0.72,-0.08 1.08,-0.08zm-1.67 1.37c-0.13,0 -0.26,-0.04 -0.36,-0.12 -0.14,-0.11 -0.23,-0.28 -0.23,-0.46l0 -3.06c0,-0.27 0.18,-0.5 0.44,-0.57 1.17,-0.29 2.45,-0.29 3.62,0 0.26,0.07 0.44,0.3 0.44,0.57l0 3.06c0,0.18 -0.08,0.35 -0.23,0.46 -0.14,0.11 -0.33,0.15 -0.5,0.11 -0.98,-0.25 -2.06,-0.25 -3.05,0 -0.05,0.01 -0.09,0.02 -0.14,0.02z"/>
    <path class="fil0" d="M16.09 13.53c0.36,0 0.72,0.03 1.08,0.08l0 -1.87c-0.71,-0.12 -1.45,-0.12 -2.16,0l0 1.87c0.36,-0.05 0.72,-0.08 1.08,-0.08zm1.67 1.37c-0.05,0 -0.1,-0.01 -0.14,-0.02 -0.98,-0.25 -2.06,-0.25 -3.05,0 -0.17,0.04 -0.36,0 -0.5,-0.11 -0.14,-0.11 -0.23,-0.28 -0.23,-0.46l0 -3.06c0,-0.27 0.18,-0.5 0.44,-0.57 1.17,-0.29 2.45,-0.29 3.62,0 0.26,0.07 0.44,0.3 0.44,0.57l0 3.06c0,0.18 -0.08,0.35 -0.23,0.46 -0.1,0.08 -0.23,0.12 -0.36,0.12z"/>
    <path class="fil0" d="M10.63 19.16c0.36,0 0.72,0.03 1.08,0.08l0 -1.87c-0.71,-0.12 -1.45,-0.12 -2.16,0l0 1.87c0.36,-0.05 0.72,-0.08 1.08,-0.08zm-1.67 1.37c-0.13,0 -0.26,-0.04 -0.36,-0.12 -0.14,-0.11 -0.23,-0.28 -0.23,-0.46l0 -3.06c0,-0.27 0.18,-0.5 0.44,-0.57 1.17,-0.29 2.45,-0.29 3.62,0 0.26,0.07 0.44,0.3 0.44,0.57l0 3.06c0,0.18 -0.08,0.35 -0.23,0.46 -0.14,0.11 -0.33,0.15 -0.5,0.11 -0.98,-0.25 -2.07,-0.25 -3.05,0 -0.05,0.01 -0.09,0.02 -0.14,0.02z"/>
    <path class="fil0" d="M16.09 19.16c0.36,0 0.72,0.03 1.08,0.08l0 -1.87c-0.71,-0.12 -1.45,-0.12 -2.16,0l0 1.87c0.36,-0.05 0.72,-0.08 1.08,-0.08zm1.67 1.37c-0.05,0 -0.1,-0.01 -0.14,-0.02 -0.98,-0.25 -2.06,-0.25 -3.05,0 -0.17,0.04 -0.36,0 -0.5,-0.11 -0.14,-0.11 -0.23,-0.28 -0.23,-0.46l0 -3.06c0,-0.27 0.18,-0.5 0.44,-0.57 1.17,-0.29 2.45,-0.29 3.62,0 0.26,0.07 0.44,0.3 0.44,0.57l0 3.06c0,0.18 -0.08,0.35 -0.23,0.46 -0.1,0.08 -0.23,0.12 -0.36,0.12z"/>
    <path class="fil0" d="M10.64 24.79c0.36,0 0.72,0.03 1.08,0.08l0 -1.87c-0.71,-0.12 -1.45,-0.12 -2.16,0l0 1.87c0.36,-0.05 0.72,-0.08 1.08,-0.08zm-1.67 1.37c-0.13,0 -0.26,-0.04 -0.36,-0.12 -0.14,-0.11 -0.23,-0.28 -0.23,-0.46l0 -3.06c0,-0.27 0.18,-0.5 0.44,-0.57 1.17,-0.29 2.45,-0.29 3.62,0 0.26,0.07 0.44,0.3 0.44,0.57l0 3.06c0,0.18 -0.08,0.35 -0.23,0.46 -0.14,0.11 -0.33,0.15 -0.5,0.11 -0.98,-0.25 -2.06,-0.25 -3.05,0 -0.05,0.01 -0.09,0.02 -0.14,0.02z"/>
    <path class="fil0" d="M16.09 24.79c0.36,0 0.72,0.03 1.08,0.08l0 -1.87c-0.71,-0.12 -1.45,-0.12 -2.16,0l0 1.87c0.36,-0.05 0.72,-0.08 1.08,-0.08zm1.67 1.37c-0.05,0 -0.1,-0.01 -0.14,-0.02 -0.98,-0.25 -2.06,-0.25 -3.05,0 -0.17,0.04 -0.36,0.01 -0.5,-0.11 -0.14,-0.11 -0.23,-0.28 -0.23,-0.46l0 -3.06c0,-0.27 0.18,-0.5 0.44,-0.57 1.17,-0.29 2.45,-0.29 3.62,0 0.26,0.07 0.44,0.3 0.44,0.57l0 3.06c0,0.18 -0.08,0.35 -0.23,0.46 -0.1,0.08 -0.23,0.12 -0.36,0.12z"/>
    <path class="fil0" d="M21.6 10.05l0 18.43c4.59,-1.43 9.54,-1.43 14.13,0l0 -18.43c-4.57,-1.51 -9.56,-1.51 -14.13,0zm14.72 19.83c-0.07,0 -0.13,-0.01 -0.19,-0.03 -4.81,-1.69 -10.11,-1.69 -14.91,0 -0.18,0.06 -0.38,0.04 -0.53,-0.07 -0.15,-0.11 -0.25,-0.29 -0.25,-0.48l0 -19.66c0,-0.25 0.16,-0.47 0.39,-0.55 5.06,-1.78 10.63,-1.78 15.69,0 0.23,0.08 0.39,0.3 0.39,0.55l0 19.66c0,0.19 -0.09,0.37 -0.25,0.48 -0.1,0.07 -0.22,0.11 -0.34,0.11z"/>
    <path class="fil0" d="M24.86 11.74l0 1.87c0.71,-0.1 1.45,-0.1 2.16,0l0 -1.87c-0.71,-0.12 -1.45,-0.12 -2.16,0zm2.75 3.17c-0.05,0 -0.1,-0.01 -0.14,-0.02 -0.98,-0.25 -2.06,-0.25 -3.05,0 -0.18,0.04 -0.36,0 -0.5,-0.11 -0.14,-0.11 -0.23,-0.28 -0.23,-0.46l0 -3.06c0,-0.27 0.18,-0.5 0.44,-0.57 1.17,-0.29 2.45,-0.29 3.62,0 0.26,0.07 0.44,0.3 0.44,0.57l0 3.06c0,0.18 -0.08,0.35 -0.23,0.46 -0.1,0.08 -0.23,0.12 -0.36,0.12z"/>
    <path class="fil0" d="M30.31 11.74l0 1.87c0.71,-0.1 1.45,-0.1 2.16,0l0 -1.87c-0.71,-0.12 -1.45,-0.12 -2.16,0zm2.75 3.17c-0.05,0 -0.1,-0.01 -0.14,-0.02 -0.98,-0.25 -2.06,-0.25 -3.05,0 -0.17,0.04 -0.36,0 -0.5,-0.11 -0.14,-0.11 -0.23,-0.28 -0.23,-0.46l0 -3.06c0,-0.27 0.18,-0.5 0.44,-0.57 1.17,-0.29 2.45,-0.29 3.62,0 0.26,0.07 0.44,0.3 0.44,0.57l0 3.06c0,0.18 -0.08,0.35 -0.23,0.46 -0.1,0.08 -0.23,0.12 -0.36,0.12z"/>
    <path class="fil0" d="M25.94 19.16c0.36,0 0.72,0.03 1.08,0.08l0 -1.87c-0.71,-0.12 -1.45,-0.12 -2.16,0l0 1.87c0.36,-0.05 0.72,-0.08 1.08,-0.08zm1.67 1.37c-0.05,0 -0.09,-0.01 -0.14,-0.02 -0.98,-0.25 -2.06,-0.25 -3.05,0 -0.18,0.04 -0.36,0 -0.5,-0.11 -0.14,-0.11 -0.23,-0.28 -0.23,-0.46l0 -3.06c0,-0.27 0.18,-0.5 0.44,-0.57 1.17,-0.29 2.45,-0.29 3.62,0 0.26,0.07 0.44,0.3 0.44,0.57l0 3.06c0,0.18 -0.08,0.35 -0.22,0.46 -0.1,0.08 -0.23,0.12 -0.36,0.12z"/>
    <path class="fil0" d="M31.39 19.16c0.36,0 0.72,0.03 1.08,0.08l0 -1.87c-0.71,-0.12 -1.45,-0.12 -2.16,0l0 1.87c0.36,-0.05 0.72,-0.08 1.08,-0.08zm1.67 1.37c-0.05,0 -0.09,-0.01 -0.14,-0.02 -0.98,-0.25 -2.06,-0.25 -3.05,0 -0.17,0.04 -0.36,0 -0.5,-0.11 -0.14,-0.11 -0.23,-0.28 -0.23,-0.46l0 -3.06c0,-0.27 0.18,-0.5 0.44,-0.57 1.17,-0.29 2.45,-0.29 3.62,0 0.26,0.07 0.44,0.3 0.44,0.57l0 3.06c0,0.18 -0.08,0.35 -0.22,0.46 -0.1,0.08 -0.23,0.12 -0.36,0.12z"/>
    <path class="fil0" d="M24.86 22.99l0 1.87c0.71,-0.1 1.45,-0.1 2.16,0l0 -1.87c-0.71,-0.12 -1.45,-0.12 -2.16,0zm2.75 3.17c-0.05,0 -0.1,-0.01 -0.14,-0.02 -0.98,-0.25 -2.06,-0.25 -3.05,0 -0.18,0.04 -0.36,0.01 -0.5,-0.11 -0.14,-0.11 -0.23,-0.28 -0.23,-0.46l0 -3.06c0,-0.27 0.18,-0.5 0.44,-0.57 1.17,-0.29 2.45,-0.29 3.62,0 0.26,0.07 0.44,0.3 0.44,0.57l0 3.06c0,0.18 -0.08,0.35 -0.23,0.46 -0.1,0.08 -0.23,0.12 -0.36,0.12z"/>
    <path class="fil0" d="M30.31 22.99l0 1.87c0.71,-0.1 1.45,-0.1 2.16,0l0 -1.87c-0.71,-0.12 -1.45,-0.12 -2.16,0zm2.75 3.17c-0.05,0 -0.1,-0.01 -0.14,-0.02 -0.98,-0.25 -2.06,-0.25 -3.05,0 -0.17,0.04 -0.36,0.01 -0.5,-0.11 -0.14,-0.11 -0.23,-0.28 -0.23,-0.46l0 -3.06c0,-0.27 0.18,-0.5 0.44,-0.57 1.17,-0.29 2.45,-0.29 3.62,0 0.26,0.07 0.44,0.3 0.44,0.57l0 3.06c0,0.18 -0.08,0.35 -0.23,0.46 -0.1,0.08 -0.23,0.12 -0.36,0.12z"/>
   </g>
   <rect class="fil1" x="-0" y="-0" width="42.03" height="41.17"/>
  </g>
 </g>
</svg>
