<?xml version="1.0" encoding="UTF-8"?>
<!DOCTYPE svg PUBLIC "-//W3C//DTD SVG 1.1//EN" "http://www.w3.org/Graphics/SVG/1.1/DTD/svg11.dtd">
<!-- Creator: CorelDRAW 2020 (64-Bit) -->
<svg xmlns="http://www.w3.org/2000/svg" xml:space="preserve" width="0.944043in" height="0.924906in" version="1.1" style="shape-rendering:geometricPrecision; text-rendering:geometricPrecision; image-rendering:optimizeQuality; fill-rule:evenodd; clip-rule:evenodd"
viewBox="0 0 47.38 46.42"
 xmlns:xlink="http://www.w3.org/1999/xlink"
 xmlns:xodm="http://www.corel.com/coreldraw/odm/2003">
 <defs>
  <style type="text/css">
   <![CDATA[
    .fil1 {fill:none}
    .fil0 {fill:#0094F4;fill-rule:nonzero}
   ]]>
  </style>
 </defs>
 <g id="Layer_x0020_1">
  <metadata id="CorelCorpID_0Corel-Layer"/>
  <g id="_1053232080">
   <g>
    <path class="fil0" d="M36.65 26.16l-0.25 -1.17c0.53,-0.11 1.06,-0.22 1.6,-0.34 2.07,-0.43 4.22,-0.88 6.46,-1.48 0.58,-0.16 0.72,-0.3 0.74,-0.33 -0.02,-0 -0.1,-0.27 -0.82,-0.82l-12.54 -9.64c-1.62,-1.25 -4.96,-1.48 -7,-0.49l-21.42 10.42c-0.95,0.46 -1.2,0.84 -1.22,0.93l0 -0c0.02,0 0.24,0.24 1.26,0.4l6.05 0.96 0.16 0.02c0.25,0.07 0.44,0.3 0.44,0.57 0,0.33 -0.28,0.6 -0.61,0.6l-0.01 -0 -6.2 -0.97c-0.52,-0.08 -2.1,-0.33 -2.26,-1.42 -0.11,-0.76 0.54,-1.51 1.88,-2.17l21.42 -10.42c2.43,-1.18 6.29,-0.89 8.25,0.62l12.54 9.64c0.67,0.52 1.42,1.21 1.26,2.02 -0.17,0.85 -1.24,1.14 -1.6,1.23 -2.28,0.61 -4.44,1.06 -6.53,1.5 -0.54,0.11 -1.07,0.22 -1.6,0.34z"/>
    <path class="fil0" d="M36.5 26.19l-0.28 -1.32c0.39,-0.08 1.47,-0.25 1.75,-0.37 2.07,-0.43 4.21,-0.88 6.45,-1.48 0.28,-0.07 0.44,-0.15 0.55,-0.2l0.03 -0.02c-0.09,-0.12 -0.28,-0.34 -0.71,-0.67l-12.54 -9.64c-0.79,-0.61 -2,-0.96 -3.26,-1.05 -1.27,-0.09 -2.59,0.1 -3.58,0.58l-21.42 10.42c-0.35,0.17 -0.6,0.33 -0.78,0.47 -0.16,0.12 -0.25,0.21 -0.3,0.28 0.14,0.08 0.45,0.21 1.09,0.31 1.96,0.31 4.33,0.56 6.22,0.99 0.16,0.05 0.3,0.14 0.39,0.27 0.1,0.12 0.15,0.28 0.15,0.45 0,0.21 -0.09,0.39 -0.23,0.53 -0.14,0.13 -0.33,0.22 -0.54,0.22 -1.34,-0.4 -4.66,-0.72 -6.24,-0.97 -0.27,-0.04 -0.8,-0.13 -1.3,-0.34 -0.52,-0.23 -0.99,-0.6 -1.09,-1.2 -0.06,-0.43 0.08,-0.85 0.43,-1.24 0.33,-0.38 0.84,-0.74 1.53,-1.08l21.42 -10.42c1.24,-0.6 2.84,-0.83 4.38,-0.72 1.54,0.11 3.02,0.57 4.03,1.35l12.54 9.64c0.34,0.27 0.71,0.58 0.97,0.93 0.27,0.37 0.43,0.79 0.35,1.24 -0.19,0.94 -1.32,1.24 -1.7,1.35l-0.01 0c-1.14,0.3 -2.25,0.57 -3.34,0.81 -1.09,0.24 -2.15,0.47 -3.2,0.69l-1.74 0.37 -0.03 -0.15zm0.07 -1.09l0.19 0.88 1.45 -0.31c1.04,-0.22 2.11,-0.44 3.19,-0.68 1.08,-0.24 2.19,-0.51 3.32,-0.81l0.01 -0c0.33,-0.09 1.33,-0.36 1.48,-1.12 0.07,-0.36 -0.06,-0.7 -0.29,-1 -0.24,-0.33 -0.59,-0.62 -0.91,-0.87l-12.54 -9.64c-0.96,-0.74 -2.39,-1.18 -3.87,-1.29 -1.49,-0.11 -3.03,0.11 -4.23,0.69l-21.42 10.42c-0.65,0.32 -1.13,0.66 -1.44,1 -0.29,0.33 -0.41,0.67 -0.36,1.01 0.07,0.48 0.47,0.78 0.91,0.97 0.46,0.2 0.97,0.28 1.23,0.32l6.19 0.97c0.13,-0 0.25,-0.05 0.33,-0.13 0.08,-0.08 0.13,-0.19 0.13,-0.31 0,-0.1 -0.03,-0.19 -0.09,-0.26 -0.06,-0.07 -0.14,-0.13 -0.23,-0.16l-6.19 -0.98c-0.91,-0.14 -1.22,-0.36 -1.3,-0.41 -0,-0 -0,-0 0,-0l0.05 -0.08 -0.14 -0.09c0.01,-0.07 0.13,-0.28 0.47,-0.53 0.19,-0.15 0.46,-0.32 0.83,-0.5l21.42 -10.42c1.04,-0.51 2.41,-0.7 3.73,-0.61 1.32,0.09 2.59,0.47 3.42,1.11l12.54 9.64c0.56,0.43 0.76,0.7 0.82,0.81l0.17 0.04 -0.15 0.18c-0.01,0.02 -0.07,0.08 -0.2,0.15 -0.12,0.06 -0.31,0.14 -0.61,0.23 -2.24,0.6 -4.39,1.05 -6.47,1.49 -0.22,0.09 -1.14,0.24 -1.45,0.31zm-34.38 -1.8l-0.01 -0.01 -0.05 0.08c0.01,-0 0.05,0.01 0.06,0.01l0 -0.08z"/>
    <path class="fil0" d="M11.9 30.36c0.22,0.69 2.06,2.02 5.6,2.96 4.89,1.3 8.39,1.89 10.84,1.82 3.33,-0.1 6.1,-2.66 7.51,-4.87l0 -6.49c-0.85,-2.1 -5.06,-3.56 -10.32,-3.56 -2.1,0 -4.21,0.25 -6.15,0.72l0 0 -0.01 0c-0.33,0 -0.6,-0.27 -0.6,-0.6 0,-0.33 0.27,-0.6 0.6,-0.6l0.01 0 0 -0.02c1.94,-0.45 4.04,-0.7 6.15,-0.7 5.93,0 10.54,1.79 11.49,4.45l0.03 0.1 0 7.05 -0.09 0.14c-1.54,2.5 -4.71,5.46 -8.58,5.58 -0.14,0 -0.29,0.01 -0.43,0.01 -2.5,0 -6.02,-0.61 -10.75,-1.86 -2.89,-0.77 -6.11,-2.2 -6.48,-3.91l-0.01 -0.13 0 -5.79 0.08 -0.14c1.06,-1.82 3.77,-3.41 7.15,-4.41l0 1.25c-2.83,0.87 -5.1,2.17 -6.03,3.63l0 5.38z"/>
    <path class="fil0" d="M12.05 30.33c0.13,0.35 0.73,0.89 1.82,1.47 0.9,0.47 2.12,0.96 3.67,1.37 2.44,0.65 4.53,1.12 6.32,1.42 1.78,0.3 3.26,0.43 4.47,0.39 1.45,-0.05 2.8,-0.57 3.97,-1.33 1.45,-0.94 2.62,-2.24 3.39,-3.44l0 -6.42c-0.42,-1 -1.65,-1.85 -3.41,-2.46 -1.8,-0.62 -4.15,-0.98 -6.76,-0.98 -1.04,0 -2.08,0.06 -3.1,0.18 -1.04,0.12 -2.05,0.3 -3.01,0.53l-0.05 0c-0.21,0 -0.39,-0.08 -0.53,-0.22 -0.13,-0.14 -0.22,-0.32 -0.22,-0.53 0,-0.21 0.08,-0.39 0.22,-0.53 0.1,-0.1 0.24,-0.18 0.39,-0.21l0 -0 0.12 -0.03c0.99,-0.23 2.02,-0.41 3.07,-0.53 1.02,-0.12 2.06,-0.18 3.1,-0.18 2.98,0 5.64,0.45 7.67,1.24 2.05,0.79 3.47,1.94 3.96,3.31l0.03 0.1 0.01 0.05 0 7.05 -0.02 0.08 -0.09 0.14c-0.86,1.4 -2.24,2.95 -3.96,4.07 -1.38,0.9 -2.99,1.52 -4.75,1.58l-0.44 0.01c-1.26,0 -2.77,-0.15 -4.56,-0.46 -1.79,-0.31 -3.85,-0.78 -6.22,-1.4 -1.6,-0.43 -3.31,-1.05 -4.58,-1.82 -1.06,-0.64 -1.83,-1.39 -2.01,-2.2 -0.21,-1.36 -0.02,-4.41 -0.02,-5.95l0.02 -0.07 0.08 -0.14c0.54,-0.92 1.47,-1.78 2.69,-2.53 1.25,-0.77 2.81,-1.44 4.54,-1.95l0.19 -0.06 0 1.56 -0.11 0.03c-1.43,0.44 -2.71,0.99 -3.75,1.61 -0.97,0.59 -1.73,1.23 -2.18,1.92l0 5.32zm1.68 1.73c-1.18,-0.62 -1.84,-1.24 -1.97,-1.66l-0.01 -0.05 0 -5.38 0.02 -0.08c0.47,-0.74 1.27,-1.43 2.3,-2.05 1.03,-0.62 2.3,-1.17 3.71,-1.61l0 -0.94c-1.63,0.49 -3.09,1.13 -4.28,1.86 -1.18,0.73 -2.08,1.55 -2.59,2.42l-0.06 0.11 0 5.75 0.01 0.11c0.16,0.72 0.88,1.41 1.87,2 1.25,0.75 2.92,1.37 4.5,1.79 2.36,0.63 4.42,1.09 6.2,1.4 1.77,0.31 3.27,0.46 4.51,0.46l0.22 -0 0.21 -0c1.69,-0.05 3.25,-0.66 4.59,-1.53 1.68,-1.09 3.02,-2.61 3.87,-3.98l0.07 -0.11 0 -6.98 -0.03 -0.07c-0.46,-1.29 -1.82,-2.37 -3.79,-3.13 -1.99,-0.77 -4.61,-1.22 -7.56,-1.22 -1.03,0 -2.06,0.06 -3.07,0.18 -1,0.11 -1.98,0.28 -2.93,0.49l0 0.05 -0.16 -0c-0.12,0 -0.23,0.05 -0.32,0.13 -0.08,0.08 -0.13,0.19 -0.13,0.32 0,0.12 0.05,0.24 0.13,0.32 0.08,0.08 0.19,0.13 0.31,0.13 0.97,-0.23 1.99,-0.41 3.03,-0.54 1.03,-0.12 2.09,-0.18 3.13,-0.18 2.64,0 5.03,0.37 6.86,1 1.86,0.64 3.16,1.56 3.6,2.65l0.01 0.06 0 6.49 -0.02 0.08c-0.79,1.24 -2.01,2.59 -3.51,3.57 -1.21,0.79 -2.61,1.33 -4.13,1.38 -1.23,0.04 -2.73,-0.09 -4.53,-0.4 -1.8,-0.3 -3.9,-0.78 -6.35,-1.43 -1.58,-0.42 -2.82,-0.91 -3.74,-1.4z"/>
    <polygon class="fil0" points="16.74,23.21 17.93,23.21 17.93,22.25 17.93,19.55 17.93,14.87 16.74,14.87 "/>
    <path class="fil0" d="M16.89 23.06l0.9 0 0 -8.04 -0.9 0 0 8.04zm1.05 0.3l-1.35 0 0 -8.64 1.5 0 0 8.64 -0.15 0z"/>
    <path class="fil0" d="M16.81 27.53l0.53 0.61 0.53 -0.61 0 -3.19c0,-0.29 -0.24,-0.53 -0.53,-0.53 -0.29,0 -0.53,0.24 -0.53,0.53l0 3.19zm0.53 2.44l-1.73 -1.99 0 -3.64c0,-0.95 0.77,-1.73 1.73,-1.73 0.95,0 1.72,0.77 1.72,1.73l0 3.64 -1.72 1.99z"/>
    <path class="fil0" d="M16.96 27.47l0.38 0.44 0.38 -0.44 0 -3.14c0,-0.1 -0.04,-0.2 -0.11,-0.27 -0.07,-0.07 -0.16,-0.11 -0.27,-0.11 -0.1,0 -0.2,0.04 -0.27,0.11 -0.07,0.07 -0.11,0.16 -0.11,0.27l0 3.14zm0.27 0.76l-0.53 -0.61 -0.04 -0.1 0 -3.19c0,-0.19 0.08,-0.36 0.2,-0.48 0.12,-0.12 0.29,-0.2 0.48,-0.2 0.19,0 0.36,0.08 0.48,0.2 0.12,0.12 0.2,0.29 0.2,0.48l0 3.19 -0.04 0.1 -0.64 0.74 -0.11 -0.13zm0 1.83l-1.73 -1.99 -0.04 -0.1 0 -3.64c0,-0.52 0.21,-0.99 0.55,-1.32 0.34,-0.34 0.81,-0.55 1.33,-0.55 0.52,0 0.98,0.21 1.32,0.55 0.34,0.34 0.55,0.81 0.55,1.32l0 3.64 -0.04 0.1 -1.84 2.12 -0.11 -0.13zm-1.46 -2.14l1.58 1.82 1.57 -1.82 0 -3.58c0,-0.43 -0.18,-0.83 -0.46,-1.11 -0.28,-0.29 -0.68,-0.46 -1.11,-0.46 -0.43,0 -0.83,0.18 -1.11,0.46 -0.29,0.28 -0.46,0.68 -0.46,1.11l0 3.58z"/>
   </g>
   <rect class="fil1" x="-0" y="-0" width="47.38" height="46.42"/>
  </g>
 </g>
</svg>
