<svg id="Layer_1" enable-background="new 0 0 512 512" height="512" viewBox="0 0 512 512" width="512" xmlns="http://www.w3.org/2000/svg"><g><path d="m145.328 184.038c-.882-2.716-3.229-4.695-6.055-5.105l-26.163-3.799-11.699-23.688c-2.701-5.469-10.748-5.469-13.449 0l-11.698 23.688-26.164 3.799c-6.041.877-8.525 8.536-4.155 12.795l18.929 18.437-4.468 26.031c-1.034 6.016 5.505 10.732 10.88 7.908l23.401-12.295 23.401 12.295c5.401 2.837 11.913-1.895 10.88-7.908l-4.467-26.031 18.928-18.438c2.045-1.993 2.782-4.973 1.899-7.689zm-34.12 18.134c-1.769 1.723-2.576 4.206-2.158 6.641l2.564 14.945-13.439-7.061c-2.326-1.147-4.651-1.147-6.977 0l-13.439 7.061 2.565-14.945c.418-2.434-.39-4.918-2.158-6.642l-10.862-10.579 15.017-2.181c2.442-.354 4.554-1.888 5.646-4.101l6.72-13.607 6.721 13.607c1.093 2.213 3.204 3.746 5.646 4.101l15.016 2.181z"/><path d="m278.082 283.283c30.033-1.243 30.025-44.039 0-45.277-13.823-.132-24.718 12.771-22.332 26.365l-31.372 17.261c-14.279-12.978-37.797-2.627-37.727 16.863-.07 19.488 23.451 29.84 37.726 16.862l31.372 17.261c-2.384 13.594 8.508 26.498 22.332 26.365 12.483 0 22.639-10.155 22.639-22.639.068-19.49-23.451-29.839-37.728-16.862l-31.372-17.261c.409-2.485.409-4.969 0-7.454l31.371-17.261c4.009 3.591 9.3 5.777 15.091 5.777zm0-30.277c4.212 0 7.639 3.427 7.639 7.639-.384 10.12-14.895 10.117-15.277 0-.001-4.212 3.426-7.639 7.638-7.639zm-68.792 53.127c-4.212 0-7.639-3.426-7.639-7.638.436-10.166 14.791-10.063 15.276 0 .001 4.212-3.425 7.638-7.637 7.638zm68.792 22.574c4.212 0 7.639 3.426 7.639 7.638-.384 10.12-14.895 10.117-15.277 0-.001-4.212 3.426-7.638 7.638-7.638z"/><path d="m480.847 163.352h-123.36c-17.179 0-31.154 13.976-31.154 31.153v4.999h-136.959v-39.421h21.493l33.625 30.866c4.816 4.42 12.571.816 12.571-5.525v-25.341h13.54c17.265 0 31.311-14.046 31.311-31.31v-97.463c0-17.264-14.046-31.31-31.311-31.31h-124.174c-17.265 0-31.311 14.046-31.311 31.31v85.096h-83.451c-17.461-.001-31.667 14.205-31.667 31.667v18.469c0 9.697 15 9.697 15 0v-18.469c0-9.19 7.477-16.668 16.667-16.668h83.561c1.341 16.037 14.822 28.678 31.2 28.678h27.945v86.916c0 9.19-7.478 16.668-16.668 16.668h-20.771c-4.143 0-7.5 3.357-7.5 7.5v16.268l-23.742-21.793c-1.383-1.27-3.193-1.975-5.071-1.975h-68.954c-9.19 0-16.667-7.478-16.667-16.668v-39.306c0-9.697-15-9.697-15 0v39.306c0 17.462 14.206 31.668 31.667 31.668h42.938v133.997c0 18.85 15.335 34.185 34.185 34.185h107.293l-11.864 50.151h-22.937c-4.143 0-7.5 3.357-7.5 7.5s3.357 7.5 7.5 7.5h149.436c4.143 0 7.5-3.357 7.5-7.5s-3.357-7.5-7.5-7.5h-22.937l-11.863-50.151h49.477c9.697 0 9.697-15 0-15h-236.606c-10.578 0-19.185-8.606-19.185-19.185v-21.882h332.791v21.882c0 10.578-8.606 19.185-19.185 19.185h-17.867c-9.697 0-9.697 15 0 15h17.867c18.85 0 34.185-15.335 34.185-34.185v-90.182h43.451c17.178 0 31.153-13.976 31.153-31.153v-96.824c.001-17.178-13.975-31.153-31.152-31.153zm-350.729-34.579v-97.463c0-8.993 7.316-16.31 16.311-16.31h124.175c8.993 0 16.311 7.316 16.311 16.31v97.464c0 8.993-7.317 16.31-16.311 16.31h-21.04c-4.143 0-7.5 3.357-7.5 7.5v15.775l-23.205-21.301c-1.383-1.27-3.193-1.975-5.071-1.975h-67.358c-8.995 0-16.312-7.316-16.312-16.31zm150.386 318.076 11.862 50.151h-72.732l11.862-50.151zm141.892-71.067h-332.792v-97.115h8.098l34.162 31.358c4.815 4.422 12.571.814 12.571-5.525v-25.833h13.271c17.462 0 31.668-14.206 31.668-31.668v-32.495h136.959v76.825c0 17.178 13.976 31.153 31.154 31.153h12.829v25.124c0 6.342 7.755 9.945 12.571 5.525l33.39-30.649h6.118v53.3zm74.604-84.453c0 8.907-7.246 16.153-16.153 16.153h-67.489c-1.878 0-3.688.705-5.071 1.975l-22.97 21.084v-15.559c0-4.143-3.357-7.5-7.5-7.5h-20.329c-8.907 0-16.154-7.246-16.154-16.153v-96.824c0-8.907 7.247-16.153 16.154-16.153h123.359c8.907 0 16.153 7.246 16.153 16.153z"/><path d="m454.364 204.588c-10.776-6.827-25.639-5.195-35.197 3.029-9.553-8.219-24.453-9.888-35.218-3.016-12.914 8.245-15.719 24.811-12.861 36.712 6.469 26.933 30.949 41.682 44.967 48.075 2.075.902 4.15.902 6.225 0 14.018-6.394 38.498-21.143 44.968-48.075 2.866-11.938.058-28.524-12.884-36.725zm-1.703 33.223c-4.56 18.983-21.767 30.579-33.494 36.443-11.728-5.864-28.935-17.46-33.493-36.442-1.709-7.115-.077-16.465 6.348-20.567 6.956-4.44 16.727-1.297 20.582 5.674 2.802 5.072 10.324 5.073 13.127.001 3.885-7.026 13.689-10.046 20.604-5.661 6.417 4.066 8.04 13.417 6.326 20.552z"/><path d="m221.716 128.021c5.589-.009 11.178-.013 16.767-.001 6.591 0 12.331-4.454 13.952-10.787.005-.021.032-.122.037-.143l10.643-41.567c1.78-8.898-4.2-18.131-13.943-18.131-7.592.022-15.184.023-22.776.027v-16.948c0-13.585-19.673-18.78-25.782-6.28l-11.786 24.099c-14.112-11.645-36.009-1.356-35.926 17.111v33.541c.105 20.932 26.511 29.879 39.333 13.66 4.971 3.524 10.924 5.433 17.101 5.433 4.31-.001 8.443-.008 12.38-.014zm-46.773-12.036c-3.884 0-7.044-3.16-7.044-7.044v-33.541c.327-9.316 13.757-9.326 14.088 0-.217 11.172-.137 22.368 0 33.541 0 3.884-3.16 7.044-7.044 7.044zm22.044-11.568v-27.731c.112-.849.361-1.681.736-2.448l13.671-27.952v18.637c0 4.143 3.357 7.5 7.5 7.5 9.845 0 19.691.005 29.536-.027l-10.4 40.623c-9.565-.03-19.131.017-28.696.017-4.816-.002-11.615-3.132-12.347-8.619z"/></g></svg>