<svg width="100" height="100" viewBox="0 0 100 100" fill="none" xmlns="http://www.w3.org/2000/svg">
<g clip-path="url(#clip0)">
<path d="M85.3569 20.5067C76.26 11.4098 64.2748 6.25012 51.4693 5.88434V1.46911C51.4693 0.66 50.8135 0.00439453 50.0046 0.00439453C49.1956 0.00439453 48.5399 0.66 48.5399 1.46911V5.88414C22.2442 6.11224 -0.531523 29.5355 0.00944432 55.8591C0.00905373 57.1124 1.56009 57.8158 2.4936 56.91C4.35788 55.1018 6.74731 53.9357 9.32579 53.5558C9.17346 54.2347 8.94595 54.9565 8.72272 55.6644C6.90941 61.4174 8.79401 64.358 14.5607 65.6032C14.5681 65.6048 16.798 65.9961 16.798 66.2516V89.7797C16.798 91.015 18.3057 91.7192 19.2474 90.8642L26.2128 84.5407L33.1781 90.8642C34.1013 91.7022 35.6275 91.0267 35.6275 89.7797V66.2516C35.6275 65.9961 37.8574 65.6048 37.8648 65.6032C44.5595 64.4015 45.7872 61.3358 43.5542 55.191C45.1111 54.2546 46.8168 53.6906 48.55 53.4894V91.0169C48.55 95.9678 52.5778 99.9956 57.5285 99.9956C62.4792 99.9956 66.507 95.9678 66.507 91.0169V86.325C66.507 85.5159 65.8512 84.8602 65.0423 84.8602C64.2334 84.8602 63.5776 85.5159 63.5776 86.325V91.0169C63.5776 94.3524 60.8639 97.0662 57.5285 97.0662C54.1931 97.0662 51.4794 94.3524 51.4794 91.0169V53.492C54.1259 53.8039 56.6758 54.9551 58.6909 56.91C59.4236 57.6199 60.3944 57.3043 60.9936 56.6624C65.7637 52.3001 73.2806 52.347 77.9913 56.803C78.5618 57.4055 79.5046 57.5293 80.1429 56.9102C84.9327 52.264 92.7259 52.264 97.5155 56.9102C98.4262 57.7939 100 57.1278 100 55.8589C100 42.5045 94.7996 29.9494 85.3569 20.5067ZM37.8646 38.7119C35.2875 38.1555 33.9371 37.4186 32.1562 35.4254C30.6198 33.7061 28.884 31.7637 26.4194 31.6601C28.7289 25.1574 31.9271 19.6706 35.748 15.6829C38.7173 12.5839 41.9836 10.4927 45.372 9.493C44.4508 11.1198 43.6044 13.3024 42.8236 16.0539C41.1768 21.8579 39.941 29.7906 39.2436 39.0239C38.7806 38.9097 38.3166 38.8095 37.8646 38.7119ZM16.724 22.578C22.4617 16.8402 29.4199 12.7665 37.0132 10.599C31.066 15.1669 26.0915 22.8611 22.9388 32.8255C19.6083 35.4807 19.3286 37.7604 14.5609 38.7121C7.24981 40.3131 7.16036 44.2278 9.29025 50.6053C7.05432 50.877 4.92228 51.6269 3.03593 52.7946C3.76477 41.3755 8.56024 30.7417 16.724 22.578ZM27.1972 81.4779C26.6389 80.9709 25.7868 80.9709 25.2281 81.4779L19.7274 86.4716V68.2873C24.4881 73.5019 27.9353 73.5036 32.6979 68.2873V86.4716L27.1972 81.4779ZM41.4356 60.9436C40.8444 61.9629 39.0153 62.3578 37.2465 62.7396C34.1054 63.4173 32.1259 64.5269 29.9716 66.9376C27.0984 70.1528 25.4058 70.2412 22.4539 66.9374C20.3113 64.5398 18.3416 63.4219 15.179 62.7396C11.061 61.8508 10.1876 60.7614 11.5168 56.5448C12.7245 52.9758 12.7229 51.3357 11.5168 47.7694C10.1876 43.5528 11.0612 42.4641 15.179 41.5751C18.3199 40.897 20.2992 39.7881 22.4537 37.3772C25.3267 34.1619 27.0197 34.0734 29.9716 37.3772C32.1146 39.7748 34.0837 40.8923 37.2465 41.5751C39.0153 41.9569 40.8444 42.3518 41.4356 43.371C41.9926 44.3311 41.4415 46.079 40.9087 47.7692C39.7014 51.3383 39.7024 52.9785 40.9087 56.5446C41.4417 58.2355 41.9926 59.9834 41.4356 60.9436ZM42.9169 52.1575C43.0351 48.957 45.8198 45.0826 43.9698 41.9016C43.5014 41.0941 42.8415 40.5117 42.0791 40.0733C47.4407 -17.2384 58.0322 15.3196 58.4386 52.9754C53.8247 49.9655 47.8628 49.6402 42.9171 52.1933C42.9169 52.1813 42.9169 52.1694 42.9169 52.1575ZM80.46 52.9381C80.0183 41.2956 77.1664 30.3253 72.3279 21.787C71.9292 21.0832 71.0355 20.8363 70.3314 21.2347C69.6276 21.6335 69.3804 22.5274 69.7792 23.2312C74.3526 31.3018 77.0646 41.6964 77.5218 52.7721C72.6092 49.7591 66.2879 49.7486 61.3651 52.7397C60.9305 37.5081 60.0154 20.5223 54.6495 9.49007C58.6475 10.6659 62.4505 13.3604 65.8338 17.4513C66.3494 18.0746 67.2727 18.1625 67.8959 17.6464C68.5193 17.1308 68.6068 16.2076 68.0912 15.584C66.4808 13.637 64.7757 11.9717 62.9954 10.5984C81.617 15.6682 96.0436 33.466 96.9734 52.7959C91.9492 49.6943 85.4389 49.7413 80.46 52.9381Z" fill="#0895CA"/>
<path d="M26.2128 41.1752C17.4461 41.1008 12.1157 51.2632 17.1775 58.4108C17.6388 59.075 18.5516 59.2398 19.216 58.7783C19.8804 58.317 20.045 57.4042 19.5836 56.7398C15.8728 51.4977 19.7859 44.0494 26.2128 44.1048C30.6587 44.1048 34.276 47.7174 34.276 52.1578C34.276 56.9966 29.8194 60.8196 25.0399 60.1251C23.1118 59.9101 22.7102 62.6805 24.619 63.024C31.156 63.9744 37.2056 58.7699 37.2056 52.1578C37.2054 46.1019 32.274 41.1752 26.2128 41.1752Z" fill="#0895CA"/>
</g>
<defs>
<clipPath id="clip0">
<rect width="100" height="100" fill="white"/>
</clipPath>
</defs>
</svg>
