<svg id="Layer_1" enable-background="new 0 0 512.046 512.046" height="512" viewBox="0 0 512.046 512.046" width="512" xmlns="http://www.w3.org/2000/svg"><g><path d="m437.066 105.004c-46.58-46.58-107.95-73-173.52-74.873v-22.608c0-4.143-3.358-7.5-7.5-7.5s-7.5 3.357-7.5 7.5v22.607c-134.646 1.168-251.268 121.106-248.498 255.895-.002 6.417 7.94 10.019 12.72 5.381 9.546-9.259 21.781-15.23 34.984-17.175-.78 3.476-1.945 7.172-3.088 10.797-9.285 29.458.365 44.515 29.893 50.891.038.008 11.456 2.012 11.456 3.32v120.475c0 6.325 7.72 9.931 12.542 5.553l35.666-32.379 35.666 32.379c4.727 4.291 12.542.832 12.542-5.553v-120.475c0-1.308 11.418-3.312 11.456-3.32 34.28-6.153 40.566-21.851 29.132-53.315 7.972-4.795 16.706-7.683 25.581-8.713v192.158c0 25.351 20.624 45.975 45.974 45.975s45.974-20.624 45.974-45.975v-24.025c0-4.143-3.358-7.5-7.5-7.5s-7.5 3.357-7.5 7.5v24.025c0 17.079-13.895 30.975-30.974 30.975s-30.974-13.896-30.974-30.975v-192.145c13.551 1.597 26.608 7.492 36.926 17.502 3.752 3.635 8.723 2.019 11.791-1.268 24.425-22.337 62.915-22.097 87.036.72 2.921 3.085 7.749 3.719 11.017.549 24.526-23.791 64.431-23.791 88.956 0 4.663 4.525 12.722 1.114 12.722-5.383 0-68.381-26.629-132.669-74.98-181.02zm-243.182 93.219c-13.196-2.849-20.111-6.622-29.23-16.828-7.867-8.804-16.755-18.75-29.375-19.28 11.826-33.297 28.202-61.392 47.767-81.811 15.204-15.868 31.929-26.576 49.279-31.695-4.717 8.33-9.051 19.506-13.049 33.595-8.432 29.719-14.76 70.338-18.331 117.617-2.371-.585-4.747-1.098-7.061-1.598zm-108.25-82.613c29.38-29.38 65.009-50.239 103.89-61.338-30.452 23.39-55.924 62.788-72.067 113.81-17.054 13.596-18.486 25.269-42.899 30.142-37.436 8.198-37.894 28.243-26.988 60.899-11.449 1.391-22.366 5.231-32.025 11.21 3.732-58.471 28.287-112.921 70.089-154.723zm53.628 301.595c-2.859-2.596-7.222-2.596-10.083 0l-28.166 25.57v-93.112c24.377 26.701 42.028 26.71 66.415 0v93.112zm72.907-105.145c-3.027 5.219-12.393 7.241-21.45 9.196-16.084 3.47-26.22 9.152-37.251 21.496-14.712 16.463-23.379 16.916-38.494-.001-10.971-12.277-21.057-18.001-37.251-21.495-21.086-4.551-25.558-10.129-18.752-31.72 6.184-18.275 6.176-26.673 0-44.934-6.806-21.591-2.333-27.166 18.752-31.718 16.083-3.472 26.218-9.15 37.25-21.495 14.711-16.464 23.38-16.917 38.495 0 10.973 12.277 21.056 17.999 37.251 21.495 9.057 1.955 18.423 3.977 21.45 9.196 2.852 4.916.03 13.866-2.698 22.521-6.182 18.275-6.177 26.674 0 44.934 2.729 8.658 5.55 17.608 2.698 22.525zm7.585-44.989c.605-16.388 14.864-36.227 5.391-52.515-2.398-4.135-5.777-7.117-9.681-9.362 27.454-293.462 81.687-126.75 83.768 66.065-23.625-15.412-54.153-17.078-79.477-4.005-.001-.061-.001-.122-.001-.183zm192.238 3.997c-2.262-59.615-16.865-115.788-41.64-159.508-2.042-3.604-6.618-4.868-10.223-2.828-3.604 2.042-4.87 6.619-2.828 10.223 23.418 41.325 37.305 94.55 39.646 151.263-25.155-15.428-57.523-15.482-82.73-.166-2.225-77.993-6.911-164.968-34.387-221.458 20.472 6.021 39.945 19.818 57.269 40.765 2.64 3.192 7.368 3.642 10.559.999 3.192-2.64 3.64-7.367 1-10.56-8.246-9.97-16.977-18.497-26.093-25.529 95.351 25.96 169.222 117.093 173.983 216.071-25.726-15.882-59.062-15.641-84.556.728z"/><path d="m134.221 210.836c-44.89-.381-72.184 51.655-46.265 88.254 2.362 3.401 7.036 4.245 10.438 1.882 3.402-2.362 4.245-7.036 1.882-10.438-19.001-26.842 1.036-64.981 33.945-64.697 22.765 0 41.287 18.498 41.287 41.235 0 24.777-22.82 44.352-47.293 40.796-9.873-1.101-11.929 13.085-2.155 14.844 33.472 4.866 64.449-21.783 64.449-55.64-.001-31.009-25.252-56.236-56.288-56.236z"/></g></svg>