<svg id="Layer_1" enable-background="new 0 0 511.976 511.976" height="512" viewBox="0 0 511.976 511.976" width="512" xmlns="http://www.w3.org/2000/svg"><g><path d="m486.904 420.16h-6.4v-173.2c0-4.142-3.358-7.5-7.5-7.5s-7.5 3.358-7.5 7.5v173.342h-60.94v-234.448h60.94v21.154c0 4.142 3.358 7.5 7.5 7.5s7.5-3.358 7.5-7.5v-28.654c0-4.142-3.358-7.5-7.5-7.5h-75.94c-4.142 0-7.5 3.358-7.5 7.5v64.366h-68.44c-4.142 0-7.5 3.358-7.5 7.5v52.49h-60.94v-53.231l176.166-176.168v18.869c0 4.142 3.358 7.5 7.5 7.5s7.5-3.358 7.5-7.5v-36.965c.004-4.079-3.387-7.51-7.5-7.51h-34.967c-4.142 0-7.5 3.358-7.5 7.5s3.358 7.5 7.5 7.5h16.861l-165.561 165.561v-37.171c0-13.95-5.052-27.447-14.227-38.005l-47.873-55.093c32.427-35.373 48.18-60.649 48.103-77.134-.061-13.078-11.492-22.139-24.275-20.717-29.761 3.314-73.316 58.452-84.664 73.463h-19.633c-17.012 0-33.146 7.339-44.267 20.137l-51.567 59.344c-9.174 10.558-14.227 24.055-14.227 38.005v203.941c0 9.697 15 9.697 15 0v-203.941c0-10.335 3.747-20.338 10.549-28.166l51.566-59.344c8.271-9.517 20.278-14.976 32.945-14.976h32.509c10.017 0 19.622 3.415 27.292 9.55-7.789 8.192-15.826 16.263-23.666 23.85-22.727-15.911-55.076.733-54.916 28.678 0 19.213 15.716 34.845 35.034 34.845 26.863.262 44.074-29.935 30.099-52.663 7.26-7.018 15.482-15.181 23.804-23.871l46.863 53.93c6.802 7.828 10.549 17.831 10.549 28.166v262.739c0 23.789-19.511 43.142-43.494 43.142h-135.641c-23.982 0-43.493-19.354-43.493-43.142v-18.9c0-9.697-15-9.697-15 0v18.9c0 32.06 26.24 58.142 58.493 58.142h135.643c26.444 0 48.846-17.533 56.058-41.518h236.657c33.347-1.371 33.37-48.914 0-50.297zm-340.501-269.473c-1.098 26.326-38.976 26.319-40.07 0-.259-14.334 15.789-24.266 28.608-17.934-4.713 4.394-9.265 8.529-13.545 12.319-7.32 6.48 2.775 17.578 9.942 11.231.119-.105 5.508-4.886 13.772-12.628.836 2.181 1.293 4.545 1.293 7.012zm2.107-76.783c20.345-25.397 50.676-56.969 67.561-58.849 24.5-.231-15.322 50.176-35.917 72.099-8.955-7.45-19.97-12.079-31.644-13.25zm180.113 183.816h60.94v162.582h-60.94zm-15 59.99v102.591h-60.94v-102.591zm173.281 137.748h-234.244c.186-6.709.023-13.446.023-20.157 78.071 0 156.163-.142 234.222-.142 13.444.549 13.477 19.736-.001 20.299z"/><path d="m80.835 435.097v-197.504c-.344-9.931-14.659-9.923-15 0v197.504c.344 9.931 14.659 9.923 15 0z"/><path d="m133.868 435.097v-197.504c-.344-9.931-14.659-9.923-15 0v197.504c.344 9.931 14.659 9.923 15 0z"/><path d="m186.901 435.097v-110.399c-.344-9.931-14.659-9.923-15 0v110.399c.344 9.931 14.659 9.923 15 0z"/></g></svg>