<svg width="500" height="500" viewBox="0 0 500 500" fill="none" xmlns="http://www.w3.org/2000/svg">
<path d="M500 382.4H0V382.65H500V382.4Z" fill="#EBEBEB"/>
<path d="M357.68 389.21H324.56V389.46H357.68V389.21Z" fill="#EBEBEB"/>
<path d="M437.26 391.4H428.57V391.65H437.26V391.4Z" fill="#EBEBEB"/>
<path d="M377.87 398.49H358.68V398.74H377.87V398.49Z" fill="#EBEBEB"/>
<path d="M250 395.11H206.81V395.36H250V395.11Z" fill="#EBEBEB"/>
<path d="M197.9 395.11H191.57V395.36H197.9V395.11Z" fill="#EBEBEB"/>
<path d="M170.99 390.89H77.31V391.14H170.99V390.89Z" fill="#EBEBEB"/>
<path d="M237 337.8H43.91C42.3974 337.797 40.9476 337.195 39.8789 336.124C38.8102 335.053 38.21 333.603 38.21 332.09V60.66C38.2232 59.156 38.8292 57.718 39.8965 56.6582C40.9637 55.5985 42.406 55.0026 43.91 55H237C238.514 55 239.967 55.6016 241.038 56.6724C242.108 57.7433 242.71 59.1956 242.71 60.71V332.09C242.71 333.604 242.108 335.057 241.038 336.128C239.967 337.198 238.514 337.8 237 337.8ZM43.91 55.2C42.4637 55.2026 41.0775 55.7791 40.0557 56.8027C39.0339 57.8264 38.46 59.2136 38.46 60.66V332.09C38.46 333.536 39.0339 334.924 40.0557 335.947C41.0775 336.971 42.4637 337.547 43.91 337.55H237C238.447 337.547 239.835 336.971 240.858 335.948C241.881 334.924 242.457 333.537 242.46 332.09V60.66C242.457 59.2127 241.881 57.8255 240.858 56.8021C239.835 55.7787 238.447 55.2026 237 55.2H43.91Z" fill="#EBEBEB"/>
<path d="M453.31 337.8H260.21C258.696 337.797 257.246 337.195 256.175 336.125C255.105 335.054 254.503 333.604 254.5 332.09V60.66C254.516 59.1551 255.124 57.7171 256.193 56.6576C257.262 55.5981 258.705 55.0025 260.21 55H453.31C454.812 55.0052 456.252 55.6022 457.317 56.6617C458.382 57.7212 458.987 59.1578 459 60.66V332.09C459 333.601 458.401 335.05 457.335 336.121C456.268 337.191 454.821 337.795 453.31 337.8ZM260.21 55.2C258.763 55.2026 257.375 55.7787 256.352 56.8021C255.329 57.8255 254.753 59.2127 254.75 60.66V332.09C254.753 333.537 255.329 334.924 256.352 335.948C257.375 336.971 258.763 337.547 260.21 337.55H453.31C454.757 337.547 456.144 336.971 457.168 335.948C458.191 334.924 458.767 333.537 458.77 332.09V60.66C458.767 59.2127 458.191 57.8255 457.168 56.8021C456.144 55.7787 454.757 55.2026 453.31 55.2H260.21Z" fill="#EBEBEB"/>
<path d="M96.64 287.86H60.57V291.17H96.64V287.86Z" fill="#EBEBEB"/>
<path d="M79.1 277.67C78.6761 277.582 78.2739 277.411 77.9162 277.167C77.5585 276.924 77.2524 276.612 77.0156 276.249C76.7787 275.887 76.6156 275.482 76.5357 275.056C76.4558 274.631 76.4607 274.194 76.55 273.77L79.84 258C79.928 257.576 80.0988 257.174 80.3426 256.816C80.5864 256.459 80.8984 256.153 81.2607 255.916C81.623 255.679 82.0285 255.516 82.454 255.436C82.8794 255.356 83.3164 255.361 83.74 255.45C84.5946 255.63 85.3429 256.142 85.8209 256.873C86.2989 257.604 86.4676 258.495 86.29 259.35L83 275.12C82.8197 275.975 82.308 276.723 81.5769 277.201C80.8459 277.679 79.9552 277.848 79.1 277.67Z" fill="#F0F0F0"/>
<path d="M77.12 277.33C76.386 277.443 75.6371 277.261 75.0361 276.825C74.4351 276.389 74.0305 275.733 73.91 275L71.85 261.39C71.741 260.651 71.929 259.898 72.373 259.296C72.8171 258.695 73.4811 258.294 74.22 258.18C74.9596 258.071 75.7123 258.259 76.3138 258.703C76.9152 259.147 77.3165 259.811 77.43 260.55L79.43 274.16C79.5343 274.885 79.3511 275.623 78.9196 276.215C78.4881 276.807 77.8423 277.207 77.12 277.33Z" fill="#F0F0F0"/>
<path d="M84.73 287.86H72.47L69.92 273.26H87.28L84.73 287.86Z" fill="#E6E6E6"/>
<path d="M88.21 271.18H68.98V275.35H88.21V271.18Z" fill="#E0E0E0"/>
<path d="M100.75 382.4L92.58 291.17H86.14L98.31 382.4H100.75Z" fill="#F5F5F5"/>
<path d="M56.45 382.4L64.61 291.17H71.06L58.89 382.4H56.45Z" fill="#F5F5F5"/>
<path d="M74.33 382.4L76.65 291.17H83.09L76.78 382.4H74.33Z" fill="#F5F5F5"/>
<path d="M412.05 291.17H448.12V287.86H412.05V291.17Z" fill="#EBEBEB"/>
<path d="M429.59 277.67C430.445 277.49 431.193 276.978 431.671 276.247C432.149 275.516 432.318 274.625 432.14 273.77L428.85 258C428.762 257.576 428.591 257.174 428.347 256.816C428.104 256.459 427.792 256.153 427.429 255.916C427.067 255.679 426.661 255.516 426.236 255.436C425.811 255.356 425.374 255.361 424.95 255.45C424.094 255.628 423.343 256.139 422.863 256.87C422.383 257.602 422.213 258.494 422.39 259.35L425.68 275.1C425.858 275.959 426.37 276.713 427.103 277.194C427.836 277.676 428.731 277.847 429.59 277.67Z" fill="#F0F0F0"/>
<path d="M431.57 277.33C432.31 277.439 433.062 277.251 433.664 276.807C434.265 276.363 434.667 275.699 434.78 274.96L436.84 261.35C436.949 260.61 436.761 259.858 436.317 259.256C435.873 258.655 435.209 258.254 434.47 258.14C434.104 258.085 433.73 258.102 433.37 258.191C433.011 258.28 432.672 258.44 432.374 258.66C432.076 258.88 431.824 259.157 431.633 259.474C431.442 259.792 431.315 260.144 431.26 260.51L429.2 274.12C429.091 274.86 429.279 275.612 429.723 276.214C430.167 276.815 430.831 277.216 431.57 277.33Z" fill="#F0F0F0"/>
<path d="M423.96 287.86H436.21L438.77 273.26H421.4L423.96 287.86Z" fill="#E6E6E6"/>
<path d="M420.47 275.35H439.7V271.18H420.47V275.35Z" fill="#E0E0E0"/>
<path d="M407.93 382.4L416.1 291.17H422.54L410.38 382.4H407.93Z" fill="#F5F5F5"/>
<path d="M452.24 382.4L444.07 291.17H437.63L449.79 382.4H452.24Z" fill="#F5F5F5"/>
<path d="M434.35 382.4L432.04 291.17H425.59L431.91 382.4H434.35Z" fill="#F5F5F5"/>
<path d="M232.61 210.63V75.27L60.35 75.27V210.63H232.61Z" fill="#E6E6E6"/>
<path d="M234.58 210.64V75.2798L62.32 75.2798V210.64H234.58Z" fill="#F0F0F0"/>
<path d="M73.66 197.33L223.24 197.33V86.6101L73.66 86.6101V197.33Z" fill="white"/>
<path d="M200.69 139.73L204.5 116.12C204.529 116.017 204.53 115.909 204.503 115.806C204.476 115.703 204.422 115.609 204.347 115.533C204.271 115.458 204.177 115.404 204.074 115.377C203.971 115.35 203.863 115.351 203.76 115.38L180.15 119.19C168.27 121.11 157.05 132.34 155.15 144.19L151.34 167.8C151.313 167.902 151.314 168.009 151.342 168.11C151.37 168.212 151.424 168.305 151.499 168.379C151.574 168.453 151.667 168.505 151.769 168.532C151.871 168.559 151.978 168.558 152.08 168.53L175.69 164.72C187.54 162.83 198.77 151.61 200.69 139.73Z" fill="#F0F0F0"/>
<path d="M141.76 139.73L145.58 116.12C145.606 116.018 145.604 115.911 145.576 115.809C145.548 115.708 145.494 115.615 145.42 115.54C145.345 115.466 145.253 115.412 145.151 115.384C145.049 115.356 144.942 115.354 144.84 115.38L121.23 119.19C109.35 121.11 98.13 132.34 96.23 144.19L92.4 167.83C92.3742 167.931 92.3751 168.037 92.4026 168.137C92.4302 168.238 92.4834 168.329 92.557 168.403C92.6307 168.477 92.7222 168.53 92.8227 168.558C92.9232 168.585 93.0291 168.586 93.13 168.56L116.74 164.75C128.62 162.83 139.85 151.61 141.76 139.73Z" fill="#F0F0F0"/>
<path d="M171.23 139.73L175 116.12C175.029 116.017 175.03 115.909 175.003 115.806C174.976 115.703 174.922 115.609 174.847 115.533C174.771 115.458 174.677 115.404 174.574 115.377C174.471 115.35 174.363 115.351 174.26 115.38L150.65 119.19C138.77 121.11 127.55 132.34 125.65 144.19L121.84 167.8C121.814 167.901 121.815 168.007 121.843 168.107C121.87 168.208 121.923 168.299 121.997 168.373C122.071 168.446 122.162 168.5 122.263 168.527C122.363 168.555 122.469 168.556 122.57 168.53L146.18 164.72C158.08 162.83 169.31 151.61 171.23 139.73Z" fill="#E6E6E6"/>
<path d="M385.45 109.08H286.64V312.19H385.45V109.08Z" fill="#E6E6E6"/>
<path d="M399.4 109.08H290.35V312.19H399.4V109.08Z" fill="#F0F0F0"/>
<path d="M381.73 294.52V126.75H308.03V294.52H381.73Z" fill="white"/>
<path d="M364.61 248.51V172.75C364.61 168.862 361.458 165.71 357.57 165.71H332.18C328.292 165.71 325.14 168.862 325.14 172.75V248.51C325.14 252.398 328.292 255.55 332.18 255.55H357.57C361.458 255.55 364.61 252.398 364.61 248.51Z" fill="#F5F5F5"/>
<path d="M250 427.56C357.082 427.56 443.89 422.492 443.89 416.24C443.89 409.988 357.082 404.92 250 404.92C142.918 404.92 56.11 409.988 56.11 416.24C56.11 422.492 142.918 427.56 250 427.56Z" fill="#F5F5F5"/>
<path opacity="0.3" d="M374.24 143C373.491 138.78 372.489 134.609 371.24 130.51L372.24 130.22C373.485 134.361 374.486 138.572 375.24 142.83L374.24 143Z" fill="#0895CA"/>
<path opacity="0.3" d="M368.1 121.41C364.869 113.358 360.711 105.709 355.71 98.6196L356.53 98.0396C361.564 105.183 365.749 112.888 369 121L368.1 121.41Z" fill="#0895CA"/>
<path opacity="0.3" d="M371.64 181.32C374.178 167.257 373.896 152.83 370.809 138.877C367.723 124.925 361.894 111.725 353.661 100.045C345.428 88.3647 334.956 78.4374 322.853 70.8401C310.75 63.2428 297.258 58.1269 283.16 55.7898C225.77 46.2598 170.64 84.6198 159.64 141.79C156.017 160.517 157.43 179.87 163.734 197.873C170.037 215.876 181.006 231.883 195.52 244.26C199.54 247.749 202.577 252.229 204.332 257.254C206.086 262.28 206.495 267.677 205.52 272.91L204.24 279.99C203.279 285.326 204.476 290.825 207.568 295.279C210.66 299.732 215.395 302.776 220.73 303.74L258 310.42C263.336 311.381 268.835 310.184 273.289 307.092C277.743 304 280.786 299.265 281.75 293.93L283.03 286.84C283.967 281.575 286.264 276.647 289.693 272.544C293.123 268.441 297.565 265.306 302.58 263.45C320.26 256.981 335.938 245.996 348.054 231.587C360.17 217.178 368.302 199.847 371.64 181.32Z" fill="#0895CA"/>
<path d="M230.18 133.836C245.761 133.468 258.094 120.54 257.727 104.959C257.36 89.3775 244.431 77.0441 228.85 77.4113C213.269 77.7785 200.936 90.7072 201.303 106.288C201.67 121.869 214.599 134.203 230.18 133.836Z" fill="white"/>
<path d="M279.036 102.15C284.521 100.5 287.628 94.7158 285.978 89.2316C284.327 83.7474 278.543 80.6397 273.059 82.2902C267.575 83.9408 264.467 89.7246 266.118 95.2088C267.768 100.693 273.552 103.801 279.036 102.15Z" fill="white"/>
<path d="M149.6 154.3C149.15 156.45 148.65 158.84 148.21 161.1C147.77 163.36 147.37 165.68 147.02 167.93C146.67 170.18 146.42 172.39 146.31 174.43C146.25 175.43 146.31 176.43 146.31 177.25C146.31 178.07 146.49 178.74 146.45 178.82L146 178C145.79 177.8 145.42 177.61 145.35 177.7C145.28 177.79 145.53 177.94 145.97 178.06C147.285 178.332 148.636 178.393 149.97 178.24C151.648 178.104 153.318 177.874 154.97 177.55C156.67 177.25 158.49 176.81 160.14 176.47L160.44 176.41C161.246 176.232 162.089 176.333 162.83 176.698C163.57 177.063 164.164 177.67 164.514 178.418C164.863 179.166 164.947 180.01 164.752 180.812C164.557 181.615 164.094 182.326 163.44 182.83C161.793 184.096 160.051 185.232 158.23 186.23C156.365 187.262 154.414 188.132 152.4 188.83C150.066 189.663 147.608 190.096 145.13 190.11C143.467 190.099 141.82 189.784 140.27 189.18C138.268 188.398 136.533 187.059 135.27 185.32C135.14 185.132 135.023 184.935 134.92 184.73L134.81 184.53C133.934 182.787 133.324 180.923 133 179C132.749 177.492 132.601 175.969 132.56 174.44C132.473 171.693 132.57 168.944 132.85 166.21C133.09 163.56 133.48 160.98 133.92 158.43C134.36 155.88 134.92 153.43 135.62 150.78C136.155 149.024 137.339 147.538 138.932 146.625C140.524 145.712 142.405 145.441 144.191 145.867C145.976 146.293 147.532 147.384 148.541 148.917C149.55 150.451 149.936 152.312 149.62 154.12L149.6 154.3Z" fill="#0895CA"/>
<path opacity="0.2" d="M149.6 154.3C149.15 156.45 148.65 158.84 148.21 161.1C147.77 163.36 147.37 165.68 147.02 167.93C146.67 170.18 146.42 172.39 146.31 174.43C146.25 175.43 146.31 176.43 146.31 177.25C146.31 178.07 146.49 178.74 146.45 178.82L146 178C145.79 177.8 145.42 177.61 145.35 177.7C145.28 177.79 145.53 177.94 145.97 178.06C147.285 178.332 148.636 178.393 149.97 178.24C151.648 178.104 153.318 177.874 154.97 177.55C156.67 177.25 158.49 176.81 160.14 176.47L160.44 176.41C161.246 176.232 162.089 176.333 162.83 176.698C163.57 177.063 164.164 177.67 164.514 178.418C164.863 179.166 164.947 180.01 164.752 180.812C164.557 181.615 164.094 182.326 163.44 182.83C161.793 184.096 160.051 185.232 158.23 186.23C156.365 187.262 154.414 188.132 152.4 188.83C150.066 189.663 147.608 190.096 145.13 190.11C143.467 190.099 141.82 189.784 140.27 189.18C138.268 188.398 136.533 187.059 135.27 185.32C135.14 185.132 135.023 184.935 134.92 184.73L134.81 184.53C133.934 182.787 133.324 180.923 133 179C132.749 177.492 132.601 175.969 132.56 174.44C132.473 171.693 132.57 168.944 132.85 166.21C133.09 163.56 133.48 160.98 133.92 158.43C134.36 155.88 134.92 153.43 135.62 150.78C136.155 149.024 137.339 147.538 138.932 146.625C140.524 145.712 142.405 145.441 144.191 145.867C145.976 146.293 147.532 147.384 148.541 148.917C149.55 150.451 149.936 152.312 149.62 154.12L149.6 154.3Z" fill="black"/>
<path d="M127.21 331C127.21 331 122.63 325.43 122.85 323.57L117.56 320.57L114.1 326L118.42 328.45L119.24 328.24L119.74 329.24C121.954 330.65 124.372 331.71 126.91 332.38C127.085 332.202 127.205 331.977 127.258 331.733C127.311 331.489 127.295 331.235 127.21 331Z" fill="#0895CA"/>
<path d="M132.63 261C136.57 232.78 135.29 215.63 139.42 201.72L165.05 199.66C165.05 199.66 153.69 244.38 148.48 263C143.27 281.62 123.29 324.26 123.29 324.26L116.29 320.26C116.29 320.26 125.69 282.78 132.63 261Z" fill="#263238"/>
<path d="M153.53 220.48C151.79 224.48 148.39 250.39 148.4 263.32C148.4 263.22 148.4 263.12 148.48 263.02C150.31 256.47 152.9 246.69 155.48 236.75L153.53 220.48Z" fill="black"/>
<path d="M173.79 330.56C173.79 330.56 163 329 162.22 327.28H155.48L155.8 333.71H159.55L160.16 333.12L161.08 333.71C164.08 333.71 172.76 332.87 174.49 331.71C174.483 331.474 174.415 331.244 174.292 331.043C174.17 330.841 173.996 330.675 173.79 330.56Z" fill="#0895CA"/>
<path d="M155.34 261.74C149.71 223.5 149.71 199.83 149.71 199.83L174.79 199.42C174.79 199.42 171.79 245.03 170.73 264.13C169.64 283.99 163.44 327.7 163.44 327.7H154.7C154.7 327.7 152.7 286.3 155.34 261.74Z" fill="#263238"/>
<path d="M151.83 127.87C150.67 132.87 149.83 139.4 148.34 143.12C150.87 145.47 154.97 148.39 160.44 148.31C165.91 148.23 164.91 144.54 163.44 142.63C159.52 140.63 159.37 138.63 160.33 136.9L151.83 127.87Z" fill="#7F3E3B"/>
<path d="M143.25 144.35C144.72 143.03 146.287 141.823 147.94 140.74C149.32 140.05 159.94 140.28 162.37 140.74C164.8 141.2 167.83 144.86 167.83 144.86L143.25 144.35Z" fill="white"/>
<path d="M169.1 127.24C168.98 127.73 169.16 128.24 169.48 128.24C169.8 128.24 170.16 127.97 170.27 127.47C170.38 126.97 170.21 126.52 169.88 126.47C169.55 126.42 169.21 126.75 169.1 127.24Z" fill="#263238"/>
<path d="M168.91 127.93C169.164 129.565 169.642 131.156 170.33 132.66C169.937 132.825 169.513 132.903 169.087 132.891C168.662 132.879 168.243 132.777 167.86 132.59L168.91 127.93Z" fill="#630F0F"/>
<path d="M170.81 124.4C170.767 124.422 170.719 124.434 170.67 124.434C170.621 124.434 170.573 124.422 170.53 124.4C170.193 124.24 169.823 124.164 169.45 124.178C169.078 124.191 168.714 124.295 168.39 124.48C168.324 124.519 168.245 124.531 168.171 124.513C168.096 124.496 168.031 124.451 167.988 124.387C167.946 124.323 167.93 124.245 167.943 124.169C167.957 124.094 167.998 124.026 168.06 123.98C168.466 123.742 168.924 123.606 169.394 123.583C169.864 123.56 170.333 123.652 170.76 123.85C170.833 123.883 170.891 123.944 170.921 124.018C170.951 124.093 170.95 124.176 170.92 124.25C170.894 124.307 170.856 124.358 170.81 124.4Z" fill="#263238"/>
<path d="M152.7 122.21C151.7 128.36 150.82 131.91 153.2 135.68C156.77 141.36 164.9 140.2 167.71 134.46C170.24 129.29 171.44 120.11 166.02 116.41C164.821 115.592 163.434 115.091 161.989 114.955C160.544 114.819 159.088 115.051 157.758 115.63C156.427 116.21 155.265 117.117 154.38 118.268C153.496 119.419 152.918 120.775 152.7 122.21Z" fill="#7F3E3B"/>
<path d="M162.76 131.17C156.15 135.22 152.2 134.28 150.56 131.87C147.87 127.93 150.56 125.72 150.56 125.72C147.37 125.83 146.47 120.33 148.69 118.44C146.69 116.44 148.02 111.78 151.43 112.5C151.15 109.06 156.52 105.67 161.69 109.28C165.93 107.06 171.82 108.72 173.26 112.61C174.7 116.5 172.54 118.17 172.54 118.17C173.82 119.56 171.54 123.76 167.48 123.6C166.76 125.78 166.48 127.5 163.87 127.6C163.26 130.44 163.93 130.17 162.76 131.17Z" fill="#263238"/>
<path d="M161.17 127.23C160.801 128.508 160.937 129.88 161.55 131.06C162.36 132.52 163.95 131.85 164.71 130.27C165.4 128.85 165.82 126.37 164.53 125.47C163.24 124.57 161.62 125.59 161.17 127.23Z" fill="#7F3E3B"/>
<path d="M143.6 143.66C153.07 142.583 162.638 142.73 172.07 144.1C174.044 144.453 175.845 145.45 177.191 146.935C178.538 148.421 179.353 150.311 179.51 152.31C180.51 164.48 177.81 185.75 175.51 207.17C156.74 213.47 137.68 207.08 137.68 207.08C137.26 202.76 139.59 188.61 141.04 181.08C139.98 173.28 137.27 164.34 135.74 153.98C135.564 152.785 135.629 151.566 135.931 150.396C136.233 149.225 136.766 148.127 137.498 147.166C138.23 146.205 139.147 145.399 140.195 144.797C141.243 144.195 142.401 143.809 143.6 143.66Z" fill="#0895CA"/>
<path opacity="0.2" d="M169.1 160.7C170.37 168.03 174.43 176.76 178.1 182.54C178.61 177.48 179.04 172.65 179.31 168.21L169.1 160.7Z" fill="black"/>
<path d="M216.84 168.31L214.98 167.59C214.635 167.458 214.264 167.41 213.897 167.45C213.53 167.49 213.178 167.617 212.87 167.82L209.94 169.75C209.364 170.13 208.887 170.642 208.549 171.244C208.212 171.846 208.023 172.52 208 173.21V174.08C211 175.48 215.28 174.78 215.28 174.78L216.52 174.72C216.776 174.714 217.028 174.657 217.261 174.553C217.495 174.448 217.705 174.299 217.881 174.113C218.057 173.927 218.194 173.709 218.285 173.47C218.375 173.23 218.418 172.976 218.41 172.72L218.32 170.26C218.29 169.826 218.134 169.41 217.872 169.064C217.609 168.717 217.25 168.455 216.84 168.31Z" fill="#7F3E3B"/>
<path d="M178.39 149.27C179.39 151.27 180.39 153.44 181.45 155.5C182.51 157.56 183.58 159.64 184.67 161.63C185.76 163.62 186.93 165.53 188.09 167.22C188.67 168.06 189.27 168.82 189.8 169.45C190.33 170.08 190.8 170.53 190.87 170.61L190.02 170.26C190.935 170.679 191.933 170.888 192.94 170.87C194.468 170.901 195.996 170.814 197.51 170.61C199.15 170.41 200.83 170.11 202.51 169.77C204.19 169.43 206 169.02 207.65 168.69L207.93 168.63C208.736 168.452 209.579 168.553 210.32 168.918C211.06 169.283 211.654 169.89 212.004 170.638C212.353 171.386 212.437 172.23 212.242 173.033C212.047 173.835 211.584 174.546 210.93 175.05C209.346 176.288 207.675 177.411 205.93 178.41C204.158 179.427 202.317 180.32 200.42 181.08C198.35 181.911 196.198 182.522 194 182.9C191.321 183.414 188.561 183.325 185.92 182.64C185.731 182.59 185.547 182.523 185.37 182.44L185.07 182.29C183.318 181.436 181.706 180.32 180.29 178.98C179.168 177.943 178.122 176.827 177.16 175.64C175.41 173.521 173.807 171.286 172.36 168.95C170.93 166.71 169.66 164.43 168.46 162.14C167.26 159.85 166.17 157.57 165.13 155.04C164.741 154.177 164.526 153.245 164.498 152.299C164.469 151.352 164.627 150.409 164.963 149.524C165.641 147.736 167.001 146.29 168.745 145.505C170.489 144.72 172.473 144.66 174.261 145.338C175.147 145.674 175.957 146.18 176.647 146.829C177.336 147.478 177.891 148.257 178.28 149.12L178.39 149.27Z" fill="#0895CA"/>
<path d="M185.15 333.71H99.32V340.75H185.15V333.71Z" fill="#263238"/>
<path d="M175.15 371.68H89.32V378.72H175.15V371.68Z" fill="#263238"/>
<path d="M165.15 409.65H79.32V416.69H165.15V409.65Z" fill="#263238"/>
<path d="M185.15 333.71H183.21V416.69H185.15V333.71Z" fill="#263238"/>
<path d="M160.43 416.69H162.37L181.31 333.71H179.36L160.43 416.69Z" fill="#263238"/>
<path d="M111.68 333.71H109.74V416.69H111.68V333.71Z" fill="#263238"/>
<path d="M86.96 416.69H88.9L107.84 333.71H105.89L86.96 416.69Z" fill="#263238"/>
<path d="M291.4 317.67C282.62 316.67 278.92 324.45 285.27 328.27C291.62 332.09 274.27 343.75 282.54 349.92C290.81 356.09 300.87 369.27 306.62 356.8C312.37 344.33 296.79 337.8 303.79 331.74C310.79 325.68 301.35 308.17 291.4 317.67Z" fill="#E0E0E0"/>
<path d="M306.62 357.05C306.578 357.05 306.536 357.039 306.499 357.018C306.462 356.997 306.431 356.967 306.41 356.93C306.377 356.871 306.367 356.802 306.384 356.737C306.401 356.671 306.443 356.615 306.5 356.58C308.45 355.44 309.58 354.13 309.94 352.58C310.63 349.58 308.36 346.2 306.17 342.89C303.51 338.89 300.76 334.71 303.91 331.68C305.84 329.82 306.45 326.89 305.59 323.62C304.59 319.74 301.79 316.62 298.69 315.8C296.13 315.15 293.53 316.12 291.18 318.61C291.133 318.656 291.07 318.681 291.005 318.681C290.94 318.681 290.877 318.656 290.83 318.61C290.806 318.586 290.787 318.559 290.773 318.528C290.76 318.497 290.753 318.463 290.753 318.43C290.753 318.396 290.76 318.363 290.773 318.332C290.787 318.301 290.806 318.273 290.83 318.25C293.96 314.94 296.91 314.82 298.83 315.31C302.11 316.14 305.02 319.43 306.1 323.48C307.01 326.93 306.34 330.04 304.28 332.03C301.43 334.77 303.95 338.58 306.61 342.6C308.86 346 311.18 349.51 310.44 352.69C310.05 354.38 308.85 355.79 306.77 357.01C306.724 357.036 306.673 357.049 306.62 357.05Z" fill="#E0E0E0"/>
<path d="M272.23 384.6L290.44 387.94C292.09 397.46 287.95 409.7 271.58 409.7C251.66 409.7 232.69 405.88 235.51 396.7C238.92 385.71 272.23 384.6 272.23 384.6Z" fill="#263238"/>
<path opacity="0.2" d="M272.23 384.6L290.44 387.94C292.09 397.46 287.95 409.7 271.58 409.7C251.66 409.7 232.69 405.88 235.51 396.7C238.92 385.71 272.23 384.6 272.23 384.6Z" fill="black"/>
<path d="M290.9 401C294.63 404.16 301.25 410.24 300.35 410.95C295.95 414.46 291.25 406.75 286.47 407.95C287.15 404.51 290.9 401 290.9 401Z" fill="#263238"/>
<path d="M299.15 387.94C300.8 397.46 296.66 412.86 280.29 412.86C253.45 412.86 237.78 413.29 235.6 403.96C233.42 394.63 271.88 393.58 271.88 393.58C270.845 391.987 270.169 390.188 269.899 388.307C269.63 386.426 269.774 384.51 270.32 382.69C288.05 383 299.15 387.94 299.15 387.94Z" fill="#263238"/>
<path d="M280.94 354.12C279.87 356.12 278.75 357.8 277.56 359.58C276.351 361.335 275.052 363.027 273.67 364.65C272.249 366.33 270.709 367.904 269.06 369.36C268.193 370.127 267.281 370.841 266.33 371.5C265.85 371.84 265.33 372.16 264.81 372.5L264 372.96C263.559 373.201 263.097 373.402 262.62 373.56C260.931 374.072 259.129 374.072 257.44 373.56C256.175 373.193 254.959 372.672 253.82 372.01C251.892 370.851 250.095 369.486 248.46 367.94C245.394 365.063 242.655 361.857 240.29 358.38C239.977 357.93 239.841 357.38 239.906 356.836C239.972 356.291 240.234 355.79 240.645 355.426C241.055 355.062 241.585 354.862 242.133 354.863C242.682 354.863 243.211 355.065 243.62 355.43L243.69 355.5C246.55 358.073 249.555 360.481 252.69 362.71C254.126 363.736 255.656 364.623 257.26 365.36C257.896 365.653 258.569 365.858 259.26 365.97C259.81 366.05 260.08 365.97 260 365.91C259.92 365.85 259.92 365.91 260 365.91L260.47 365.58C260.78 365.34 261.1 365.11 261.42 364.84C262.04 364.31 262.67 363.74 263.29 363.12C264.55 361.825 265.735 360.46 266.84 359.03C267.97 357.57 269.08 356.03 270.13 354.48C271.18 352.93 272.23 351.26 273.13 349.77L273.2 349.66C273.815 348.667 274.791 347.953 275.923 347.667C277.055 347.381 278.254 347.546 279.267 348.128C280.279 348.709 281.026 349.661 281.349 350.783C281.673 351.905 281.548 353.109 281 354.14L280.94 354.12Z" fill="#FFC3BD"/>
<path d="M277.28 346.82C271.35 348 266.59 358.1 266.59 358.1L275.84 368.52C275.84 368.52 280.75 361.62 281.69 358.42C282.63 355.22 280.68 346.14 277.28 346.82Z" fill="#0895CA"/>
<path d="M235.18 355.47L235.88 352.59C235.92 352.425 235.992 352.27 236.092 352.133C236.192 351.997 236.319 351.881 236.464 351.794C236.609 351.707 236.77 351.649 236.937 351.624C237.105 351.599 237.276 351.608 237.44 351.65L239.52 352.17C240.329 352.372 241.055 352.819 241.6 353.45L244.97 357.34L243.31 360.06C241.78 359.826 240.308 359.307 238.97 358.53L235.84 356.92C235.582 356.788 235.377 356.573 235.257 356.31C235.137 356.047 235.11 355.751 235.18 355.47Z" fill="#FFC3BD"/>
<path d="M277.28 346.82C284.67 345.29 290.41 344.41 298.39 347.82C300.472 348.719 302.191 350.294 303.269 352.289C304.347 354.285 304.72 356.586 304.33 358.82C302.56 369.27 299.42 378.48 299.15 387.97C280.72 395.59 270.02 388.79 270.32 382.72C274.67 371.33 271.56 358.35 273.12 352C273.92 348.73 274.84 347.33 277.28 346.82Z" fill="#0895CA"/>
<path d="M292.37 333.5C291.67 337.08 290.8 344.37 293.3 346.75C289.591 349.499 286.104 352.535 282.87 355.83C278.87 349.92 282.17 346.71 282.17 346.71C286.17 345.71 286.24 342.11 285.54 339.33L292.37 333.5Z" fill="#FFC3BD"/>
<path opacity="0.2" d="M289.59 335.88L285.59 339.33C285.757 339.986 285.871 340.655 285.93 341.33C287.46 341.11 289.85 339.81 290.18 338.16C290.18 337.362 289.977 336.578 289.59 335.88Z" fill="black"/>
<path d="M300.45 331.84C297.2 336.84 295.93 339.07 291.8 340.26C285.58 342.06 280.11 336.96 281.8 331.07C283.32 325.76 288.38 318.43 294.64 319.22C296.021 319.391 297.336 319.911 298.459 320.732C299.583 321.553 300.478 322.648 301.06 323.912C301.642 325.176 301.891 326.568 301.785 327.955C301.678 329.343 301.219 330.68 300.45 331.84Z" fill="#FFC3BD"/>
<path opacity="0.2" d="M292.07 328.7C292.34 328.715 292.603 328.786 292.843 328.91C293.082 329.035 293.293 329.208 293.46 329.42C292.952 329.278 292.479 329.033 292.07 328.7Z" fill="black"/>
<path opacity="0.2" d="M291.94 329.09C292.183 329.163 292.406 329.291 292.592 329.465C292.778 329.638 292.921 329.852 293.01 330.09C292.586 329.837 292.221 329.496 291.94 329.09Z" fill="black"/>
<path opacity="0.2" d="M289.81 321.58C291.243 322.151 292.558 322.982 293.69 324.03C292.319 323.343 291.02 322.522 289.81 321.58Z" fill="black"/>
<path d="M290.86 318.38C293.66 324.46 296.7 326.56 297.95 327.18C293.83 329.18 294 334.49 298.16 335.88C302.32 337.27 303.5 329 303.37 325.96C303.24 322.92 297.85 316.29 290.86 318.38Z" fill="#E0E0E0"/>
<path d="M284.78 331.74C287.29 332.072 289.771 332.596 292.2 333.31C291.2 334.45 289.72 335.21 286.96 334.46C284.2 333.71 284.78 331.74 284.78 331.74Z" fill="white"/>
<path d="M291.36 328.55C291.13 328.98 290.71 329.19 290.43 329.04C290.15 328.89 290.12 328.41 290.36 327.99C290.6 327.57 291.02 327.35 291.29 327.5C291.56 327.65 291.6 328.13 291.36 328.55Z" fill="#263238"/>
<path d="M286.57 325.86C286.33 326.28 285.91 326.5 285.64 326.34C285.37 326.18 285.33 325.71 285.57 325.34C285.81 324.97 286.22 324.7 286.5 324.86C286.78 325.02 286.81 325.43 286.57 325.86Z" fill="#263238"/>
<path d="M286.61 324.9L285.76 324.03C285.76 324.03 285.83 325.12 286.61 324.9Z" fill="#263238"/>
<path d="M287.62 327.45C286.707 328.201 285.698 328.827 284.62 329.31C284.88 330.14 285.97 330.44 285.97 330.44L287.62 327.45Z" fill="#ED847E"/>
<path d="M299.29 337C298.3 337.599 297.114 337.783 295.99 337.51C294.5 337.13 294.52 335.62 295.57 334.61C296.62 333.6 298.43 332.81 299.62 333.72C299.868 333.93 300.061 334.196 300.182 334.497C300.304 334.798 300.35 335.124 300.318 335.447C300.285 335.77 300.175 336.08 299.996 336.35C299.817 336.621 299.574 336.844 299.29 337Z" fill="#FFC3BD"/>
<path d="M293.63 327.91C293.575 327.885 293.529 327.844 293.499 327.792C293.468 327.74 293.455 327.68 293.46 327.62C293.445 327.154 293.334 326.696 293.135 326.274C292.935 325.853 292.651 325.477 292.3 325.17C292.273 325.144 292.252 325.113 292.238 325.079C292.223 325.044 292.216 325.007 292.216 324.97C292.216 324.933 292.223 324.896 292.238 324.862C292.252 324.827 292.273 324.796 292.3 324.77C292.326 324.743 292.357 324.722 292.392 324.708C292.426 324.693 292.463 324.686 292.5 324.686C292.537 324.686 292.574 324.693 292.608 324.708C292.643 324.722 292.674 324.743 292.7 324.77C293.126 325.133 293.468 325.583 293.702 326.091C293.937 326.598 294.059 327.151 294.06 327.71C294.056 327.747 294.045 327.783 294.028 327.815C294.01 327.848 293.986 327.877 293.957 327.9C293.928 327.923 293.895 327.94 293.86 327.951C293.824 327.961 293.787 327.964 293.75 327.96L293.63 327.91Z" fill="#263238"/>
<path d="M286.19 322.73C286.141 322.721 286.095 322.7 286.056 322.669C286.018 322.637 285.988 322.596 285.97 322.55C285.956 322.515 285.949 322.477 285.95 322.439C285.951 322.4 285.959 322.363 285.975 322.328C285.991 322.294 286.014 322.263 286.042 322.237C286.071 322.212 286.104 322.192 286.14 322.18C286.558 322.007 287.012 321.937 287.463 321.977C287.914 322.017 288.349 322.166 288.73 322.41C288.792 322.454 288.834 322.521 288.847 322.596C288.86 322.67 288.843 322.747 288.8 322.81C288.753 322.868 288.686 322.906 288.612 322.917C288.538 322.929 288.462 322.912 288.4 322.87C288.094 322.681 287.748 322.569 287.389 322.541C287.031 322.513 286.671 322.571 286.34 322.71C286.293 322.731 286.241 322.738 286.19 322.73Z" fill="#263238"/>
<path d="M291.4 327.59L290.55 326.73C290.55 326.73 290.63 327.82 291.4 327.59Z" fill="#263238"/>
<path d="M229.29 334.82C228.665 334.869 228.059 335.059 227.518 335.376C226.977 335.694 226.516 336.13 226.169 336.653C225.822 337.175 225.599 337.77 225.516 338.391C225.433 339.013 225.492 339.645 225.69 340.24C229.29 350.75 241.07 357.86 254.36 356.76C267.65 355.66 278.1 346.69 279.92 335.76C280.017 335.14 279.971 334.507 279.786 333.907C279.601 333.307 279.282 332.758 278.853 332.3C278.424 331.842 277.897 331.488 277.311 331.265C276.724 331.041 276.095 330.954 275.47 331.01L229.29 334.82Z" fill="#263238"/>
<path d="M303 357.46C301.92 359.46 300.81 361.13 299.62 362.9C298.417 364.654 297.122 366.343 295.74 367.96C294.33 369.636 292.799 371.207 291.16 372.66C290.298 373.421 289.393 374.132 288.45 374.79C287.97 375.13 287.45 375.45 286.94 375.79L286.13 376.24L285.49 376.57C285.223 376.69 284.949 376.793 284.67 376.88C283.467 377.248 282.186 377.272 280.97 376.95C280.014 376.678 279.118 376.226 278.33 375.62C277.233 374.744 276.284 373.697 275.52 372.52C274.303 370.636 273.297 368.624 272.52 366.52C271.06 362.615 269.992 358.576 269.33 354.46C269.244 353.923 269.357 353.373 269.647 352.913C269.938 352.453 270.385 352.114 270.907 351.96C271.428 351.805 271.988 351.846 272.482 352.074C272.976 352.303 273.37 352.703 273.59 353.2V353.27C275.12 356.82 276.79 360.42 278.59 363.69C279.418 365.243 280.392 366.713 281.5 368.08C281.868 368.553 282.314 368.959 282.82 369.28C282.96 369.35 283.01 369.28 282.82 369.28C282.575 369.209 282.315 369.209 282.07 369.28C282.027 369.278 281.983 369.278 281.94 369.28C281.94 369.28 281.83 369.34 281.94 369.28L282.42 368.96C282.73 368.72 283.05 368.48 283.36 368.22C283.99 367.68 284.61 367.11 285.23 366.49C286.487 365.198 287.669 363.836 288.77 362.41C289.89 360.95 290.99 359.41 292.04 357.88C293.09 356.35 294.13 354.66 295.04 353.18L295.11 353.07C295.704 352.034 296.685 351.277 297.838 350.965C298.99 350.653 300.219 350.811 301.255 351.405C302.291 351.999 303.048 352.98 303.36 354.133C303.672 355.285 303.514 356.514 302.92 357.55L303 357.46Z" fill="#FFC3BD"/>
<path d="M299.48 349.5C293.48 349.55 288.65 361.43 288.65 361.43L297.89 371.86C297.89 371.86 302.81 364.96 303.75 361.76C304.69 358.56 304 349.47 299.48 349.5Z" fill="#0895CA"/>
<path d="M266 349.15L268.1 346.86C268.218 346.728 268.362 346.621 268.522 346.546C268.682 346.47 268.856 346.428 269.033 346.42C269.21 346.413 269.387 346.441 269.553 346.502C269.719 346.564 269.871 346.659 270 346.78L271.65 348.3C272.29 348.895 272.73 349.674 272.91 350.53L274.04 355.79L271.14 357.45C269.855 356.465 268.766 355.247 267.93 353.86L265.87 350.81C265.705 350.558 265.628 350.258 265.651 349.958C265.675 349.657 265.797 349.373 266 349.15Z" fill="#FFC3BD"/>
<path d="M297.39 338C297.382 338.266 297.296 338.524 297.144 338.741C296.991 338.959 296.777 339.127 296.53 339.225C296.283 339.322 296.012 339.345 295.752 339.291C295.491 339.236 295.253 339.107 295.065 338.918C294.878 338.729 294.75 338.49 294.698 338.229C294.645 337.968 294.67 337.698 294.769 337.451C294.869 337.205 295.038 336.993 295.257 336.841C295.476 336.69 295.734 336.606 296 336.6C296.185 336.595 296.369 336.627 296.541 336.696C296.713 336.764 296.869 336.867 296.999 336.998C297.129 337.13 297.231 337.286 297.299 337.459C297.366 337.631 297.397 337.815 297.39 338Z" fill="white"/>
<path d="M364.84 258.72C365.42 259.54 365.84 260.22 366.3 260.98C366.76 261.74 367.16 262.46 367.57 263.21C368.38 264.71 369.11 266.21 369.8 267.81C370.49 269.41 371.11 270.95 371.66 272.57C371.95 273.37 372.19 274.19 372.44 275L372.79 276.23C372.9 276.66 373.01 276.97 373.17 277.73C373.36 278.866 373.36 280.025 373.17 281.16C373.014 282.123 372.784 283.073 372.48 284C371.903 285.683 371.187 287.315 370.34 288.88C368.714 291.853 366.802 294.66 364.63 297.26C364.356 297.616 363.959 297.855 363.517 297.932C363.075 298.008 362.621 297.916 362.243 297.673C361.866 297.431 361.594 297.055 361.48 296.621C361.367 296.187 361.42 295.727 361.63 295.33V295.27C362.31 293.87 363.02 292.42 363.63 290.98C364.24 289.54 364.88 288.1 365.39 286.66C365.906 285.274 366.327 283.854 366.65 282.41C366.942 281.321 366.99 280.18 366.79 279.07L366.07 277.15C365.77 276.44 365.51 275.71 365.2 275C364.61 273.58 363.95 272.18 363.29 270.78C362.63 269.38 361.89 268.03 361.14 266.68C360.78 266.01 360.4 265.34 360.01 264.68L358.87 262.81L358.77 262.65C358.274 261.855 358.109 260.897 358.31 259.981C358.511 259.065 359.062 258.265 359.846 257.75C360.63 257.236 361.583 257.048 362.504 257.227C363.424 257.407 364.237 257.939 364.77 258.71L364.84 258.72Z" fill="#CE7A63"/>
<path d="M363.39 303L364.87 301.84C365.142 301.624 365.36 301.346 365.504 301.03C365.648 300.714 365.715 300.368 365.7 300.02L365.55 296.73C365.522 296.081 365.338 295.447 365.015 294.884C364.691 294.32 364.237 293.842 363.69 293.49L363 293.05C360.42 294.8 358.92 298.6 358.92 298.6L358.38 299.6C358.261 299.809 358.185 300.04 358.156 300.279C358.127 300.518 358.146 300.76 358.211 300.991C358.276 301.223 358.386 301.439 358.535 301.628C358.685 301.816 358.87 301.974 359.08 302.09L361.08 303.2C361.442 303.397 361.854 303.484 362.265 303.448C362.676 303.412 363.067 303.257 363.39 303Z" fill="#CE7A63"/>
<path d="M355.34 239.59C354.34 243.26 353.12 249.99 355.51 252.45C355.51 252.45 357.34 255.89 346.51 255.34C338.92 254.95 344.09 252.45 344.09 252.45C348.26 251.45 348.38 248.45 347.88 245.57L355.34 239.59Z" fill="#CE7A63"/>
<path d="M371.31 393.28L378.31 390.69C378.989 395.31 379.93 399.887 381.13 404.4L376.21 406.51C376.21 406.51 372.94 396.59 371.31 393.28Z" fill="#CE7A63"/>
<path d="M375.07 414.64C378.83 411.89 378.52 412.02 380.59 410.4C382.36 409.01 382.94 408.93 384.37 407.83C385.57 406.92 384.76 405.72 383.5 404.59C383.02 404.15 382.42 403.67 381.73 403.04C381.538 402.866 381.291 402.764 381.033 402.751C380.774 402.738 380.518 402.816 380.31 402.97L375.91 406.19C375.751 406.306 375.621 406.456 375.529 406.629C375.438 406.802 375.386 406.994 375.38 407.19C375.357 408.257 375.117 409.308 374.676 410.279C374.234 411.25 373.599 412.122 372.81 412.84C371 414.64 373.57 415.74 375.07 414.64Z" fill="#263238"/>
<path d="M340.88 291.41C340.88 291.41 348.28 329.51 354.01 347.26C360.01 365.91 368.84 386.66 372.83 398.81C374.07 398.97 377.61 397.49 379.34 396.02C379.34 396.02 376.7 364.16 367.68 347.71C368.59 299.71 359.46 291.41 359.46 291.41H340.88Z" fill="#0895CA"/>
<path opacity="0.2" d="M354.62 305.7L347 320.24C348.74 327.88 350.68 335.79 352.52 342.24C358.07 326.77 354.62 305.7 354.62 305.7Z" fill="black"/>
<path d="M371.32 396.55C371.56 397.378 371.727 398.224 371.82 399.08C371.828 399.153 371.853 399.222 371.891 399.284C371.929 399.346 371.981 399.398 372.043 399.437C372.104 399.477 372.173 399.502 372.245 399.511C372.318 399.52 372.391 399.513 372.46 399.49C375.057 398.648 377.54 397.486 379.85 396.03C379.951 395.968 380.033 395.879 380.088 395.773C380.142 395.667 380.167 395.549 380.16 395.43L379.84 392.99C379.827 392.913 379.795 392.84 379.749 392.777C379.702 392.714 379.641 392.663 379.571 392.628C379.501 392.593 379.424 392.575 379.345 392.576C379.267 392.576 379.19 392.595 379.12 392.63L371.71 395.84C371.572 395.894 371.457 395.995 371.386 396.124C371.314 396.254 371.291 396.405 371.32 396.55Z" fill="#263238"/>
<path opacity="0.1" d="M371.32 396.55C371.56 397.378 371.727 398.224 371.82 399.08C371.828 399.153 371.853 399.222 371.891 399.284C371.929 399.346 371.981 399.398 372.043 399.437C372.104 399.477 372.173 399.502 372.245 399.511C372.318 399.52 372.391 399.513 372.46 399.49C375.057 398.648 377.54 397.486 379.85 396.03C379.951 395.968 380.033 395.879 380.088 395.773C380.142 395.667 380.167 395.549 380.16 395.43L379.84 392.99C379.827 392.913 379.795 392.84 379.749 392.777C379.702 392.714 379.641 392.663 379.571 392.628C379.501 392.593 379.424 392.575 379.345 392.576C379.267 392.576 379.19 392.595 379.12 392.63L371.71 395.84C371.572 395.894 371.457 395.995 371.386 396.124C371.314 396.254 371.291 396.405 371.32 396.55Z" fill="white"/>
<path d="M334.73 396.55L341.47 397.04C340.37 402.42 339.21 410.92 339.21 410.92H333.85C333.85 410.92 334.81 400.23 334.73 396.55Z" fill="#CE7A63"/>
<path d="M328.19 416.24C332.84 416.24 332.51 416.17 335.13 416.08C337.37 416 337.9 416.28 339.71 416.24C341.21 416.24 341.15 414.77 340.71 413.11C340.53 412.48 340.28 411.73 340.02 410.82C339.952 410.562 339.8 410.334 339.588 410.171C339.377 410.008 339.117 409.92 338.85 409.92H333.4C333.203 409.916 333.008 409.961 332.833 410.052C332.658 410.143 332.509 410.276 332.4 410.44C331.803 411.285 331.029 411.991 330.134 412.509C329.238 413.026 328.24 413.344 327.21 413.44C324.69 413.82 326.33 416.24 328.19 416.24Z" fill="#263238"/>
<path d="M335.14 291.41C335.14 291.41 334.29 324.61 333.54 345.29C332.79 365.97 334.4 402.5 334.4 402.5C334.55 403.5 339.82 403.11 340.72 402.5C340.72 402.5 350.78 372.89 346.94 347.26C360.41 314.03 356.53 292.26 356.53 292.26L335.14 291.41Z" fill="#0895CA"/>
<path d="M333.68 399.74C333.68 400.42 333.62 401.63 333.56 402.53C333.549 402.674 333.593 402.817 333.685 402.929C333.776 403.04 333.907 403.113 334.05 403.13C336.381 403.322 338.724 403.299 341.05 403.06C341.162 403.049 341.267 403.002 341.35 402.927C341.433 402.851 341.489 402.751 341.51 402.64L341.98 400.19C341.994 400.11 341.991 400.028 341.971 399.948C341.951 399.869 341.914 399.796 341.863 399.732C341.812 399.669 341.747 399.617 341.674 399.58C341.601 399.544 341.522 399.523 341.44 399.52L334.25 399.24C334.179 399.23 334.106 399.236 334.037 399.256C333.968 399.277 333.904 399.312 333.85 399.359C333.796 399.407 333.753 399.466 333.724 399.531C333.694 399.597 333.679 399.668 333.68 399.74Z" fill="#263238"/>
<path opacity="0.1" d="M333.68 399.74C333.68 400.42 333.62 401.63 333.56 402.53C333.549 402.674 333.593 402.817 333.685 402.929C333.776 403.04 333.907 403.113 334.05 403.13C336.381 403.322 338.724 403.299 341.05 403.06C341.162 403.049 341.267 403.002 341.35 402.927C341.433 402.851 341.489 402.751 341.51 402.64L341.98 400.19C341.994 400.11 341.991 400.028 341.971 399.948C341.951 399.869 341.914 399.796 341.863 399.732C341.812 399.669 341.747 399.617 341.674 399.58C341.601 399.544 341.522 399.523 341.44 399.52L334.25 399.24C334.179 399.23 334.106 399.236 334.037 399.256C333.968 399.277 333.904 399.312 333.85 399.359C333.796 399.407 333.753 399.466 333.724 399.531C333.694 399.597 333.679 399.668 333.68 399.74Z" fill="white"/>
<path d="M358.15 285.62C358.276 287.563 358.516 289.496 358.87 291.41H335.39L335.14 285.41C335.14 285.41 353.24 284.41 358.15 285.62Z" fill="#CE7A63"/>
<path d="M332.88 261.23C332.737 264.841 332.791 268.456 333.04 272.06C333.24 276.76 332.34 277.91 333.04 285.62C335.61 287.12 352.55 287.06 360.87 285.99C360.37 279.32 359.75 274.83 364.26 259.83C364.509 259.025 364.571 258.173 364.442 257.34C364.312 256.507 363.994 255.715 363.512 255.024C363.03 254.332 362.396 253.76 361.659 253.35C360.922 252.941 360.102 252.705 359.26 252.66C358.26 252.56 357.2 252.48 356.12 252.43C352.317 252.18 348.503 252.18 344.7 252.43C343.45 252.54 342.17 252.69 340.94 252.85C338.832 253.093 336.874 254.062 335.404 255.591C333.933 257.121 333.04 259.115 332.88 261.23Z" fill="#263238"/>
<path d="M304.46 246C304.667 249.825 303.982 253.645 302.46 257.16C302.257 257.577 302.174 258.041 302.22 258.502C302.266 258.963 302.439 259.402 302.72 259.77C306.31 264.61 313.05 262.88 315.72 261.93C316.082 261.801 316.41 261.59 316.679 261.314C316.947 261.039 317.15 260.706 317.27 260.34C318.42 256.88 319.54 252.51 318.55 247.99C318.485 247.625 318.331 247.281 318.1 246.99C315.87 244.3 310.87 243.99 307.4 243.42C307.03 243.356 306.651 243.375 306.29 243.476C305.928 243.578 305.594 243.759 305.312 244.006C305.03 244.254 304.807 244.561 304.66 244.907C304.512 245.252 304.444 245.625 304.46 246Z" fill="white"/>
<path d="M317.29 239.33C319.549 239.33 321.38 237.06 321.38 234.26C321.38 231.46 319.549 229.19 317.29 229.19C315.031 229.19 313.2 231.46 313.2 234.26C313.2 237.06 315.031 239.33 317.29 239.33Z" fill="white"/>
<path d="M300.66 248.68C298.66 249.09 298.45 249.42 298.12 251.84C297.79 249.42 297.52 249.09 295.58 248.68C297.52 248.27 297.79 247.94 298.12 245.53C298.45 247.94 298.71 248.27 300.66 248.68Z" fill="white"/>
<path d="M314.18 246.84L315.18 248.41C315.375 248.702 315.495 249.036 315.532 249.384C315.569 249.733 315.52 250.085 315.39 250.41L314.19 253.49C313.954 254.096 313.577 254.636 313.09 255.065C312.603 255.495 312.02 255.802 311.39 255.96L310.6 256.16C308.72 253.67 308.51 249.59 308.51 249.59L308.33 248.44C308.284 248.204 308.285 247.962 308.334 247.726C308.382 247.491 308.477 247.267 308.613 247.069C308.749 246.871 308.923 246.702 309.125 246.571C309.327 246.441 309.553 246.352 309.79 246.31L312.07 245.91C312.474 245.843 312.889 245.894 313.264 246.06C313.639 246.225 313.957 246.496 314.18 246.84Z" fill="#CE7A63"/>
<path d="M335.56 264C335.32 264.28 335.22 264.37 335.07 264.53L334.65 264.94C334.37 265.193 334.09 265.433 333.81 265.66C333.25 266.11 332.69 266.52 332.12 266.92C330.979 267.67 329.786 268.339 328.55 268.92C327.34 269.496 326.094 269.994 324.82 270.41C323.565 270.811 322.29 271.145 321 271.41L320.79 271.46C320.635 271.49 320.478 271.51 320.32 271.52C319.527 271.536 318.739 271.396 318 271.11C317.374 270.87 316.791 270.532 316.27 270.11C315.486 269.446 314.811 268.663 314.27 267.79C313.39 266.373 312.692 264.851 312.19 263.26C311.715 261.802 311.33 260.316 311.04 258.81C310.755 257.322 310.551 255.82 310.43 254.31C310.393 253.879 310.513 253.449 310.769 253.1C311.024 252.751 311.398 252.506 311.82 252.411C312.242 252.316 312.684 252.377 313.065 252.583C313.445 252.788 313.738 253.125 313.89 253.53V253.6C314.38 254.87 314.89 256.21 315.43 257.48C315.97 258.75 316.54 260.01 317.16 261.18C317.714 262.279 318.384 263.315 319.16 264.27C319.415 264.593 319.722 264.87 320.07 265.09C320.32 265.21 320.25 265.09 320.07 265.09L319.39 265.2C320.44 264.83 321.47 264.44 322.48 264.01C323.49 263.58 324.48 263.1 325.4 262.59C326.325 262.088 327.223 261.537 328.09 260.94C328.52 260.65 328.93 260.35 329.31 260.04C329.51 259.89 329.68 259.73 329.86 259.58L330.1 259.37C330.17 259.37 330.28 259.2 330.24 259.25C330.544 258.869 330.923 258.553 331.353 258.322C331.783 258.092 332.255 257.951 332.741 257.908C333.228 257.866 333.717 257.923 334.181 258.075C334.644 258.228 335.072 258.473 335.437 258.796C335.803 259.119 336.099 259.513 336.308 259.954C336.517 260.395 336.634 260.874 336.652 261.362C336.67 261.85 336.589 262.336 336.413 262.791C336.237 263.246 335.971 263.661 335.63 264.01L335.56 264Z" fill="#CE7A63"/>
<path d="M342 252.72C337.28 252.62 332.44 255.31 325.15 261.27C325 264.51 330.61 269.9 330.61 269.9C330.61 269.9 348.29 260.15 342 252.72Z" fill="#263238"/>
<path d="M343.38 232.76C343.21 233.24 342.82 233.56 342.51 233.47C342.2 233.38 342.09 232.92 342.26 232.47C342.43 232.02 342.82 231.67 343.13 231.76C343.44 231.85 343.55 232.29 343.38 232.76Z" fill="#263238"/>
<path d="M343.26 231.81L342.26 231.15C342.26 231.15 342.5 232.21 343.26 231.81Z" fill="#263238"/>
<path d="M343 233.66C342.185 234.634 341.247 235.498 340.21 236.23C340.395 236.474 340.634 236.672 340.908 236.809C341.182 236.946 341.484 237.018 341.79 237.02L343 233.66Z" fill="#BA4D3C"/>
<path d="M344.1 228.8C344.065 228.793 344.032 228.779 344.003 228.758C343.973 228.737 343.949 228.711 343.93 228.68C343.893 228.612 343.884 228.533 343.905 228.458C343.925 228.384 343.974 228.32 344.04 228.28C344.443 228.024 344.899 227.862 345.374 227.808C345.849 227.755 346.33 227.81 346.78 227.97C346.814 227.986 346.844 228.009 346.869 228.037C346.894 228.065 346.912 228.098 346.924 228.134C346.935 228.17 346.939 228.207 346.935 228.245C346.931 228.282 346.919 228.318 346.9 228.35C346.864 228.42 346.803 228.474 346.729 228.502C346.655 228.53 346.573 228.529 346.5 228.5C346.143 228.377 345.763 228.338 345.389 228.385C345.014 228.431 344.656 228.563 344.34 228.77C344.266 228.809 344.181 228.82 344.1 228.8Z" fill="#263238"/>
<path d="M359.77 235.47C357.49 241.06 356.64 243.47 352.77 245.58C346.92 248.75 340.52 245.13 341.08 239.07C341.58 233.62 345.22 225.39 351.61 224.7C352.974 224.507 354.366 224.681 355.64 225.206C356.914 225.731 358.025 226.587 358.857 227.685C359.69 228.784 360.213 230.085 360.374 231.454C360.534 232.822 360.326 234.209 359.77 235.47Z" fill="#CE7A63"/>
<path d="M347.72 235.34C344.42 230.46 347.25 227.91 348.66 227.16C345.57 226.27 343.32 225.42 343.57 222.57C343.675 221.903 343.918 221.266 344.285 220.7C344.652 220.133 345.135 219.65 345.701 219.282C346.266 218.915 346.903 218.67 347.57 218.564C348.237 218.459 348.918 218.495 349.57 218.67C348.84 219.27 352.04 223.22 354.69 221.97C356.471 221.3 358.432 221.278 360.227 221.909C362.023 222.54 363.539 223.783 364.51 225.42C366.67 229.3 366.01 236.42 360.37 239.59C362.48 242.85 355.58 247.35 350.69 245.59C345.8 243.83 343.72 236.92 347.72 235.34Z" fill="#263238"/>
<path d="M368.11 224.25C369.38 227.83 367.88 231.12 364.72 231.78C361.81 232.38 358.11 230.7 357.8 227.28C357.53 224.34 358.61 220.89 361.19 219.76C364 218.53 366.87 220.73 368.11 224.25Z" fill="white"/>
<path d="M378.81 222.84C378.958 224.158 378.807 225.493 378.369 226.744C377.93 227.996 377.216 229.133 376.279 230.072C375.342 231.01 374.205 231.725 372.954 232.165C371.702 232.604 370.368 232.756 369.05 232.61C363.66 232.23 358.05 228.09 359.28 222.84C360.28 218.31 363.97 213.63 369.05 213.07C374.56 212.46 378.45 217 378.81 222.84Z" fill="#263238"/>
<path d="M349.11 235.64C348.815 236.136 348.42 236.565 347.95 236.899C347.48 237.233 346.945 237.465 346.38 237.58C344.97 237.81 344.53 236.17 345.15 234.64C345.71 233.27 347.15 231.5 348.42 231.98C349.69 232.46 350 234.33 349.11 235.64Z" fill="#CE7A63"/>
<path d="M359.51 252.72C363.6 253.35 365.25 254.59 368.59 262.82C367.07 265.89 359.96 268.82 359.96 268.82C359.96 268.82 355.25 258.17 359.51 252.72Z" fill="#263238"/>
<path d="M335.09 293.21C343.484 294.15 351.956 294.15 360.35 293.21C360.437 293.195 360.52 293.16 360.592 293.108C360.663 293.056 360.722 292.989 360.764 292.911C360.805 292.832 360.828 292.746 360.831 292.657C360.834 292.569 360.816 292.481 360.78 292.4C360.58 291.92 360.37 291.4 360.17 290.95C360.129 290.843 360.054 290.753 359.956 290.693C359.858 290.634 359.744 290.608 359.63 290.62C351.561 291.505 343.419 291.505 335.35 290.62C335.278 290.613 335.206 290.621 335.137 290.642C335.068 290.664 335.005 290.699 334.95 290.746C334.895 290.792 334.849 290.849 334.817 290.914C334.784 290.978 334.765 291.048 334.76 291.12L334.61 292.63C334.606 292.769 334.652 292.904 334.741 293.011C334.829 293.117 334.953 293.188 335.09 293.21Z" fill="#263238"/>
</svg>
