<?xml version="1.0" encoding="UTF-8"?>
<!DOCTYPE svg PUBLIC "-//W3C//DTD SVG 1.1//EN" "http://www.w3.org/Graphics/SVG/1.1/DTD/svg11.dtd">
<!-- Creator: CorelDRAW 2020 (64-Bit) -->
<svg xmlns="http://www.w3.org/2000/svg" xml:space="preserve" width="0.944043in" height="0.924906in" version="1.1" style="shape-rendering:geometricPrecision; text-rendering:geometricPrecision; image-rendering:optimizeQuality; fill-rule:evenodd; clip-rule:evenodd"
viewBox="0 0 54.3 53.2"
 xmlns:xlink="http://www.w3.org/1999/xlink"
 xmlns:xodm="http://www.corel.com/coreldraw/odm/2003">
 <defs>
  <style type="text/css">
   <![CDATA[
    .fil1 {fill:none}
    .fil0 {fill:#0895CA;fill-rule:nonzero}
   ]]>
  </style>
 </defs>
 <g id="Layer_x0020_1">
  <metadata id="CorelCorpID_0Corel-Layer"/>
  <g id="_1066103616">
   <g>
    <path class="fil0" d="M9.93 9.81c-0.31,0.26 -1.03,1.4 -0.85,3.4 0.18,2 1.08,3 1.43,3.2 0.31,-0.26 1.03,-1.4 0.85,-3.4 -0.18,-2 -1.08,-3 -1.43,-3.2zm0.51 6.65l0 0zm0.11 1.58c-1.27,0 -2.82,-1.95 -3.06,-4.69 -0.25,-2.82 1.01,-5.05 2.3,-5.16 1.32,-0.11 2.92,1.87 3.17,4.68 0.25,2.82 -1.01,5.05 -2.3,5.16 -0,0 -0,0 -0,0 -0.04,0 -0.07,0 -0.11,0z"/>
    <path class="fil0" d="M42.19 4.59l-32.46 2.84c-0.87,0.07 -1.66,0.7 -2.23,1.75 -0.63,1.16 -0.9,2.66 -0.76,4.24 0.14,1.58 0.67,3.01 1.49,4.04 0.75,0.94 1.63,1.41 2.5,1.33l32.47 -2.84c0.87,-0.08 1.66,-0.7 2.23,-1.75 0.63,-1.16 0.9,-2.66 0.76,-4.24 -0.27,-3.08 -2.13,-5.55 -3.99,-5.38l0 0zm-31.66 15.81c-1.3,0 -2.56,-0.68 -3.56,-1.95 -1.01,-1.27 -1.66,-3.01 -1.83,-4.9 -0.16,-1.88 0.17,-3.71 0.95,-5.14 0.83,-1.54 2.08,-2.45 3.5,-2.58l32.46 -2.84 0 0c2.86,-0.24 5.36,2.75 5.72,6.83 0.17,1.88 -0.17,3.71 -0.95,5.14 -0.83,1.54 -2.08,2.45 -3.5,2.58l-32.47 2.84c-0.11,0.01 -0.22,0.01 -0.33,0.01z"/>
    <path class="fil0" d="M11.33 25.72c-0.31,0.26 -1.03,1.4 -0.85,3.4 0.17,2 1.08,3 1.43,3.2 0.31,-0.26 1.03,-1.4 0.85,-3.4 -0.18,-2 -1.08,-3 -1.43,-3.2zm0.65 6.64l0.01 0 -0.01 0zm-0.14 0.01l0 0zm0.1 1.58c-0.65,0 -1.35,-0.48 -1.94,-1.35 -0.61,-0.89 -1,-2.08 -1.11,-3.34 -0.11,-1.26 0.07,-2.5 0.52,-3.48 0.45,-1.01 1.11,-1.62 1.79,-1.68 0.69,-0.06 1.43,0.43 2.05,1.34 0.61,0.89 1,2.08 1.11,3.34 0.25,2.82 -1.01,5.05 -2.3,5.16 -0.04,0 -0.08,0 -0.11,0z"/>
    <path class="fil0" d="M41.17 33.76c-0.41,0 -0.76,-0.31 -0.8,-0.73 -0.04,-0.44 0.29,-0.83 0.73,-0.87l3.47 -0.3c1.89,-0.17 3.27,-2.91 3,-5.99 -0.27,-3.08 -2.1,-5.55 -3.99,-5.38l-2.91 0.25c-0.43,0.04 -0.83,-0.29 -0.87,-0.73 -0.04,-0.44 0.29,-0.83 0.73,-0.87l2.91 -0.25c2.84,-0.26 5.36,2.75 5.72,6.83 0.36,4.08 -1.6,7.47 -4.45,7.72l-3.47 0.3c-0.02,0 -0.05,0 -0.07,0z"/>
    <path class="fil0" d="M11.92 36.31c-2.71,0 -5.05,-2.92 -5.39,-6.84 -0.36,-4.08 1.6,-7.47 4.45,-7.72l4.32 -0.38c0.44,-0.04 0.83,0.29 0.87,0.73 0.04,0.44 -0.29,0.83 -0.73,0.87l-4.32 0.38c-1.89,0.17 -3.27,2.91 -3,5.99 0.27,3.08 2.11,5.55 3.99,5.38l3.99 -0.35c0.44,-0.04 0.83,0.29 0.87,0.73 0.04,0.44 -0.29,0.83 -0.73,0.87l-3.99 0.35c-0.11,0.01 -0.22,0.01 -0.33,0.01z"/>
    <path class="fil0" d="M19.01 23.01c1.62,4.26 1.04,8.68 0.47,12.96 -0.59,4.42 -1.14,8.61 0.55,12.61l17.96 -1.57c-1.62,-4.26 -1.04,-8.68 -0.47,-12.96 0.58,-4.42 1.14,-8.61 -0.55,-12.61l-17.96 1.57zm0.52 27.21c-0.31,0 -0.59,-0.18 -0.72,-0.46 -2.16,-4.58 -1.53,-9.37 -0.91,-14 0.61,-4.61 1.19,-8.96 -0.77,-13.11 -0.11,-0.24 -0.1,-0.51 0.03,-0.74 0.13,-0.23 0.36,-0.38 0.62,-0.4l19.63 -1.72c0.34,-0.04 0.65,0.15 0.79,0.45 2.16,4.58 1.53,9.37 0.91,14 -0.61,4.61 -1.19,8.96 0.77,13.11 0.11,0.24 0.1,0.51 -0.03,0.74 -0.13,0.23 -0.36,0.37 -0.62,0.4l-19.63 1.72c-0.02,0 -0.05,0 -0.07,0z"/>
    <path class="fil0" d="M22.82 26.23c0.16,1.13 0.21,2.32 0.17,3.66l3.64 -0.32c0.05,-1.36 0,-2.55 -0.16,-3.66l-3.65 0.32zm4.57 4.08l0.01 0 -0.01 0zm-5.24 1.26c-0.21,0 -0.41,-0.08 -0.56,-0.23 -0.17,-0.16 -0.25,-0.39 -0.24,-0.62 0.12,-1.96 0.04,-3.57 -0.24,-5.06 -0.04,-0.22 0.01,-0.45 0.15,-0.63 0.13,-0.18 0.34,-0.29 0.57,-0.31l5.24 -0.46c0.41,-0.04 0.78,0.24 0.85,0.65 0.31,1.63 0.39,3.36 0.27,5.46 -0.02,0.39 -0.33,0.71 -0.73,0.75l-5.24 0.46c-0.02,0 -0.05,0 -0.07,0z"/>
    <path class="fil0" d="M23.08 35.48c-0.41,0 -0.76,-0.31 -0.79,-0.73 -0.04,-0.44 0.29,-0.83 0.73,-0.87l11.04 -0.97c0.43,-0.04 0.83,0.29 0.87,0.73 0.04,0.44 -0.29,0.83 -0.73,0.87l-11.04 0.97c-0.02,0 -0.05,0 -0.07,0z"/>
    <path class="fil0" d="M22.64 38.93c-0.41,0 -0.76,-0.31 -0.79,-0.73 -0.04,-0.44 0.29,-0.83 0.73,-0.87l11.04 -0.97c0.43,-0.04 0.83,0.29 0.87,0.73 0.04,0.44 -0.29,0.83 -0.73,0.87l-11.04 0.97c-0.02,0 -0.05,0 -0.07,0z"/>
    <path class="fil0" d="M22.4 42.38c-0.41,0 -0.76,-0.31 -0.79,-0.73 -0.04,-0.44 0.29,-0.83 0.73,-0.87l11.04 -0.97c0.44,-0.04 0.83,0.29 0.87,0.73 0.04,0.44 -0.29,0.83 -0.73,0.87l-11.04 0.97c-0.02,0 -0.05,0 -0.07,0z"/>
    <path class="fil0" d="M22.6 45.78c-0.41,0 -0.76,-0.31 -0.79,-0.73 -0.04,-0.44 0.29,-0.83 0.73,-0.87l11.04 -0.97c0.43,-0.04 0.83,0.29 0.87,0.73 0.04,0.44 -0.29,0.83 -0.73,0.87l-11.04 0.97c-0.02,0 -0.05,0 -0.07,0z"/>
    <path class="fil0" d="M31.83 25.44c0.11,0.8 0.17,1.63 0.18,2.52l1.79 -0.16c-0.01,-0.9 -0.06,-1.73 -0.18,-2.52l-1.79 0.16zm2.76 3.1l0.01 0 -0.01 0zm-3.38 1.1c-0.2,0 -0.4,-0.08 -0.55,-0.22 -0.17,-0.15 -0.26,-0.37 -0.25,-0.6 0.03,-1.46 -0.06,-2.75 -0.29,-3.95 -0.04,-0.22 0.01,-0.45 0.15,-0.63 0.14,-0.18 0.34,-0.29 0.57,-0.31l3.38 -0.3c0.4,-0.04 0.78,0.24 0.85,0.65 0.25,1.31 0.35,2.71 0.32,4.28 -0.01,0.41 -0.32,0.74 -0.73,0.78l-3.38 0.3c-0.02,0 -0.05,0 -0.07,0z"/>
   </g>
   <rect class="fil1" x="-0" y="-0" width="54.3" height="53.2"/>
  </g>
 </g>
</svg>
