<svg id="Layer_1" enable-background="new 0 0 511.821 511.821" height="512" viewBox="0 0 511.821 511.821" width="512" xmlns="http://www.w3.org/2000/svg"><g><g><g><path d="m344.92 374.599c-3.264 0-6.266-2.147-7.207-5.441l-5.835-20.418c-2.903-10.154 6.784-19.842 16.938-16.939l76.593 21.887-57.251-55.388c-7.591-7.344-4.046-20.575 6.2-23.139l77.275-19.341-77.276-19.342c-10.246-2.564-13.789-15.796-6.199-23.139l57.251-55.388-76.593 21.887c-10.154 2.898-19.843-6.782-16.938-16.939l21.887-76.593-55.388 57.251c-7.344 7.589-20.573 4.046-23.139-6.2l-19.342-77.274-19.342 77.274c-2.565 10.244-15.796 13.791-23.139 6.199l-55.388-57.251 6.246 21.861c2.666 9.324-11.761 13.446-14.422 4.121l-7.672-26.85c-3.838-13.43 13.311-23.331 23.021-13.291l57.369 59.299 20.034-80.04c3.389-13.551 23.194-13.549 26.582.001l20.034 80.039 57.369-59.3c9.711-10.04 26.859-.138 23.021 13.292l-22.67 79.333 79.334-22.67c13.429-3.835 23.331 13.309 13.291 23.021l-59.3 57.37 80.04 20.034c13.551 3.391 13.548 23.192-.001 26.583l-80.039 20.033 59.3 57.37c10.04 9.712.138 26.856-13.291 23.021l-79.334-22.67 5.192 18.171c1.269 4.428-2.719 9.566-7.211 9.566z"/></g><g><path d="m255.897 470.605c-6.397 0-11.739-4.17-13.291-10.376l-20.034-80.039-57.369 59.3c-9.712 10.037-26.86.139-23.021-13.292l22.67-79.333-79.334 22.67c-13.429 3.836-23.33-13.31-13.291-23.021l59.3-57.37-80.04-20.034c-13.551-3.391-13.548-23.192.001-26.583l80.039-20.033-59.3-57.37c-10.039-9.711-.138-26.859 13.291-23.021l79.334 22.67-4.044-14.152c-2.666-9.324 11.756-13.445 14.422-4.122l4.687 16.399c2.903 10.155-6.784 19.842-16.938 16.939l-76.593-21.887 57.251 55.388c7.59 7.344 4.046 20.575-6.2 23.139l-77.277 19.342 77.276 19.342c10.246 2.564 13.789 15.796 6.199 23.139l-57.251 55.388 76.593-21.887c10.154-2.899 19.842 6.782 16.938 16.939l-21.887 76.593 55.388-57.251c7.344-7.589 20.573-4.046 23.139 6.2l19.342 77.274 19.342-77.274c2.565-10.245 15.795-13.79 23.139-6.199l55.388 57.251-5.126-17.939c-2.666-9.323 11.759-13.446 14.422-4.121l6.552 22.928c3.838 13.43-13.31 23.33-23.021 13.291l-57.369-59.299-20.034 80.04c-1.554 6.201-6.896 10.371-13.293 10.371zm-90.403-303.585h.01z"/></g><g><g><path d="m228.173 329.373c-4.848 0-8.852-5.784-6.913-10.404l55.441-132.105c3.754-8.941 17.584-3.137 13.832 5.805l-55.441 132.105c-1.205 2.871-3.989 4.599-6.919 4.599z"/></g><g><g><path d="m214.958 248.342c-16.254 0-29.477-14.821-29.477-33.038 1.633-43.834 57.325-43.823 58.953 0 0 18.217-13.223 33.038-29.476 33.038zm0-51.076c-7.982 0-14.477 8.092-14.477 18.038.82 23.94 28.135 23.934 28.953 0 0-9.946-6.494-18.038-14.476-18.038z"/></g><g><path d="m296.836 329.371c-16.254 0-29.477-14.821-29.477-33.038 1.633-43.833 57.325-43.823 58.953 0 .001 18.218-13.222 33.038-29.476 33.038zm0-51.075c-7.982 0-14.477 8.092-14.477 18.038.82 23.94 28.135 23.935 28.953 0 .001-9.946-6.493-18.038-14.476-18.038z"/></g></g></g></g><g><g><path d="m93.975 102.618c-1.92 0-3.839-.732-5.304-2.197l-20.439-20.44c-6.857-6.857 3.751-17.464 10.607-10.606l20.439 20.44c4.454 4.452.994 12.803-5.303 12.803z"/></g><g><g><path d="m117.281 125.923c9.652 0 9.668-15 0-15-9.652 0-9.668 15 0 15z"/></g></g></g><g><g><path d="m35.323 205.11c-.643 0-1.296-.083-1.946-.257l-27.921-7.481c-9.366-2.51-5.485-16.996 3.883-14.489l27.921 7.481c8.391 2.249 6.441 14.746-1.937 14.746z"/></g><g><g><path d="m67.154 213.638c9.652 0 9.668-15 0-15-9.652 0-9.668 15 0 15z"/></g></g></g><g><g><path d="m7.838 330.68c-8.378 0-10.328-12.498-1.937-14.747l27.922-7.481c9.367-2.507 13.25 11.979 3.883 14.489l-27.922 7.481c-.65.174-1.303.258-1.946.258z"/></g><g><g><path d="m67.6 314.666c9.652 0 9.668-15 0-15-9.651 0-9.667 15 0 15z"/></g></g></g><g><g><path d="m74.756 445.68c-6.297 0-9.756-8.35-5.304-12.803l20.439-20.44c6.858-6.856 17.465 3.749 10.607 10.606l-20.439 20.44c-1.464 1.465-3.384 2.197-5.303 2.197z"/></g><g><g><path d="m118.501 401.935c9.652 0 9.668-15 0-15-9.652 0-9.668 15 0 15z"/></g></g></g><g><g><path d="m190.21 511.821c-4.444 0-8.426-5.052-7.249-9.443l7.481-27.921c2.508-9.367 16.999-5.486 14.488 3.882l-7.481 27.921c-.898 3.351-3.928 5.561-7.239 5.561z"/></g><g><g><path d="m206.217 452.062c9.652 0 9.668-15 0-15-9.652 0-9.668 15 0 15z"/></g></g></g><g><g><path d="m323.252 511.374c-3.312 0-6.342-2.21-7.239-5.561l-7.481-27.92c-2.51-9.368 11.98-13.249 14.488-3.882l7.481 27.92c1.176 4.391-2.805 9.443-7.249 9.443z"/></g><g><g><path d="m307.244 451.615c9.652 0 9.668-15 0-15-9.652 0-9.668 15 0 15z"/></g></g></g><g><g><path d="m438.258 444.46c-1.92 0-3.839-.732-5.304-2.197l-20.439-20.44c-6.857-6.857 3.75-17.463 10.607-10.606l20.439 20.44c4.454 4.452.994 12.803-5.303 12.803z"/></g><g><g><path d="m394.513 400.715c9.652 0 9.668-15 0-15-9.651 0-9.667 15 0 15z"/></g></g></g><g><g><path d="m504.402 329.013c-.643 0-1.296-.083-1.946-.257l-27.921-7.481c-9.367-2.51-5.484-16.991 3.883-14.489l27.921 7.481c8.391 2.248 6.441 14.746-1.937 14.746z"/></g><g><g><path d="m444.64 312.999c9.652 0 9.668-15 0-15-9.652 0-9.668 15 0 15z"/></g></g></g><g><g><path d="m476.024 203.443c-8.378 0-10.328-12.498-1.937-14.747l27.922-7.481c9.367-2.502 13.25 11.979 3.883 14.489l-27.922 7.481c-.65.175-1.303.258-1.946.258z"/></g><g><g><path d="m444.194 211.972c9.652 0 9.668-15 0-15-9.652 0-9.668 15 0 15z"/></g></g></g><g><g><path d="m416.598 101.397c-6.297 0-9.756-8.35-5.304-12.803l20.439-20.44c6.858-6.856 17.465 3.749 10.607 10.606l-20.439 20.44c-1.464 1.465-3.384 2.197-5.303 2.197z"/></g><g><g><path d="m393.293 124.703c9.652 0 9.668-15 0-15-9.652 0-9.668 15 0 15z"/></g></g></g><g><g><path d="m314.113 42.742c-4.444 0-8.426-5.052-7.249-9.443l7.481-27.921c2.51-9.367 16.999-5.485 14.488 3.882l-7.481 27.921c-.897 3.351-3.928 5.561-7.239 5.561z"/></g><g><g><path d="m305.577 74.576c9.652 0 9.668-15 0-15-9.651 0-9.667 15 0 15z"/></g></g></g><g><g><path d="m196.014 43.188c-3.312 0-6.342-2.21-7.239-5.561l-7.481-27.92c-2.51-9.368 11.98-13.249 14.488-3.882l7.481 27.92c1.177 4.391-2.804 9.443-7.249 9.443z"/></g><g><g><path d="m204.55 75.022c9.652 0 9.668-15 0-15-9.652 0-9.668 15 0 15z"/></g></g></g></g></svg>