<svg width="100" height="100" viewBox="0 0 100 100" fill="none" xmlns="http://www.w3.org/2000/svg">
<g clip-path="url(#clip0)">
<path d="M67.391 73.1893C66.7533 73.1893 66.1668 72.7698 65.9829 72.1262L64.8429 68.1369C64.2757 66.153 66.1683 64.2602 68.1522 64.8274L83.117 69.1037L71.9313 58.2819C70.4481 56.8471 71.1408 54.262 73.1426 53.761L88.2407 49.9822L73.1424 46.2031C71.1406 45.7021 70.4483 43.1169 71.9313 41.6822L83.117 30.8604L68.1522 35.1367C66.1683 35.7029 64.2753 33.8117 64.8429 31.8272L69.1192 16.8624L58.2974 28.0481C56.8625 29.5309 54.2779 28.8386 53.7765 26.8368L49.9974 11.7389L46.2184 26.8368C45.7172 28.8382 43.1322 29.5313 41.6975 28.0479L30.8757 16.8622L32.0961 21.1334C32.617 22.9551 29.7982 23.7605 29.2783 21.9386L27.7793 16.6926C27.0295 14.0686 30.38 12.1342 32.2772 14.0958L43.486 25.6817L47.4002 10.0434C48.0624 7.39579 51.9319 7.39618 52.5939 10.0436L56.5081 25.6817L67.7169 14.0956C69.6143 12.134 72.9647 14.0686 72.2148 16.6926L67.7855 32.1927L83.2858 27.7635C85.9096 27.0142 87.8443 30.3638 85.8826 32.2613L74.2966 43.4703L89.9348 47.3846C92.5825 48.0471 92.5819 51.9158 89.9347 52.5784L74.2966 56.4924L85.8826 67.7014C87.8443 69.599 85.9096 72.9486 83.2858 72.1993L67.7855 67.77L68.7999 71.3203C69.0479 72.1854 68.2687 73.1893 67.391 73.1893Z" fill="#0895CA"/>
<path d="M49.9977 91.9471C48.7478 91.9471 47.7041 91.1323 47.4008 89.9198L43.4866 74.2817L32.2778 85.8678C30.3802 87.8288 27.0299 85.895 27.7799 83.2708L32.2092 67.7707L16.7089 72.1999C14.0851 72.9494 12.1506 69.5994 14.1121 67.7021L25.6981 56.4931L10.0599 52.5788C7.41226 51.9163 7.41284 48.0476 10.0601 47.385L25.6981 43.471L14.1121 32.262C12.1506 30.3646 14.0851 27.0142 16.7089 27.7641L32.2092 32.1934L31.4191 29.4283C30.8982 27.6066 33.716 26.8015 34.2369 28.623L35.1526 31.827C35.7198 33.8111 33.8272 35.7038 31.8433 35.1366L16.8785 30.8603L28.0642 41.682C29.5471 43.1169 28.8547 45.702 26.8528 46.203L11.7544 49.982L26.8526 53.7611C28.8545 54.262 29.5468 56.8473 28.0638 58.282L16.8781 69.1037L31.8429 64.8274C33.8268 64.261 35.7196 66.1525 35.1522 68.137L30.8759 83.1018L41.6977 71.9161C43.1326 70.4333 45.7172 71.1255 46.2186 73.1274L49.9977 88.2253L53.7767 73.1274C54.2779 71.1257 56.8627 70.4331 58.2976 71.9162L69.1194 83.102L68.1179 79.5971C67.597 77.7755 70.4153 76.97 70.9356 78.7919L72.2158 83.2716C72.9656 85.8955 69.6152 87.8298 67.7179 85.8684L56.5091 74.2825L52.5948 89.9208C52.2912 91.1323 51.2475 91.9471 49.9977 91.9471ZM32.3346 32.6324H32.3366H32.3346Z" fill="#0895CA"/>
<path d="M44.5807 64.353C43.6335 64.353 42.8512 63.2229 43.23 62.3203L54.0621 36.5095C54.7956 34.7626 57.4977 35.8966 56.7646 37.6437L45.9325 63.4545C45.6971 64.0154 45.1531 64.353 44.5807 64.353Z" fill="#0895CA"/>
<path d="M41.9988 48.5212C38.8231 48.5212 36.2396 45.6255 36.2396 42.0662C36.5586 33.5019 47.4398 33.5041 47.7578 42.0662C47.7578 45.6255 45.1743 48.5212 41.9988 48.5212ZM41.9988 38.542C40.4393 38.542 39.1703 40.123 39.1703 42.0662C39.3305 46.7436 44.6673 46.7425 44.8271 42.0662C44.8271 40.123 43.5583 38.542 41.9988 38.542Z" fill="#0895CA"/>
<path d="M57.9961 64.3527C54.8204 64.3527 52.2369 61.4569 52.2369 57.8977C52.5559 49.3336 63.4371 49.3355 63.7551 57.8977C63.7553 61.4571 61.1718 64.3527 57.9961 64.3527ZM57.9961 54.3736C56.4366 54.3736 55.1676 55.9546 55.1676 57.8979C55.3278 62.5753 60.6646 62.5743 60.8244 57.8979C60.8246 55.9546 59.5558 54.3736 57.9961 54.3736Z" fill="#0895CA"/>
<path d="M18.3611 20.0496C17.986 20.0496 17.611 19.9066 17.3248 19.6204L13.3314 15.6268C11.9917 14.2871 14.0643 12.2146 15.4038 13.5546L19.3972 17.5482C20.2674 18.418 19.5914 20.0496 18.3611 20.0496Z" fill="#0895CA"/>
<path d="M22.9146 24.6031C24.8004 24.6031 24.8036 21.6724 22.9146 21.6724C21.0288 21.6724 21.0257 24.6031 22.9146 24.6031Z" fill="#0895CA"/>
<path d="M6.90162 40.0745C6.77599 40.0745 6.64841 40.0583 6.52141 40.0243L1.06618 38.5626C-0.763754 38.0722 -0.00548104 35.2419 1.82485 35.7318L7.28007 37.1934C8.91951 37.6328 8.53852 40.0745 6.90162 40.0745Z" fill="#0895CA"/>
<path d="M13.1206 41.7408C15.0064 41.7408 15.0096 38.8101 13.1206 38.8101C11.2348 38.8101 11.2317 41.7408 13.1206 41.7408Z" fill="#0895CA"/>
<path d="M1.53142 64.6084C-0.105483 64.6084 -0.486475 62.1665 1.15297 61.7271L6.60839 60.2655C8.43852 59.7756 9.19719 62.6059 7.36705 63.0963L1.91163 64.558C1.78463 64.592 1.65705 64.6084 1.53142 64.6084Z" fill="#0895CA"/>
<path d="M13.2077 61.4795C15.0935 61.4795 15.0966 58.5488 13.2077 58.5488C11.3221 58.5488 11.3189 61.4795 13.2077 61.4795Z" fill="#0895CA"/>
<path d="M14.606 87.0773C13.3757 87.0773 12.6998 85.4459 13.5697 84.5758L17.5631 80.5822C18.903 79.2427 20.9754 81.3147 19.6355 82.6545L15.6421 86.648C15.356 86.9343 14.9809 87.0773 14.606 87.0773Z" fill="#0895CA"/>
<path d="M23.1528 78.5303C25.0386 78.5303 25.0417 75.5996 23.1528 75.5996C21.2669 75.5996 21.2638 78.5303 23.1528 78.5303Z" fill="#0895CA"/>
<path d="M37.1636 99.9999C36.2953 99.9999 35.5173 99.0129 35.7473 98.1549L37.2089 92.6997C37.699 90.8696 40.5302 91.6278 40.0396 93.4582L38.578 98.9134C38.4025 99.5681 37.8105 99.9999 37.1636 99.9999Z" fill="#0895CA"/>
<path d="M40.291 88.3243C42.1768 88.3243 42.18 85.3936 40.291 85.3936C38.4052 85.3936 38.4021 88.3243 40.291 88.3243Z" fill="#0895CA"/>
<path d="M63.1574 99.9126C62.5103 99.9126 61.9182 99.4808 61.743 98.826L60.2813 93.371C59.7909 91.5407 62.622 90.7824 63.112 92.6125L64.5737 98.0676C64.8034 98.9255 64.0256 99.9126 63.1574 99.9126Z" fill="#0895CA"/>
<path d="M60.0299 88.2369C61.9157 88.2369 61.9188 85.3062 60.0299 85.3062C58.144 85.3062 58.1409 88.2369 60.0299 88.2369Z" fill="#0895CA"/>
<path d="M85.6273 86.8391C85.2521 86.8391 84.8772 86.6961 84.591 86.4098L80.5976 82.4162C79.2579 81.0765 81.3303 79.0043 82.67 80.344L86.6634 84.3376C87.5336 85.2075 86.8576 86.8391 85.6273 86.8391Z" fill="#0895CA"/>
<path d="M77.0805 78.292C78.9664 78.292 78.9695 75.3613 77.0805 75.3613C75.1949 75.3613 75.1918 78.292 77.0805 78.292Z" fill="#0895CA"/>
<path d="M98.5505 64.2828C98.4249 64.2828 98.2973 64.2666 98.1703 64.2326L92.7151 62.7709C90.8849 62.2805 91.6436 59.4512 93.4737 59.9401L98.9289 61.4017C100.568 61.8409 100.187 64.2828 98.5505 64.2828Z" fill="#0895CA"/>
<path d="M86.8742 61.1539C88.76 61.1539 88.7632 58.2231 86.8742 58.2231C84.9884 58.2231 84.9853 61.1539 86.8742 61.1539Z" fill="#0895CA"/>
<path d="M93.0062 39.7488C91.3693 39.7488 90.9883 37.3069 92.6277 36.8675L98.0831 35.4059C99.9133 34.917 100.672 37.7463 98.8418 38.2368L93.3864 39.6984C93.2594 39.7326 93.1318 39.7488 93.0062 39.7488Z" fill="#0895CA"/>
<path d="M86.7872 41.4153C88.673 41.4153 88.6761 38.4846 86.7872 38.4846C84.9013 38.4846 84.8982 41.4153 86.7872 41.4153Z" fill="#0895CA"/>
<path d="M81.3954 19.8109C80.1651 19.8109 79.4893 18.1795 80.3591 17.3095L84.3525 13.3159C85.6924 11.9764 87.7648 14.0484 86.4249 15.3881L82.4315 19.3817C82.1455 19.6679 81.7703 19.8109 81.3954 19.8109Z" fill="#0895CA"/>
<path d="M76.842 24.3645C78.7278 24.3645 78.731 21.4338 76.842 21.4338C74.9562 21.4338 74.953 24.3645 76.842 24.3645Z" fill="#0895CA"/>
<path d="M61.3719 8.35093C60.5037 8.35093 59.7257 7.36386 59.9556 6.50594L61.4173 1.05072C61.9077 -0.779417 64.7386 -0.0209479 64.2479 1.80918L62.7863 7.26441C62.611 7.91913 62.0188 8.35093 61.3719 8.35093Z" fill="#0895CA"/>
<path d="M59.7041 14.5706C61.5899 14.5706 61.5931 11.6399 59.7041 11.6399C57.8185 11.6399 57.8154 14.5706 59.7041 14.5706Z" fill="#0895CA"/>
<path d="M38.2975 8.43794C37.6504 8.43794 37.0584 8.00615 36.8831 7.35143L35.4215 1.8964C34.931 0.0660711 37.7621 -0.692202 38.2521 1.13793L39.7138 6.59296C39.9437 7.45088 39.1659 8.43794 38.2975 8.43794Z" fill="#0895CA"/>
<path d="M39.9652 14.6578C41.851 14.6578 41.8541 11.7271 39.9652 11.7271C38.0793 11.7271 38.0762 14.6578 39.9652 14.6578Z" fill="#0895CA"/>
</g>
<defs>
<clipPath id="clip0">
<rect width="100" height="100" fill="white"/>
</clipPath>
</defs>
</svg>
