<svg id="Layer_1" enable-background="new 0 0 512 512" height="512" viewBox="0 0 512 512" width="512" xmlns="http://www.w3.org/2000/svg"><g><path d="m220.741 462.546c-9.931.344-9.923 14.66 0 15h67.43c9.931-.344 9.923-14.66 0-15z"/><path d="m98.212 268.659c-12.275 0-22.262 9.987-22.262 22.263 1.223 29.535 43.306 29.526 44.525 0 0-12.276-9.987-22.263-22.263-22.263zm0 29.526c-4.004 0-7.262-3.258-7.262-7.263.341-9.613 14.186-9.61 14.525 0 0 4.005-3.258 7.263-7.263 7.263z"/><path d="m174.408 290.922c0-12.275-9.987-22.263-22.262-22.263-29.534 1.223-29.526 43.307 0 44.525 12.276.001 22.262-9.987 22.262-22.262zm-29.524 0c0-4.005 3.258-7.263 7.263-7.263 9.612.341 9.609 14.186 0 14.525-4.006.001-7.263-3.257-7.263-7.262z"/><path d="m206.08 313.185c12.275 0 22.262-9.987 22.262-22.263-1.223-29.535-43.306-29.526-44.525 0 0 12.275 9.987 22.263 22.263 22.263zm0-29.526c4.004 0 7.262 3.258 7.262 7.263-.341 9.613-14.186 9.61-14.525 0 0-4.005 3.258-7.263 7.263-7.263z"/><path d="m436.71 83.534h-30.623v-45.156c0-21.162-17.216-38.378-38.378-38.378h-226.506c-21.162 0-38.377 17.216-38.377 38.378v52.656c0 9.697 15 9.697 15 0v-29.57h273.262v22.07h-121.176c-21.771 0-39.482 17.712-39.482 39.482v75.858c-29.825-26.487-74.36-36.066-112.604-24.197v-44.677c0-9.697-15-9.697-15 0v50.316c-93.024 42.23-92.968 175.295 0 217.486v75.82c0 21.162 17.216 38.378 38.377 38.378h184.757c9.851-.312 9.997-14.633 0-15h-184.757c-12.89 0-23.377-10.487-23.377-23.378v-29.299h273.262v29.299c.053 13.586-11.653 24.241-25.127 23.378-4.142 0-7.5 3.358-7.5 7.5s3.358 7.5 7.5 7.5h1.749c21.162 0 38.378-17.216 38.378-38.378v-180.205h30.623c21.771 0 39.482-17.712 39.482-39.482v-130.918c0-21.771-17.712-39.483-39.483-39.483zm-318.885-37.07v-8.086c0-12.891 10.487-23.378 23.377-23.378h226.506c12.891 0 23.378 10.487 23.378 23.378v8.086zm-70.105 242.595c-.033-95.599 119.668-140.746 182.71-69.101v33.977c0 17.084 10.907 31.667 26.123 37.155-.558 28.381-12.78 55.551-33.727 74.819-1.544 1.42-2.423 3.422-2.423 5.52v18.196l-16.27-6.874c-1.998-.844-4.262-.78-6.211.17-67.85 34.173-151.132-17.829-150.202-93.862zm343.367 140.264h-273.262v-25.882c26.904 8.228 57.889 6.29 83.554-5.569l23.604 9.973c5.946 1.426 9.419-.878 10.419-6.909v-26.279c21.987-21.396 34.961-50.627 36.089-81.239h18.409v22.081c0 6.286 7.624 9.891 12.462 5.624l31.398-27.705h57.327zm70.106-175.388c0 13.5-10.983 24.482-24.482 24.482h-105.786c-1.828 0-3.592.667-4.962 1.876l-21.063 18.585v-12.961c0-4.143-3.358-7.5-7.5-7.5h-27.488c-13.5 0-24.482-10.982-24.482-24.482v-36.459c.008-.195.008-.391 0-.587v-93.872c0-13.5 10.983-24.482 24.482-24.482h166.798c13.5 0 24.482 10.982 24.482 24.482v130.918z"/><path d="m434.857 173.055c-6.763-7.299-21.479-8.422-30.265-2.927v-23.088c-.332-9.907-14.654-9.944-15 0v81.222c0 9.697 15 9.697 15 0v-27.881c0-11.021 5.339-18.72 12.985-18.72 10.184 0 10.361 10.82 10.32 18.747l.103 27.881c.034 9.416 15.036 9.831 15-.055l-.103-27.814c.068-13.087-2.487-21.782-8.04-27.365z"/><path d="m378.067 197.196h-3.089c.124-20.434.197-42.997-.054-46.005-.489-5.868-3.96-10.637-8.843-12.148-2.314-.717-8.294-1.646-13.849 5.168-4.752 5.83-28.31 48.39-32.984 56.862-2.852 5.169 1.349 11.123 6.567 11.123h34.061c-.043 6.022-.089 11.817-.134 16.994-.036 4.142 3.293 7.528 7.435 7.564 4.134.037 7.531-3.292 7.564-7.436.027-3.106.08-9.396.136-17.123h3.189c9.93-.341 9.925-14.658.001-14.999zm-18.093 0h-21.422c8.41-15.08 16.731-29.675 21.531-37.63.034 8.351-.02 22.736-.109 37.63z"/><path d="m316.739 221.563c-9.968.125-20.605.207-28.604.189 4.692-6.209 11.792-15.793 22.058-30.46 5.046-7.21 10.613-16.352 10.613-25.583-.932-34.733-49.431-39.424-57.042-5.572-.798 4.064 1.85 8.007 5.914 8.805 4.066.797 8.007-1.85 8.805-5.914 3.581-15.984 26.411-14.082 27.317 2.256-.986 6.405-4.202 12.131-7.896 17.407-13.204 18.866-21.084 29.185-25.318 34.729-5.084 6.658-6.987 9.149-5.672 13.427.759 2.468 2.634 4.876 5.148 5.715 0 0 31.931.163 44.865 0 9.69-.122 9.522-15.197-.188-14.999z"/><path d="m40.754 180.988c4.817 8.029 17.841.578 12.861-7.719l-11.01-18.345c-4.991-8.315-17.852-.595-12.861 7.719z"/><path d="m29.42 193.131-17.928-11.432c-8.178-5.209-16.241 7.434-8.064 12.648l17.928 11.432c7.862 5.008 16.438-7.308 8.064-12.648z"/><path d="m470.716 316.716c-1.992-9.491-16.672-6.408-14.68 3.082l4.399 20.959c1.956 9.321 16.685 6.467 14.68-3.082z"/><path d="m510.346 316.423-13.194-16.711c-6.007-7.612-17.782 1.684-11.772 9.295l13.194 16.711c6.171 7.818 17.675-1.82 11.772-9.295z"/></g></svg>