<?xml version="1.0" encoding="UTF-8"?>
<!DOCTYPE svg PUBLIC "-//W3C//DTD SVG 1.1//EN" "http://www.w3.org/Graphics/SVG/1.1/DTD/svg11.dtd">
<!-- Creator: CorelDRAW 2020 (64-Bit) -->
<svg xmlns="http://www.w3.org/2000/svg" xml:space="preserve" width="0.944043in" height="0.924906in" version="1.1" style="shape-rendering:geometricPrecision; text-rendering:geometricPrecision; image-rendering:optimizeQuality; fill-rule:evenodd; clip-rule:evenodd"
viewBox="0 0 63.59 62.3"
 xmlns:xlink="http://www.w3.org/1999/xlink"
 xmlns:xodm="http://www.corel.com/coreldraw/odm/2003">
 <defs>
  <style type="text/css">
   <![CDATA[
    .fil1 {fill:none}
    .fil0 {fill:#0895CA;fill-rule:nonzero}
   ]]>
  </style>
 </defs>
 <g id="Layer_x0020_1">
  <metadata id="CorelCorpID_0Corel-Layer"/>
  <g id="_1084859296">
   <g>
    <g>
     <path class="fil0" d="M28.64 30.38c0.14,0 0.27,0.09 0.31,0.23l0.32 1.06 1.31 -0.39 -0.32 -1.07c-0.04,-0.14 0.02,-0.29 0.15,-0.37 0.35,-0.2 0.66,-0.46 0.93,-0.76 0.1,-0.11 0.26,-0.14 0.39,-0.07l0.99 0.54 0.64 -1.19 -1 -0.54c-0.13,-0.07 -0.19,-0.22 -0.16,-0.36 0.1,-0.38 0.14,-0.8 0.12,-1.21 -0.01,-0.15 0.09,-0.28 0.23,-0.32l1.08 -0.32 -0.39 -1.31 -1.08 0.32c-0.14,0.04 -0.29,-0.02 -0.37,-0.15 -0.2,-0.34 -0.45,-0.65 -0.76,-0.93 -0.11,-0.1 -0.14,-0.26 -0.07,-0.39l0.54 -0.99 -1.19 -0.64 -0.53 0.99c-0.07,0.13 -0.22,0.2 -0.36,0.16 -0.39,-0.1 -0.8,-0.15 -1.2,-0.13 -0.15,0.01 -0.28,-0.09 -0.32,-0.23l-0.32 -1.09 -1.31 0.39 0.32 1.09c0.04,0.14 -0.02,0.29 -0.15,0.37 -0.35,0.21 -0.67,0.46 -0.94,0.76 -0.1,0.11 -0.26,0.14 -0.39,0.07l-0.99 -0.53 -0.64 1.19 0.98 0.53c0.13,0.07 0.2,0.22 0.16,0.36 -0.11,0.4 -0.15,0.8 -0.13,1.2 0.01,0.15 -0.09,0.28 -0.23,0.32l-1.07 0.32 0.39 1.31 1.07 -0.32c0.14,-0.04 0.29,0.02 0.37,0.15 0.21,0.35 0.47,0.68 0.77,0.95 0.11,0.1 0.14,0.26 0.07,0.39l-0.53 0.99 1.19 0.65 0.54 -0.99c0.07,-0.13 0.22,-0.2 0.36,-0.16 0.39,0.1 0.8,0.15 1.2,0.13 0.01,-0 0.01,-0 0.02,-0zm0.41 2.01c-0.05,0 -0.11,-0.01 -0.15,-0.04 -0.07,-0.04 -0.13,-0.11 -0.15,-0.19l-0.34 -1.14c-0.3,-0 -0.61,-0.03 -0.9,-0.09l-0.57 1.05c-0.08,0.15 -0.28,0.21 -0.43,0.13l-1.75 -0.95c-0.15,-0.08 -0.21,-0.28 -0.13,-0.43l0.57 -1.06c-0.21,-0.21 -0.41,-0.46 -0.57,-0.71l-1.14 0.34c-0.08,0.02 -0.17,0.01 -0.24,-0.03 -0.07,-0.04 -0.13,-0.11 -0.15,-0.19l-0.57 -1.92c-0.02,-0.08 -0.02,-0.17 0.03,-0.24 0.04,-0.07 0.11,-0.13 0.19,-0.15l1.14 -0.34c0,-0.3 0.03,-0.6 0.1,-0.89l-1.05 -0.56c-0.08,-0.04 -0.13,-0.11 -0.16,-0.19 -0.02,-0.08 -0.02,-0.17 0.03,-0.24l0.95 -1.75c0.08,-0.15 0.28,-0.21 0.43,-0.13l1.05 0.57c0.22,-0.21 0.45,-0.4 0.71,-0.57l-0.35 -1.16c-0.05,-0.17 0.05,-0.35 0.22,-0.4l1.92 -0.57c0.17,-0.05 0.35,0.05 0.4,0.21l0.35 1.17c0.3,0 0.6,0.03 0.9,0.1l0.57 -1.05c0.04,-0.07 0.11,-0.13 0.19,-0.15 0.08,-0.02 0.17,-0.02 0.24,0.03l1.75 0.95c0.07,0.04 0.13,0.11 0.15,0.19 0.02,0.08 0.01,0.17 -0.03,0.24l-0.57 1.05c0.21,0.21 0.4,0.45 0.56,0.69l1.15 -0.34c0.08,-0.02 0.17,-0.01 0.24,0.03 0.07,0.04 0.13,0.11 0.15,0.19l0.57 1.92c0.02,0.08 0.02,0.17 -0.03,0.24 -0.04,0.07 -0.11,0.13 -0.19,0.15l-1.15 0.34c-0,0.31 -0.03,0.61 -0.09,0.91l1.06 0.58c0.15,0.08 0.21,0.28 0.13,0.43l-0.95 1.75c-0.04,0.07 -0.11,0.13 -0.19,0.15 -0.08,0.02 -0.17,0.01 -0.24,-0.03l-1.06 -0.57c-0.21,0.21 -0.45,0.4 -0.7,0.57l0.34 1.14c0.05,0.17 -0.05,0.35 -0.22,0.4l-1.92 0.57c-0.03,0.01 -0.06,0.01 -0.09,0.01z"/>
     <path class="fil0" d="M28.42 24.22c-1.23,0 -2.23,1 -2.23,2.23 0,1.23 1,2.23 2.23,2.23 1.23,0 2.23,-1 2.23,-2.23 0,-1.23 -1,-2.23 -2.23,-2.23zm0 5.1c-1.58,0 -2.87,-1.29 -2.87,-2.87 0,-1.58 1.29,-2.87 2.87,-2.87 1.58,0 2.87,1.29 2.87,2.87 0,1.58 -1.29,2.87 -2.87,2.87z"/>
     <path class="fil0" d="M35.65 23.17l0.8 0.09 0.08 -0.71c0.02,-0.15 0.13,-0.26 0.28,-0.28 0.28,-0.04 0.55,-0.12 0.81,-0.24 0.13,-0.06 0.29,-0.03 0.38,0.09l0.45 0.57 0.62 -0.5 -0.46 -0.57c-0.09,-0.12 -0.09,-0.28 -0,-0.39 0.17,-0.22 0.31,-0.47 0.41,-0.74 0.05,-0.14 0.19,-0.22 0.34,-0.21l0.72 0.08 0.09 -0.8 -0.72 -0.08c-0.15,-0.02 -0.26,-0.13 -0.28,-0.28 -0.03,-0.27 -0.11,-0.54 -0.24,-0.81 -0.06,-0.13 -0.02,-0.29 0.09,-0.38l0.56 -0.45 -0.5 -0.62 -0.56 0.45c-0.12,0.09 -0.28,0.09 -0.4,0 -0.22,-0.17 -0.47,-0.31 -0.74,-0.41 -0.14,-0.05 -0.22,-0.19 -0.21,-0.33l0.08 -0.73 -0.8 -0.09 -0.08 0.73c-0.02,0.15 -0.13,0.26 -0.28,0.28 -0.28,0.04 -0.56,0.12 -0.82,0.24 -0.13,0.06 -0.29,0.03 -0.38,-0.09l-0.45 -0.56 -0.62 0.5 0.45 0.56c0.09,0.12 0.09,0.28 0,0.4 -0.18,0.23 -0.31,0.48 -0.41,0.74 -0.05,0.14 -0.19,0.23 -0.34,0.21l-0.71 -0.08 -0.09 0.8 0.71 0.08c0.15,0.02 0.26,0.13 0.28,0.28 0.04,0.28 0.12,0.57 0.24,0.82 0.06,0.13 0.03,0.29 -0.09,0.38l-0.56 0.45 0.5 0.63 0.57 -0.45c0.12,-0.09 0.28,-0.09 0.4,-0 0.22,0.17 0.47,0.31 0.74,0.41 0.14,0.05 0.23,0.19 0.21,0.34l-0.08 0.71zm1.08 0.76c-0.01,0 -0.02,-0 -0.04,-0l-1.44 -0.16c-0.08,-0.01 -0.16,-0.05 -0.21,-0.12 -0.05,-0.07 -0.08,-0.15 -0.07,-0.23l0.09 -0.79c-0.17,-0.07 -0.32,-0.16 -0.47,-0.26l-0.63 0.5c-0.07,0.05 -0.15,0.08 -0.23,0.07 -0.08,-0.01 -0.16,-0.05 -0.21,-0.12l-0.9 -1.12c-0.11,-0.14 -0.09,-0.34 0.05,-0.45l0.63 -0.5c-0.06,-0.17 -0.11,-0.35 -0.15,-0.53l-0.79 -0.09c-0.08,-0.01 -0.16,-0.05 -0.21,-0.12 -0.05,-0.07 -0.08,-0.15 -0.07,-0.23l0.16 -1.44c0.01,-0.08 0.05,-0.16 0.12,-0.21 0.07,-0.05 0.15,-0.08 0.23,-0.07l0.79 0.09c0.07,-0.16 0.16,-0.32 0.26,-0.47l-0.5 -0.62c-0.05,-0.07 -0.08,-0.15 -0.07,-0.24 0.01,-0.08 0.05,-0.16 0.12,-0.21l1.12 -0.9c0.14,-0.11 0.34,-0.09 0.45,0.05l0.5 0.63c0.17,-0.06 0.34,-0.11 0.52,-0.15l0.09 -0.81c0.02,-0.18 0.18,-0.3 0.35,-0.28l1.44 0.16c0.18,0.02 0.3,0.18 0.28,0.35l-0.09 0.81c0.16,0.07 0.32,0.16 0.47,0.26l0.62 -0.5c0.07,-0.05 0.15,-0.08 0.23,-0.07 0.08,0.01 0.16,0.05 0.21,0.12l0.9 1.12c0.05,0.07 0.08,0.15 0.07,0.24 -0.01,0.08 -0.05,0.16 -0.12,0.21l-0.63 0.5c0.06,0.17 0.11,0.34 0.15,0.51l0.8 0.09c0.08,0.01 0.16,0.05 0.21,0.12 0.05,0.07 0.08,0.15 0.07,0.23l-0.16 1.44c-0.01,0.08 -0.05,0.16 -0.12,0.21 -0.07,0.05 -0.15,0.08 -0.23,0.07l-0.8 -0.09c-0.08,0.17 -0.16,0.33 -0.26,0.48l0.5 0.63c0.11,0.14 0.09,0.34 -0.05,0.45l-1.12 0.9c-0.07,0.05 -0.15,0.08 -0.24,0.07 -0.08,-0.01 -0.16,-0.05 -0.21,-0.12l-0.5 -0.63c-0.17,0.06 -0.34,0.11 -0.51,0.15l-0.09 0.79c-0.02,0.16 -0.16,0.28 -0.32,0.28z"/>
     <path class="fil0" d="M36.46 18.02c-0.19,0 -0.39,0.04 -0.57,0.11 -0.38,0.15 -0.67,0.44 -0.83,0.82 -0.16,0.37 -0.16,0.79 -0.01,1.17 0.15,0.38 0.44,0.67 0.82,0.83 0.37,0.16 0.79,0.16 1.17,0.01 0.38,-0.15 0.67,-0.44 0.83,-0.82 0.33,-0.77 -0.04,-1.67 -0.81,-2 -0.19,-0.08 -0.39,-0.12 -0.59,-0.12zm-0 3.69c-0.29,0 -0.57,-0.06 -0.84,-0.17 -0.53,-0.22 -0.95,-0.64 -1.16,-1.18 -0.22,-0.54 -0.21,-1.12 0.01,-1.66 0.22,-0.53 0.64,-0.94 1.18,-1.16 0.54,-0.22 1.12,-0.21 1.65,0.01 1.1,0.46 1.61,1.73 1.15,2.83 -0.22,0.53 -0.64,0.95 -1.18,1.16 -0.26,0.11 -0.54,0.16 -0.81,0.16z"/>
    </g>
    <path class="fil0" d="M20.06 52.46l23.47 0 0 -1.42c0,-0.77 -0.63,-1.4 -1.4,-1.4l-20.67 0c-0.77,0 -1.4,0.63 -1.4,1.4l0 1.42zm24.41 1.87l-25.34 0c-0.52,0 -0.94,-0.42 -0.94,-0.94l0 -2.35c0,-1.8 1.47,-3.27 3.27,-3.27l20.67 0c1.8,0 3.27,1.47 3.27,3.27l0 2.35c0,0.52 -0.42,0.94 -0.94,0.94z"/>
    <path class="fil0" d="M28.92 48.84c-0.52,0 -0.94,-0.42 -0.94,-0.94l0 -7.43c0,-0.52 0.42,-0.94 0.94,-0.94 0.52,0 0.94,0.42 0.94,0.94l0 7.43c0,0.52 -0.42,0.94 -0.94,0.94z"/>
    <path class="fil0" d="M34.67 48.84c-0.52,0 -0.94,-0.42 -0.94,-0.94l0 -7.43c0,-0.52 0.42,-0.94 0.94,-0.94 0.52,0 0.94,0.42 0.94,0.94l0 7.43c0,0.52 -0.42,0.94 -0.94,0.94z"/>
    <path class="fil0" d="M10.34 9.84c-0.55,0 -1,0.45 -1,1l0 27.28c0,0.55 0.45,1 1,1l42.92 0c0.55,0 1.01,-0.45 1.01,-1l0 -27.28c0,-0.55 -0.45,-1 -1.01,-1l-42.92 0zm42.92 31.16l-42.92 0c-1.58,0 -2.88,-1.29 -2.88,-2.88l0 -27.28c0,-1.59 1.29,-2.88 2.88,-2.88l42.92 0c1.59,0 2.88,1.29 2.88,2.88l0 27.28c0,1.59 -1.29,2.88 -2.88,2.88z"/>
    <path class="fil0" d="M13.5 35.75l36.59 0 0 -22.52 -36.59 0 0 22.52zm37.53 1.87l-38.46 0c-0.52,0 -0.94,-0.42 -0.94,-0.94l0 -24.39c0,-0.52 0.42,-0.94 0.94,-0.94l38.46 0c0.52,0 0.94,0.42 0.94,0.94l0 24.39c0,0.52 -0.42,0.94 -0.94,0.94z"/>
   </g>
   <rect class="fil1" x="-0" y="-0" width="63.59" height="62.3"/>
  </g>
 </g>
</svg>
