<svg width="58" height="57" viewBox="0 0 58 57" fill="none" xmlns="http://www.w3.org/2000/svg">
<rect x="0.457031" width="56.7286" height="57" fill="#F7DA64"/>
<path d="M34.6407 28.4995V20.2624C34.6407 19.7833 34.2473 19.3799 33.7884 19.3799H21.8965C21.4294 19.3799 21.0524 19.7749 21.0524 20.2624V24.2717C21.0524 24.3978 20.9458 24.5155 20.8229 24.5155H17.0611C16.93 24.5155 16.8316 24.4062 16.8316 24.2717V15.3706C16.8316 14.6982 17.3562 14.1434 18.0118 14.1434H40.4022C41.0497 14.1434 41.5824 14.6898 41.5824 15.3706V28.4995H34.6571H34.6407ZM42.4675 29.1552V29.7939H15.0204V29.1552C15.0204 29.1383 15.0204 29.1215 15.0286 29.1047H42.4675C42.4675 29.1215 42.4757 29.1299 42.4757 29.1552H42.4675ZM42.0332 34.0386H15.463V30.4075H42.0332V34.0386ZM30.8134 13.076H34.3293V13.5467H30.8134V13.076ZM36.5093 13.076H37.3781V13.5467H36.5093V13.076ZM42.6151 17.5307V22.868H42.1561V17.5307H42.6151V17.5307ZM42.6888 23.4732C42.9675 23.4732 43.2051 23.2295 43.2051 22.9437V17.4551C43.2051 17.1609 42.9757 16.9256 42.6888 16.9256H42.1561V15.379C42.1561 14.3704 41.3611 13.5467 40.3858 13.5467H37.9681V13.0255C37.9681 12.7145 37.7305 12.4708 37.4272 12.4708H36.4601C36.1651 12.4708 35.9192 12.7229 35.9192 13.0255V13.5467H34.9194V13.0255C34.9194 12.7145 34.6735 12.4708 34.3785 12.4708H32.8623V10.2266C32.8623 10.0585 32.7311 9.92401 32.5672 9.92401C32.4033 9.92401 32.2722 10.0585 32.2722 10.2266V12.4708H30.7642C30.4609 12.4708 30.2233 12.7145 30.2233 13.0255V13.5467H17.9954C17.0201 13.5467 16.2252 14.3704 16.2252 15.379V24.2801C16.2252 24.7508 16.594 25.1291 17.0447 25.1291H18.6347V27.1043C18.6347 27.2724 18.7658 27.4069 18.9297 27.4069C19.0936 27.4069 19.2248 27.2724 19.2248 27.1043V25.1291H20.8147C21.2655 25.1291 21.6343 24.7508 21.6343 24.2801V20.2708C21.6343 20.1195 21.749 19.9935 21.8883 19.9935H33.7802C33.9195 19.9935 34.0424 20.1279 34.0424 20.2708V28.508H14.9384C14.6516 28.508 14.4221 28.7937 14.4221 29.1636V30.1049C14.4221 30.273 14.5532 30.4075 14.7172 30.4075H14.8647V34.3412C14.8647 34.5093 14.9958 34.6438 15.1597 34.6438H42.32C42.4839 34.6438 42.6151 34.5093 42.6151 34.3412V30.4075H42.7544C42.9183 30.4075 43.0494 30.273 43.0494 30.1049V29.1636C43.0494 28.7937 42.8281 28.508 42.5331 28.508H42.1479V23.4816H42.6806L42.6888 23.4732Z" fill="#0895CA"/>
<path d="M34.4688 28.4994V20.2623C34.4688 20.069 34.3869 19.8925 34.264 19.7664C34.141 19.6403 33.9689 19.5563 33.7804 19.5563H21.8886C21.7001 19.5563 21.5362 19.6319 21.4132 19.7664C21.2903 19.8925 21.2165 20.069 21.2165 20.2707V24.28C21.2165 24.3893 21.1673 24.4986 21.1018 24.5742C21.028 24.6498 20.9297 24.7003 20.8149 24.7003H17.0531C16.9384 24.7003 16.8401 24.6498 16.7663 24.5742C16.6925 24.4986 16.6516 24.3977 16.6516 24.28V15.3789C16.6516 14.9922 16.7991 14.6476 17.045 14.3955C17.2908 14.1433 17.6268 13.9836 17.9956 13.9836H40.3861C40.7549 13.9836 41.0991 14.1433 41.3368 14.3955C41.5826 14.6476 41.7302 15.0007 41.7302 15.3789V28.6844H34.4606V28.5078L34.4688 28.4994ZM34.8131 20.2623V28.3229H41.4023V15.3705C41.4023 15.0847 41.2876 14.8157 41.1073 14.6308C40.927 14.4459 40.6729 14.3282 40.3943 14.3282H18.0038C17.7252 14.3282 17.4711 14.4459 17.2908 14.6308C17.1105 14.8241 16.9958 15.0847 16.9958 15.3705V24.2716C16.9958 24.2884 17.004 24.3136 17.0122 24.322C17.0204 24.3304 17.0368 24.3389 17.0531 24.3389H20.8149C20.8313 24.3389 20.8395 24.3304 20.8559 24.322C20.8723 24.3052 20.8805 24.2884 20.8805 24.2716V20.2623C20.8805 19.9681 20.9952 19.7076 21.1755 19.5143C21.3558 19.3209 21.6099 19.2033 21.8968 19.2033H33.7886C34.0673 19.2033 34.3213 19.3209 34.5098 19.5143C34.6983 19.7076 34.8131 19.9681 34.8131 20.2623V20.2623ZM42.6399 29.155V29.9704H14.8485V29.155V29.113L14.8567 29.0626L14.8895 28.9281H42.5907L42.6235 29.071L42.6317 29.113V29.155H42.6399ZM42.2957 29.6257V29.2895H15.1927V29.6257H42.2957ZM42.0334 34.215H15.2911V30.2309H42.2055V34.215H42.0334ZM15.6353 33.862H41.8613V30.5755H15.6353V33.862ZM30.8136 12.8994H34.4934V13.7231H30.6415V12.8994H30.8136ZM34.1574 13.2524H30.9857V13.3784H34.1574V13.2524ZM36.5096 12.8994H37.5504V13.7231H36.3374V12.8994H36.5096ZM37.2062 13.2524H36.6735V13.3784H37.2062V13.2524ZM42.7874 17.5306V23.0444H41.9842V17.3541H42.7874V17.5306V17.5306ZM42.4432 22.6998V17.7071H42.3202V22.6998H42.4432ZM42.6891 23.305C42.7792 23.305 42.8694 23.263 42.9349 23.1957C43.0005 23.1285 43.0415 23.0445 43.0415 22.9436V17.455C43.0415 17.3541 43.0005 17.2701 42.9431 17.2028C42.8776 17.1356 42.7956 17.102 42.6972 17.102H41.9924V15.3789C41.9924 14.925 41.8121 14.5047 41.5253 14.2106C41.2384 13.908 40.8368 13.7231 40.3943 13.7231H37.8045V13.0254C37.8045 12.9162 37.7635 12.8237 37.6979 12.7565C37.6324 12.6892 37.5422 12.6472 37.4357 12.6472H36.4686C36.3702 12.6472 36.2719 12.6892 36.2063 12.7565C36.1407 12.8237 36.0998 12.9246 36.0998 13.0254V13.7231H34.7557V13.0254C34.7557 12.9162 34.7147 12.8237 34.6491 12.7565C34.5836 12.6892 34.4934 12.6472 34.3869 12.6472H32.6986V10.2349C32.6986 10.2013 32.6822 10.1677 32.6658 10.1424C32.6412 10.1172 32.6084 10.1088 32.5757 10.1088C32.5429 10.1088 32.5101 10.1256 32.4855 10.1424C32.4609 10.1677 32.4527 10.2013 32.4527 10.2349V12.6472H30.7808C30.6743 12.6472 30.5841 12.6892 30.5186 12.7565C30.453 12.8237 30.412 12.9246 30.412 13.0254V13.7231H18.012C17.5695 13.7231 17.1761 13.908 16.881 14.2106C16.5942 14.5132 16.4139 14.925 16.4139 15.3789V24.28C16.4139 24.4649 16.4876 24.633 16.6024 24.7591C16.7171 24.8768 16.881 24.9524 17.0613 24.9524H18.8152V27.1042C18.8152 27.1378 18.8316 27.1714 18.848 27.1966C18.8726 27.2218 18.9054 27.2302 18.9381 27.2302C18.9709 27.2302 19.0037 27.2134 19.0283 27.1966C19.0529 27.1714 19.0611 27.1378 19.0611 27.1042V24.9524H20.8149C20.9952 24.9524 21.1592 24.8768 21.2739 24.7591C21.3886 24.6414 21.4624 24.4649 21.4624 24.28V20.2707C21.4624 20.1531 21.5116 20.0354 21.5853 19.9597C21.6591 19.8757 21.7738 19.8168 21.8886 19.8168H33.7804C33.8951 19.8168 34.0099 19.8673 34.0918 19.9513C34.1738 20.0354 34.223 20.1446 34.223 20.2707V28.6844H14.9551C14.8649 28.6844 14.783 28.7348 14.7174 28.8104C14.6518 28.8945 14.6027 29.0206 14.6027 29.1634V30.1048C14.6027 30.1385 14.619 30.1721 14.6354 30.1973C14.66 30.2225 14.6928 30.2309 14.7256 30.2309H15.0452V34.3411C15.0452 34.3747 15.0616 34.4083 15.078 34.4335C15.1026 34.4587 15.1354 34.4671 15.1682 34.4671H42.3284C42.3612 34.4671 42.394 34.4503 42.4186 34.4335C42.4432 34.4083 42.4514 34.3747 42.4514 34.3411V30.2309H42.7628C42.7956 30.2309 42.8284 30.2141 42.853 30.1973C42.8776 30.1721 42.8857 30.1385 42.8857 30.1048V29.1634C42.8857 29.0206 42.8448 28.8945 42.7792 28.8104C42.7218 28.7348 42.6317 28.6844 42.5415 28.6844H41.9842V23.305H42.6891V23.305ZM43.1726 23.4479C43.0497 23.574 42.8776 23.658 42.6891 23.658H42.3284V28.3313H42.5415C42.7464 28.3313 42.9185 28.4238 43.0415 28.5835C43.1562 28.7348 43.23 28.9365 43.23 29.1634V30.1048C43.23 30.2393 43.1808 30.357 43.0906 30.441C43.0169 30.5167 42.9103 30.5755 42.7956 30.5839V34.3495C42.7956 34.484 42.7464 34.6016 42.6563 34.6857C42.5743 34.7697 42.4514 34.8286 42.3284 34.8286H15.1682C15.037 34.8286 14.9223 34.7781 14.8403 34.6857C14.7584 34.6016 14.701 34.4755 14.701 34.3495V30.5839C14.5781 30.5755 14.4715 30.5251 14.3896 30.441C14.3076 30.357 14.2502 30.2393 14.2502 30.1048V29.1634C14.2502 28.9365 14.324 28.7348 14.4387 28.5919C14.5617 28.4322 14.742 28.3397 14.9387 28.3397H33.8706V20.2791C33.8706 20.2539 33.8624 20.2287 33.8378 20.2035C33.8214 20.1867 33.7968 20.1699 33.7722 20.1699H21.8804C21.864 20.1699 21.8394 20.1783 21.823 20.1951C21.8066 20.2119 21.7902 20.2455 21.7902 20.2707V24.28C21.7902 24.5574 21.6755 24.818 21.4952 25.0029C21.3149 25.1878 21.069 25.3055 20.7904 25.3055H19.3725V27.1042C19.3725 27.2387 19.3233 27.3563 19.2332 27.4404C19.1512 27.5244 19.0283 27.5833 18.9054 27.5833C18.7742 27.5833 18.6595 27.5328 18.5775 27.4404C18.4956 27.3563 18.4382 27.2302 18.4382 27.1042V25.3055H17.0204C16.7499 25.3055 16.4958 25.1878 16.3155 25.0029C16.1352 24.818 16.0205 24.5658 16.0205 24.28V15.3789C16.0205 14.8241 16.2418 14.3282 16.586 13.9668C16.9384 13.6054 17.4219 13.3784 17.9547 13.3784H30.0104V13.0338C30.0104 12.8321 30.0924 12.6472 30.2153 12.5127C30.3464 12.3782 30.5186 12.3026 30.7234 12.3026H32.0593V10.2349C32.0593 10.1004 32.1085 9.98274 32.1987 9.89869C32.2806 9.81463 32.4035 9.7558 32.5265 9.7558C32.6576 9.7558 32.7723 9.80623 32.8543 9.89869C32.9363 9.98274 32.9936 10.1088 32.9936 10.2349V12.3026H34.3377C34.5344 12.3026 34.7147 12.3866 34.8376 12.5211C34.9688 12.6556 35.0425 12.8405 35.0425 13.0338V13.3784H35.6982V13.0338C35.6982 12.8321 35.7801 12.6472 35.9031 12.5211C36.0342 12.3866 36.2063 12.3026 36.403 12.3026H37.3701C37.5668 12.3026 37.7471 12.3866 37.8782 12.5127C38.0094 12.6472 38.0831 12.8237 38.0831 13.0338V13.3784H40.3287C40.8614 13.3784 41.345 13.6054 41.6974 13.9668C42.0498 14.3282 42.2629 14.8326 42.2629 15.3789V16.7573H42.6235C42.812 16.7573 42.9841 16.833 43.107 16.9675C43.23 17.0936 43.3119 17.2701 43.3119 17.4634V22.952C43.3119 23.1453 43.23 23.3218 43.107 23.4479H43.1726Z" fill="#0895CA"/>
<path d="M35.7964 31.87C35.7964 31.8196 35.8456 31.786 35.8865 31.786H39.5254C39.5746 31.786 39.6073 31.8196 39.6073 31.87V32.4836C39.6073 32.534 39.5746 32.5845 39.5254 32.5845H35.8865C35.8374 32.5845 35.7964 32.5424 35.7964 32.4836V31.87V31.87ZM35.8865 33.1896H39.5254C39.8942 33.1896 40.1974 32.8702 40.1974 32.4836V31.87C40.1974 31.4834 39.9024 31.1808 39.5254 31.1808H35.8865C35.5095 31.1808 35.2063 31.4918 35.2063 31.87V32.4836C35.2063 32.8702 35.5095 33.1896 35.8865 33.1896V33.1896Z" fill="#0895CA"/>
<path d="M35.6244 31.8699C35.6244 31.7943 35.6572 31.727 35.7063 31.685C35.7555 31.643 35.8211 31.6177 35.8866 31.6177H39.5255C39.5992 31.6177 39.6566 31.643 39.7058 31.6934C39.7468 31.7438 39.7714 31.8027 39.7714 31.8783V32.4919C39.7714 32.5507 39.7468 32.618 39.7058 32.6684C39.6648 32.7272 39.5992 32.7609 39.5173 32.7609H35.8784C35.8047 32.7609 35.7391 32.7272 35.6899 32.6768C35.6408 32.6264 35.6162 32.5591 35.6162 32.4919V31.8783L35.6244 31.8699ZM39.4271 31.9624H35.9604V32.4078H39.4271V31.9624ZM35.8866 33.0214H39.5255C39.6648 33.0214 39.7877 32.9626 39.8779 32.8701C39.968 32.7777 40.0254 32.6432 40.0254 32.4919V31.8783C40.0254 31.7354 39.968 31.6009 39.8779 31.5085C39.7877 31.416 39.6648 31.3572 39.5255 31.3572H35.8866C35.7473 31.3572 35.6162 31.416 35.526 31.5085C35.4359 31.6009 35.3785 31.727 35.3785 31.8699V32.4835C35.3785 32.6264 35.4359 32.7609 35.526 32.8533C35.6162 32.9458 35.7473 33.0046 35.8866 33.0046V33.0214ZM39.5255 33.3744H35.8866C35.649 33.3744 35.4359 33.2736 35.2883 33.1139C35.1326 32.9542 35.0425 32.7356 35.0425 32.4919V31.8783C35.0425 31.643 35.1408 31.4244 35.2965 31.2647C35.4523 31.105 35.6653 31.0126 35.8948 31.0126H39.5337C39.7714 31.0126 39.9762 31.105 40.132 31.2647C40.2795 31.4244 40.3778 31.6346 40.3778 31.8783V32.4919C40.3778 32.7356 40.2877 32.9542 40.132 33.1139C39.9762 33.2736 39.7714 33.3744 39.5337 33.3744H39.5255Z" fill="#0895CA"/>
<path d="M38.1327 26.5747C36.9279 26.5747 35.9526 25.5577 35.9526 24.3137C35.9526 23.0614 36.9361 22.0527 38.1327 22.0527C39.3374 22.0527 40.3127 23.0698 40.3127 24.3137C40.3127 25.5661 39.3292 26.5747 38.1327 26.5747ZM38.1327 21.4391C36.6001 21.4391 35.3625 22.7251 35.3625 24.3137C35.3625 25.8939 36.6083 27.1799 38.1327 27.1799C39.6652 27.1799 40.9028 25.8939 40.9028 24.3137C40.9028 22.7336 39.6571 21.4391 38.1327 21.4391Z" fill="#0895CA"/>
<path d="M38.1327 26.7511C37.4852 26.7511 36.8951 26.4737 36.4689 26.0366C36.0428 25.5912 35.7805 24.986 35.7805 24.3136C35.7805 23.6411 36.0428 23.036 36.4689 22.5905C36.8951 22.145 37.4852 21.876 38.1327 21.876C38.7801 21.876 39.3702 22.1534 39.7964 22.5905C40.2225 23.036 40.4848 23.6411 40.4848 24.3136C40.4848 24.986 40.2225 25.5912 39.7964 26.0366C39.3702 26.4821 38.7801 26.7511 38.1327 26.7511V26.7511ZM36.7148 25.7929C37.0754 26.1711 37.5836 26.4065 38.1327 26.4065C38.69 26.4065 39.1899 26.1711 39.5587 25.7929C39.9275 25.4146 40.1488 24.8935 40.1488 24.3136C40.1488 23.7336 39.9193 23.2125 39.5587 22.8342C39.1981 22.456 38.69 22.2207 38.1327 22.2207C37.5754 22.2207 37.0754 22.456 36.7148 22.8342C36.346 23.2125 36.1247 23.7336 36.1247 24.3136C36.1247 24.8935 36.3542 25.4146 36.7148 25.7929ZM38.1327 21.6155C37.4114 21.6155 36.764 21.9181 36.2968 22.4056C35.8297 22.8931 35.5346 23.5655 35.5346 24.3136C35.5346 25.0532 35.8297 25.734 36.2968 26.2215C36.764 26.709 37.4196 27.0116 38.1327 27.0116C38.8539 27.0116 39.5013 26.709 39.9767 26.2215C40.452 25.734 40.7389 25.0616 40.7389 24.3136C40.7389 23.5739 40.4438 22.8931 39.9767 22.4056C39.5095 21.9181 38.8539 21.6155 38.1327 21.6155V21.6155ZM36.051 22.1618C36.5837 21.6071 37.3213 21.2709 38.1327 21.2709C38.944 21.2709 39.6816 21.6155 40.2143 22.1618C40.7471 22.7166 41.0749 23.473 41.0749 24.3136C41.0749 25.1541 40.7471 25.9106 40.2143 26.4653C39.6816 27.02 38.944 27.3563 38.1327 27.3563C37.3213 27.3563 36.5837 27.0116 36.051 26.4653C35.5183 25.9106 35.1904 25.1541 35.1904 24.3136C35.1904 23.473 35.5183 22.7166 36.051 22.1618V22.1618Z" fill="#0895CA"/>
<path d="M33.6987 18.0181H23.0362C22.3641 18.0181 21.8232 17.4549 21.8232 16.7573C21.8232 16.0597 22.3641 15.4965 23.0362 15.4965H33.6987C34.3707 15.4965 34.9116 16.0597 34.9116 16.7573C34.9116 17.4549 34.3707 18.0181 33.6987 18.0181ZM33.6987 14.8914H23.0362C22.0445 14.8914 21.2332 15.7319 21.2332 16.7573C21.2332 17.7828 22.0445 18.6233 23.0362 18.6233H33.6987C34.6904 18.6233 35.5017 17.7828 35.5017 16.7573C35.5017 15.7319 34.6904 14.8914 33.6987 14.8914Z" fill="#0895CA"/>
<path d="M33.6984 18.1946H23.0359C22.6507 18.1946 22.3065 18.0349 22.0607 17.7743C21.8066 17.5138 21.6591 17.1524 21.6591 16.7657C21.6591 16.3707 21.8148 16.0092 22.0607 15.7571C22.3147 15.4965 22.6589 15.3368 23.0359 15.3368H33.6984C34.0836 15.3368 34.4279 15.4965 34.6737 15.7571C34.9278 16.0177 35.0753 16.3791 35.0753 16.7657C35.0753 17.1608 34.9196 17.5222 34.6737 17.7743C34.4197 18.0349 34.0754 18.1946 33.6984 18.1946ZM23.0359 17.8416H33.6984C33.9853 17.8416 34.2475 17.7239 34.436 17.5222C34.6245 17.3289 34.7393 17.0515 34.7393 16.7573C34.7393 16.4547 34.6245 16.1858 34.436 15.9924C34.2475 15.7991 33.9853 15.673 33.6984 15.673H23.0359C22.7491 15.673 22.4868 15.7907 22.2983 15.9924C22.1098 16.1858 21.9951 16.4631 21.9951 16.7573C21.9951 17.0599 22.1098 17.3289 22.2983 17.5222C22.4868 17.7155 22.7491 17.8416 23.0359 17.8416ZM33.6984 15.0679H23.0359C22.5852 15.0679 22.1754 15.2612 21.8804 15.5638C21.5853 15.8664 21.405 16.295 21.405 16.7573C21.405 17.228 21.5853 17.6483 21.8804 17.9509C22.1754 18.2534 22.5852 18.4468 23.0359 18.4468H33.6984C34.1492 18.4468 34.559 18.2534 34.854 17.9509C35.1491 17.6483 35.3294 17.2196 35.3294 16.7573C35.3294 16.2866 35.1491 15.8664 34.854 15.5638C34.559 15.2612 34.1492 15.0679 33.6984 15.0679ZM23.0359 14.7148H33.6984C34.2394 14.7148 34.7393 14.9418 35.0917 15.3116C35.4523 15.6814 35.6736 16.1942 35.6736 16.7489C35.6736 17.3121 35.4523 17.8248 35.0917 18.1862C34.7311 18.556 34.2394 18.783 33.6984 18.783H23.0359C22.495 18.783 21.9951 18.556 21.6427 18.1862C21.2821 17.8164 21.0608 17.3037 21.0608 16.7489C21.0608 16.1858 21.2821 15.6814 21.6427 15.3116C22.0033 14.9418 22.495 14.7148 23.0359 14.7148V14.7148Z" fill="#0895CA"/>
<path d="M38.1312 22.6159C37.9673 22.6159 37.8362 22.7504 37.8362 22.9185C37.8362 23.0866 37.9673 23.2211 38.1312 23.2211C38.7131 23.2211 39.1803 23.7086 39.1803 24.3138C39.1803 24.4819 39.3114 24.6164 39.4753 24.6164C39.6392 24.6164 39.7703 24.4819 39.7703 24.3138C39.7703 23.3808 39.0327 22.6159 38.1312 22.6159V22.6159Z" fill="#0895CA"/>
<path d="M38.1314 22.7925C38.0986 22.7925 38.0658 22.8093 38.0412 22.8261C38.0166 22.8513 38.0084 22.8849 38.0084 22.9186C38.0084 22.9522 38.0248 22.9858 38.0412 23.011C38.0658 23.0362 38.0986 23.0446 38.1314 23.0446C38.4674 23.0446 38.7706 23.1875 38.9919 23.4145C39.2132 23.6414 39.3525 23.9608 39.3525 24.3054C39.3525 24.339 39.3689 24.3727 39.3853 24.3979C39.4099 24.4231 39.4427 24.4315 39.4754 24.4315C39.5082 24.4315 39.541 24.4147 39.5656 24.3979C39.5902 24.3727 39.5984 24.339 39.5984 24.3054C39.5984 23.8852 39.4345 23.5069 39.164 23.2295C38.9017 22.9522 38.5329 22.7841 38.1232 22.7841L38.1314 22.7925ZM37.8035 22.5823C37.8855 22.4983 38.0084 22.4395 38.1314 22.4395C38.6313 22.4395 39.082 22.6496 39.4099 22.9858C39.7377 23.322 39.9426 23.7927 39.9426 24.3054C39.9426 24.4399 39.8934 24.5576 39.8033 24.6416C39.7213 24.7257 39.5984 24.7845 39.4754 24.7845C39.3443 24.7845 39.2296 24.7341 39.1476 24.6416C39.0657 24.5576 39.0083 24.4315 39.0083 24.3054C39.0083 24.0533 38.9099 23.8263 38.746 23.6582C38.5903 23.4901 38.369 23.3892 38.1232 23.3892C37.992 23.3892 37.8773 23.3388 37.7953 23.2464C37.7134 23.1623 37.656 23.0446 37.656 22.9101C37.656 22.7757 37.7052 22.658 37.7953 22.5739L37.8035 22.5823Z" fill="#0895CA"/>
<path d="M13.6529 44.1955L12.5089 45.3555V46.8275H11.9169V41.2275H12.5089V44.6115L15.7969 41.2275H16.4769L14.0529 43.7635L16.6449 46.8275H15.9409L13.6529 44.1955ZM19.0091 46.8675C18.6038 46.8675 18.2384 46.7768 17.9131 46.5955C17.5878 46.4088 17.3318 46.1528 17.1451 45.8275C16.9584 45.5021 16.8651 45.1341 16.8651 44.7235C16.8651 44.3128 16.9584 43.9448 17.1451 43.6195C17.3318 43.2941 17.5878 43.0408 17.9131 42.8595C18.2384 42.6781 18.6038 42.5875 19.0091 42.5875C19.4144 42.5875 19.7798 42.6781 20.1051 42.8595C20.4304 43.0408 20.6838 43.2941 20.8651 43.6195C21.0518 43.9448 21.1451 44.3128 21.1451 44.7235C21.1451 45.1341 21.0518 45.5021 20.8651 45.8275C20.6838 46.1528 20.4304 46.4088 20.1051 46.5955C19.7798 46.7768 19.4144 46.8675 19.0091 46.8675ZM19.0091 46.3635C19.3078 46.3635 19.5744 46.2968 19.8091 46.1635C20.0491 46.0248 20.2358 45.8301 20.3691 45.5795C20.5024 45.3288 20.5691 45.0435 20.5691 44.7235C20.5691 44.4035 20.5024 44.1181 20.3691 43.8675C20.2358 43.6168 20.0491 43.4248 19.8091 43.2915C19.5744 43.1528 19.3078 43.0835 19.0091 43.0835C18.7104 43.0835 18.4411 43.1528 18.2011 43.2915C17.9664 43.4248 17.7798 43.6168 17.6411 43.8675C17.5078 44.1181 17.4411 44.4035 17.4411 44.7235C17.4411 45.0435 17.5078 45.3288 17.6411 45.5795C17.7798 45.8301 17.9664 46.0248 18.2011 46.1635C18.4411 46.2968 18.7104 46.3635 19.0091 46.3635ZM24.4487 42.5875C24.9767 42.5875 25.3954 42.7421 25.7047 43.0515C26.0194 43.3555 26.1767 43.8008 26.1767 44.3875V46.8275H25.6087V44.4435C25.6087 44.0061 25.4994 43.6728 25.2807 43.4435C25.0621 43.2141 24.7501 43.0995 24.3447 43.0995C23.8914 43.0995 23.5314 43.2355 23.2647 43.5075C23.0034 43.7741 22.8727 44.1448 22.8727 44.6195V46.8275H22.3047V42.6195H22.8487V43.3955C23.0034 43.1395 23.2167 42.9421 23.4887 42.8035C23.7661 42.6595 24.0861 42.5875 24.4487 42.5875ZM31.1767 42.6195L29.3047 46.8275H28.7207L26.8567 42.6195H27.4487L29.0247 46.2035L30.6167 42.6195H31.1767ZM35.5234 44.8995H32.0034C32.0354 45.3368 32.2034 45.6915 32.5074 45.9635C32.8114 46.2301 33.1954 46.3635 33.6594 46.3635C33.9208 46.3635 34.1608 46.3181 34.3794 46.2275C34.5981 46.1315 34.7874 45.9928 34.9474 45.8115L35.2674 46.1795C35.0808 46.4035 34.8461 46.5741 34.5634 46.6915C34.2861 46.8088 33.9794 46.8675 33.6434 46.8675C33.2114 46.8675 32.8274 46.7768 32.4914 46.5955C32.1608 46.4088 31.9021 46.1528 31.7154 45.8275C31.5288 45.5021 31.4354 45.1341 31.4354 44.7235C31.4354 44.3128 31.5234 43.9448 31.6994 43.6195C31.8808 43.2941 32.1261 43.0408 32.4354 42.8595C32.7501 42.6781 33.1021 42.5875 33.4914 42.5875C33.8808 42.5875 34.2301 42.6781 34.5394 42.8595C34.8488 43.0408 35.0914 43.2941 35.2674 43.6195C35.4434 43.9395 35.5314 44.3075 35.5314 44.7235L35.5234 44.8995ZM33.4914 43.0755C33.0861 43.0755 32.7448 43.2061 32.4674 43.4675C32.1954 43.7235 32.0408 44.0595 32.0034 44.4755H34.9874C34.9501 44.0595 34.7928 43.7235 34.5154 43.4675C34.2434 43.2061 33.9021 43.0755 33.4914 43.0755ZM38.2475 44.7155L37.2555 45.6275V46.8275H36.6875V40.8915H37.2555V44.9155L39.7675 42.6195H40.4715L38.6715 44.3395L40.6395 46.8275H39.9435L38.2475 44.7155ZM42.4952 46.8675C42.1539 46.8675 41.8259 46.8195 41.5112 46.7235C41.2019 46.6221 40.9592 46.4968 40.7832 46.3475L41.0392 45.8995C41.2152 46.0381 41.4366 46.1528 41.7032 46.2435C41.9699 46.3288 42.2472 46.3715 42.5352 46.3715C42.9192 46.3715 43.2019 46.3128 43.3832 46.1955C43.5699 46.0728 43.6632 45.9021 43.6632 45.6835C43.6632 45.5288 43.6126 45.4088 43.5112 45.3235C43.4099 45.2328 43.2819 45.1661 43.1272 45.1235C42.9726 45.0755 42.7672 45.0301 42.5112 44.9875C42.1699 44.9235 41.8952 44.8595 41.6872 44.7955C41.4792 44.7261 41.3006 44.6115 41.1512 44.4515C41.0072 44.2915 40.9352 44.0701 40.9352 43.7875C40.9352 43.4355 41.0819 43.1475 41.3752 42.9235C41.6686 42.6995 42.0766 42.5875 42.5992 42.5875C42.8712 42.5875 43.1432 42.6248 43.4152 42.6995C43.6872 42.7688 43.9112 42.8621 44.0872 42.9795L43.8392 43.4355C43.4926 43.1955 43.0792 43.0755 42.5992 43.0755C42.2366 43.0755 41.9619 43.1395 41.7752 43.2675C41.5939 43.3955 41.5032 43.5635 41.5032 43.7715C41.5032 43.9315 41.5539 44.0595 41.6552 44.1555C41.7619 44.2515 41.8926 44.3235 42.0472 44.3715C42.2019 44.4141 42.4152 44.4595 42.6872 44.5075C43.0232 44.5715 43.2926 44.6355 43.4952 44.6995C43.6979 44.7635 43.8712 44.8728 44.0152 45.0275C44.1592 45.1821 44.2312 45.3955 44.2312 45.6675C44.2312 46.0355 44.0766 46.3288 43.7672 46.5475C43.4632 46.7608 43.0392 46.8675 42.4952 46.8675ZM45.2813 42.6195H45.8493V46.8275H45.2813V42.6195ZM45.5693 41.6995C45.452 41.6995 45.3533 41.6595 45.2733 41.5795C45.1933 41.4995 45.1533 41.4035 45.1533 41.2915C45.1533 41.1848 45.1933 41.0915 45.2733 41.0115C45.3533 40.9315 45.452 40.8915 45.5693 40.8915C45.6866 40.8915 45.7853 40.9315 45.8653 41.0115C45.9453 41.0861 45.9853 41.1768 45.9853 41.2835C45.9853 41.4008 45.9453 41.4995 45.8653 41.5795C45.7853 41.6595 45.6866 41.6995 45.5693 41.6995Z" fill="#0895CA"/>
</svg>
