<svg width="58" height="57" viewBox="0 0 58 57" fill="none" xmlns="http://www.w3.org/2000/svg">
<rect x="0.728516" width="56.7286" height="57" fill="#F7DA64"/>
<path d="M18.9587 12.4692C18.7759 12.6212 18.3515 13.2874 18.4576 14.4562C18.5637 15.625 19.0942 16.2095 19.3006 16.3263C19.4833 16.1744 19.9077 15.5082 19.8016 14.3393C19.6955 13.1705 19.165 12.5861 18.9587 12.4692V12.4692ZM19.3241 17.2789C18.5755 17.2789 17.6618 16.1393 17.5203 14.538C17.3729 12.89 18.1157 11.5867 18.8761 11.5224C19.6543 11.4582 20.5974 12.6153 20.7448 14.2575C20.8922 15.9056 20.1494 17.2088 19.389 17.2731C19.3654 17.2731 19.3477 17.2731 19.3241 17.2731V17.2789Z" fill="#0895CA"/>
<path d="M37.975 9.41865L18.8401 11.0784C18.3272 11.1193 17.8615 11.4875 17.5255 12.1011C17.1541 12.779 16.9949 13.6557 17.0775 14.579C17.16 15.5024 17.4724 16.3381 17.9558 16.9401C18.3979 17.4894 18.9167 17.7641 19.4295 17.7174L38.5704 16.0576C39.0832 16.0109 39.5489 15.6485 39.8849 15.0349C40.2563 14.357 40.4155 13.4803 40.3329 12.557C40.1738 10.757 39.0773 9.31346 37.9809 9.41281L37.975 9.41865ZM19.3116 18.6583C18.5453 18.6583 17.8025 18.2609 17.2131 17.5187C16.6177 16.7764 16.2345 15.7596 16.1343 14.655C16.04 13.5563 16.2345 12.4868 16.6943 11.6511C17.1836 10.7511 17.9204 10.2193 18.7575 10.1433L37.8924 8.48359C39.5784 8.34333 41.0521 10.0907 41.2643 12.4751C41.3645 13.5738 41.1641 14.6433 40.7043 15.479C40.215 16.379 39.4782 16.9109 38.6411 16.9868L19.5003 18.6466C19.4354 18.6524 19.3706 18.6524 19.3058 18.6524L19.3116 18.6583Z" fill="#0895CA"/>
<path d="M19.7821 21.7674C19.5993 21.9194 19.1749 22.5856 19.281 23.7545C19.3812 24.9233 19.9177 25.5077 20.124 25.6246C20.3067 25.4726 20.7312 24.8064 20.6251 23.6376C20.5189 22.4687 19.9884 21.8843 19.7821 21.7674V21.7674ZM20.1653 25.648H20.1711H20.1653ZM20.1417 26.5772C19.7585 26.5772 19.3459 26.2967 18.9981 25.7882C18.6385 25.2681 18.4086 24.5726 18.3437 23.8363C18.2789 23.0999 18.385 22.3752 18.6503 21.8025C18.9155 21.2123 19.3046 20.8558 19.7054 20.8207C20.1122 20.7856 20.5484 21.072 20.9139 21.6038C21.2735 22.1239 21.5034 22.8194 21.5682 23.5558C21.7156 25.2038 20.9729 26.5071 20.2124 26.5713C20.1888 26.5713 20.1653 26.5713 20.1476 26.5713L20.1417 26.5772Z" fill="#0895CA"/>
<path d="M37.372 26.4662C37.1303 26.4662 36.924 26.2851 36.9004 26.0396C36.8769 25.7825 37.0714 25.5546 37.3308 25.5312L39.3763 25.3559C40.4904 25.2565 41.3039 23.6552 41.1448 21.8552C40.9856 20.0552 39.9069 18.6117 38.7927 18.7111L37.0773 18.8572C36.8238 18.8805 36.588 18.6877 36.5644 18.4305C36.5409 18.1734 36.7354 17.9455 36.9948 17.9221L38.7102 17.776C40.3843 17.624 41.8699 19.3831 42.0821 21.7675C42.2943 24.152 41.1389 26.1331 39.4588 26.2792L37.4133 26.4546C37.4015 26.4546 37.3838 26.4546 37.372 26.4546V26.4662Z" fill="#0895CA"/>
<path d="M20.1326 27.9562C18.5351 27.9562 17.1557 26.2497 16.9553 23.9588C16.7431 21.5744 17.8985 19.5932 19.5785 19.4471L22.1251 19.225C22.3845 19.2016 22.6144 19.3945 22.638 19.6516C22.6616 19.9088 22.467 20.1367 22.2077 20.1601L19.6611 20.3821C18.5469 20.4815 17.7334 22.0828 17.8926 23.8828C18.0517 25.6828 19.1364 27.1263 20.2446 27.027L22.5967 26.8224C22.8561 26.799 23.086 26.9919 23.1096 27.249C23.1332 27.5062 22.9386 27.7341 22.6792 27.7575L20.3272 27.962C20.2623 27.9679 20.1975 27.9679 20.1326 27.9679V27.9562Z" fill="#0895CA"/>
<path d="M24.3091 20.1837C25.2641 22.6733 24.9221 25.2564 24.5861 27.7577C24.2383 30.3408 23.9141 32.7895 24.9104 35.1272L35.4976 34.2097C34.5427 31.72 34.8846 29.1369 35.2206 26.6356C35.5625 24.0525 35.8926 21.6038 34.8964 19.2661L24.3091 20.1837V20.1837ZM24.6156 36.0856C24.4329 36.0856 24.2678 35.9804 24.1912 35.8168C22.9179 33.1402 23.2893 30.3408 23.6547 27.635C24.0143 24.9408 24.3562 22.3986 23.2008 19.9733C23.136 19.833 23.1419 19.6752 23.2185 19.5408C23.2951 19.4064 23.4307 19.3187 23.584 19.3071L35.1557 18.3019C35.3562 18.2785 35.5389 18.3895 35.6214 18.5649C36.8947 21.2415 36.5234 24.0408 36.1579 26.7467C35.7983 29.4408 35.4564 31.983 36.6118 34.4084C36.6766 34.5486 36.6707 34.7064 36.5941 34.8408C36.5175 34.9752 36.3819 35.0571 36.2286 35.0746L24.6569 36.0798C24.6451 36.0798 24.6274 36.0798 24.6156 36.0798V36.0856Z" fill="#0895CA"/>
<path d="M26.5557 22.0656C26.65 22.726 26.6795 23.4215 26.6559 24.2046L28.8017 24.0176C28.8311 23.2228 28.8017 22.5273 28.7073 21.8786L26.5557 22.0656V22.0656ZM29.2497 24.45H29.2556H29.2497ZM26.1607 25.1864C26.0369 25.1864 25.919 25.1397 25.8306 25.052C25.7304 24.9585 25.6832 24.8241 25.6891 24.6897C25.7599 23.5442 25.7127 22.6033 25.5477 21.7325C25.5241 21.6039 25.5535 21.4695 25.6361 21.3643C25.7127 21.2591 25.8365 21.1948 25.9721 21.1832L29.061 20.9143C29.3027 20.891 29.5208 21.0546 29.5621 21.2942C29.7448 22.2468 29.792 23.2578 29.7213 24.4851C29.7095 24.713 29.5267 24.9 29.2909 24.9234L26.202 25.1923C26.1902 25.1923 26.1725 25.1923 26.1607 25.1923V25.1864Z" fill="#0895CA"/>
<path d="M26.7106 27.4714C26.4689 27.4714 26.2625 27.2902 26.2449 27.0448C26.2213 26.7876 26.4158 26.5597 26.6752 26.5363L33.1832 25.9694C33.4367 25.9461 33.6725 26.1389 33.696 26.3961C33.7196 26.6532 33.5251 26.8811 33.2657 26.9045L26.7577 27.4714C26.7459 27.4714 26.7282 27.4714 26.7164 27.4714H26.7106Z" fill="#0895CA"/>
<path d="M26.4501 29.4877C26.2084 29.4877 26.002 29.3065 25.9844 29.0611C25.9608 28.8039 26.1553 28.576 26.4147 28.5526L32.9227 27.9857C33.1762 27.9624 33.412 28.1552 33.4355 28.4124C33.4591 28.6695 33.2646 28.8974 33.0052 28.9208L26.4972 29.4877C26.4854 29.4877 26.4677 29.4877 26.456 29.4877H26.4501Z" fill="#0895CA"/>
<path d="M26.3094 31.5036C26.0677 31.5036 25.8614 31.3224 25.8437 31.0769C25.8202 30.8198 26.0147 30.5919 26.2741 30.5685L32.7821 30.0016C33.0414 29.9782 33.2713 30.1711 33.2949 30.4282C33.3185 30.6854 33.124 30.9133 32.8646 30.9367L26.3566 31.5036C26.3448 31.5036 26.3271 31.5036 26.3153 31.5036H26.3094Z" fill="#0895CA"/>
<path d="M26.4254 33.4906C26.1837 33.4906 25.9774 33.3095 25.9597 33.064C25.9361 32.8069 26.1307 32.5789 26.39 32.5556L32.898 31.9887C33.1515 31.9653 33.3873 32.1582 33.4109 32.4153C33.4345 32.6724 33.2399 32.9004 32.9806 32.9237L26.4726 33.4906C26.4608 33.4906 26.4431 33.4906 26.4313 33.4906H26.4254Z" fill="#0895CA"/>
<path d="M31.8665 21.6038C31.9313 22.0714 31.9667 22.5564 31.9726 23.0766L33.0278 22.9831C33.0219 22.4571 32.9924 21.972 32.9217 21.5103L31.8665 21.6038ZM33.4935 23.4155H33.4994H33.4935ZM31.501 24.0584C31.3831 24.0584 31.2652 24.0116 31.1768 23.9298C31.0766 23.8421 31.0235 23.7136 31.0294 23.5792C31.0471 22.7259 30.994 21.972 30.8584 21.2707C30.8349 21.1421 30.8643 21.0077 30.9469 20.9025C31.0294 20.7973 31.1473 20.7331 31.2829 20.7214L33.2754 20.546C33.5112 20.5227 33.7352 20.6863 33.7764 20.9259C33.9238 21.6915 33.9827 22.5097 33.9651 23.4272C33.9592 23.6668 33.7764 23.8597 33.5347 23.8831L31.5423 24.0584C31.5305 24.0584 31.5128 24.0584 31.501 24.0584V24.0584Z" fill="#0895CA"/>
<path d="M9.26504 41.2275C9.9797 41.2275 10.5397 41.3981 10.945 41.7395C11.3504 42.0808 11.553 42.5501 11.553 43.1475C11.553 43.7448 11.3504 44.2141 10.945 44.5555C10.5397 44.8915 9.9797 45.0595 9.26504 45.0595H7.76104V46.8275H7.16904V41.2275H9.26504ZM9.24904 44.5395C9.8037 44.5395 10.2277 44.4195 10.521 44.1795C10.8144 43.9341 10.961 43.5901 10.961 43.1475C10.961 42.6941 10.8144 42.3475 10.521 42.1075C10.2277 41.8621 9.8037 41.7395 9.24904 41.7395H7.76104V44.5395H9.24904ZM16.3537 44.8995H12.8337C12.8657 45.3368 13.0337 45.6915 13.3377 45.9635C13.6417 46.2301 14.0257 46.3635 14.4897 46.3635C14.751 46.3635 14.991 46.3181 15.2097 46.2275C15.4283 46.1315 15.6177 45.9928 15.7777 45.8115L16.0977 46.1795C15.911 46.4035 15.6763 46.5741 15.3937 46.6915C15.1163 46.8088 14.8097 46.8675 14.4737 46.8675C14.0417 46.8675 13.6577 46.7768 13.3217 46.5955C12.991 46.4088 12.7323 46.1528 12.5457 45.8275C12.359 45.5021 12.2657 45.1341 12.2657 44.7235C12.2657 44.3128 12.3537 43.9448 12.5297 43.6195C12.711 43.2941 12.9563 43.0408 13.2657 42.8595C13.5803 42.6781 13.9323 42.5875 14.3217 42.5875C14.711 42.5875 15.0603 42.6781 15.3697 42.8595C15.679 43.0408 15.9217 43.2941 16.0977 43.6195C16.2737 43.9395 16.3617 44.3075 16.3617 44.7235L16.3537 44.8995ZM14.3217 43.0755C13.9163 43.0755 13.575 43.2061 13.2977 43.4675C13.0257 43.7235 12.871 44.0595 12.8337 44.4755H15.8177C15.7803 44.0595 15.623 43.7235 15.3457 43.4675C15.0737 43.2061 14.7323 43.0755 14.3217 43.0755ZM18.0618 43.4435C18.1951 43.1608 18.3925 42.9475 18.6538 42.8035C18.9205 42.6595 19.2485 42.5875 19.6378 42.5875V43.1395L19.5018 43.1315C19.0591 43.1315 18.7125 43.2675 18.4618 43.5395C18.2111 43.8115 18.0858 44.1928 18.0858 44.6835V46.8275H17.5178V42.6195H18.0618V43.4435ZM22.3712 46.8675C21.9552 46.8675 21.5818 46.7768 21.2512 46.5955C20.9258 46.4141 20.6698 46.1608 20.4832 45.8355C20.2965 45.5048 20.2032 45.1341 20.2032 44.7235C20.2032 44.3128 20.2965 43.9448 20.4832 43.6195C20.6698 43.2941 20.9258 43.0408 21.2512 42.8595C21.5818 42.6781 21.9552 42.5875 22.3712 42.5875C22.7338 42.5875 23.0565 42.6595 23.3392 42.8035C23.6272 42.9421 23.8538 43.1475 24.0192 43.4195L23.5952 43.7075C23.4565 43.4995 23.2805 43.3448 23.0672 43.2435C22.8538 43.1368 22.6218 43.0835 22.3712 43.0835C22.0672 43.0835 21.7925 43.1528 21.5472 43.2915C21.3072 43.4248 21.1178 43.6168 20.9792 43.8675C20.8458 44.1181 20.7792 44.4035 20.7792 44.7235C20.7792 45.0488 20.8458 45.3368 20.9792 45.5875C21.1178 45.8328 21.3072 46.0248 21.5472 46.1635C21.7925 46.2968 22.0672 46.3635 22.3712 46.3635C22.6218 46.3635 22.8538 46.3128 23.0672 46.2115C23.2805 46.1101 23.4565 45.9555 23.5952 45.7475L24.0192 46.0355C23.8538 46.3075 23.6272 46.5155 23.3392 46.6595C23.0512 46.7981 22.7285 46.8675 22.3712 46.8675ZM28.7287 44.8995H25.2087C25.2407 45.3368 25.4087 45.6915 25.7127 45.9635C26.0167 46.2301 26.4007 46.3635 26.8647 46.3635C27.126 46.3635 27.366 46.3181 27.5847 46.2275C27.8033 46.1315 27.9927 45.9928 28.1527 45.8115L28.4727 46.1795C28.286 46.4035 28.0513 46.5741 27.7687 46.6915C27.4913 46.8088 27.1847 46.8675 26.8487 46.8675C26.4167 46.8675 26.0327 46.7768 25.6967 46.5955C25.366 46.4088 25.1073 46.1528 24.9207 45.8275C24.734 45.5021 24.6407 45.1341 24.6407 44.7235C24.6407 44.3128 24.7287 43.9448 24.9047 43.6195C25.086 43.2941 25.3313 43.0408 25.6407 42.8595C25.9553 42.6781 26.3073 42.5875 26.6967 42.5875C27.086 42.5875 27.4353 42.6781 27.7447 42.8595C28.054 43.0408 28.2967 43.2941 28.4727 43.6195C28.6487 43.9395 28.7367 44.3075 28.7367 44.7235L28.7287 44.8995ZM26.6967 43.0755C26.2913 43.0755 25.95 43.2061 25.6727 43.4675C25.4007 43.7235 25.246 44.0595 25.2087 44.4755H28.1927C28.1553 44.0595 27.998 43.7235 27.7207 43.4675C27.4487 43.2061 27.1073 43.0755 26.6967 43.0755ZM32.1088 46.5715C32.0021 46.6675 31.8688 46.7421 31.7088 46.7955C31.5541 46.8435 31.3915 46.8675 31.2208 46.8675C30.8261 46.8675 30.5221 46.7608 30.3088 46.5475C30.0955 46.3341 29.9888 46.0328 29.9888 45.6435V43.0995H29.2368V42.6195H29.9888V41.6995H30.5568V42.6195H31.8368V43.0995H30.5568V45.6115C30.5568 45.8621 30.6181 46.0541 30.7408 46.1875C30.8688 46.3155 31.0501 46.3795 31.2848 46.3795C31.4021 46.3795 31.5141 46.3608 31.6208 46.3235C31.7328 46.2861 31.8288 46.2328 31.9088 46.1635L32.1088 46.5715ZM34.6148 42.5875C35.1641 42.5875 35.5855 42.7261 35.8788 43.0035C36.1721 43.2755 36.3188 43.6808 36.3188 44.2195V46.8275H35.7748V46.1715C35.6468 46.3901 35.4575 46.5608 35.2068 46.6835C34.9615 46.8061 34.6681 46.8675 34.3268 46.8675C33.8575 46.8675 33.4841 46.7555 33.2068 46.5315C32.9295 46.3075 32.7908 46.0115 32.7908 45.6435C32.7908 45.2861 32.9188 44.9981 33.1748 44.7795C33.4361 44.5608 33.8495 44.4515 34.4148 44.4515H35.7508V44.1955C35.7508 43.8328 35.6495 43.5581 35.4468 43.3715C35.2441 43.1795 34.9481 43.0835 34.5588 43.0835C34.2921 43.0835 34.0361 43.1288 33.7908 43.2195C33.5455 43.3048 33.3348 43.4248 33.1588 43.5795L32.9028 43.1555C33.1161 42.9741 33.3721 42.8355 33.6708 42.7395C33.9695 42.6381 34.2841 42.5875 34.6148 42.5875ZM34.4148 46.4195C34.7348 46.4195 35.0095 46.3475 35.2388 46.2035C35.4681 46.0541 35.6388 45.8408 35.7508 45.5635V44.8755H34.4308C33.7108 44.8755 33.3508 45.1261 33.3508 45.6275C33.3508 45.8728 33.4441 46.0675 33.6308 46.2115C33.8175 46.3501 34.0788 46.4195 34.4148 46.4195ZM39.4215 44.7155L38.4295 45.6275V46.8275H37.8615V40.8915H38.4295V44.9155L40.9415 42.6195H41.6455L39.8455 44.3395L41.8135 46.8275H41.1175L39.4215 44.7155ZM44.0601 42.5875C44.6094 42.5875 45.0308 42.7261 45.3241 43.0035C45.6174 43.2755 45.7641 43.6808 45.7641 44.2195V46.8275H45.2201V46.1715C45.0921 46.3901 44.9028 46.5608 44.6521 46.6835C44.4068 46.8061 44.1134 46.8675 43.7721 46.8675C43.3028 46.8675 42.9294 46.7555 42.6521 46.5315C42.3748 46.3075 42.2361 46.0115 42.2361 45.6435C42.2361 45.2861 42.3641 44.9981 42.6201 44.7795C42.8814 44.5608 43.2948 44.4515 43.8601 44.4515H45.1961V44.1955C45.1961 43.8328 45.0948 43.5581 44.8921 43.3715C44.6894 43.1795 44.3934 43.0835 44.0041 43.0835C43.7374 43.0835 43.4814 43.1288 43.2361 43.2195C42.9908 43.3048 42.7801 43.4248 42.6041 43.5795L42.3481 43.1555C42.5614 42.9741 42.8174 42.8355 43.1161 42.7395C43.4148 42.6381 43.7294 42.5875 44.0601 42.5875ZM43.8601 46.4195C44.1801 46.4195 44.4548 46.3475 44.6841 46.2035C44.9134 46.0541 45.0841 45.8408 45.1961 45.5635V44.8755H43.8761C43.1561 44.8755 42.7961 45.1261 42.7961 45.6275C42.7961 45.8728 42.8894 46.0675 43.0761 46.2115C43.2628 46.3501 43.5241 46.4195 43.8601 46.4195ZM49.4508 42.5875C49.9788 42.5875 50.3975 42.7421 50.7068 43.0515C51.0215 43.3555 51.1788 43.8008 51.1788 44.3875V46.8275H50.6108V44.4435C50.6108 44.0061 50.5015 43.6728 50.2828 43.4435C50.0642 43.2141 49.7522 43.0995 49.3468 43.0995C48.8935 43.0995 48.5335 43.2355 48.2668 43.5075C48.0055 43.7741 47.8748 44.1448 47.8748 44.6195V46.8275H47.3068V42.6195H47.8508V43.3955C48.0055 43.1395 48.2188 42.9421 48.4908 42.8035C48.7682 42.6595 49.0882 42.5875 49.4508 42.5875Z" fill="#0895CA"/>
</svg>
