<svg width="57" height="57" viewBox="0 0 57 57" fill="none" xmlns="http://www.w3.org/2000/svg">
<rect width="56.7286" height="57" fill="#F7DA64"/>
<path d="M36.1154 28.545H40.3172C40.9556 28.545 41.473 28.0279 41.473 27.3992V19.2583C41.473 18.6254 40.9556 18.1124 40.3172 18.1124H16.446C15.8076 18.1124 15.2902 18.6254 15.2902 19.2583V27.3992C15.2902 28.0321 15.8076 28.545 16.446 28.545H20.6477L20.9732 25.6618H35.79L36.1154 28.545V28.545ZM40.3172 29.4799H35.2726L34.9471 26.5967H21.8161L21.4906 29.4799H16.446C15.2902 29.4799 14.3472 28.545 14.3472 27.3992V19.2583C14.3472 18.1124 15.2902 17.1776 16.446 17.1776H40.3172C41.473 17.1776 42.416 18.1124 42.416 19.2583V27.3992C42.416 28.545 41.473 29.4799 40.3172 29.4799Z" fill="#0895CA"/>
<path d="M34.8809 34.9691H21.8834C21.7415 34.9691 21.608 34.9071 21.5204 34.7995C21.4327 34.692 21.3952 34.5513 21.4202 34.4148L22.8138 27.1799C22.8639 26.9275 23.1059 26.7621 23.3646 26.8076C23.6192 26.8572 23.7861 27.1013 23.7402 27.3536L22.455 34.0343H34.3134L33.0283 27.3536C32.9782 27.1013 33.1493 26.8572 33.4038 26.8076C33.6625 26.7621 33.9045 26.9275 33.9546 27.1799L35.3482 34.4148C35.3733 34.5513 35.3399 34.692 35.2481 34.7995C35.1605 34.9071 35.0269 34.9691 34.8851 34.9691H34.8809Z" fill="#0895CA"/>
<path d="M24.3391 32.6857H32.4255V31.7509H24.3391V32.6857Z" fill="#0895CA"/>
<path d="M24.9846 30.6833H31.7859V29.7484H24.9846V30.6833Z" fill="#0895CA"/>
<path d="M25.8376 28.6813H30.924V27.7465H25.8376V28.6813Z" fill="#0895CA"/>
<path d="M34.9364 17.6407H33.9934V13.0904H31.7819C31.5232 13.0904 31.3104 12.8836 31.3104 12.623V10.5257H22.7692V17.6407H21.8262V10.0624C21.8262 9.80594 22.039 9.59497 22.2977 9.59497H31.7819C32.0406 9.59497 32.2534 9.8018 32.2534 10.0624V12.1597H34.4649C34.7236 12.1597 34.9364 12.3665 34.9364 12.6271V17.6449V17.6407Z" fill="#0895CA"/>
<path d="M34.1371 12.958L31.4541 10.3975L32.1092 9.72321L34.7922 12.2879L34.1371 12.958Z" fill="#0895CA"/>
<path d="M34.365 20.2759C33.9436 20.2759 33.5973 20.6151 33.5973 21.0371C33.5973 21.4549 33.9436 21.7982 34.365 21.7982C34.7865 21.7982 35.1328 21.459 35.1328 21.0371C35.1328 20.6193 34.7865 20.2759 34.365 20.2759ZM34.365 22.729C33.422 22.729 32.6543 21.9678 32.6543 21.0329C32.6543 20.0981 33.422 19.3411 34.365 19.3411C35.308 19.3411 36.0758 20.1022 36.0758 21.0329C36.0758 21.9678 35.308 22.729 34.365 22.729Z" fill="#0895CA"/>
<path d="M38.3846 20.2759C37.9632 20.2759 37.6168 20.6151 37.6168 21.0371C37.6168 21.4549 37.9632 21.7982 38.3846 21.7982C38.806 21.7982 39.1523 21.459 39.1523 21.0371C39.1523 20.6193 38.8102 20.2759 38.3846 20.2759ZM38.3846 22.729C37.4416 22.729 36.6738 21.9678 36.6738 21.0329C36.6738 20.0981 37.4416 19.3411 38.3846 19.3411C39.3276 19.3411 40.0953 20.1022 40.0953 21.0329C40.0953 21.9678 39.3276 22.729 38.3846 22.729V22.729Z" fill="#0895CA"/>
<path d="M23.5339 21.5044H17.5755C17.3168 21.5044 17.104 21.2976 17.104 21.037C17.104 20.7805 17.3168 20.5695 17.5755 20.5695H23.5339C23.7926 20.5695 24.0054 20.7805 24.0054 21.037C24.0054 21.2934 23.7926 21.5044 23.5339 21.5044V21.5044Z" fill="#0895CA"/>
<path d="M21.6145 41.2275C22.3292 41.2275 22.8892 41.3981 23.2945 41.7395C23.6999 42.0808 23.9025 42.5501 23.9025 43.1475C23.9025 43.7448 23.6999 44.2141 23.2945 44.5555C22.8892 44.8915 22.3292 45.0595 21.6145 45.0595H20.1105V46.8275H19.5185V41.2275H21.6145ZM21.5985 44.5395C22.1532 44.5395 22.5772 44.4195 22.8705 44.1795C23.1639 43.9341 23.3105 43.5901 23.3105 43.1475C23.3105 42.6941 23.1639 42.3475 22.8705 42.1075C22.5772 41.8621 22.1532 41.7395 21.5985 41.7395H20.1105V44.5395H21.5985ZM25.4972 43.4435C25.6305 43.1608 25.8279 42.9475 26.0892 42.8035C26.3559 42.6595 26.6839 42.5875 27.0732 42.5875V43.1395L26.9372 43.1315C26.4945 43.1315 26.1479 43.2675 25.8972 43.5395C25.6465 43.8115 25.5212 44.1928 25.5212 44.6835V46.8275H24.9532V42.6195H25.4972V43.4435ZM28.1016 42.6195H28.6696V46.8275H28.1016V42.6195ZM28.3896 41.6995C28.2723 41.6995 28.1736 41.6595 28.0936 41.5795C28.0136 41.4995 27.9736 41.4035 27.9736 41.2915C27.9736 41.1848 28.0136 41.0915 28.0936 41.0115C28.1736 40.9315 28.2723 40.8915 28.3896 40.8915C28.507 40.8915 28.6056 40.9315 28.6856 41.0115C28.7656 41.0861 28.8056 41.1768 28.8056 41.2835C28.8056 41.4008 28.7656 41.4995 28.6856 41.5795C28.6056 41.6595 28.507 41.6995 28.3896 41.6995ZM32.3941 42.5875C32.9221 42.5875 33.3408 42.7421 33.6501 43.0515C33.9648 43.3555 34.1221 43.8008 34.1221 44.3875V46.8275H33.5541V44.4435C33.5541 44.0061 33.4448 43.6728 33.2261 43.4435C33.0074 43.2141 32.6954 43.0995 32.2901 43.0995C31.8368 43.0995 31.4768 43.2355 31.2101 43.5075C30.9488 43.7741 30.8181 44.1448 30.8181 44.6195V46.8275H30.2501V42.6195H30.7941V43.3955C30.9488 43.1395 31.1621 42.9421 31.4341 42.8035C31.7114 42.6595 32.0314 42.5875 32.3941 42.5875ZM37.8801 46.5715C37.7735 46.6675 37.6401 46.7421 37.4801 46.7955C37.3255 46.8435 37.1628 46.8675 36.9921 46.8675C36.5975 46.8675 36.2935 46.7608 36.0801 46.5475C35.8668 46.3341 35.7601 46.0328 35.7601 45.6435V43.0995H35.0081V42.6195H35.7601V41.6995H36.3281V42.6195H37.6081V43.0995H36.3281V45.6115C36.3281 45.8621 36.3895 46.0541 36.5121 46.1875C36.6401 46.3155 36.8215 46.3795 37.0561 46.3795C37.1735 46.3795 37.2855 46.3608 37.3921 46.3235C37.5041 46.2861 37.6001 46.2328 37.6801 46.1635L37.8801 46.5715Z" fill="#0895CA"/>
</svg>
