<svg width="57" height="57" viewBox="0 0 57 57" fill="none" xmlns="http://www.w3.org/2000/svg">
<rect width="56.7286" height="57" fill="#F7DA64"/>
<path d="M15.684 31.9854C15.5956 31.9854 15.4999 31.9552 15.4262 31.8948C15.3158 31.8117 15.2495 31.6833 15.2495 31.5398V16.6929C15.2495 16.4513 15.441 16.2474 15.684 16.2474C15.9196 16.2474 16.1184 16.4437 16.1184 16.6929V30.9508C19.4983 29.9766 24.314 29.2214 29.0046 30.6638C29.2328 30.7318 29.3654 30.981 29.2917 31.2151C29.2255 31.4492 28.9825 31.5776 28.7542 31.5096C24.0047 30.0446 19.0933 30.9432 15.8091 31.9552C15.765 31.9703 15.7281 31.9703 15.684 31.9703V31.9854Z" fill="#0895CA"/>
<path d="M42.0732 31.9853C42.029 31.9853 41.9922 31.9777 41.948 31.9701C38.6639 30.9582 33.7525 30.0595 29.003 31.5246C28.7747 31.5926 28.5317 31.4642 28.4654 31.2301C28.3992 30.996 28.5244 30.7468 28.7526 30.6788C33.4432 29.2364 38.2589 29.9916 41.6388 30.9658V16.7079C41.6388 16.4662 41.8302 16.2623 42.0732 16.2623C42.3089 16.2623 42.5077 16.4587 42.5077 16.7079V31.5548C42.5077 31.6983 42.4414 31.8267 42.3309 31.9097C42.2573 31.9702 42.169 32.0004 42.0732 32.0004V31.9853Z" fill="#0895CA"/>
<path d="M23.2465 27.4316C25.0063 27.4316 26.7589 27.7035 28.4525 28.2397V14.3216C25.0873 13.1813 21.4129 13.1813 18.0478 14.3216V28.2397C19.7341 27.6959 21.4939 27.4316 23.2538 27.4316H23.2465ZM28.8795 29.2969C28.828 29.2969 28.7838 29.2894 28.7396 29.2743C25.1978 27.998 21.2951 27.998 17.7606 29.2743C17.6281 29.3196 17.4808 29.3045 17.3704 29.2214C17.2526 29.1384 17.1863 29.0024 17.1863 28.8589V14.012C17.1863 13.8232 17.3041 13.6571 17.4735 13.5967C21.1994 12.2524 25.3009 12.2524 29.0268 13.5967C29.1962 13.6571 29.314 13.8232 29.314 14.012V28.8589C29.314 29.0024 29.2477 29.1384 29.1299 29.2214C29.0563 29.2743 28.9679 29.3045 28.8795 29.3045V29.2969Z" fill="#0895CA"/>
<path d="M21.2437 16.9573C21.5088 16.9573 21.7739 16.9799 22.039 17.0177V15.6055C21.5162 15.5149 20.9713 15.5149 20.4485 15.6055V17.0177C20.7136 16.9799 20.9787 16.9573 21.2437 16.9573ZM20.014 17.9919C19.9183 17.9919 19.8226 17.9617 19.749 17.9013C19.6459 17.8182 19.5796 17.6898 19.5796 17.5539V15.243C19.5796 15.0391 19.7121 14.8654 19.9036 14.8126C20.7651 14.5936 21.7076 14.5936 22.5692 14.8126C22.7606 14.8654 22.8932 15.0391 22.8932 15.243V17.5539C22.8932 17.6898 22.8343 17.8182 22.7238 17.9013C22.6207 17.9843 22.4808 18.0145 22.3556 17.9843C21.634 17.7955 20.8388 17.7955 20.1098 17.9843C20.0729 17.9919 20.0435 17.9994 20.0067 17.9994L20.014 17.9919Z" fill="#0895CA"/>
<path d="M25.2579 16.9572C25.523 16.9572 25.788 16.9798 26.0531 17.0176V15.6054C25.5303 15.5147 24.9854 15.5147 24.4626 15.6054V17.0176C24.7277 16.9798 24.9928 16.9572 25.2579 16.9572V16.9572ZM26.4876 17.9918C26.4508 17.9918 26.4139 17.9842 26.3845 17.9766C25.6629 17.7879 24.8676 17.7879 24.1386 17.9766C24.0134 18.0069 23.8735 17.9766 23.7704 17.8936C23.6673 17.8105 23.6011 17.6821 23.6011 17.5462V15.2353C23.6011 15.0314 23.7336 14.8577 23.9251 14.8049C24.7866 14.5859 25.7291 14.5859 26.5907 14.8049C26.7821 14.8577 26.9147 15.0314 26.9147 15.2353V17.5462C26.9147 17.6821 26.8558 17.8105 26.7453 17.8936C26.6717 17.954 26.5759 17.9842 26.4802 17.9842L26.4876 17.9918Z" fill="#0895CA"/>
<path d="M21.2357 21.2088C21.5008 21.2088 21.7659 21.2314 22.0309 21.2692V19.857C21.5081 19.7664 20.9632 19.7664 20.4404 19.857V21.2692C20.7055 21.2314 20.9706 21.2088 21.2357 21.2088ZM20.006 22.2434C19.9103 22.2434 19.8145 22.2131 19.7409 22.1527C19.6378 22.0697 19.5715 21.9413 19.5715 21.8054V19.4945C19.5715 19.2906 19.7041 19.1169 19.8955 19.064C20.7571 18.845 21.6996 18.845 22.5611 19.064C22.7526 19.1169 22.8851 19.2906 22.8851 19.4945V21.8054C22.8851 21.9413 22.8262 22.0697 22.7158 22.1527C22.6127 22.2358 22.4728 22.266 22.3476 22.2358C21.626 22.047 20.8233 22.047 20.1017 22.2358C20.0649 22.2434 20.0354 22.2509 19.9986 22.2509L20.006 22.2434Z" fill="#0895CA"/>
<path d="M25.2579 21.2091C25.523 21.2091 25.788 21.2318 26.0531 21.2695V19.8573C25.5303 19.7667 24.9854 19.7667 24.4626 19.8573V21.2695C24.7277 21.2318 24.9928 21.2091 25.2579 21.2091V21.2091ZM26.4876 22.2437C26.4508 22.2437 26.4139 22.2362 26.3845 22.2286C25.6629 22.0398 24.8676 22.0398 24.1386 22.2286C24.0134 22.2588 23.8735 22.2286 23.7704 22.1455C23.6673 22.0625 23.6011 21.9341 23.6011 21.7981V19.4873C23.6011 19.2834 23.7336 19.1097 23.9251 19.0568C24.7866 18.8378 25.7291 18.8378 26.5907 19.0568C26.7821 19.1097 26.9147 19.2834 26.9147 19.4873V21.7981C26.9147 21.9341 26.8558 22.0625 26.7453 22.1455C26.6717 22.2059 26.5759 22.2362 26.4802 22.2362L26.4876 22.2437Z" fill="#0895CA"/>
<path d="M21.2437 25.4607C21.5088 25.4607 21.7739 25.4834 22.039 25.5211V24.1089C21.5162 24.0183 20.9713 24.0183 20.4485 24.1089V25.5211C20.7136 25.4834 20.9787 25.4607 21.2437 25.4607ZM20.014 26.4953C19.9183 26.4953 19.8226 26.4651 19.749 26.4047C19.6459 26.3216 19.5796 26.1932 19.5796 26.0573V23.7464C19.5796 23.5425 19.7121 23.3688 19.9036 23.316C20.7651 23.097 21.7076 23.097 22.5692 23.316C22.7606 23.3688 22.8932 23.5425 22.8932 23.7464V26.0573C22.8932 26.1932 22.8343 26.3216 22.7238 26.4047C22.6207 26.4878 22.4808 26.518 22.3556 26.4878C21.634 26.299 20.8388 26.299 20.1098 26.4878C20.0729 26.4953 20.0435 26.5029 20.0067 26.5029L20.014 26.4953Z" fill="#0895CA"/>
<path d="M25.2579 25.4606C25.523 25.4606 25.788 25.4832 26.0531 25.521V24.1088C25.5303 24.0182 24.9854 24.0182 24.4626 24.1088V25.521C24.7277 25.4832 24.9928 25.4606 25.2579 25.4606V25.4606ZM26.4876 26.4952C26.4508 26.4952 26.4139 26.4876 26.3845 26.4801C25.6629 26.2913 24.8676 26.2913 24.1386 26.4801C24.0134 26.5103 23.8735 26.4876 23.7704 26.397C23.6673 26.3139 23.6011 26.1855 23.6011 26.0496V23.7387C23.6011 23.5348 23.7336 23.3612 23.9251 23.3083C24.7866 23.0893 25.7291 23.0893 26.5907 23.3083C26.7821 23.3612 26.9147 23.5348 26.9147 23.7387V26.0496C26.9147 26.1855 26.8558 26.3139 26.7453 26.397C26.6717 26.4574 26.5759 26.4876 26.4802 26.4876L26.4876 26.4952Z" fill="#0895CA"/>
<path d="M29.3139 14.3293V28.2474C32.6937 27.1675 36.3387 27.1675 39.7185 28.2474V14.3293C36.3534 13.189 32.679 13.189 29.3139 14.3293ZM40.153 29.3046C40.1014 29.3046 40.0573 29.2971 40.0131 29.282C36.4712 28.0057 32.5686 28.0057 29.0341 29.282C28.9015 29.3273 28.7543 29.3122 28.6438 29.2291C28.5334 29.146 28.4597 29.0101 28.4597 28.8666V14.0197C28.4597 13.8309 28.5775 13.6648 28.7469 13.6044C32.4728 12.2601 36.5743 12.2601 40.3003 13.6044C40.4696 13.6648 40.5874 13.8309 40.5874 14.0197V28.8666C40.5874 29.0101 40.5212 29.146 40.4033 29.2291C40.3297 29.282 40.2413 29.3122 40.153 29.3122V29.3046Z" fill="#0895CA"/>
<path d="M31.7143 15.6055V17.0177C32.2371 16.9422 32.782 16.9422 33.3048 17.0177V15.6055C32.782 15.5149 32.2371 15.5149 31.7143 15.6055V15.6055ZM33.7393 17.9994C33.7025 17.9994 33.6656 17.9919 33.6362 17.9843C32.9146 17.7955 32.1193 17.7955 31.3903 17.9843C31.2578 18.0145 31.1252 17.9843 31.0221 17.9013C30.9191 17.8182 30.8528 17.6898 30.8528 17.5539V15.243C30.8528 15.0391 30.9853 14.8654 31.1768 14.8126C32.0383 14.5936 32.9808 14.5936 33.8424 14.8126C34.0338 14.8654 34.1664 15.0391 34.1664 15.243V17.5539C34.1664 17.6898 34.1074 17.8182 33.997 17.9013C33.9234 17.9617 33.8276 17.9919 33.7319 17.9919L33.7393 17.9994Z" fill="#0895CA"/>
<path d="M35.728 15.6055V17.0177C36.2508 16.9422 36.7957 16.9422 37.3185 17.0177V15.6055C36.7957 15.5149 36.2508 15.5149 35.728 15.6055V15.6055ZM37.753 17.9994C37.7161 17.9994 37.6793 17.9919 37.6499 17.9843C36.9282 17.7955 36.133 17.7955 35.404 17.9843C35.2788 18.0145 35.1389 17.9843 35.0358 17.9013C34.9327 17.8182 34.8665 17.6898 34.8665 17.5539V15.243C34.8665 15.0391 34.999 14.8654 35.1905 14.8126C36.052 14.5936 36.9945 14.5936 37.856 14.8126C38.0475 14.8654 38.18 15.0391 38.18 15.243V17.5539C38.18 17.6898 38.1211 17.8182 38.0107 17.9013C37.937 17.9617 37.8413 17.9919 37.7456 17.9919L37.753 17.9994Z" fill="#0895CA"/>
<path d="M32.5096 21.2091C32.7747 21.2091 33.0397 21.2318 33.3048 21.2695V19.8573C32.782 19.7667 32.2371 19.7667 31.7143 19.8573V21.2695C31.9794 21.2318 32.2445 21.2091 32.5096 21.2091V21.2091ZM33.7393 22.2437C33.7025 22.2437 33.673 22.2362 33.6362 22.2286C32.9146 22.0398 32.1193 22.0398 31.3903 22.2286C31.2578 22.2588 31.1252 22.2286 31.0221 22.1455C30.9191 22.0625 30.8528 21.9341 30.8528 21.7981V19.4873C30.8528 19.2834 30.9853 19.1097 31.1768 19.0568C32.0383 18.8378 32.9808 18.8378 33.8424 19.0568C34.0338 19.1097 34.1664 19.2834 34.1664 19.4873V21.7981C34.1664 21.9341 34.1075 22.0625 34.0044 22.1455C33.9307 22.2059 33.835 22.2362 33.7393 22.2362V22.2437Z" fill="#0895CA"/>
<path d="M36.5232 21.2091C36.7883 21.2091 37.0534 21.2318 37.3185 21.2695V19.8573C36.7957 19.7667 36.2508 19.7667 35.728 19.8573V21.2695C35.9931 21.2318 36.2582 21.2091 36.5232 21.2091ZM37.753 22.2437C37.7161 22.2437 37.6867 22.2362 37.6499 22.2286C36.9282 22.0398 36.133 22.0398 35.404 22.2286C35.2788 22.2588 35.1389 22.2286 35.0358 22.1455C34.9327 22.0625 34.8665 21.9341 34.8665 21.7981V19.4873C34.8665 19.2834 34.999 19.1097 35.1905 19.0568C36.052 18.8378 36.9945 18.8378 37.856 19.0568C38.0475 19.1097 38.18 19.2834 38.18 19.4873V21.7981C38.18 21.9341 38.1211 22.0625 38.018 22.1455C37.9444 22.2059 37.8487 22.2362 37.753 22.2362V22.2437Z" fill="#0895CA"/>
<path d="M31.7143 24.1012V25.5134C32.2371 25.4379 32.782 25.4379 33.3048 25.5134V24.1012C32.782 24.0106 32.2371 24.0106 31.7143 24.1012ZM33.7393 26.4952C33.7025 26.4952 33.6656 26.4876 33.6362 26.4801C32.9146 26.2913 32.1193 26.2913 31.3903 26.4801C31.2578 26.5103 31.1252 26.4876 31.0221 26.397C30.9191 26.3139 30.8528 26.1855 30.8528 26.0496V23.7387C30.8528 23.5348 30.9853 23.3612 31.1768 23.3083C32.0383 23.0893 32.9808 23.0893 33.8424 23.3083C34.0338 23.3612 34.1664 23.5348 34.1664 23.7387V26.0496C34.1664 26.1855 34.1074 26.3139 33.997 26.397C33.9234 26.4574 33.8276 26.4876 33.7319 26.4876L33.7393 26.4952Z" fill="#0895CA"/>
<path d="M35.728 24.1012V25.5134C36.2508 25.4379 36.7957 25.4379 37.3185 25.5134V24.1012C36.7957 24.0106 36.2508 24.0106 35.728 24.1012ZM37.753 26.4952C37.7161 26.4952 37.6793 26.4876 37.6499 26.4801C36.9282 26.2913 36.133 26.2913 35.404 26.4801C35.2788 26.5103 35.1389 26.4876 35.0358 26.397C34.9327 26.3139 34.8665 26.1855 34.8665 26.0496V23.7387C34.8665 23.5348 34.999 23.3612 35.1905 23.3083C36.052 23.0893 36.9945 23.0893 37.856 23.3083C38.0475 23.3612 38.18 23.5348 38.18 23.7387V26.0496C38.18 26.1855 38.1211 26.3139 38.0107 26.397C37.937 26.4574 37.8413 26.4876 37.7456 26.4876L37.753 26.4952Z" fill="#0895CA"/>
<path d="M14.6119 46.8275L13.3319 45.0275C13.1879 45.0435 13.0386 45.0515 12.8839 45.0515H11.3799V46.8275H10.7879V41.2275H12.8839C13.5986 41.2275 14.1586 41.3981 14.5639 41.7395C14.9692 42.0808 15.1719 42.5501 15.1719 43.1475C15.1719 43.5848 15.0599 43.9555 14.8359 44.2595C14.6172 44.5581 14.3026 44.7741 13.8919 44.9075L15.2599 46.8275H14.6119ZM12.8679 44.5475C13.4226 44.5475 13.8466 44.4248 14.1399 44.1795C14.4332 43.9341 14.5799 43.5901 14.5799 43.1475C14.5799 42.6941 14.4332 42.3475 14.1399 42.1075C13.8466 41.8621 13.4226 41.7395 12.8679 41.7395H11.3799V44.5475H12.8679ZM20.1132 44.8995H16.5932C16.6252 45.3368 16.7932 45.6915 17.0972 45.9635C17.4012 46.2301 17.7852 46.3635 18.2492 46.3635C18.5105 46.3635 18.7505 46.3181 18.9692 46.2275C19.1878 46.1315 19.3772 45.9928 19.5372 45.8115L19.8572 46.1795C19.6705 46.4035 19.4358 46.5741 19.1532 46.6915C18.8758 46.8088 18.5692 46.8675 18.2332 46.8675C17.8012 46.8675 17.4172 46.7768 17.0812 46.5955C16.7505 46.4088 16.4918 46.1528 16.3052 45.8275C16.1185 45.5021 16.0252 45.1341 16.0252 44.7235C16.0252 44.3128 16.1132 43.9448 16.2892 43.6195C16.4705 43.2941 16.7158 43.0408 17.0252 42.8595C17.3398 42.6781 17.6918 42.5875 18.0812 42.5875C18.4705 42.5875 18.8198 42.6781 19.1292 42.8595C19.4385 43.0408 19.6812 43.2941 19.8572 43.6195C20.0332 43.9395 20.1212 44.3075 20.1212 44.7235L20.1132 44.8995ZM18.0812 43.0755C17.6758 43.0755 17.3345 43.2061 17.0572 43.4675C16.7852 43.7235 16.6305 44.0595 16.5932 44.4755H19.5772C19.5398 44.0595 19.3825 43.7235 19.1052 43.4675C18.8332 43.2061 18.4918 43.0755 18.0812 43.0755ZM22.6693 41.3315C22.4239 41.3315 22.2373 41.3981 22.1093 41.5315C21.9866 41.6648 21.9253 41.8621 21.9253 42.1235V42.6195H23.2213V43.0995H21.9413V46.8275H21.3733V43.0995H20.6213V42.6195H21.3733V42.0995C21.3733 41.7155 21.4826 41.4115 21.7013 41.1875C21.9253 40.9635 22.2399 40.8515 22.6453 40.8515C22.8053 40.8515 22.9599 40.8755 23.1093 40.9235C23.2586 40.9661 23.3839 41.0301 23.4853 41.1155L23.2933 41.5395C23.1279 41.4008 22.9199 41.3315 22.6693 41.3315ZM27.5819 44.8995H24.0619C24.0939 45.3368 24.2619 45.6915 24.5659 45.9635C24.8699 46.2301 25.2539 46.3635 25.7179 46.3635C25.9792 46.3635 26.2192 46.3181 26.4379 46.2275C26.6566 46.1315 26.8459 45.9928 27.0059 45.8115L27.3259 46.1795C27.1392 46.4035 26.9046 46.5741 26.6219 46.6915C26.3446 46.8088 26.0379 46.8675 25.7019 46.8675C25.2699 46.8675 24.8859 46.7768 24.5499 46.5955C24.2192 46.4088 23.9606 46.1528 23.7739 45.8275C23.5872 45.5021 23.4939 45.1341 23.4939 44.7235C23.4939 44.3128 23.5819 43.9448 23.7579 43.6195C23.9392 43.2941 24.1846 43.0408 24.4939 42.8595C24.8086 42.6781 25.1606 42.5875 25.5499 42.5875C25.9392 42.5875 26.2886 42.6781 26.5979 42.8595C26.9072 43.0408 27.1499 43.2941 27.3259 43.6195C27.5019 43.9395 27.5899 44.3075 27.5899 44.7235L27.5819 44.8995ZM25.5499 43.0755C25.1446 43.0755 24.8032 43.2061 24.5259 43.4675C24.2539 43.7235 24.0992 44.0595 24.0619 44.4755H27.0459C27.0086 44.0595 26.8512 43.7235 26.5739 43.4675C26.3019 43.2061 25.9606 43.0755 25.5499 43.0755ZM29.29 43.4435C29.4234 43.1608 29.6207 42.9475 29.882 42.8035C30.1487 42.6595 30.4767 42.5875 30.866 42.5875V43.1395L30.73 43.1315C30.2874 43.1315 29.9407 43.2675 29.69 43.5395C29.4394 43.8115 29.314 44.1928 29.314 44.6835V46.8275H28.746V42.6195H29.29V43.4435ZM35.5194 44.8995H31.9994C32.0314 45.3368 32.1994 45.6915 32.5034 45.9635C32.8074 46.2301 33.1914 46.3635 33.6554 46.3635C33.9167 46.3635 34.1567 46.3181 34.3754 46.2275C34.5941 46.1315 34.7834 45.9928 34.9434 45.8115L35.2634 46.1795C35.0767 46.4035 34.8421 46.5741 34.5594 46.6915C34.2821 46.8088 33.9754 46.8675 33.6394 46.8675C33.2074 46.8675 32.8234 46.7768 32.4874 46.5955C32.1567 46.4088 31.8981 46.1528 31.7114 45.8275C31.5247 45.5021 31.4314 45.1341 31.4314 44.7235C31.4314 44.3128 31.5194 43.9448 31.6954 43.6195C31.8767 43.2941 32.1221 43.0408 32.4314 42.8595C32.7461 42.6781 33.0981 42.5875 33.4874 42.5875C33.8767 42.5875 34.2261 42.6781 34.5354 42.8595C34.8447 43.0408 35.0874 43.2941 35.2634 43.6195C35.4394 43.9395 35.5274 44.3075 35.5274 44.7235L35.5194 44.8995ZM33.4874 43.0755C33.0821 43.0755 32.7407 43.2061 32.4634 43.4675C32.1914 43.7235 32.0367 44.0595 31.9994 44.4755H34.9834C34.9461 44.0595 34.7887 43.7235 34.5114 43.4675C34.2394 43.2061 33.8981 43.0755 33.4874 43.0755ZM38.8275 42.5875C39.3555 42.5875 39.7742 42.7421 40.0835 43.0515C40.3982 43.3555 40.5555 43.8008 40.5555 44.3875V46.8275H39.9875V44.4435C39.9875 44.0061 39.8782 43.6728 39.6595 43.4435C39.4409 43.2141 39.1289 43.0995 38.7235 43.0995C38.2702 43.0995 37.9102 43.2355 37.6435 43.5075C37.3822 43.7741 37.2515 44.1448 37.2515 44.6195V46.8275H36.6835V42.6195H37.2275V43.3955C37.3822 43.1395 37.5955 42.9421 37.8675 42.8035C38.1449 42.6595 38.4649 42.5875 38.8275 42.5875ZM43.2256 46.8675C42.8843 46.8675 42.5563 46.8195 42.2416 46.7235C41.9323 46.6221 41.6896 46.4968 41.5136 46.3475L41.7696 45.8995C41.9456 46.0381 42.1669 46.1528 42.4336 46.2435C42.7003 46.3288 42.9776 46.3715 43.2656 46.3715C43.6496 46.3715 43.9323 46.3128 44.1136 46.1955C44.3003 46.0728 44.3936 45.9021 44.3936 45.6835C44.3936 45.5288 44.3429 45.4088 44.2416 45.3235C44.1403 45.2328 44.0123 45.1661 43.8576 45.1235C43.7029 45.0755 43.4976 45.0301 43.2416 44.9875C42.9003 44.9235 42.6256 44.8595 42.4176 44.7955C42.2096 44.7261 42.0309 44.6115 41.8816 44.4515C41.7376 44.2915 41.6656 44.0701 41.6656 43.7875C41.6656 43.4355 41.8123 43.1475 42.1056 42.9235C42.3989 42.6995 42.8069 42.5875 43.3296 42.5875C43.6016 42.5875 43.8736 42.6248 44.1456 42.6995C44.4176 42.7688 44.6416 42.8621 44.8176 42.9795L44.5696 43.4355C44.2229 43.1955 43.8096 43.0755 43.3296 43.0755C42.9669 43.0755 42.6923 43.1395 42.5056 43.2675C42.3243 43.3955 42.2336 43.5635 42.2336 43.7715C42.2336 43.9315 42.2843 44.0595 42.3856 44.1555C42.4923 44.2515 42.6229 44.3235 42.7776 44.3715C42.9323 44.4141 43.1456 44.4595 43.4176 44.5075C43.7536 44.5715 44.0229 44.6355 44.2256 44.6995C44.4283 44.7635 44.6016 44.8728 44.7456 45.0275C44.8896 45.1821 44.9616 45.3955 44.9616 45.6675C44.9616 46.0355 44.8069 46.3288 44.4976 46.5475C44.1936 46.7608 43.7696 46.8675 43.2256 46.8675ZM46.0117 42.6195H46.5797V46.8275H46.0117V42.6195ZM46.2997 41.6995C46.1823 41.6995 46.0837 41.6595 46.0037 41.5795C45.9237 41.4995 45.8837 41.4035 45.8837 41.2915C45.8837 41.1848 45.9237 41.0915 46.0037 41.0115C46.0837 40.9315 46.1823 40.8915 46.2997 40.8915C46.417 40.8915 46.5157 40.9315 46.5957 41.0115C46.6757 41.0861 46.7157 41.1768 46.7157 41.2835C46.7157 41.4008 46.6757 41.4995 46.5957 41.5795C46.5157 41.6595 46.417 41.6995 46.2997 41.6995Z" fill="#0895CA"/>
</svg>
