<svg width="57" height="57" viewBox="0 0 57 57" fill="none" xmlns="http://www.w3.org/2000/svg">
<rect width="56.7286" height="57" fill="#F7DA64"/>
<path d="M26.8276 21.8978C26.8958 21.8978 26.959 21.9428 26.9785 22.0126L27.1342 22.5416L27.7717 22.347L27.6159 21.813C27.5965 21.7431 27.6257 21.6683 27.6889 21.6284C27.8592 21.5285 28.0101 21.3988 28.1415 21.2491C28.1901 21.1942 28.268 21.1792 28.3313 21.2141L28.813 21.4836L29.1244 20.8898L28.6378 20.6203C28.5746 20.5853 28.5454 20.5105 28.56 20.4406C28.6086 20.251 28.6281 20.0414 28.6184 19.8368C28.6135 19.7619 28.6621 19.697 28.7303 19.6771L29.2558 19.5174L29.066 18.8636L28.5405 19.0233C28.4724 19.0433 28.3994 19.0133 28.3604 18.9484C28.2631 18.7788 28.1415 18.6241 27.9906 18.4843C27.9371 18.4344 27.9225 18.3546 27.9566 18.2897L28.2193 17.7956L27.6403 17.4762L27.3824 17.9703C27.3483 18.0352 27.2753 18.0701 27.2072 18.0502C27.0174 18.0003 26.8179 17.9753 26.6233 17.9853C26.5503 17.9903 26.487 17.9404 26.4675 17.8705L26.3118 17.3265L25.6744 17.5212L25.8301 18.0651C25.8496 18.135 25.8204 18.2099 25.7571 18.2498C25.5868 18.3546 25.4311 18.4793 25.2997 18.6291C25.251 18.684 25.1732 18.6989 25.1099 18.664L24.6282 18.3995L24.3167 18.9934L24.7936 19.2579C24.8569 19.2928 24.8909 19.3677 24.8715 19.4375C24.818 19.6371 24.7985 19.8368 24.8082 20.0364C24.8131 20.1112 24.7644 20.1761 24.6963 20.1961L24.1756 20.3558L24.3654 21.0095L24.8861 20.8498C24.9542 20.8299 25.0272 20.8598 25.0661 20.9247C25.1683 21.0994 25.2948 21.264 25.4408 21.3988C25.4943 21.4487 25.5089 21.5285 25.4749 21.5934L25.217 22.0875L25.796 22.4119L26.0588 21.9178C26.0929 21.8529 26.1659 21.818 26.234 21.838C26.4238 21.8879 26.6233 21.9128 26.8179 21.9028C26.8228 21.9028 26.8228 21.9028 26.8276 21.9028V21.8978ZM27.0271 22.9009C27.0028 22.9009 26.9736 22.8959 26.9542 22.881C26.9201 22.861 26.8909 22.8261 26.8812 22.7862L26.7157 22.2172C26.5697 22.2172 26.4189 22.2023 26.2778 22.1723L26.0004 22.6963C25.9615 22.7712 25.8642 22.8011 25.7912 22.7612L24.9396 22.2871C24.8666 22.2472 24.8374 22.1474 24.8763 22.0725L25.1537 21.5435C25.0515 21.4387 24.9542 21.314 24.8763 21.1892L24.3216 21.3589C24.2827 21.3688 24.2389 21.3639 24.2048 21.3439C24.1708 21.3239 24.1416 21.289 24.1318 21.2491L23.8545 20.2909C23.8447 20.251 23.8447 20.2061 23.8691 20.1711C23.8885 20.1362 23.9226 20.1062 23.9615 20.0963L24.5163 19.9266C24.5163 19.7769 24.5309 19.6272 24.5649 19.4824L24.054 19.203C24.015 19.183 23.9907 19.1481 23.9761 19.1081C23.9664 19.0682 23.9664 19.0233 23.9907 18.9884L24.453 18.115C24.4919 18.0402 24.5892 18.0102 24.6622 18.0502L25.1732 18.3346C25.2802 18.2298 25.3921 18.135 25.5187 18.0502L25.3484 17.4713C25.324 17.3864 25.3727 17.2966 25.4554 17.2716L26.3897 16.9872C26.4724 16.9622 26.56 17.0121 26.5843 17.092L26.7546 17.6759C26.9006 17.6759 27.0466 17.6908 27.1926 17.7258L27.47 17.2018C27.4894 17.1668 27.5235 17.1369 27.5624 17.1269C27.6013 17.1169 27.6451 17.1169 27.6792 17.1419L28.5308 17.616C28.5648 17.6359 28.594 17.6709 28.6038 17.7108C28.6135 17.7507 28.6086 17.7956 28.5892 17.8306L28.3118 18.3546C28.414 18.4594 28.5064 18.5792 28.5843 18.6989L29.1439 18.5292C29.1828 18.5193 29.2266 18.5243 29.2607 18.5442C29.2947 18.5642 29.3239 18.5991 29.3337 18.639L29.611 19.5972C29.6208 19.6371 29.6208 19.6821 29.5964 19.717C29.577 19.7519 29.5429 19.7819 29.504 19.7918L28.9444 19.9615C28.9444 20.1162 28.9298 20.2659 28.9006 20.4157L29.4164 20.7051C29.4894 20.745 29.5186 20.8448 29.4796 20.9197L29.0174 21.793C28.9979 21.828 28.9638 21.8579 28.9249 21.8679C28.886 21.8779 28.8422 21.8729 28.8081 21.8529L28.2923 21.5685C28.1901 21.6733 28.0734 21.7681 27.9517 21.8529L28.1171 22.4218C28.1415 22.5067 28.0928 22.5965 28.0101 22.6215L27.0758 22.9059C27.0612 22.9109 27.0466 22.9109 27.032 22.9109L27.0271 22.9009Z" fill="#0895CA"/>
<path d="M26.7213 18.8235C26.1227 18.8235 25.6361 19.3226 25.6361 19.9364C25.6361 20.5503 26.1227 21.0493 26.7213 21.0493C27.3198 21.0493 27.8064 20.5503 27.8064 19.9364C27.8064 19.3226 27.3198 18.8235 26.7213 18.8235ZM26.7213 21.3687C25.9524 21.3687 25.3247 20.7249 25.3247 19.9364C25.3247 19.1479 25.9524 18.5042 26.7213 18.5042C27.4901 18.5042 28.1178 19.1479 28.1178 19.9364C28.1178 20.7249 27.4901 21.3687 26.7213 21.3687Z" fill="#0895CA"/>
<path d="M30.2396 18.2996L30.6289 18.3445L30.6678 17.9901C30.6775 17.9153 30.7311 17.8604 30.804 17.8504C30.9403 17.8305 31.0717 17.7905 31.1982 17.7306C31.2615 17.7007 31.3393 17.7157 31.3831 17.7756L31.6021 18.06L31.9038 17.8105L31.6799 17.526C31.6361 17.4661 31.6361 17.3863 31.6799 17.3314C31.7627 17.2216 31.8308 17.0968 31.8794 16.9621C31.9038 16.8922 31.9719 16.8523 32.0449 16.8573L32.3953 16.8972L32.439 16.498L32.0887 16.4581C32.0157 16.4481 31.9622 16.3932 31.9524 16.3183C31.9378 16.1836 31.8989 16.0488 31.8357 15.9141C31.8065 15.8492 31.8259 15.7694 31.8794 15.7245L32.1519 15.4999L31.9086 15.1905L31.6361 15.415C31.5778 15.46 31.4999 15.46 31.4415 15.415C31.3344 15.3302 31.2128 15.2603 31.0814 15.2104C31.0133 15.1855 30.9744 15.1156 30.9792 15.0457L31.0182 14.6814L30.6289 14.6365L30.5899 15.0008C30.5802 15.0757 30.5267 15.1306 30.4537 15.1406C30.3174 15.1605 30.1812 15.2004 30.0547 15.2603C29.9914 15.2903 29.9136 15.2753 29.8698 15.2154L29.6508 14.936L29.3491 15.1855L29.5681 15.4649C29.6119 15.5248 29.6119 15.6047 29.5681 15.6646C29.4805 15.7793 29.4172 15.9041 29.3686 16.0339C29.3442 16.1037 29.2761 16.1486 29.2031 16.1387L28.8576 16.0987L28.8138 16.498L29.1593 16.5379C29.2323 16.5479 29.2858 16.6028 29.2956 16.6776C29.315 16.8174 29.354 16.9621 29.4124 17.0869C29.4415 17.1517 29.4269 17.2316 29.3686 17.2765L29.0961 17.5011L29.3394 17.8155L29.6167 17.5909C29.6751 17.546 29.753 17.546 29.8114 17.5909C29.9184 17.6757 30.0401 17.7456 30.1715 17.7955C30.2396 17.8205 30.2834 17.8903 30.2736 17.9652L30.2347 18.3195L30.2396 18.2996ZM30.7651 18.6788C30.7603 18.6788 30.7554 18.6788 30.7457 18.6788L30.0449 18.599C30.006 18.594 29.9671 18.574 29.9428 18.5391C29.9184 18.5042 29.9038 18.4642 29.9087 18.4243L29.9525 18.0301C29.8698 17.9951 29.7968 17.9502 29.7238 17.9003L29.4172 18.1498C29.3832 18.1748 29.3442 18.1898 29.3053 18.1848C29.2664 18.1798 29.2274 18.1598 29.2031 18.1249L28.7652 17.566C28.7116 17.4961 28.7214 17.3963 28.7895 17.3414L29.0961 17.0919C29.0669 17.007 29.0425 16.9172 29.0231 16.8274L28.6386 16.7824C28.5997 16.7775 28.5608 16.7575 28.5365 16.7226C28.5121 16.6876 28.4975 16.6477 28.5024 16.6078L28.5803 15.8891C28.5851 15.8492 28.6046 15.8093 28.6386 15.7843C28.6727 15.7594 28.7116 15.7444 28.7506 15.7494L29.135 15.7943C29.169 15.7145 29.2128 15.6346 29.2615 15.5598L29.0182 15.2504C28.9939 15.2154 28.9793 15.1755 28.9841 15.1306C28.989 15.0907 29.0085 15.0507 29.0425 15.0258L29.5875 14.5766C29.6557 14.5217 29.753 14.5317 29.8065 14.6016L30.0498 14.916C30.1325 14.886 30.2153 14.8611 30.3028 14.8411L30.3466 14.4369C30.3564 14.3471 30.4342 14.2872 30.5169 14.2972L31.2177 14.377C31.3053 14.387 31.3636 14.4668 31.3539 14.5517L31.3101 14.9559C31.388 14.9908 31.4658 15.0358 31.5388 15.0857L31.8405 14.8361C31.8746 14.8112 31.9135 14.7962 31.9524 14.8012C31.9914 14.8062 32.0303 14.8262 32.0546 14.8611L32.4926 15.42C32.5169 15.455 32.5315 15.4949 32.5266 15.5398C32.5218 15.5797 32.5023 15.6197 32.4682 15.6446L32.1617 15.8941C32.1909 15.979 32.2152 16.0638 32.2347 16.1486L32.624 16.1936C32.6629 16.1986 32.7018 16.2185 32.7261 16.2534C32.7505 16.2884 32.7651 16.3283 32.7602 16.3682L32.6823 17.0869C32.6775 17.1268 32.658 17.1667 32.624 17.1917C32.5899 17.2166 32.551 17.2316 32.512 17.2266L32.1228 17.1817C32.0838 17.2665 32.0449 17.3464 31.9962 17.4212L32.2395 17.7356C32.2931 17.8055 32.2833 17.9053 32.2152 17.9602L31.6702 18.4093C31.6361 18.4343 31.5972 18.4493 31.5534 18.4443C31.5145 18.4393 31.4756 18.4193 31.4512 18.3844L31.2079 18.07C31.1252 18.0999 31.0425 18.1249 30.9598 18.1449L30.916 18.5391C30.9062 18.619 30.8381 18.6788 30.7603 18.6788H30.7651Z" fill="#0895CA"/>
<path d="M30.6334 15.7296C30.5409 15.7296 30.4436 15.7496 30.356 15.7845C30.1711 15.8593 30.03 16.0041 29.9521 16.1937C29.8743 16.3784 29.8743 16.588 29.9473 16.7776C30.0203 16.9672 30.1614 17.112 30.3463 17.1918C30.5263 17.2717 30.7307 17.2717 30.9156 17.1968C31.1005 17.1219 31.2416 16.9772 31.3195 16.7876C31.4801 16.4033 31.3 15.9542 30.9254 15.7895C30.8329 15.7496 30.7356 15.7296 30.6383 15.7296H30.6334ZM30.6334 17.5711C30.4923 17.5711 30.356 17.5411 30.2246 17.4863C29.9667 17.3765 29.7624 17.1669 29.6602 16.8974C29.5531 16.6279 29.558 16.3384 29.665 16.0689C29.7721 15.8044 29.9765 15.5998 30.2392 15.49C30.502 15.3803 30.7842 15.3852 31.0421 15.495C31.5774 15.7246 31.8256 16.3584 31.6017 16.9074C31.4947 17.1718 31.2903 17.3815 31.0275 17.4863C30.901 17.5411 30.7648 17.5661 30.6334 17.5661V17.5711Z" fill="#0895CA"/>
<path d="M22.6536 32.9167H34.0743V32.2081C34.0743 31.8238 33.7677 31.5094 33.393 31.5094H23.3349C22.9602 31.5094 22.6536 31.8238 22.6536 32.2081V32.9167V32.9167ZM34.5317 33.8499H22.2011C21.948 33.8499 21.7437 33.6403 21.7437 33.3808V32.2081C21.7437 31.3098 22.459 30.5762 23.3349 30.5762H33.393C34.2689 30.5762 34.9842 31.3098 34.9842 32.2081V33.3808C34.9842 33.6403 34.7798 33.8499 34.5268 33.8499H34.5317Z" fill="#0895CA"/>
<path d="M26.9662 31.1101C26.7132 31.1101 26.5088 30.9005 26.5088 30.641V26.933C26.5088 26.6735 26.7132 26.4639 26.9662 26.4639C27.2192 26.4639 27.4236 26.6735 27.4236 26.933V30.641C27.4236 30.9005 27.2192 31.1101 26.9662 31.1101Z" fill="#0895CA"/>
<path d="M29.7633 31.1101C29.5103 31.1101 29.3059 30.9005 29.3059 30.641V26.933C29.3059 26.6735 29.5103 26.4639 29.7633 26.4639C30.0164 26.4639 30.2207 26.6735 30.2207 26.933V30.641C30.2207 30.9005 30.0164 31.1101 29.7633 31.1101Z" fill="#0895CA"/>
<path d="M17.9236 11.6473C17.656 11.6473 17.437 11.8719 17.437 12.1464V25.7605C17.437 26.035 17.656 26.2595 17.9236 26.2595H38.8088C39.0764 26.2595 39.3003 26.035 39.3003 25.7605V12.1464C39.3003 11.8719 39.0813 11.6473 38.8088 11.6473H17.9236V11.6473ZM38.8088 27.1978H17.9236C17.1548 27.1978 16.5222 26.554 16.5222 25.7605V12.1464C16.5222 11.3529 17.1499 10.7091 17.9236 10.7091H38.8088C39.5825 10.7091 40.2102 11.3529 40.2102 12.1464V25.7605C40.2102 26.554 39.5825 27.1978 38.8088 27.1978Z" fill="#0895CA"/>
<path d="M19.4605 24.5777H37.2654V13.339H19.4605V24.5777ZM37.7228 25.5109H19.0079C18.7549 25.5109 18.5505 25.3013 18.5505 25.0418V12.8699C18.5505 12.6104 18.7549 12.4008 19.0079 12.4008H37.7228C37.9759 12.4008 38.1803 12.6104 38.1803 12.8699V25.0418C38.1803 25.3013 37.9759 25.5109 37.7228 25.5109Z" fill="#0895CA"/>
<path d="M16.4063 46.8755C15.9903 46.8755 15.5903 46.8088 15.2063 46.6755C14.8277 46.5421 14.5343 46.3661 14.3263 46.1475L14.5583 45.6915C14.761 45.8941 15.0303 46.0595 15.3663 46.1875C15.7023 46.3101 16.049 46.3715 16.4063 46.3715C16.9077 46.3715 17.2837 46.2808 17.5343 46.0995C17.785 45.9128 17.9103 45.6728 17.9103 45.3795C17.9103 45.1555 17.841 44.9768 17.7023 44.8435C17.569 44.7101 17.4037 44.6088 17.2063 44.5395C17.009 44.4648 16.7343 44.3848 16.3823 44.2995C15.961 44.1928 15.625 44.0915 15.3743 43.9955C15.1237 43.8941 14.9077 43.7421 14.7263 43.5395C14.5503 43.3368 14.4623 43.0621 14.4623 42.7155C14.4623 42.4328 14.537 42.1768 14.6863 41.9475C14.8357 41.7128 15.065 41.5261 15.3743 41.3875C15.6837 41.2488 16.0677 41.1795 16.5263 41.1795C16.8463 41.1795 17.1583 41.2248 17.4623 41.3155C17.7717 41.4008 18.0383 41.5208 18.2623 41.6755L18.0623 42.1475C17.8277 41.9928 17.577 41.8781 17.3103 41.8035C17.0437 41.7235 16.7823 41.6835 16.5263 41.6835C16.0357 41.6835 15.665 41.7795 15.4143 41.9715C15.169 42.1581 15.0463 42.4008 15.0463 42.6995C15.0463 42.9235 15.113 43.1048 15.2463 43.2435C15.385 43.3768 15.5557 43.4808 15.7583 43.5555C15.9663 43.6248 16.2437 43.7021 16.5903 43.7875C17.001 43.8888 17.3317 43.9901 17.5823 44.0915C17.8383 44.1875 18.0543 44.3368 18.2303 44.5395C18.4063 44.7368 18.4943 45.0061 18.4943 45.3475C18.4943 45.6301 18.417 45.8888 18.2623 46.1235C18.113 46.3528 17.881 46.5368 17.5663 46.6755C17.2517 46.8088 16.865 46.8755 16.4063 46.8755ZM23.3282 44.8995H19.8082C19.8402 45.3368 20.0082 45.6915 20.3122 45.9635C20.6162 46.2301 21.0002 46.3635 21.4642 46.3635C21.7256 46.3635 21.9656 46.3181 22.1842 46.2275C22.4029 46.1315 22.5922 45.9928 22.7522 45.8115L23.0722 46.1795C22.8856 46.4035 22.6509 46.5741 22.3682 46.6915C22.0909 46.8088 21.7842 46.8675 21.4482 46.8675C21.0162 46.8675 20.6322 46.7768 20.2962 46.5955C19.9656 46.4088 19.7069 46.1528 19.5202 45.8275C19.3336 45.5021 19.2402 45.1341 19.2402 44.7235C19.2402 44.3128 19.3282 43.9448 19.5042 43.6195C19.6856 43.2941 19.9309 43.0408 20.2402 42.8595C20.5549 42.6781 20.9069 42.5875 21.2962 42.5875C21.6856 42.5875 22.0349 42.6781 22.3442 42.8595C22.6536 43.0408 22.8962 43.2941 23.0722 43.6195C23.2482 43.9395 23.3362 44.3075 23.3362 44.7235L23.3282 44.8995ZM21.2962 43.0755C20.8909 43.0755 20.5496 43.2061 20.2722 43.4675C20.0002 43.7235 19.8456 44.0595 19.8082 44.4755H22.7922C22.7549 44.0595 22.5976 43.7235 22.3202 43.4675C22.0482 43.2061 21.7069 43.0755 21.2962 43.0755ZM25.0363 43.4435C25.1697 43.1608 25.367 42.9475 25.6283 42.8035C25.895 42.6595 26.223 42.5875 26.6123 42.5875V43.1395L26.4763 43.1315C26.0337 43.1315 25.687 43.2675 25.4363 43.5395C25.1857 43.8115 25.0603 44.1928 25.0603 44.6835V46.8275H24.4923V42.6195H25.0363V43.4435ZM31.3565 42.6195L29.4845 46.8275H28.9005L27.0365 42.6195H27.6285L29.2045 46.2035L30.7965 42.6195H31.3565ZM32.1564 42.6195H32.7244V46.8275H32.1564V42.6195ZM32.4444 41.6995C32.3271 41.6995 32.2284 41.6595 32.1484 41.5795C32.0684 41.4995 32.0284 41.4035 32.0284 41.2915C32.0284 41.1848 32.0684 41.0915 32.1484 41.0115C32.2284 40.9315 32.3271 40.8915 32.4444 40.8915C32.5617 40.8915 32.6604 40.9315 32.7404 41.0115C32.8204 41.0861 32.8604 41.1768 32.8604 41.2835C32.8604 41.4008 32.8204 41.4995 32.7404 41.5795C32.6604 41.6595 32.5617 41.6995 32.4444 41.6995ZM36.0488 46.8675C35.6328 46.8675 35.2595 46.7768 34.9288 46.5955C34.6035 46.4141 34.3475 46.1608 34.1608 45.8355C33.9742 45.5048 33.8808 45.1341 33.8808 44.7235C33.8808 44.3128 33.9742 43.9448 34.1608 43.6195C34.3475 43.2941 34.6035 43.0408 34.9288 42.8595C35.2595 42.6781 35.6328 42.5875 36.0488 42.5875C36.4115 42.5875 36.7342 42.6595 37.0168 42.8035C37.3048 42.9421 37.5315 43.1475 37.6968 43.4195L37.2728 43.7075C37.1342 43.4995 36.9582 43.3448 36.7448 43.2435C36.5315 43.1368 36.2995 43.0835 36.0488 43.0835C35.7448 43.0835 35.4702 43.1528 35.2248 43.2915C34.9848 43.4248 34.7955 43.6168 34.6568 43.8675C34.5235 44.1181 34.4568 44.4035 34.4568 44.7235C34.4568 45.0488 34.5235 45.3368 34.6568 45.5875C34.7955 45.8328 34.9848 46.0248 35.2248 46.1635C35.4702 46.2968 35.7448 46.3635 36.0488 46.3635C36.2995 46.3635 36.5315 46.3128 36.7448 46.2115C36.9582 46.1101 37.1342 45.9555 37.2728 45.7475L37.6968 46.0355C37.5315 46.3075 37.3048 46.5155 37.0168 46.6595C36.7288 46.7981 36.4062 46.8675 36.0488 46.8675ZM42.4063 44.8995H38.8863C38.9183 45.3368 39.0863 45.6915 39.3903 45.9635C39.6943 46.2301 40.0783 46.3635 40.5423 46.3635C40.8037 46.3635 41.0437 46.3181 41.2623 46.2275C41.481 46.1315 41.6703 45.9928 41.8303 45.8115L42.1503 46.1795C41.9637 46.4035 41.729 46.5741 41.4463 46.6915C41.169 46.8088 40.8623 46.8675 40.5263 46.8675C40.0943 46.8675 39.7103 46.7768 39.3743 46.5955C39.0437 46.4088 38.785 46.1528 38.5983 45.8275C38.4117 45.5021 38.3183 45.1341 38.3183 44.7235C38.3183 44.3128 38.4063 43.9448 38.5823 43.6195C38.7637 43.2941 39.009 43.0408 39.3183 42.8595C39.633 42.6781 39.985 42.5875 40.3743 42.5875C40.7637 42.5875 41.113 42.6781 41.4223 42.8595C41.7317 43.0408 41.9743 43.2941 42.1503 43.6195C42.3263 43.9395 42.4143 44.3075 42.4143 44.7235L42.4063 44.8995ZM40.3743 43.0755C39.969 43.0755 39.6277 43.2061 39.3503 43.4675C39.0783 43.7235 38.9237 44.0595 38.8863 44.4755H41.8703C41.833 44.0595 41.6757 43.7235 41.3983 43.4675C41.1263 43.2061 40.785 43.0755 40.3743 43.0755Z" fill="#0895CA"/>
</svg>
