<svg width="57" height="57" viewBox="0 0 57 57" fill="none" xmlns="http://www.w3.org/2000/svg">
<rect x="0.185547" width="56.7286" height="57" fill="#F7DA64"/>
<path d="M37.0127 24.2579L36.8494 23.4743C37.1955 23.4006 37.5417 23.3269 37.8943 23.2465C39.2462 22.9585 40.6503 22.6571 42.1132 22.2553C42.4919 22.1481 42.5834 22.0543 42.5964 22.0342C42.5834 22.0342 42.5311 21.8534 42.0609 21.485L33.8714 15.0284C32.8134 14.1912 30.6322 14.0371 29.2999 14.7002L15.3111 21.6793C14.6907 21.9874 14.5274 22.2419 14.5143 22.3021C14.5274 22.3021 14.6711 22.4629 15.3372 22.5701L19.2883 23.213L19.3928 23.2264C19.5561 23.2733 19.6801 23.4274 19.6801 23.6082C19.6801 23.8292 19.4973 24.0101 19.2818 24.0101H19.2752L15.2262 23.3604C14.8866 23.3068 13.8547 23.1394 13.7502 22.4093C13.6784 21.9003 14.1029 21.398 14.978 20.9559L28.9668 13.9769C30.5538 13.1865 33.0746 13.3808 34.3547 14.3921L42.5442 20.8487C42.9817 21.197 43.4716 21.6592 43.3671 22.2017C43.256 22.771 42.5573 22.9652 42.3221 23.0255C40.8331 23.4341 39.4225 23.7355 38.0576 24.0302C37.7049 24.1038 37.3588 24.1775 37.0127 24.2579V24.2579Z" fill="#0895CA"/>
<path d="M36.9147 24.2777L36.7318 23.3936C36.9865 23.3401 37.6918 23.2262 37.8747 23.1458C39.2265 22.8578 40.6241 22.5564 42.087 22.1546C42.2698 22.1077 42.3743 22.0541 42.4462 22.0206L42.4658 22.0072C42.407 21.9268 42.2829 21.7795 42.0021 21.5585L33.8126 15.1018C33.2966 14.6933 32.5064 14.4589 31.6836 14.3986C30.8541 14.3383 29.9921 14.4656 29.3456 14.787L15.3567 21.7661C15.1282 21.8799 14.9649 21.9871 14.8473 22.0809C14.7429 22.1613 14.6841 22.2215 14.6514 22.2684C14.7429 22.322 14.9453 22.4091 15.3633 22.476C16.6433 22.6837 18.1911 22.8511 19.4254 23.1391C19.5299 23.1726 19.6213 23.2329 19.6801 23.32C19.7454 23.4003 19.778 23.5075 19.778 23.6214C19.778 23.762 19.7193 23.8826 19.6278 23.9763C19.5364 24.0634 19.4123 24.1237 19.2752 24.1237C18.4001 23.8558 16.2319 23.6415 15.2 23.474C15.0237 23.4472 14.6776 23.3869 14.351 23.2463C14.0114 23.0922 13.7045 22.8444 13.6392 22.4426C13.6 22.1546 13.6914 21.8732 13.92 21.612C14.1355 21.3575 14.4686 21.1164 14.9192 20.8887L28.908 13.9096C29.7178 13.5078 30.7627 13.3537 31.7685 13.4274C32.7742 13.5011 33.7407 13.8092 34.4003 14.3316L42.5899 20.7882C42.8119 20.9691 43.0535 21.1767 43.2233 21.4111C43.3997 21.6589 43.5042 21.9402 43.4519 22.2416C43.3278 22.8712 42.5899 23.0721 42.3417 23.1458H42.3352C41.5907 23.3468 40.8657 23.5276 40.1539 23.6883C39.442 23.8491 38.7498 24.0031 38.0641 24.1505L36.9277 24.3983L36.9081 24.2978L36.9147 24.2777ZM36.9604 23.5477L37.0845 24.1371L38.0314 23.9295C38.7106 23.7821 39.4094 23.6348 40.1147 23.474C40.82 23.3133 41.5449 23.1324 42.2829 22.9315H42.2894C42.505 22.8712 43.158 22.6904 43.256 22.1813C43.3017 21.9402 43.2168 21.7125 43.0666 21.5116C42.9099 21.2905 42.6813 21.0963 42.4723 20.9289L34.2828 14.4722C33.6558 13.9766 32.7219 13.6819 31.7554 13.6082C30.7823 13.5346 29.7766 13.6819 28.9929 14.0704L15.0041 21.0494C14.5796 21.2638 14.2661 21.4915 14.0637 21.7192C13.8743 21.9402 13.7959 22.168 13.8286 22.3957C13.8743 22.7172 14.1355 22.9181 14.4229 23.0454C14.7233 23.1793 15.0563 23.2329 15.2261 23.2597L19.2686 23.9094C19.3535 23.9094 19.4319 23.8759 19.4842 23.8223C19.5364 23.7687 19.5691 23.695 19.5691 23.6147C19.5691 23.5477 19.5495 23.4874 19.5103 23.4405C19.4711 23.3936 19.4189 23.3535 19.3601 23.3334L15.3176 22.677C14.7233 22.5832 14.5208 22.4359 14.4686 22.4024L14.5012 22.3488L14.4098 22.2885C14.4163 22.2416 14.4947 22.101 14.7167 21.9335C14.8408 21.8331 15.0171 21.7192 15.2588 21.5986L29.2476 14.6196C29.9268 14.278 30.8215 14.1508 31.6836 14.211C32.5456 14.2713 33.375 14.5258 33.9171 14.9545L42.1066 21.4111C42.4723 21.6991 42.6029 21.8799 42.6421 21.9536L42.7531 21.9804L42.6552 22.101C42.6486 22.1144 42.6094 22.1546 42.5245 22.2014C42.4462 22.2416 42.3221 22.2952 42.1262 22.3555C40.6633 22.7574 39.2592 23.0587 37.9008 23.3535C37.7571 23.4137 37.1563 23.5142 36.9538 23.5611L36.9604 23.5477ZM14.5078 22.3421L14.5012 22.3354L14.4686 22.389C14.4751 22.389 14.5012 22.3957 14.5078 22.3957V22.3421V22.3421Z" fill="#0895CA"/>
<path d="M20.8494 27.0707C20.9931 27.5328 22.1948 28.4236 24.5066 29.0532C27.7001 29.9239 29.9859 30.3191 31.5859 30.2722C33.7607 30.2052 35.5697 28.4906 36.4905 27.0104V22.6636C35.9354 21.2571 33.186 20.2792 29.7508 20.2792C28.3793 20.2792 27.0014 20.4466 25.7344 20.7614H25.7279C25.5124 20.7614 25.336 20.5806 25.336 20.3596C25.336 20.1385 25.5124 19.9577 25.7279 19.9577H25.7344V19.9443C27.0014 19.6429 28.3728 19.4755 29.7508 19.4755C33.6235 19.4755 36.6342 20.6744 37.2546 22.456L37.2742 22.5229V27.2448L37.2154 27.3386C36.2097 29.013 34.1394 30.9956 31.612 31.076C31.5206 31.076 31.4227 31.0826 31.3312 31.0826C29.6986 31.0826 27.3997 30.6741 24.3107 29.8369C22.4233 29.3211 20.3204 28.3634 20.0788 27.2181L20.0723 27.131V23.253L20.1245 23.1592C20.8168 21.9402 22.5866 20.8753 24.794 20.2055V21.0427C22.9458 21.6254 21.4633 22.4961 20.856 23.474V27.0774L20.8494 27.0707Z" fill="#0895CA"/>
<path d="M20.948 27.0507C21.0329 27.2851 21.4247 27.6468 22.1365 28.0352C22.7243 28.35 23.5211 28.6782 24.5333 28.9528C26.1268 29.3882 27.4917 29.703 28.6607 29.9039C29.8232 30.1048 30.7897 30.1919 31.58 30.1651C32.5269 30.1316 33.4086 29.7833 34.1727 29.2743C35.1196 28.6447 35.8837 27.774 36.3866 26.9703V22.6703C36.1123 22.0006 35.309 21.4313 34.1596 21.0227C32.9841 20.6074 31.4494 20.3663 29.7448 20.3663C29.0656 20.3663 28.3864 20.4065 27.7203 20.4869C27.0411 20.5673 26.3815 20.6878 25.7546 20.8419H25.7219C25.5848 20.8419 25.4672 20.7883 25.3758 20.6945C25.2909 20.6007 25.2321 20.4802 25.2321 20.3395C25.2321 20.1989 25.2844 20.0783 25.3758 19.9846C25.4411 19.9176 25.5325 19.864 25.6305 19.8439L25.7088 19.8238C26.3554 19.6698 27.0281 19.5492 27.7138 19.4688C28.3799 19.3885 29.0591 19.3483 29.7383 19.3483C31.6845 19.3483 33.4216 19.6497 34.7474 20.1788C36.0862 20.7079 37.0135 21.4781 37.3335 22.3957L37.3531 22.4627L37.3597 22.4962V27.2181L37.3466 27.2717L37.2878 27.3655C36.7262 28.3031 35.8249 29.3413 34.7017 30.0914C33.8004 30.6942 32.749 31.1095 31.5996 31.1497L31.3122 31.1564C30.4893 31.1564 29.5032 31.0559 28.3342 30.8483C27.1652 30.6407 25.8199 30.3259 24.2721 29.9106C23.2272 29.6226 22.1104 29.2073 21.281 28.6916C20.5888 28.263 20.0859 27.7606 19.9683 27.2181C19.8312 26.3072 19.9553 24.2644 19.9553 23.233L19.9683 23.1861L20.0206 23.0923C20.3732 22.4761 20.9806 21.9001 21.7774 21.3978C22.5937 20.882 23.6125 20.4333 24.7423 20.0917L24.8664 20.0515V21.0964L24.7945 21.1165C23.8607 21.4112 23.0247 21.7795 22.3455 22.1948C21.712 22.59 21.2157 23.0186 20.9218 23.4808V27.044L20.948 27.0507ZM22.0451 28.2094C21.2745 27.7941 20.8435 27.3789 20.7586 27.0975L20.752 27.0641V23.4607L20.7651 23.4071C21.072 22.9115 21.5945 22.4493 22.2672 22.0341C22.9398 21.6188 23.7692 21.2504 24.6901 20.9557V20.3261C23.6255 20.6543 22.6721 21.083 21.8949 21.5719C21.1243 22.0609 20.5365 22.6101 20.2034 23.1928L20.1643 23.2664V27.1176L20.1708 27.1913C20.2753 27.6736 20.7455 28.1357 21.392 28.5309C22.2084 29.0332 23.299 29.4485 24.3309 29.7298C25.8721 30.1517 27.2174 30.4598 28.3799 30.6674C29.5358 30.8751 30.5155 30.9755 31.3253 30.9755H31.4689H31.6061C32.7098 30.9421 33.7286 30.5335 34.6037 29.9508C35.7008 29.2207 36.576 28.2027 37.1311 27.2851L37.1768 27.2114V22.5364L37.1572 22.4895C36.8568 21.6255 35.9686 20.9021 34.6821 20.3931C33.3824 19.8774 31.6714 19.576 29.7448 19.576C29.0722 19.576 28.3995 19.6162 27.7399 19.6965C27.0868 19.7702 26.4468 19.8841 25.8264 20.0247V20.0582H25.7219C25.6435 20.0582 25.5717 20.0917 25.5129 20.1453C25.4607 20.1989 25.428 20.2726 25.428 20.3596C25.428 20.44 25.4607 20.5204 25.5129 20.574C25.5652 20.6275 25.637 20.661 25.7154 20.661C26.3489 20.507 27.015 20.3864 27.6942 20.2993C28.3668 20.219 29.0591 20.1788 29.7383 20.1788C31.4624 20.1788 33.0233 20.4266 34.2184 20.8486C35.4331 21.2772 36.2821 21.8934 36.5694 22.6235L36.576 22.6636V27.0105L36.5629 27.0641C36.047 27.8946 35.2502 28.7988 34.2706 29.4552C33.4804 29.9843 32.5661 30.346 31.5734 30.3794C30.7702 30.4062 29.7905 30.3192 28.615 30.1115C27.4395 29.9106 26.068 29.5891 24.468 29.1538C23.4362 28.8725 22.6263 28.5443 22.0255 28.2161L22.0451 28.2094Z" fill="#0895CA"/>
<path d="M24.0095 22.2818H24.7867V21.6389V19.8305V16.6959H24.0095V22.2818Z" fill="#0895CA"/>
<path d="M24.109 22.1813H24.6968V16.7963H24.109V22.1813ZM24.7947 22.3822H23.9131V16.5954H24.8927V22.3822H24.7947Z" fill="#0895CA"/>
<path d="M24.0566 25.1754L24.4028 25.5839L24.7489 25.1754V23.0388C24.7489 22.8445 24.5922 22.6838 24.4028 22.6838C24.2134 22.6838 24.0566 22.8445 24.0566 23.0388V25.1754ZM24.4028 26.8096L23.2729 25.4768V23.0388C23.2729 22.4025 23.7758 21.8801 24.4028 21.8801C25.0232 21.8801 25.526 22.3958 25.526 23.0388V25.4768L24.4028 26.8096Z" fill="#0895CA"/>
<path d="M24.1525 25.1351L24.4006 25.4298L24.6488 25.1351V23.032C24.6488 22.965 24.6227 22.8981 24.577 22.8512C24.5312 22.8043 24.4725 22.7775 24.4006 22.7775C24.3353 22.7775 24.27 22.8043 24.2243 22.8512C24.1786 22.8981 24.1525 22.9583 24.1525 23.032V25.1351ZM24.3288 25.6441L23.9827 25.2356L23.9565 25.1686V23.032C23.9565 22.9048 24.0088 22.7909 24.0872 22.7105C24.1655 22.6302 24.2765 22.5766 24.4006 22.5766C24.5247 22.5766 24.6357 22.6302 24.7141 22.7105C24.7925 22.7909 24.8447 22.9048 24.8447 23.032V25.1686L24.8186 25.2356L24.4006 25.7312L24.3288 25.6441ZM24.3288 26.8698L23.199 25.537L23.1729 25.47V23.032C23.1729 22.6837 23.31 22.3689 23.532 22.1479C23.7541 21.9202 24.061 21.7795 24.4006 21.7795C24.7402 21.7795 25.0406 21.9202 25.2627 22.1479C25.4847 22.3756 25.6219 22.6904 25.6219 23.032V25.47L25.5957 25.537L24.3941 26.9569L24.3223 26.8698H24.3288ZM23.3753 25.4365L24.4072 26.6555L25.4325 25.4365V23.0387C25.4325 22.7507 25.3149 22.4828 25.1321 22.2953C24.9492 22.101 24.688 21.9872 24.4072 21.9872C24.1263 21.9872 23.8651 22.1077 23.6822 22.2953C23.4929 22.4828 23.3818 22.7507 23.3818 23.0387V25.4365H23.3753Z" fill="#0895CA"/>
<path d="M10.0426 44.0275H10.6106V46.1635C10.3492 46.3928 10.0399 46.5688 9.68257 46.6915C9.32524 46.8141 8.94924 46.8755 8.55457 46.8755C7.99457 46.8755 7.49057 46.7528 7.04257 46.5075C6.59457 46.2621 6.24257 45.9235 5.98657 45.4915C5.73057 45.0541 5.60257 44.5661 5.60257 44.0275C5.60257 43.4888 5.73057 43.0035 5.98657 42.5715C6.24257 42.1341 6.59457 41.7928 7.04257 41.5475C7.49057 41.3021 7.99724 41.1795 8.56257 41.1795C8.98924 41.1795 9.38124 41.2488 9.73857 41.3875C10.0959 41.5208 10.3972 41.7208 10.6426 41.9875L10.2746 42.3635C9.8319 41.9261 9.26924 41.7075 8.58657 41.7075C8.13324 41.7075 7.72257 41.8088 7.35457 42.0115C6.9919 42.2088 6.70657 42.4861 6.49857 42.8435C6.29057 43.1955 6.18657 43.5901 6.18657 44.0275C6.18657 44.4648 6.29057 44.8595 6.49857 45.2115C6.70657 45.5635 6.9919 45.8408 7.35457 46.0435C7.71724 46.2461 8.12524 46.3475 8.57857 46.3475C9.15457 46.3475 9.64257 46.2035 10.0426 45.9155V44.0275ZM12.1661 42.6195H12.7341V46.8275H12.1661V42.6195ZM12.4541 41.6995C12.3367 41.6995 12.2381 41.6595 12.1581 41.5795C12.0781 41.4995 12.0381 41.4035 12.0381 41.2915C12.0381 41.1848 12.0781 41.0915 12.1581 41.0115C12.2381 40.9315 12.3367 40.8915 12.4541 40.8915C12.5714 40.8915 12.6701 40.9315 12.7501 41.0115C12.8301 41.0861 12.8701 41.1768 12.8701 41.2835C12.8701 41.4008 12.8301 41.4995 12.7501 41.5795C12.6701 41.6595 12.5714 41.6995 12.4541 41.6995ZM15.7065 41.3315C15.4612 41.3315 15.2745 41.3981 15.1465 41.5315C15.0238 41.6648 14.9625 41.8621 14.9625 42.1235V42.6195H16.2585V43.0995H14.9785V46.8275H14.4105V43.0995H13.6585V42.6195H14.4105V42.0995C14.4105 41.7155 14.5198 41.4115 14.7385 41.1875C14.9625 40.9635 15.2772 40.8515 15.6825 40.8515C15.8425 40.8515 15.9972 40.8755 16.1465 40.9235C16.2958 40.9661 16.4212 41.0301 16.5225 41.1155L16.3305 41.5395C16.1652 41.4008 15.9572 41.3315 15.7065 41.3315ZM19.2414 46.5715C19.1348 46.6675 19.0014 46.7421 18.8414 46.7955C18.6868 46.8435 18.5241 46.8675 18.3534 46.8675C17.9588 46.8675 17.6548 46.7608 17.4414 46.5475C17.2281 46.3341 17.1214 46.0328 17.1214 45.6435V43.0995H16.3694V42.6195H17.1214V41.6995H17.6894V42.6195H18.9694V43.0995H17.6894V45.6115C17.6894 45.8621 17.7508 46.0541 17.8734 46.1875C18.0014 46.3155 18.1828 46.3795 18.4174 46.3795C18.5348 46.3795 18.6468 46.3608 18.7534 46.3235C18.8654 46.2861 18.9614 46.2328 19.0414 46.1635L19.2414 46.5715ZM30.1772 41.2275L28.2892 46.8275H27.6652L26.0252 42.0515L24.3772 46.8275H23.7612L21.8732 41.2275H22.4812L24.0972 46.0435L25.7692 41.2275H26.3212L27.9692 46.0675L29.6092 41.2275H30.1772ZM31.1192 42.6195H31.6872V46.8275H31.1192V42.6195ZM31.4072 41.6995C31.2899 41.6995 31.1912 41.6595 31.1112 41.5795C31.0312 41.4995 30.9912 41.4035 30.9912 41.2915C30.9912 41.1848 31.0312 41.0915 31.1112 41.0115C31.1912 40.9315 31.2899 40.8915 31.4072 40.8915C31.5245 40.8915 31.6232 40.9315 31.7032 41.0115C31.7832 41.0861 31.8232 41.1768 31.8232 41.2835C31.8232 41.4008 31.7832 41.4995 31.7032 41.5795C31.6232 41.6595 31.5245 41.6995 31.4072 41.6995ZM34.3956 46.8675C34.0543 46.8675 33.7263 46.8195 33.4116 46.7235C33.1023 46.6221 32.8596 46.4968 32.6836 46.3475L32.9396 45.8995C33.1156 46.0381 33.337 46.1528 33.6036 46.2435C33.8703 46.3288 34.1476 46.3715 34.4356 46.3715C34.8196 46.3715 35.1023 46.3128 35.2836 46.1955C35.4703 46.0728 35.5636 45.9021 35.5636 45.6835C35.5636 45.5288 35.513 45.4088 35.4116 45.3235C35.3103 45.2328 35.1823 45.1661 35.0276 45.1235C34.873 45.0755 34.6676 45.0301 34.4116 44.9875C34.0703 44.9235 33.7956 44.8595 33.5876 44.7955C33.3796 44.7261 33.201 44.6115 33.0516 44.4515C32.9076 44.2915 32.8356 44.0701 32.8356 43.7875C32.8356 43.4355 32.9823 43.1475 33.2756 42.9235C33.569 42.6995 33.977 42.5875 34.4996 42.5875C34.7716 42.5875 35.0436 42.6248 35.3156 42.6995C35.5876 42.7688 35.8116 42.8621 35.9876 42.9795L35.7396 43.4355C35.393 43.1955 34.9796 43.0755 34.4996 43.0755C34.137 43.0755 33.8623 43.1395 33.6756 43.2675C33.4943 43.3955 33.4036 43.5635 33.4036 43.7715C33.4036 43.9315 33.4543 44.0595 33.5556 44.1555C33.6623 44.2515 33.793 44.3235 33.9476 44.3715C34.1023 44.4141 34.3156 44.4595 34.5876 44.5075C34.9236 44.5715 35.193 44.6355 35.3956 44.6995C35.5983 44.7635 35.7716 44.8728 35.9156 45.0275C36.0596 45.1821 36.1316 45.3955 36.1316 45.6675C36.1316 46.0355 35.977 46.3288 35.6676 46.5475C35.3636 46.7608 34.9396 46.8675 34.3956 46.8675ZM40.9737 42.6195V46.8275H40.4297V46.0595C40.2804 46.3155 40.075 46.5155 39.8137 46.6595C39.5524 46.7981 39.2537 46.8675 38.9177 46.8675C38.3684 46.8675 37.9337 46.7155 37.6137 46.4115C37.299 46.1021 37.1417 45.6515 37.1417 45.0595V42.6195H37.7097V45.0035C37.7097 45.4461 37.819 45.7821 38.0377 46.0115C38.2564 46.2408 38.5684 46.3555 38.9737 46.3555C39.4164 46.3555 39.7657 46.2221 40.0217 45.9555C40.2777 45.6835 40.4057 45.3075 40.4057 44.8275V42.6195H40.9737ZM46.4045 40.8915V46.8275H45.8605V45.9955C45.6898 46.2781 45.4632 46.4941 45.1805 46.6435C44.9032 46.7928 44.5885 46.8675 44.2365 46.8675C43.8418 46.8675 43.4845 46.7768 43.1645 46.5955C42.8445 46.4141 42.5938 46.1608 42.4125 45.8355C42.2312 45.5101 42.1405 45.1395 42.1405 44.7235C42.1405 44.3075 42.2312 43.9368 42.4125 43.6115C42.5938 43.2861 42.8445 43.0355 43.1645 42.8595C43.4845 42.6781 43.8418 42.5875 44.2365 42.5875C44.5778 42.5875 44.8845 42.6595 45.1565 42.8035C45.4338 42.9421 45.6605 43.1475 45.8365 43.4195V40.8915H46.4045ZM44.2845 46.3635C44.5778 46.3635 44.8418 46.2968 45.0765 46.1635C45.3165 46.0248 45.5032 45.8301 45.6365 45.5795C45.7752 45.3288 45.8445 45.0435 45.8445 44.7235C45.8445 44.4035 45.7752 44.1181 45.6365 43.8675C45.5032 43.6168 45.3165 43.4248 45.0765 43.2915C44.8418 43.1528 44.5778 43.0835 44.2845 43.0835C43.9858 43.0835 43.7165 43.1528 43.4765 43.2915C43.2418 43.4248 43.0552 43.6168 42.9165 43.8675C42.7832 44.1181 42.7165 44.4035 42.7165 44.7235C42.7165 45.0435 42.7832 45.3288 42.9165 45.5795C43.0552 45.8301 43.2418 46.0248 43.4765 46.1635C43.7165 46.2968 43.9858 46.3635 44.2845 46.3635ZM49.4584 42.5875C50.0077 42.5875 50.429 42.7261 50.7224 43.0035C51.0157 43.2755 51.1624 43.6808 51.1624 44.2195V46.8275H50.6184V46.1715C50.4904 46.3901 50.301 46.5608 50.0504 46.6835C49.805 46.8061 49.5117 46.8675 49.1704 46.8675C48.701 46.8675 48.3277 46.7555 48.0504 46.5315C47.773 46.3075 47.6344 46.0115 47.6344 45.6435C47.6344 45.2861 47.7624 44.9981 48.0184 44.7795C48.2797 44.5608 48.693 44.4515 49.2584 44.4515H50.5944V44.1955C50.5944 43.8328 50.493 43.5581 50.2904 43.3715C50.0877 43.1795 49.7917 43.0835 49.4024 43.0835C49.1357 43.0835 48.8797 43.1288 48.6344 43.2195C48.389 43.3048 48.1784 43.4248 48.0024 43.5795L47.7464 43.1555C47.9597 42.9741 48.2157 42.8355 48.5144 42.7395C48.813 42.6381 49.1277 42.5875 49.4584 42.5875ZM49.2584 46.4195C49.5784 46.4195 49.853 46.3475 50.0824 46.2035C50.3117 46.0541 50.4824 45.8408 50.5944 45.5635V44.8755H49.2744C48.5544 44.8755 48.1944 45.1261 48.1944 45.6275C48.1944 45.8728 48.2877 46.0675 48.4744 46.2115C48.661 46.3501 48.9224 46.4195 49.2584 46.4195Z" fill="#0895CA"/>
</svg>
