<svg width="100" height="100" viewBox="0 0 100 100" fill="none" xmlns="http://www.w3.org/2000/svg">
<path d="M28.3844 35.9451C28.2121 35.4146 27.7537 35.0281 27.2018 34.948L22.0918 34.206L19.8069 29.5794C19.2793 28.5113 17.7076 28.5113 17.1801 29.5794L14.8953 34.206L9.78519 34.948C8.6053 35.1193 8.12015 36.6152 8.97366 37.447L12.6707 41.048L11.7981 46.1322C11.5961 47.3072 12.8733 48.2283 13.9231 47.6767L18.4936 45.2753L23.0641 47.6767C24.119 48.2308 25.3909 47.3066 25.1891 46.1322L24.3166 41.048L28.0135 37.4468C28.4129 37.0576 28.5569 36.4755 28.3844 35.9451ZM21.7203 39.4869C21.3748 39.8234 21.2172 40.3083 21.2989 40.7839L21.7996 43.7029L19.1748 42.3238C18.7205 42.0997 18.2664 42.0997 17.8121 42.3238L15.1873 43.7029L15.6883 40.7839C15.77 40.3085 15.6121 39.8234 15.2668 39.4867L13.1453 37.4205L16.0784 36.9945C16.5553 36.9253 16.9678 36.6257 17.1811 36.1935L18.4936 33.5359L19.8063 36.1935C20.0198 36.6257 20.4321 36.9251 20.909 36.9945L23.8418 37.4205L21.7203 39.4869Z" fill="#0094F4"/>
<path d="M93.9154 31.9047H69.8217C66.4664 31.9047 63.7369 34.6344 63.7369 37.9893V38.9656H36.9871V31.2662H41.185L47.7523 37.2947C48.693 38.158 50.2076 37.4541 50.2076 36.2156V31.2662H52.8521C56.2242 31.2662 58.9676 28.5229 58.9676 25.151V6.11523C58.9676 2.74336 56.2242 0 52.8521 0H28.5994C25.2273 0 22.484 2.74336 22.484 6.11523V22.7355H6.18496C2.77461 22.7354 0 25.51 0 28.9205V32.5277C0 34.4217 2.92969 34.4217 2.92969 32.5277V28.9205C2.92969 27.1256 4.39004 25.665 6.18496 25.665H22.5055C22.7674 28.7973 25.4004 31.2662 28.5992 31.2662H34.0572V48.242C34.0572 50.0369 32.5967 51.4975 30.8018 51.4975H26.7449C25.9357 51.4975 25.2801 52.1531 25.2801 52.9623V56.1396L20.643 51.8832C20.3729 51.6352 20.0193 51.4975 19.6525 51.4975H6.18496C4.39004 51.4975 2.92969 50.0369 2.92969 48.242V40.565C2.92969 38.6711 0 38.6711 0 40.565V48.242C0 51.6525 2.77461 54.4271 6.18496 54.4271H14.5713V80.5984C14.5713 84.2801 17.5664 87.2752 21.248 87.2752H42.2037L39.8865 97.0703H35.4066C34.5975 97.0703 33.9418 97.726 33.9418 98.5352C33.9418 99.3443 34.5975 100 35.4066 100H64.5934C65.4025 100 66.0582 99.3443 66.0582 98.5352C66.0582 97.726 65.4025 97.0703 64.5934 97.0703H60.1135L57.7965 87.2752H67.46C69.3539 87.2752 69.3539 84.3455 67.46 84.3455H21.2479C19.1818 84.3455 17.5008 82.6646 17.5008 80.5984V76.3246H82.499V80.5984C82.499 82.6645 80.8182 84.3455 78.752 84.3455H75.2623C73.3684 84.3455 73.3684 87.2752 75.2623 87.2752H78.752C82.4336 87.2752 85.4287 84.2801 85.4287 80.5984V62.9848H93.9152C97.2703 62.9848 99.9998 60.2551 99.9998 56.9002V37.9893C100 34.6342 97.2703 31.9047 93.9154 31.9047ZM25.4137 25.151V6.11523C25.4137 4.35879 26.8426 2.92969 28.5994 2.92969H52.8523C54.6088 2.92969 56.0381 4.35859 56.0381 6.11523V25.1512C56.0381 26.9076 54.609 28.3367 52.8523 28.3367H48.743C47.9338 28.3367 47.2781 28.9924 47.2781 29.8016V32.8826L42.7459 28.7223C42.4758 28.4742 42.1223 28.3365 41.7555 28.3365H28.5996C26.8428 28.3365 25.4137 26.9076 25.4137 25.151ZM54.7859 87.2752L57.1027 97.0703H42.8973L45.2141 87.2752H54.7859ZM82.4992 73.3949H17.5008V54.4271H19.0824L25.7547 60.5518C26.6951 61.4154 28.21 60.7107 28.21 59.4727V54.4271H30.802C34.2125 54.4271 36.9871 51.6525 36.9871 48.242V41.8953H63.7369V56.9002C63.7369 60.2553 66.4666 62.9848 69.8217 62.9848H72.3273V67.8918C72.3273 69.1305 73.842 69.8342 74.7826 68.9709L81.3041 62.9848H82.499V73.3949H82.4992ZM97.0703 56.9002C97.0703 58.6398 95.6551 60.0551 93.9154 60.0551H80.734C80.3672 60.0551 80.0137 60.1928 79.7436 60.4408L75.2572 64.5588V61.5199C75.2572 60.7107 74.6016 60.0551 73.7924 60.0551H69.8219C68.0822 60.0551 66.6668 58.6398 66.6668 56.9002V37.9893C66.6668 36.2496 68.0822 34.8344 69.8219 34.8344H93.9154C95.6551 34.8344 97.0703 36.2496 97.0703 37.9893V56.9002Z" fill="#0094F4"/>
<path d="M88.7428 39.9585C86.6381 38.6251 83.7352 38.9438 81.8684 40.5501C80.0025 38.9448 77.0924 38.6188 74.9899 39.961C72.4676 41.5713 71.9197 44.8069 72.4779 47.1313C73.7414 52.3917 78.5227 55.2723 81.2606 56.521C81.6658 56.6971 82.0711 56.6971 82.4764 56.521C85.2143 55.2721 89.9955 52.3915 91.2592 47.1313C91.8189 44.7997 91.2705 41.5602 88.7428 39.9585ZM88.4102 46.4473C87.5195 50.1549 84.1588 52.4198 81.8684 53.5651C79.5777 52.4198 76.217 50.1549 75.3268 46.4475C74.993 45.0579 75.3117 43.2317 76.5666 42.4305C77.9252 41.5633 79.8336 42.1772 80.5865 43.5387C81.1338 44.5294 82.6029 44.5296 83.1504 43.5389C83.9092 42.1667 85.824 41.5768 87.1746 42.4333C88.4279 43.2274 88.7449 45.0538 88.4102 46.4473Z" fill="#0094F4"/>
<path d="M43.304 25.0041C44.3956 25.0023 45.4872 25.0015 46.5788 25.0039C47.8661 25.0039 48.9872 24.134 49.3038 22.897C49.3048 22.8929 49.31 22.8732 49.311 22.8691L51.3897 14.7506C51.7374 13.0127 50.5694 11.2094 48.6665 11.2094C47.1837 11.2137 45.7009 11.2138 44.218 11.2146V7.90447C44.218 5.25116 40.3757 4.23651 39.1825 6.67791L36.8805 11.3847C34.1243 9.11033 29.8475 11.1199 29.8637 14.7267V21.2777C29.8842 25.366 35.0417 27.1134 37.546 23.9457C38.5169 24.634 39.6796 25.0068 40.886 25.0068C41.7278 25.0066 42.535 25.0052 43.304 25.0041ZM34.1686 22.6533C33.41 22.6533 32.7928 22.0361 32.7928 21.2775V14.7265C32.8567 12.907 35.4797 12.9051 35.5444 14.7265C35.502 16.9086 35.5176 19.0953 35.5444 21.2775C35.5444 22.0361 34.9272 22.6533 34.1686 22.6533ZM38.4741 20.3939V14.9777C38.496 14.8119 38.5446 14.6494 38.6178 14.4996L41.288 9.04021V12.6803C41.288 13.4894 41.9436 14.1451 42.7528 14.1451C44.6757 14.1451 46.5987 14.1461 48.5216 14.1398L46.4903 22.074C44.6221 22.0681 42.7538 22.0773 40.8856 22.0773C39.945 22.0769 38.6171 21.4656 38.4741 20.3939Z" fill="#0094F4"/>
</svg>
