<svg width="100" height="100" viewBox="0 0 100 100" fill="none" xmlns="http://www.w3.org/2000/svg">
<g clip-path="url(#clip0)">
<path d="M95.103 82.0662H93.853V48.2365C93.853 47.4275 93.1971 46.7716 92.3881 46.7716C91.579 46.7716 90.9231 47.4275 90.9231 48.2365V82.094H79.0202V36.3012H90.9231V40.433C90.9231 41.2421 91.579 41.898 92.3881 41.898C93.1971 41.898 93.853 41.2421 93.853 40.433V34.8363C93.853 34.0273 93.1971 33.3714 92.3881 33.3714H77.5553C76.7463 33.3714 76.0904 34.0273 76.0904 34.8363V47.4084H62.7226C61.9136 47.4084 61.2577 48.0643 61.2577 48.8733V59.1257H49.3548V48.7285L83.7638 14.3191V18.0047C83.7638 18.8137 84.4197 19.4696 85.2287 19.4696C86.0378 19.4696 86.6936 18.8137 86.6936 18.0047V10.7846C86.6944 9.98787 86.0321 9.31772 85.2287 9.31772H78.3989C77.5899 9.31772 76.934 9.97361 76.934 10.7826C76.934 11.5917 77.5899 12.2475 78.3989 12.2475H81.6922L49.3546 44.5852V37.3249C49.3546 34.6002 48.3678 31.9639 46.5758 29.9017L37.2251 19.1408C43.5588 12.2317 46.6357 7.29478 46.6207 4.0749C46.6088 1.52048 44.376 -0.249328 41.8792 0.0284197C36.0663 0.675716 27.559 11.4454 25.3425 14.3773H21.5078C18.185 14.3773 15.0337 15.8108 12.8615 18.3105L2.78933 29.9017C0.997451 31.9639 0.0104904 34.6002 0.0104904 37.3249V77.159C0.0104904 79.053 2.94032 79.053 2.94032 77.159V37.3249C2.94032 35.3062 3.67219 33.3524 5.00076 31.8235L15.0727 20.2323C16.6882 18.3734 19.0335 17.3072 21.5076 17.3072H27.8573C29.8138 17.3072 31.6899 17.9742 33.188 19.1725C31.6667 20.7726 30.0969 22.349 28.5655 23.8309C24.1265 20.7231 17.808 23.9741 17.8393 29.4323C17.8393 33.185 20.9089 36.2383 24.6822 36.2383C29.9291 36.2895 33.2908 30.3914 30.5611 25.9521C31.9792 24.5813 33.5851 22.9869 35.2106 21.2896L44.3639 31.8233C45.6925 33.3522 46.4244 35.306 46.4244 37.3247V88.6433C46.4244 93.2898 42.6135 97.0699 37.9291 97.0699H11.4354C6.75124 97.0699 2.94032 93.2896 2.94032 88.6433V84.9517C2.94032 83.0577 0.0104904 83.0577 0.0104904 84.9517V88.6433C0.0104904 94.9053 5.13573 99.9997 11.4354 99.9997H37.9295C43.0945 99.9997 47.4701 96.5751 48.8788 91.8903H95.103C101.616 91.6226 101.621 82.3364 95.103 82.0662ZM28.5958 29.4323C28.3814 34.5744 20.983 34.573 20.7693 29.4323C20.7187 26.6326 23.8532 24.6927 26.357 25.9294C25.4365 26.7877 24.5474 27.5953 23.7114 28.3356C22.2817 29.6013 24.2534 31.769 25.6533 30.5293C25.6765 30.5087 26.7291 29.5749 28.3433 28.0627C28.5066 28.4887 28.5958 28.9505 28.5958 29.4323ZM29.0074 14.435C32.9812 9.47437 38.9055 3.30767 42.2035 2.94047C46.9889 2.89535 39.2108 12.7409 35.1881 17.023C33.439 15.5678 31.2875 14.6637 29.0074 14.435ZM64.1873 50.3382H76.0902V82.094H64.1873V50.3382ZM61.2575 62.0555V82.0938H49.3546V62.0555H61.2575ZM95.103 88.9607H49.3501C49.3864 87.6503 49.3546 86.3344 49.3546 85.0236C64.6036 85.0236 79.8566 84.9959 95.1032 84.9959C97.7291 85.1031 97.7356 88.8507 95.103 88.9607Z" fill="#0094F4"/>
<path d="M15.7889 84.9837V46.4069C15.7217 44.4671 12.9257 44.4687 12.8591 46.4069V84.9837C12.9262 86.9234 15.7223 86.9218 15.7889 84.9837Z" fill="#0094F4"/>
<path d="M26.1473 84.9837V46.4069C26.0802 44.4671 23.2841 44.4687 23.2175 46.4069V84.9837C23.2847 86.9234 26.0807 86.9218 26.1473 84.9837Z" fill="#0094F4"/>
<path d="M36.5061 84.9839V63.4205C36.4389 61.4808 33.6429 61.4824 33.5763 63.4205V84.9839C33.6435 86.9236 36.4395 86.922 36.5061 84.9839Z" fill="#0094F4"/>
</g>
<defs>
<clipPath id="clip0">
<rect width="100" height="100" fill="white"/>
</clipPath>
</defs>
</svg>
