<svg width="100" height="100" viewBox="0 0 100 100" fill="none" xmlns="http://www.w3.org/2000/svg">
<g clip-path="url(#clip0)">
<path d="M85.8816 49.0262C85.9952 48.454 87.392 47.4168 88.3165 46.7305C93.2797 43.3216 93.2727 40.499 88.3165 37.0946C87.3922 36.4084 85.9952 35.3713 85.8816 34.7989C85.7574 34.1744 86.6364 32.7011 87.2783 31.6254C90.5239 26.617 89.3879 24.1108 83.598 22.8791C82.4668 22.5963 80.7576 22.1688 80.4199 21.6655C80.0752 21.1517 80.3313 19.3987 80.5004 18.2389C81.5722 12.3882 79.6214 10.4569 73.7807 11.5238C72.6187 11.6931 70.8632 11.9486 70.3478 11.6037C69.8441 11.2664 69.4162 9.55954 69.133 8.43015C68.5848 6.24323 68.0181 3.9819 66.1349 3.19994C64.2825 2.43087 62.2987 3.61104 60.3809 4.75293C59.303 5.39447 57.826 6.27174 57.2011 6.14871C56.6273 6.03485 55.5887 4.63927 54.9019 3.71572C51.4895 -1.24147 48.668 -1.23502 45.2599 3.71572C44.5729 4.63907 43.5345 6.03465 42.9605 6.14851C42.3354 6.27174 40.8584 5.39428 39.7807 4.75273C37.8631 3.61084 35.8801 2.43048 34.0268 3.19975C32.1435 3.98171 31.5768 6.24303 31.0286 8.43015C30.7456 9.55954 30.3177 11.2664 29.814 11.6037C29.2985 11.9488 27.5428 11.6931 26.3809 11.5238C20.5326 10.4554 18.5916 12.3952 19.6612 18.2387C19.8303 19.3985 20.0864 21.1517 19.7415 21.6655C19.4038 22.1688 17.6946 22.5963 16.5636 22.8791C10.7659 24.1128 9.64179 26.6229 12.8835 31.6256C13.5252 32.7015 14.4043 34.1746 14.2802 34.7991C14.1664 35.3715 12.7696 36.4086 11.8453 37.0948C6.88207 40.5035 6.88871 43.3263 11.8453 46.7309C12.7696 47.4172 14.1666 48.4542 14.2802 49.0266C14.4043 49.651 13.5252 51.1243 12.8835 52.1999C9.63788 57.2087 10.7733 59.7145 16.5636 60.9464C17.6946 61.2292 19.4038 61.6567 19.7415 62.1602C20.0862 62.6738 19.8303 64.4268 19.661 65.5869C19.337 67.8062 19.0021 70.1011 20.4334 71.5309C21.4562 72.5525 22.9215 72.6726 24.4854 72.54L17.4841 90.1915C17.2626 91.5682 17.8481 92.2183 19.2404 92.1422L30.9854 88.8549L37.2772 99.2923C37.8905 100.309 39.4376 100.225 39.8932 99.0761L46.6952 81.9274C48.9401 84.5571 51.4817 84.3801 53.6379 81.731L60.5176 99.0761C60.973 100.225 62.5205 100.309 63.1336 99.2923L69.4256 88.8549L81.1708 92.1422C82.5631 92.2183 83.1484 91.5682 82.9271 90.1915L75.9334 72.5595C80.7072 72.9067 81.2576 69.717 80.5002 65.5869C80.3311 64.427 80.0751 62.6738 80.4197 62.1602C80.7574 61.6569 82.4666 61.2294 83.5978 60.9466C85.7865 60.3992 88.0499 59.8331 88.8329 57.9518C89.6039 56.0986 88.4218 54.1168 87.2781 52.2003C86.6364 51.1241 85.7574 49.6508 85.8816 49.0262ZM38.2602 95.2481L32.9188 86.3876C32.5786 85.8234 31.9041 85.5556 31.2696 85.7331L21.2968 88.5243L27.8056 72.1146C28.662 72.0256 29.4873 72.0029 29.8142 72.2216C30.3179 72.5589 30.7458 74.2658 31.0288 75.3952C31.5768 77.5821 32.1435 79.8434 34.0268 80.6254C35.8801 81.3947 37.8631 80.2141 39.7807 79.0724C40.8584 78.4309 42.3358 77.5522 42.9605 77.6768C43.371 77.7583 44.0194 78.4957 44.6069 79.247L38.2602 95.2481ZM69.1416 85.7331C68.5063 85.5556 67.8324 85.8234 67.4926 86.3876L62.151 95.2483L55.7211 79.0372C56.2615 78.3637 56.829 77.7508 57.2013 77.6772C57.8286 77.5509 59.3038 78.4314 60.3811 79.0728C62.2987 80.2147 64.2827 81.3954 66.1351 80.6258C68.0183 79.8438 68.5848 77.5825 69.133 75.3956C69.4162 74.266 69.8441 72.5591 70.3478 72.222C70.7077 71.981 71.6725 72.0332 72.6173 72.1441L79.1146 88.5247L69.1416 85.7331ZM86.1282 56.8259C85.9111 57.3481 83.9438 57.8401 82.8871 58.1043C80.9531 58.5881 78.9531 59.0882 77.9873 60.5277C77.0134 61.9794 77.3124 64.0282 77.6014 66.0097C77.7575 67.0785 78.0479 69.0682 77.6575 69.458C77.2663 69.8488 75.2735 69.5588 74.2027 69.4025C74.0963 69.3871 73.9894 69.3715 73.8828 69.3561C73.8738 69.3547 73.8648 69.3535 73.8559 69.3522C71.9832 69.0832 70.0853 68.8717 68.7176 69.7873C67.2764 70.7522 66.7756 72.7505 66.2913 74.6829C66.0269 75.7383 65.5345 77.7026 65.0115 77.9198C64.5159 78.1266 62.801 77.1038 61.8794 76.5552C60.1497 75.5254 58.3613 74.4605 56.6312 74.803C54.9505 75.1364 53.7307 76.7755 52.5513 78.3607C51.8486 79.3052 50.6726 80.8859 50.0808 80.8859C49.4889 80.8859 48.3128 79.3052 47.6101 78.3605C46.4307 76.7755 45.2111 75.1364 43.5304 74.803C41.6556 74.4318 39.8034 75.6495 38.282 76.5552C37.3604 77.104 35.6446 78.1258 35.1499 77.9198C34.6269 77.7026 34.1346 75.7383 33.8701 74.6829C33.3858 72.7505 32.8851 70.7522 31.4438 69.7873C29.9918 68.8149 27.9413 69.1137 25.9585 69.4024C24.8877 69.5584 22.8949 69.8486 22.5037 69.4578C22.1133 69.0678 22.4038 67.0783 22.5598 66.0095C22.849 64.0278 23.148 61.9788 22.1741 60.5273C21.2083 59.0878 19.2083 58.5877 17.2743 58.1039C16.2176 57.8395 14.2506 57.3475 14.0332 56.8255C13.8283 56.333 14.8501 54.6202 15.3991 53.7002C16.4306 51.9715 17.4972 50.1839 17.1534 48.4548C16.8195 46.7746 15.1786 45.5564 13.5914 44.3782C12.6462 43.6763 11.0641 42.5018 11.0641 41.9122C11.0641 41.3226 12.6462 40.1481 13.5914 39.4462C17.904 36.4254 18.1748 34.5378 15.3991 30.1239C14.8501 29.2039 13.8283 27.4914 14.0332 26.9988C14.2506 26.4766 16.2176 25.9847 17.2743 25.7204C22.3936 24.5903 23.4525 22.964 22.5598 17.8149C22.4039 16.746 22.1135 14.7565 22.5037 14.3665C22.8949 13.976 24.8879 14.2662 25.9587 14.422C31.1299 15.3073 32.7255 14.2677 33.8701 9.14161C34.1348 8.08643 34.6269 6.12176 35.1499 5.90478C35.645 5.69855 37.3602 6.72053 38.2818 7.26931C40.012 8.2993 41.8017 9.36464 43.5302 9.0215C45.2109 8.68813 46.4305 7.04902 47.6099 5.464C48.3126 4.51955 49.4889 2.93863 50.0806 2.93863C50.6724 2.93863 51.8486 4.51936 52.5511 5.4638C53.7305 7.04902 54.9501 8.68813 56.631 9.0215C58.3604 9.36464 60.1495 8.29949 61.8792 7.26951C62.801 6.72073 64.5155 5.69894 65.0113 5.90498C65.5345 6.12215 66.0267 8.08662 66.2913 9.142C66.7756 11.0744 67.2766 13.0725 68.7176 14.0375C70.1701 15.0098 72.2203 14.711 74.2027 14.4224C75.2735 14.2664 77.2667 13.9761 77.6575 14.3669C78.0479 14.7569 77.7575 16.7464 77.6014 17.8153C77.3124 19.7967 77.0132 21.8458 77.9873 23.2972C78.9531 24.7367 80.9531 25.2369 82.8871 25.7206C83.9438 25.9851 85.9109 26.477 86.1282 26.9988C86.3333 27.4914 85.3113 29.2041 84.7625 30.1239C81.9841 34.5406 82.2616 36.4281 86.57 39.4462C87.5154 40.1479 89.0973 41.3226 89.0973 41.912C89.0973 42.5014 87.5152 43.6761 86.5702 44.3778C84.983 45.556 83.3421 46.7744 83.0082 48.4546C82.6645 50.1837 83.731 51.9715 84.7623 53.7002C85.3115 54.6208 86.3331 56.3334 86.1282 56.8259Z" fill="#0094F4"/>
<path d="M50.0808 11.8752C43.3722 11.8752 37.0245 14.0358 31.7236 18.1237C30.224 19.2801 32.0131 21.6004 33.5125 20.4434C51.0942 6.71632 77.3249 19.5927 77.2187 41.9128C77.2189 56.86 65.0447 69.0206 50.0806 69.0206C27.9759 69.2071 14.9312 43.1664 28.3733 25.6422C29.5121 24.129 27.1711 22.3675 26.0327 23.8808C11.1376 43.3 25.5875 72.158 50.0812 71.9496C89.9679 70.3008 89.9597 13.52 50.0808 11.8752Z" fill="#0094F4"/>
<path d="M60.9234 48.0793C59.67 49.4991 61.867 51.438 63.1197 50.0176C67.6952 44.8329 67.6503 40.3085 67.6146 39.6267C67.5765 30.4744 56.1303 26.1879 50.081 33C44.0305 26.1867 32.5876 30.4769 32.5474 39.6222C32.486 40.696 32.3794 50.8996 49.4777 58.6293C49.88 58.8028 50.2821 58.8028 50.6844 58.6293C52.9671 57.5974 55.0651 56.462 56.92 55.2544C58.5072 54.2213 56.9091 51.7661 55.3217 52.7994C53.7549 53.8194 51.9943 54.7879 50.0814 55.6825C44.2208 53.1455 35.4981 46.8042 35.4711 39.7999C35.4469 32.418 45.1404 29.8211 48.802 36.2235C49.6548 37.2252 50.5075 37.2252 51.3604 36.2235C57.0835 27.1686 71.4521 36.2606 60.9234 48.0793Z" fill="#0094F4"/>
<path d="M42.1202 3.8369C44.0052 3.8369 44.0083 0.907471 42.1202 0.907471C40.2354 0.907471 40.2323 3.8369 42.1202 3.8369Z" fill="#0094F4"/>
<path d="M27.5303 9.48485C29.4153 9.48485 29.4184 6.55542 27.5303 6.55542C25.6453 6.55542 25.6422 9.48485 27.5303 9.48485Z" fill="#0094F4"/>
<path d="M15.8535 20.677C17.7384 20.677 17.7416 17.7476 15.8535 17.7476C13.9685 17.7476 13.9653 20.677 15.8535 20.677Z" fill="#0094F4"/>
<path d="M9.37835 35.1965C11.2633 35.1965 11.2665 32.2671 9.37835 32.2671C7.49336 32.2671 7.49024 35.1965 9.37835 35.1965Z" fill="#0094F4"/>
<path d="M57.7405 3.8369C59.6254 3.8369 59.6286 0.907471 57.7405 0.907471C55.8557 0.907471 55.8525 3.8369 57.7405 3.8369Z" fill="#0094F4"/>
<path d="M72.3305 9.48485C74.2155 9.48485 74.2186 6.55542 72.3305 6.55542C70.4455 6.55542 70.4424 9.48485 72.3305 9.48485Z" fill="#0094F4"/>
<path d="M84.0073 20.677C85.8923 20.677 85.8954 17.7476 84.0073 17.7476C82.1223 17.7476 82.1192 20.677 84.0073 20.677Z" fill="#0094F4"/>
<path d="M90.4827 35.1965C92.3677 35.1965 92.3708 32.2671 90.4827 32.2671C88.5977 32.2671 88.5946 35.1965 90.4827 35.1965Z" fill="#0094F4"/>
<path d="M84.0073 63.2771C82.1223 63.2771 82.1192 66.2065 84.0073 66.2065C85.8921 66.2065 85.8952 63.2771 84.0073 63.2771Z" fill="#0094F4"/>
<path d="M90.4827 48.7573C88.5977 48.7573 88.5946 51.6868 90.4827 51.6868C92.3677 51.6868 92.3708 48.7573 90.4827 48.7573Z" fill="#0094F4"/>
<path d="M15.8535 63.2771C13.9685 63.2771 13.9653 66.2065 15.8535 66.2065C17.7384 66.2065 17.7416 63.2771 15.8535 63.2771Z" fill="#0094F4"/>
<path d="M9.37835 48.7573C7.49336 48.7573 7.49024 51.6868 9.37835 51.6868C11.2633 51.6868 11.2665 48.7573 9.37835 48.7573Z" fill="#0094F4"/>
</g>
<defs>
<clipPath id="clip0">
<rect width="100" height="100" fill="white"/>
</clipPath>
</defs>
</svg>
