<svg width="100" height="100" viewBox="0 0 100 100" fill="none" xmlns="http://www.w3.org/2000/svg">
<path d="M43.1136 90.3411C41.174 90.4083 41.1755 93.2043 43.1136 93.2708H56.2836C58.2232 93.2036 58.2216 90.4075 56.2836 90.3411H43.1136Z" fill="#0094F4"/>
<path d="M19.1821 52.4724C16.7846 52.4724 14.834 54.423 14.834 56.8206C15.0729 62.5892 23.2922 62.5874 23.5303 56.8206C23.5303 54.423 21.5797 52.4724 19.1821 52.4724ZM19.1821 58.2392C18.4001 58.2392 17.7637 57.6029 17.7637 56.8206C17.8303 54.9431 20.5344 54.9437 20.6006 56.8206C20.6006 57.6029 19.9643 58.2392 19.1821 58.2392Z" fill="#0094F4"/>
<path d="M34.0642 56.8207C34.0642 54.4232 32.1136 52.4724 29.7161 52.4724C23.9478 52.7113 23.9494 60.9308 29.7161 61.1687C32.1138 61.1689 34.0642 59.2181 34.0642 56.8207ZM28.2978 56.8207C28.2978 56.0384 28.9341 55.4021 29.7163 55.4021C31.5937 55.4687 31.5931 58.1728 29.7163 58.239C28.9339 58.2392 28.2978 57.6029 28.2978 56.8207Z" fill="#0094F4"/>
<path d="M40.25 61.1688C42.6474 61.1688 44.598 59.2183 44.598 56.8206C44.3592 51.0521 36.1398 51.0538 35.9017 56.8206C35.9017 59.2181 37.8523 61.1688 40.25 61.1688ZM40.25 55.4021C41.032 55.4021 41.6683 56.0384 41.6683 56.8206C41.6017 58.6981 38.8976 58.6976 38.8314 56.8206C38.8314 56.0384 39.4677 55.4021 40.25 55.4021Z" fill="#0094F4"/>
<path d="M85.2949 16.3152H79.3139V7.4957C79.3139 3.3625 75.9514 0 71.8182 0H27.5787C23.4455 0 20.0832 3.3625 20.0832 7.4957V17.7801C20.0832 19.674 23.0129 19.674 23.0129 17.7801V12.0047H76.3844V16.3152H52.7172C48.465 16.3152 45.0059 19.7746 45.0059 24.0266V38.8426C39.1807 33.6693 30.4824 31.7984 23.0129 34.1166V25.3906C23.0129 23.4967 20.0832 23.4967 20.0832 25.3906V35.218C1.91447 43.466 1.9254 69.4553 20.0832 77.6957V92.5043C20.0832 96.6375 23.4457 100 27.5787 100H63.6641C65.5881 99.9391 65.6166 97.142 63.6641 97.0703H27.5787C25.0611 97.0703 23.0129 95.0221 23.0129 92.5043V86.7818H76.3844V92.5043C76.3947 95.1578 74.1084 97.2389 71.4768 97.0703C70.6678 97.0703 70.0119 97.7262 70.0119 98.5352C70.0119 99.3441 70.6678 100 71.4768 100H71.8184C75.9516 100 79.3141 96.6375 79.3141 92.5043V57.308H85.2951C89.5473 57.308 93.0065 53.8486 93.0065 49.5967V24.0268C93.0065 19.7746 89.5471 16.3152 85.2949 16.3152ZM23.0127 9.075V7.4957C23.0127 4.97793 25.0609 2.92969 27.5785 2.92969H71.818C74.3358 2.92969 76.384 4.97793 76.384 7.4957V9.075H23.0127ZM9.32033 56.4568C9.31388 37.7852 32.693 28.9674 45.0059 42.9605V49.5967C45.0059 52.9334 47.1361 55.7816 50.108 56.8535C49.999 62.3967 47.6119 67.7033 43.5207 71.4666C43.2192 71.7439 43.0475 72.135 43.0475 72.5447V76.0986L39.8697 74.7561C39.4795 74.5912 39.0373 74.6037 38.6567 74.7893C25.4047 81.4637 9.13869 71.307 9.32033 56.4568ZM76.3842 83.8521H23.0127V78.7971C28.2674 80.4041 34.3192 80.0256 39.3318 77.7094L43.942 79.6572C45.1033 79.9357 45.7817 79.4857 45.977 78.3078V73.1752C50.2713 68.9963 52.8053 63.2871 53.0256 57.3082H56.6211V61.6209C56.6211 62.8486 58.1102 63.5527 59.0551 62.7193L65.1875 57.3082H76.3842V83.8521ZM90.0768 49.5967C90.0768 52.2334 87.9317 54.3783 85.2951 54.3783H64.6338C64.2768 54.3783 63.9322 54.5086 63.6647 54.7447L59.5508 58.3746V55.8432C59.5508 55.034 58.8949 54.3783 58.086 54.3783H52.7172C50.0805 54.3783 47.9356 52.2334 47.9356 49.5967V42.4758C47.9371 42.4377 47.9371 42.3994 47.9356 42.3611V24.0268C47.9356 21.39 50.0807 19.2451 52.7172 19.2451H85.2949C87.9317 19.2451 90.0766 21.39 90.0766 24.0268V49.5967H90.0768Z" fill="#0094F4"/>
<path d="M84.933 33.7999C83.6121 32.3743 80.7379 32.155 79.0219 33.2282V28.7188C78.957 26.7839 76.1597 26.7766 76.0922 28.7188V44.5825C76.0922 46.4765 79.0219 46.4765 79.0219 44.5825V39.137C79.0219 36.9845 80.0646 35.4807 81.558 35.4807C83.547 35.4807 83.5816 37.594 83.5736 39.1423L83.5937 44.5878C83.6004 46.4268 86.5304 46.5079 86.5234 44.577L86.5033 39.1446C86.5166 36.5886 86.0176 34.8903 84.933 33.7999Z" fill="#0094F4"/>
<path d="M73.8414 38.5149H73.2381C73.2623 34.5239 73.2766 30.117 73.2276 29.5295C73.132 28.3834 72.4541 27.452 71.5004 27.1569C71.0484 27.0168 69.8805 26.8354 68.7955 28.1663C67.8674 29.3049 63.2662 37.6174 62.3533 39.2721C61.7963 40.2817 62.6168 41.4446 63.6359 41.4446H70.2885C70.2801 42.6208 70.2711 43.7526 70.2623 44.7637C70.2553 45.5727 70.9055 46.234 71.7145 46.2411C72.5219 46.2483 73.1854 45.5981 73.1918 44.7887C73.1971 44.1821 73.2074 42.9536 73.2184 41.4444H73.8412C75.7807 41.3778 75.7797 38.5815 73.8414 38.5149ZM70.3076 38.5149H66.1236C67.7662 35.5696 69.3914 32.719 70.3289 31.1653C70.3356 32.7963 70.325 35.6059 70.3076 38.5149Z" fill="#0094F4"/>
<path d="M61.8631 43.274C59.9163 43.2984 57.8387 43.3144 56.2764 43.3109C57.1928 42.0982 58.5795 40.2264 60.5846 37.3617C61.5702 35.9535 62.6575 34.168 62.6575 32.365C62.4754 25.5812 53.003 24.665 51.5165 31.2767C51.3606 32.0705 51.8778 32.8406 52.6715 32.9965C53.4657 33.1521 54.2354 32.6351 54.3913 31.8414C55.0907 28.7195 59.5496 29.091 59.7266 32.282C59.534 33.533 58.9059 34.6513 58.1844 35.6818C55.6055 39.3666 54.0665 41.382 53.2395 42.4648C52.2465 43.7652 51.8749 44.2517 52.1317 45.0873C52.2799 45.5693 52.6461 46.0396 53.1372 46.2035C53.1372 46.2035 59.3737 46.2353 61.8998 46.2035C63.7924 46.1797 63.7596 43.2353 61.8631 43.274Z" fill="#0094F4"/>
<path d="M7.95976 35.3492C8.90058 36.9174 11.4443 35.4621 10.4717 33.8416L8.32128 30.2586C7.34648 28.6346 4.83456 30.1424 5.80937 31.7662L7.95976 35.3492Z" fill="#0094F4"/>
<path d="M5.74614 37.7209L2.24458 35.4881C0.647315 34.4707 -0.927489 36.94 0.669581 37.9584L4.17114 40.1912C5.70669 41.1693 7.38169 38.7639 5.74614 37.7209Z" fill="#0094F4"/>
<path d="M91.9369 61.8587C91.5478 60.005 88.6806 60.6071 89.0697 62.4606L89.9289 66.5542C90.3109 68.3747 93.1876 67.8173 92.796 65.9522L91.9369 61.8587Z" fill="#0094F4"/>
<path d="M99.677 61.8013L97.1001 58.5375C95.9268 57.0507 93.627 58.8664 94.8009 60.3529L97.3778 63.6168C98.5831 65.1437 100.83 63.2613 99.677 61.8013Z" fill="#0094F4"/>
</svg>
